<svg xmlns="http://www.w3.org/2000/svg"  viewBox="0 0 64 64" width="24px" height="24px"><path d="M 18.84375 8.0058594 C 18.732305 8.0143945 18.621016 8.0330469 18.509766 8.0605469 C 17.619766 8.2905469 17 9.08 17 10 C 17 11.666618 17.998213 15.698359 20.876953 18.142578 C 20.822978 18.273383 20.760273 18.40164 20.703125 18.53125 C 19.667368 18.233672 18.53267 18.012049 17.339844 18 C 15.829844 17.99 10.829844 18.090312 8.8398438 20.070312 C 8.1298438 20.770312 7.9902344 21.51 7.9902344 22 C 7.9902344 24.43 10.804297 28.98 16.154297 29 C 16.454452 29 16.746617 28.984132 17.033203 28.960938 C 17.012385 29.527499 17 30.095061 17 30.660156 C 17 35.050156 18.570937 37.770156 19.960938 40.160156 C 20.776929 41.570246 21.462989 42.774083 21.791016 44.189453 C 21.177766 45.291247 20.962891 46.996177 20.962891 50.136719 C 20.962891 53.558719 24.376 57.011719 32 57.011719 C 39.624 57.011719 43.037109 53.558719 43.037109 50.136719 C 43.037109 46.993362 42.825068 45.287234 42.210938 44.185547 C 42.539359 42.771991 43.223874 41.56886 44.039062 40.160156 C 45.429062 37.770156 47 35.050156 47 30.660156 C 47 30.095061 46.987615 29.527499 46.966797 28.960938 C 47.253383 28.984132 47.545548 29 47.845703 29 C 53.195703 28.98 56.009766 24.43 56.009766 22 C 56.009766 21.51 55.870156 20.770312 55.160156 20.070312 C 53.170156 18.090313 48.140156 17.98 46.660156 18 C 45.46733 18.012049 44.332632 18.233672 43.296875 18.53125 C 43.239727 18.40164 43.177022 18.273383 43.123047 18.142578 C 46.001787 15.698359 47 11.666618 47 10 C 47 9.08 46.380234 8.2905469 45.490234 8.0605469 C 44.600234 7.8405469 43.680234 8.2407812 43.240234 9.0507812 C 42.092776 11.176073 40.805727 12.164033 39.544922 12.619141 C 37.996259 11.598467 35.704365 11 32 11 C 28.30495 11 26.015349 11.595366 24.466797 12.611328 C 23.188596 12.134142 21.882149 11.129463 20.759766 9.0507812 C 20.383516 8.3420312 19.623867 7.9461133 18.84375 8.0058594 z M 32 15 C 37.62 15 38.100547 16.250234 39.060547 18.740234 C 39.550547 20.000234 40.159922 21.580391 41.419922 23.150391 C 42.809922 24.890391 43 27.920156 43 30.660156 C 43 33.980156 41.830078 36.010156 40.580078 38.160156 C 39.971008 39.206169 39.370189 40.282324 38.894531 41.476562 C 37.132881 40.517229 35.108797 40 32 40 C 28.891203 40 26.866815 40.517229 25.105469 41.476562 C 24.629811 40.282324 24.028992 39.206169 23.419922 38.160156 C 22.169922 36.010156 21 33.980156 21 30.660156 C 21 27.920156 21.190078 24.890391 22.580078 23.150391 C 23.840078 21.580391 24.449453 20.000234 24.939453 18.740234 C 25.899453 16.250234 26.38 15 32 15 z M 17.300781 22 C 17.687276 22.004026 18.100037 22.051597 18.525391 22.123047 C 18.079177 22.97826 17.755793 23.897839 17.53125 24.861328 C 17.10321 24.950551 16.648604 25.01367 16.150391 25 C 13.870391 24.99 12.710234 23.530625 12.240234 22.640625 C 13.110234 22.330625 14.830781 21.97 17.300781 22 z M 46.699219 22 C 49.129219 21.97 50.88 22.330625 51.75 22.640625 C 51.28 23.550625 50.105938 24.99 47.835938 25 C 47.334102 25 46.883582 24.936197 46.464844 24.849609 C 46.240464 23.890467 45.918967 22.974702 45.474609 22.123047 C 45.899963 22.051597 46.312724 22.004026 46.699219 22 z M 23.466797 29.396484 C 22.677797 29.313484 22.094203 30.098172 22.408203 30.826172 C 23.974203 34.461172 26.892156 34.006094 27.535156 33.246094 C 28.041156 32.649094 27.321797 29.805484 23.466797 29.396484 z M 40.533203 29.396484 C 36.678203 29.804484 35.958844 32.649094 36.464844 33.246094 C 37.108844 34.006094 40.025797 34.462172 41.591797 30.826172 C 41.905797 30.097172 41.322203 29.313484 40.533203 29.396484 z M 32 44 C 33.32568 44 34.339287 44.109684 35.183594 44.306641 C 34.361397 45.080712 33.672904 45.830585 34.419922 46.632812 C 35.792516 48.109121 37.78709 48.332674 38.945312 47.507812 C 38.996079 48.106568 39.037109 48.912399 39.037109 50.136719 C 39.037109 51.330719 36.852047 53.011719 31.998047 53.011719 C 27.145047 53.011719 24.962891 51.330719 24.962891 50.136719 C 24.962891 48.913573 25.003993 48.106622 25.054688 47.507812 C 26.213021 48.332363 28.207484 48.10858 29.580078 46.632812 C 30.327659 45.830585 29.638674 45.080533 28.816406 44.306641 C 29.660713 44.109684 30.67432 44 32 44 z"/></svg>