<svg xmlns="http://www.w3.org/2000/svg"  viewBox="0 0 64 64" width="24px" height="24px"><path d="M 46.21875 8.3476562 C 38.922718 8.0640034 28.077937 11.09325 19.585938 19.585938 C 7.2349375 31.934938 6.4339375 49.263063 10.585938 53.414062 C 18.892937 61.723062 31.998062 48.831063 40.414062 40.414062 C 50.774063 30.054062 61.178063 18.349937 53.414062 10.585938 C 52.118125 9.29 49.535128 8.4765894 46.21875 8.3476562 z M 45.443359 12.349609 C 48.082284 12.338308 49.965 12.793125 50.585938 13.414062 C 54.500938 17.330063 50.612938 24.558937 37.585938 37.585938 C 24.559938 50.611937 17.330063 54.501937 13.414062 50.585938 C 12.0747 49.245876 11.45651 41.590392 15.074219 33.216797 C 15.947178 35.448003 17.271776 37.453424 18.800781 38.599609 C 19.687781 39.263609 20.939609 39.081219 21.599609 38.199219 C 22.262609 37.316219 22.083219 36.063391 21.199219 35.400391 C 19.688219 34.267391 18 30.862 18 28 C 18 27.94171 17.987316 27.887108 17.982422 27.830078 C 19.199803 25.993902 20.653503 24.181025 22.382812 22.447266 C 23.126675 26.257514 24.932648 29.760773 27.585938 32.414062 C 28.367937 33.196062 29.633062 33.195062 30.414062 32.414062 C 31.195062 31.633062 31.195062 30.366937 30.414062 29.585938 C 27.778726 26.949661 26.216607 23.220926 26.035156 19.263672 C 27.743609 17.969885 29.492592 16.891256 31.230469 16.005859 C 31.701874 19.055134 32.882128 21.710253 34.585938 23.414062 C 35.367937 24.196063 36.633063 24.195063 37.414062 23.414062 C 38.195062 22.633062 38.195062 21.366937 37.414062 20.585938 C 36.138897 19.310772 35.281694 16.993793 35.060547 14.351562 C 38.970906 12.921135 42.637313 12.361626 45.443359 12.349609 z"/></svg>