<svg xmlns="http://www.w3.org/2000/svg"  viewBox="0 0 64 64" width="24px" height="24px"><path d="M 48.035156 6 C 46.721156 6 45.892547 6.7291719 45.435547 7.4511719 C 44.948547 7.3961719 44.344344 7.4311406 43.777344 7.7441406 C 42.353748 8.5274902 41.70704 10.088959 42.158203 11.488281 C 37.438721 14.420066 34.53988 20.948253 33.705078 23.050781 C 23.255078 30.665781 10.910719 19.060594 10.386719 18.558594 C 10.370675 18.543175 10.352355 18.532356 10.335938 18.517578 C 10.285489 18.472169 10.230562 18.432687 10.175781 18.392578 C 10.122891 18.353888 10.071189 18.314084 10.015625 18.28125 C 9.9631841 18.25015 9.9068143 18.227462 9.8515625 18.201172 C 9.7887309 18.171481 9.7270726 18.139952 9.6621094 18.117188 C 9.6081358 18.098092 9.551927 18.086732 9.4960938 18.072266 C 9.427249 18.054635 9.3590718 18.035576 9.2890625 18.025391 C 9.2287485 18.016503 9.1671905 18.015047 9.1054688 18.011719 C 9.0368536 18.008096 8.9689941 18.004403 8.9003906 18.007812 C 8.8779769 18.008902 8.8565117 18.004011 8.8339844 18.005859 C 8.7881106 18.009696 8.7460225 18.024427 8.7011719 18.03125 C 8.6388378 18.040642 8.577001 18.049174 8.515625 18.064453 C 8.4503647 18.080752 8.3885547 18.102554 8.3261719 18.125 C 8.2641704 18.14718 8.2025588 18.168794 8.1425781 18.197266 C 8.0807664 18.226748 8.0228256 18.261499 7.9648438 18.296875 C 7.9142338 18.327604 7.8646873 18.358927 7.8164062 18.394531 C 7.754406 18.440355 7.6967392 18.490535 7.640625 18.542969 C 7.613952 18.567815 7.5841932 18.586714 7.5585938 18.613281 C 7.545766 18.626629 7.5377748 18.642643 7.5253906 18.65625 C 7.471405 18.715499 7.4235141 18.778455 7.3769531 18.84375 C 7.3469206 18.885902 7.315427 18.926879 7.2890625 18.970703 C 7.2507432 19.034297 7.2206017 19.102137 7.1894531 19.169922 C 7.1650857 19.223188 7.1385774 19.275308 7.1191406 19.330078 C 7.0980642 19.389119 7.0838645 19.450415 7.0683594 19.511719 C 7.0520418 19.576611 7.0351087 19.641113 7.0253906 19.707031 C 7.0167678 19.765552 7.0151058 19.824875 7.0117188 19.884766 C 7.0073532 19.960507 7.003611 20.035609 7.0078125 20.111328 C 7.0088308 20.1292 7.0063128 20.146115 7.0078125 20.164062 C 7.4204161 25.11567 8.5161908 28.53813 10.039062 30.955078 C 9.9399739 34.995256 10.953738 38.177295 13.058594 40.4375 C 13.072617 40.499581 13.079335 40.561343 13.099609 40.623047 C 15.508609 47.957047 24.128156 52.0625 31.535156 52.0625 C 31.690626 52.0625 31.842022 52.052515 31.996094 52.048828 L 31.996094 55.347656 L 29.361328 55.777344 C 28.576328 55.905344 28 56.583906 28 57.378906 C 28 58.274906 28.725094 59 29.621094 59 L 38.378906 59 C 39.273906 59 40 58.274906 40 57.378906 C 40 56.584906 39.422672 55.905344 38.638672 55.777344 L 35.996094 55.347656 L 35.996094 51.513672 C 39.879683 50.497402 42.634624 48.109991 43.75 44.748047 C 45.642462 44.139821 49.264782 42.575552 51.667969 38.960938 C 53.917969 35.573937 54.519078 31.316734 53.455078 26.302734 C 52.220831 20.487932 51.960283 18.562961 52.072266 16.763672 L 55.242188 15.970703 C 55.627188 15.874703 55.919328 15.561875 55.986328 15.171875 C 56.053328 14.781875 55.883688 14.387969 55.554688 14.167969 L 53.203125 12.601562 C 53.364738 12.425288 53.505601 12.231344 53.623047 12.017578 C 54.015047 11.305578 54.107906 10.484031 53.878906 9.7070312 C 53.653906 8.9410312 53.146266 8.3125937 52.447266 7.9335938 C 51.856266 7.6145938 51.209406 7.582625 50.691406 7.640625 C 50.225406 6.826625 49.373156 6 48.035156 6 z M 46.861328 14.035156 C 47.345828 14.027781 47.833125 14.104625 48.328125 14.265625 C 47.851125 17.679625 47.803922 18.932813 49.544922 27.132812 C 50.372922 31.036813 49.973375 34.259891 48.359375 36.712891 C 46.023375 40.262891 41.809234 41.150062 41.740234 41.164062 C 41.736717 41.164746 41.733978 41.167267 41.730469 41.167969 C 41.601222 41.193927 41.47381 41.231025 41.353516 41.28125 C 41.235043 41.330844 41.120234 41.393844 41.013672 41.464844 C 40.965991 41.496714 40.925344 41.536631 40.880859 41.572266 C 40.824802 41.617025 40.765943 41.658337 40.714844 41.708984 C 40.675352 41.748268 40.64343 41.793608 40.607422 41.835938 C 40.56056 41.890793 40.509681 41.94188 40.46875 42.001953 C 40.396167 42.108662 40.336127 42.222734 40.285156 42.341797 C 40.259458 42.402007 40.24454 42.467768 40.224609 42.53125 C 40.204919 42.593762 40.179523 42.654136 40.166016 42.71875 C 40.164896 42.724112 40.163187 42.728995 40.162109 42.734375 C 39.276109 47.155375 34.475125 47.914156 32.453125 48.035156 C 28.225713 48.286763 23.207988 46.770134 19.931641 43.833984 C 20.797285 43.95985 21.605269 44.009766 22.279297 44.009766 C 23.444297 44.009766 24.231266 43.888047 24.322266 43.873047 C 25.412266 43.696047 26.152609 42.668125 25.974609 41.578125 C 25.797609 40.488125 24.781688 39.750781 23.679688 39.925781 C 23.634687 39.932781 19.110563 40.585609 16.351562 38.099609 C 15.513406 37.344252 14.905076 36.344253 14.517578 35.119141 C 16.434763 36.123345 18.548377 36.618627 20.671875 36.972656 C 20.782875 36.991656 20.893953 37 21.001953 37 C 21.961953 37 22.809656 36.306172 22.972656 35.326172 C 23.153656 34.237172 22.417125 33.207391 21.328125 33.025391 C 18.258764 32.51383 15.671268 31.82279 13.828125 29.421875 C 13.743032 29.253976 13.639021 29.097894 13.511719 28.960938 C 12.791743 27.88904 12.198217 26.516728 11.753906 24.730469 C 18.175592 29.034302 28.132886 32.51055 36.601562 25.873047 C 36.894563 25.644047 37.118094 25.336328 37.246094 24.986328 C 38.154094 22.511328 41.393062 15.767594 45.414062 14.308594 C 45.895063 14.134094 46.376828 14.042531 46.861328 14.035156 z"/></svg>