<svg xmlns="http://www.w3.org/2000/svg"  viewBox="0 0 64 64" width="24px" height="24px"><path d="M 32 11 C 18.767 11 8 20.42 8 32 C 8 43.58 18.767 53 32 53 C 45.233 53 56 43.58 56 32 C 56 20.42 45.233 11 32 11 z M 32 15 C 41.449377 15 49.371666 20.605336 51.451172 28.105469 C 50.191558 34.965134 46.836044 36.112567 43.865234 37.113281 C 43.225234 37.329281 42.620781 37.533109 42.050781 37.787109 C 41.069781 38.226109 40.345078 38.715438 39.705078 39.148438 C 38.237078 40.141438 36.97 41 32 41 C 26.698 41 25.307906 40.165203 23.003906 38.783203 C 21.875906 38.107203 20.779547 37.809875 19.810547 37.546875 C 18.565547 37.208875 17.490391 36.915891 16.275391 35.837891 C 14.584538 34.336967 12.83642 32.242419 12.521484 28.197266 C 14.561105 20.650692 22.511797 15 32 15 z M 32 19 C 26.953 19 23 22.075 23 26 C 23 29.925 26.953 33 32 33 C 37.047 33 41 29.925 41 26 C 41 22.075 37.047 19 32 19 z M 32 23 C 34.946 23 37 24.581 37 26 C 37 27.419 34.946 29 32 29 C 29.054 29 27 27.419 27 26 C 27 24.581 29.054 23 32 23 z M 50.671875 38.039062 C 47.797778 44.436027 40.523326 49 32 49 C 23.885078 49 16.898408 44.863751 13.765625 38.947266 C 15.625832 40.545187 17.361035 41.026106 18.761719 41.40625 C 19.584719 41.63025 20.295266 41.822844 20.947266 42.214844 C 23.826266 43.941844 25.899 45 32 45 C 37.751 45 39.750266 43.947937 41.947266 42.460938 C 42.523266 42.070938 43.020641 41.734453 43.681641 41.439453 C 44.078641 41.261453 44.594578 41.087344 45.142578 40.902344 C 46.705079 40.375942 48.768023 39.669268 50.671875 38.039062 z"/></svg>