<svg xmlns="http://www.w3.org/2000/svg"  viewBox="0 0 64 64" width="24px" height="24px"><path d="M 31.166016 12.007812 C 30.432016 11.946813 29.738937 12.285625 29.335938 12.890625 C 28.294937 14.452625 27.483859 16.035109 27.005859 17.037109 C 24.186859 18.310109 21.337719 20.13275 18.511719 22.46875 C 16.264719 20.20875 13.666422 18.270031 11.732422 16.957031 C 9.7784219 15.626031 7.1899688 15.688328 5.2929688 17.111328 C 3.3069687 18.599328 2.5473125 21.249594 3.4453125 23.558594 C 3.9303125 24.805594 5.5135625 29.101734 5.4765625 32.052734 C 5.5145625 34.904734 3.9303594 39.194359 3.4433594 40.443359 C 2.5463594 42.751359 3.3070625 45.401719 5.2890625 46.886719 C 7.1350625 48.272719 9.8264219 48.337969 11.732422 47.042969 C 13.605422 45.770969 16.132516 43.891547 18.353516 41.685547 C 23.583516 45.823547 29.304 48 35 48 C 49.922 48 58.380422 33.610047 58.732422 32.998047 C 59.098422 32.362047 59.086172 31.574219 58.701172 30.949219 C 47.974172 13.537219 31.633016 12.046812 31.166016 12.007812 z M 31.994141 16.173828 C 33.988136 16.553212 38.307479 17.664177 43.126953 20.675781 C 40.510631 23.524543 39 27.589237 39 32 C 39 35.986138 40.235808 39.689573 42.404297 42.46875 C 40.18414 43.401121 37.711833 44 35 44 C 29.672 44 24.460766 41.794312 19.509766 37.445312 C 19.129766 37.111312 18.660406 36.947266 18.191406 36.947266 C 17.637406 36.947266 17.085453 37.175047 16.689453 37.623047 C 14.488453 40.123047 11.555422 42.326375 9.4824219 43.734375 C 8.9514219 44.098375 8.2085 44.0805 7.6875 43.6875 C 7.1335 43.2725 6.9209219 42.534531 7.1699219 41.894531 C 8.0499219 39.637531 9.5186094 35.353734 9.4746094 32.052734 C 9.5186094 28.656734 8.049875 24.363422 7.171875 22.107422 C 6.921875 21.465422 7.1354531 20.726547 7.6894531 20.310547 C 8.2194531 19.913547 8.9394219 19.896625 9.4824219 20.265625 C 11.623422 21.720625 14.640797 23.989969 16.841797 26.542969 C 17.192797 26.949969 17.691562 27.197422 18.226562 27.232422 C 18.758562 27.270422 19.2885 27.085516 19.6875 26.728516 C 22.9095 23.851516 26.134438 21.725156 29.273438 20.410156 C 29.743437 20.213156 30.119172 19.845859 30.326172 19.380859 C 30.521172 18.943859 31.133141 17.619828 31.994141 16.173828 z M 46.433594 23.013672 C 49.243591 25.242589 52.0831 28.164764 54.619141 32.005859 C 53.387195 33.810858 50.419169 37.672421 46.025391 40.53125 C 44.136918 38.417235 43 35.316761 43 32 C 43 28.44472 44.293422 25.119781 46.433594 23.013672 z M 48 29 C 46.895 29 46 29.895 46 31 C 46 32.105 46.895 33 48 33 C 49.105 33 50 32.105 50 31 C 50 29.895 49.105 29 48 29 z"/></svg>