<svg xmlns="http://www.w3.org/2000/svg"  viewBox="0 0 64 64" width="24px" height="24px"><path d="M 24 5 C 22.896 5 22 5.896 22 7 L 22 10 L 16 10 C 14.896 10 14 10.896 14 12 L 14 24.035156 C 12.956532 24.11936 11.979415 24.587507 11.289062 25.386719 C 10.528062 26.267719 10.191328 27.433937 10.361328 28.585938 L 13.515625 49.880859 C 13.949625 52.799859 16.501172 55 19.451172 55 L 44.548828 55 C 47.498828 55 50.050375 52.799859 50.484375 49.880859 L 53.638672 28.585938 C 53.808672 27.433938 53.470937 26.268719 52.710938 25.386719 C 52.021464 24.586566 51.043663 24.117231 50 24.033203 L 50 16 C 50 14.896 49.104 14 48 14 L 42 14 L 42 12 C 42 10.896 41.104 10 40 10 L 34 10 L 34 7 C 34 5.896 33.104 5 32 5 L 24 5 z M 26 9 L 30 9 L 30 31.650391 C 27.672894 30.824448 26 28.607142 26 26 L 26 12 L 26 9 z M 18 14 L 22 14 L 22 24 L 18 24 L 18 14 z M 34 14 L 38 14 L 38 16 L 38 26 C 38 28.607142 36.327106 30.824448 34 31.650391 L 34 14 z M 42 18 L 46 18 L 46 24 L 42 24 L 42 18 z M 15.476562 28 L 22.201172 28 C 23.130172 32.559 27.171 36 32 36 C 36.829 36 40.869828 32.559 41.798828 28 L 48.523438 28 C 49.133438 28 49.600719 28.541484 49.511719 29.146484 L 46.527344 49.292969 C 46.381344 50.273969 45.539828 51 44.548828 51 L 19.451172 51 C 18.460172 51 17.618656 50.273969 17.472656 49.292969 L 14.488281 29.146484 C 14.399281 28.541484 14.866562 28 15.476562 28 z"/></svg>