<svg xmlns="http://www.w3.org/2000/svg"  viewBox="0 0 64 64" width="24px" height="24px"><path d="M 54.972656 9 C 54.778656 9.005 50.179875 9.162875 47.171875 12.171875 C 44.162875 15.179875 44.006 19.778656 44 19.972656 C 43.986 20.537656 44.439 21 45 21 C 47.269 21 50.746125 19.910172 52.828125 17.826172 C 55.837125 14.818172 55.994 10.219391 56 10.025391 C 56.013 9.5033906 55.600656 8.981 54.972656 9 z M 38 12.013672 C 37.733 12.013672 37.465844 12.111094 37.277344 12.308594 C 37.144344 12.447594 34 15.781 34 20 C 34 20.459 34.109875 24.482078 37.296875 27.705078 C 38.928875 29.336078 42.106 31 45 31 C 49.219 31 52.552406 27.856656 52.691406 27.722656 C 53.154406 27.280656 53.049406 26.619344 52.691406 26.277344 C 52.552406 26.143344 49.219 23 45 23 C 43.602 23 42.304547 23.347453 41.185547 23.814453 C 41.651547 22.694453 42 21.398 42 20 C 42 15.781 38.856656 12.447594 38.722656 12.308594 C 38.534156 12.111094 38.267 12.013672 38 12.013672 z M 30 20.013672 C 29.733 20.013672 29.465844 20.111094 29.277344 20.308594 C 29.144344 20.447594 26 23.781 26 28 C 26 28.459 26.109875 32.482078 29.296875 35.705078 C 30.928875 37.336078 34.106 39 37 39 C 41.219 39 44.552406 35.856656 44.691406 35.722656 C 45.154406 35.280656 45.049406 34.619344 44.691406 34.277344 C 44.552406 34.143344 41.219 31 37 31 C 35.602 31 34.304547 31.347453 33.185547 31.814453 C 33.651547 30.694453 34 29.398 34 28 C 34 23.781 30.856656 20.447594 30.722656 20.308594 C 30.534156 20.111094 30.267 20.013672 30 20.013672 z M 22 28.013672 C 21.733 28.013672 21.465844 28.111094 21.277344 28.308594 C 21.144344 28.447594 18 31.781 18 36 C 18 38.829 19.610875 42.018078 21.296875 43.705078 C 22.928875 45.336078 26.106 47 29 47 C 33.219 47 36.552406 43.856656 36.691406 43.722656 C 37.154406 43.280656 37.049406 42.619344 36.691406 42.277344 C 36.552406 42.143344 33.219 39 29 39 C 27.602 39 26.304547 39.347453 25.185547 39.814453 C 25.651547 38.694453 26 37.398 26 36 C 26 31.781 22.856656 28.447594 22.722656 28.308594 C 22.534156 28.111094 22.267 28.013672 22 28.013672 z M 14 36.013672 C 13.733 36.013672 13.465844 36.111094 13.277344 36.308594 C 13.144344 36.447594 10 39.781 10 44 C 10 46.829 11.610875 50.018078 13.296875 51.705078 C 14.928875 53.336078 18.106 55 21 55 C 25.219 55 28.552406 51.856656 28.691406 51.722656 C 29.154406 51.280656 29.049406 50.619344 28.691406 50.277344 C 28.552406 50.143344 25.219 47 21 47 C 19.602 47 18.304547 47.347453 17.185547 47.814453 C 17.651547 46.694453 18 45.398 18 44 C 18 39.781 14.856656 36.447594 14.722656 36.308594 C 14.534156 36.111094 14.267 36.013672 14 36.013672 z"/></svg>