<svg xmlns="http://www.w3.org/2000/svg"  viewBox="0 0 64 64" width="24px" height="24px"><path d="M 24 5 C 22.896 5 22 5.896 22 7 L 22 10 C 22 11.104 22.896 12 24 12 C 25.104 12 26 11.104 26 10 L 26 7 C 26 5.896 25.104 5 24 5 z M 40 5 C 38.896 5 38 5.896 38 7 L 38 10 C 38 11.104 38.896 12 40 12 C 41.104 12 42 11.104 42 10 L 42 7 C 42 5.896 41.104 5 40 5 z M 32 6 C 30.896 6 30 6.896 30 8 L 30 11 C 30 12.104 30.896 13 32 13 C 33.104 13 34 12.104 34 11 L 34 8 C 34 6.896 33.104 6 32 6 z M 13 16 C 11.896 16 11 16.896 11 18 C 11 19.104 11.896 20 13 20 L 13.107422 20 C 13.685247 25.495091 16.625334 30.284749 20.878906 33.371094 L 17.042969 51.587891 C 16.815969 52.668891 17.506891 53.729031 18.587891 53.957031 C 18.726891 53.986031 18.864953 54 19.001953 54 C 19.927953 54 20.759031 53.354109 20.957031 52.412109 L 22.517578 45 L 42.443359 45 L 43.105469 47.251953 C 42.424408 47.969185 42 48.93294 42 50 C 42 52.209 43.791 54 46 54 C 48.209 54 50 52.209 50 50 C 50 48.118835 48.697021 46.551953 46.947266 46.125 L 43.181641 33.326172 C 47.402211 30.238253 50.317519 25.468785 50.892578 20 L 51 20 C 52.104 20 53 19.104 53 18 C 53 16.896 52.104 16 51 16 L 13 16 z M 17.150391 20 L 46.849609 20 C 45.86656 27.326398 39.591201 33 32 33 C 24.408799 33 18.13344 27.326398 17.150391 20 z M 39.617188 35.392578 L 41.267578 41 L 23.359375 41 L 24.525391 35.462891 C 26.8212 36.449294 29.346921 37 32 37 C 34.709553 37 37.282643 36.419054 39.617188 35.392578 z"/></svg>