<svg xmlns="http://www.w3.org/2000/svg"  viewBox="0 0 64 64" width="24px" height="24px"><path d="M 21 11 C 20.448 11 20 11.448 20 12 L 18 12 C 14.686 12 12 14.686 12 18 L 12 46 C 12 49.314 14.686 52 18 52 L 46 52 C 49.314 52 52 49.314 52 46 L 52 18 C 52 14.686 49.314 12 46 12 L 44 12 C 44 11.448 43.552 11 43 11 L 35 11 C 34.448 11 34 11.448 34 12 L 30 12 C 30 11.448 29.552 11 29 11 L 21 11 z M 18 16 L 46 16 C 47.105 16 48 16.895 48 18 L 48 46 C 48 47.105 47.105 48 46 48 L 18 48 C 16.895 48 16 47.105 16 46 L 16 18 C 16 16.895 16.895 16 18 16 z M 22 20 C 20.895 20 20 20.895 20 22 C 20 23.105 20.895 24 22 24 C 23.105 24 24 23.105 24 22 C 24 20.895 23.105 20 22 20 z M 28 20 C 26.895 20 26 20.895 26 22 C 26 23.105 26.895 24 28 24 C 29.105 24 30 23.105 30 22 C 30 20.895 29.105 20 28 20 z M 34 20 C 32.895 20 32 20.895 32 22 C 32 23.105 32.895 24 34 24 C 35.105 24 36 23.105 36 22 C 36 20.895 35.105 20 34 20 z M 42 20 C 40.895 20 40 20.895 40 22 C 40 23.105 40.895 24 42 24 C 43.105 24 44 23.105 44 22 C 44 20.895 43.105 20 42 20 z M 22 27 C 20.895 27 20 27.895 20 29 L 20 41.998047 C 20 43.103047 20.895 43.998047 22 43.998047 L 42 43.998047 C 43.105 43.998047 44 43.103047 44 41.998047 L 44 29 C 44 27.895 43.105 27 42 27 L 22 27 z M 24.5 31 L 39.5 31 C 39.776 31 40 31.224 40 31.5 L 40 39.498047 C 40 39.774047 39.776 39.998047 39.5 39.998047 L 24.5 39.998047 C 24.224 39.998047 24 39.774047 24 39.498047 L 24 31.5 C 24 31.224 24.224 31 24.5 31 z"/></svg>