<svg xmlns="http://www.w3.org/2000/svg"  viewBox="0 0 64 64" width="24px" height="24px"><path d="M 49.873047 9.0058594 C 48.947119 9.0672324 48.154281 9.7654062 48.019531 10.722656 C 47.561173 14.003867 46.05007 15.695388 45.123047 16.455078 C 41.100367 13.229318 30.276543 6.6085328 21.890625 15.181641 C 21.595625 15.482641 21.079781 16.186594 21.050781 17.433594 C 21.04001 17.900654 21.109482 18.410385 21.244141 18.955078 C 7.5981842 33.415507 9.3091423 43.045627 11.601562 47.556641 C 10.832574 48.862003 11.040219 50.610531 12.214844 51.785156 C 13.386734 52.957046 15.129192 53.164965 16.433594 52.402344 C 18.043347 53.220181 20.302816 53.964844 23.205078 53.964844 C 28.430026 53.964844 35.730598 51.536145 45.017578 42.785156 C 45.551596 42.922954 46.053142 43 46.513672 43 C 47.291672 43 48.260156 42.789187 48.910156 42.117188 C 57.262436 33.466246 50.993506 23.320737 47.888672 19.332031 C 49.406988 18.003112 51.387082 15.525002 51.980469 11.277344 C 52.133469 10.183344 51.371344 9.1725313 50.277344 9.0195312 C 50.141219 9.0011563 50.005322 8.9970918 49.873047 9.0058594 z M 32.009766 14.955078 C 38.000908 15.131876 43.520328 20.350094 43.587891 20.414062 C 43.690891 20.519062 53.664375 30.837281 46.359375 38.988281 C 45.550375 38.891281 42.220297 37.960531 34.154297 29.894531 C 26.030297 21.770531 25.145594 18.452781 25.058594 17.675781 C 27.249531 15.590031 29.665406 14.885896 32.009766 14.955078 z M 23.060547 22.875 C 24.751253 25.605163 27.484731 28.881216 31.326172 32.722656 C 35.138986 36.53603 38.396136 39.259027 41.115234 40.953125 C 25.114329 55.377705 17.277382 48.45121 16.414062 47.587891 C 15.550528 46.723386 8.6217238 38.884767 23.060547 22.875 z"/></svg>