<svg xmlns="http://www.w3.org/2000/svg"  viewBox="0 0 64 64" width="24px" height="24px" clip-rule="evenodd" baseProfile="basic"><path fill="#060000" d="M17.126,60.259c-1.264,0-2.467-0.305-3.525-0.916c-4.223-2.438-4.997-8.733-1.765-14.332 c1.477-2.557,3.594-4.571,5.961-5.669c2.567-1.19,5.238-1.177,7.334,0.032c2.096,1.21,3.443,3.519,3.694,6.335 c0.233,2.6-0.452,5.439-1.929,7.997c-1.477,2.557-3.594,4.571-5.961,5.669C19.664,59.964,18.366,60.259,17.126,60.259z M21.611,42.41c-0.848,0-1.642,0.289-2.148,0.523c-1.611,0.747-3.141,2.226-4.198,4.057c-2.052,3.554-1.907,7.64,0.315,8.923 c1.32,0.761,2.876,0.245,3.687-0.131c1.611-0.747,3.141-2.226,4.198-4.057c1.058-1.831,1.573-3.895,1.414-5.664 c-0.079-0.89-0.41-2.497-1.729-3.259l0,0C22.654,42.515,22.123,42.41,21.611,42.41z"/><path fill="#060000" d="M40.474,60.983c-4.759,0-8.488-5.049-8.488-11.494c0-6.445,3.729-11.493,8.488-11.493 s8.488,5.049,8.488,11.493C48.961,55.935,45.233,60.983,40.474,60.983z M40.474,41.943c-2.505,0-4.622,3.455-4.622,7.546 s2.117,7.547,4.622,7.547s4.622-3.456,4.622-7.547S42.979,41.943,40.474,41.943z"/><path fill="#060000" fill-rule="evenodd" d="M55.996,29.54c1.09,0.183,1.824,1.214,1.642,2.303	c-0.183,1.088-1.207,1.826-2.304,1.641c-17.544-2.947-28.895,9.363-29.007,9.488c-0.395,0.437-2.03,0.374-2.411,0.03	c-0.82-0.738-1.301-1.881-0.565-2.703c0.166-0.185,1.559-1.703,4.019-3.568c-1.498-0.641-3.012-1.386-4.487-2.237	c-8.202-4.735-11.538-14.019-11.676-14.412c-0.193-0.55-0.137-1.157,0.154-1.663c0.292-0.505,0.79-0.858,1.362-0.965	c0.405-0.078,9.861-1.773,17.993,2.733c0.444-8.967,6.339-15.959,6.6-16.263c0.76-0.886,2.275-0.886,3.035,0	c0.271,0.316,6.644,7.847,6.644,17.317c0,3.15-0.513,5.748-1.149,7.996C48.961,28.891,52.352,28.928,55.996,29.54z M38.84,8.63	c-1.683,2.596-4.649,7.294-4.12,14.106c2.998,2.169,5.399,4.542,6.86,6.802c0.758-2.345,1.417-4.956,1.417-8.297	C42.997,15.929,40.521,11.218,38.84,8.63z M24.884,31.03c2.184,1.261,4.451,2.288,6.575,2.987c1.831-1.057,3.954-2.078,6.338-2.923	c-1.771-2.398-5-5.106-8.751-7.272c-4.578-2.643-9.914-2.859-12.998-2.699C17.455,23.878,20.307,28.387,24.884,31.03z" clip-rule="evenodd"/></svg>