<svg xmlns="http://www.w3.org/2000/svg"  viewBox="0 0 64 64" width="24px" height="24px"><path d="M 16.228516 8.0117188 C 16.074859 7.9940312 15.917469 7.9946719 15.761719 8.0136719 C 15.132719 8.0896719 14.576672 8.4588125 14.263672 9.0078125 C 14.133672 9.2338125 13 11.311 13 14.5 C 13 17.42304 13.985987 19.740545 15.974609 21.556641 C 15.336555 22.754779 14.755121 24.054216 14.246094 25.482422 C 9.2420937 31.880422 9.5798906 39.064891 10.587891 42.337891 C 12.218891 47.642891 15.975234 49.851156 21.115234 51.535156 L 21.75 51.738281 C 22.759 52.059281 23.711516 52.36375 24.478516 52.84375 C 26.730516 54.25475 29.332 55 32 55 C 34.668 55 37.268531 54.25475 39.519531 52.84375 C 40.286531 52.36375 41.239047 52.059281 42.248047 51.738281 L 42.882812 51.535156 C 48.021812 49.851156 51.779156 47.642891 53.410156 42.337891 C 54.418156 39.064891 54.755953 31.881422 49.751953 25.482422 C 49.243138 24.05437 48.663251 22.754674 48.025391 21.556641 C 50.014013 19.740545 51 17.42304 51 14.5 C 51 11.311 49.866328 9.2347656 49.736328 9.0097656 C 49.426328 8.4647656 48.870047 8.1034375 48.248047 8.0234375 C 47.638047 7.9404375 46.999547 8.1652812 46.560547 8.6132812 C 46.560547 8.6132813 45.378609 9.8013125 43.474609 10.320312 C 41.263625 10.923183 39.712184 11.825224 38.703125 13.080078 C 36.693992 12.366584 34.467179 12 32 12 C 29.532821 12 27.306031 12.366584 25.296875 13.080078 C 24.287602 11.824933 22.736008 10.923271 20.525391 10.320312 C 18.621391 9.8013125 17.451172 8.6230469 17.451172 8.6230469 C 17.124922 8.2780469 16.689484 8.0647812 16.228516 8.0117188 z M 17.089844 13.228516 C 17.763844 13.588516 18.562609 13.930687 19.474609 14.179688 C 20.443999 14.444134 21.09273 14.733924 21.537109 15.017578 C 20.319283 15.873808 19.209414 16.909155 18.212891 18.136719 C 17.381043 17.171006 17 16.019722 17 14.5 C 17 14.04 17.034844 13.613516 17.089844 13.228516 z M 46.910156 13.230469 C 46.965156 13.614469 47 14.04 47 14.5 C 47 16.019722 46.618957 17.171356 45.787109 18.136719 C 44.791037 16.909597 43.682105 15.873632 42.464844 15.017578 C 42.9093 14.734331 43.557465 14.443734 44.525391 14.179688 C 45.437391 13.930687 46.236156 13.589469 46.910156 13.230469 z M 32 16 C 39.088 16 43.432891 19.428234 46.087891 27.115234 C 46.163891 27.334234 46.277828 27.539703 46.423828 27.720703 C 50.608828 32.891703 50.323844 38.772156 49.589844 41.160156 C 48.575844 44.459156 46.569672 46.118375 41.638672 47.734375 L 41.037109 47.925781 C 39.835109 48.307781 38.593438 48.702172 37.398438 49.451172 C 34.167437 51.474172 29.833516 51.474172 26.603516 49.451172 C 25.407516 48.702172 24.164891 48.307781 22.962891 47.925781 L 22.363281 47.734375 C 17.432281 46.119375 15.425156 44.459156 14.410156 41.160156 C 13.676156 38.773156 13.393125 32.891703 17.578125 27.720703 C 17.725125 27.540703 17.838062 27.335234 17.914062 27.115234 C 20.568062 19.427234 24.912 16 32 16 z M 26 27 C 24.895 27 24 27.895 24 29 C 24 30.105 24.895 31 26 31 C 27.105 31 28 30.105 28 29 C 28 27.895 27.105 27 26 27 z M 38 27 C 36.895 27 36 27.895 36 29 C 36 30.105 36.895 31 38 31 C 39.105 31 40 30.105 40 29 C 40 27.895 39.105 27 38 27 z M 32 32 C 25.832 32 21 35.514 21 40 C 21 44.486 25.832 48 32 48 C 38.168 48 43 44.486 43 40 C 43 35.514 38.168 32 32 32 z M 32 35 C 36.337 35 40 37.29 40 40 C 40 42.71 36.337 45 32 45 C 27.663 45 24 42.71 24 40 C 24 37.29 27.663 35 32 35 z M 28.5 38 C 27.67 38 27 38.9 27 40 C 27 41.1 27.67 42 28.5 42 C 29.33 42 30 41.1 30 40 C 30 38.9 29.33 38 28.5 38 z M 35.5 38 C 34.67 38 34 38.9 34 40 C 34 41.1 34.67 42 35.5 42 C 36.33 42 37 41.1 37 40 C 37 38.9 36.33 38 35.5 38 z"/></svg>