<svg xmlns="http://www.w3.org/2000/svg"  viewBox="0 0 64 64" width="24px" height="24px"><path d="M 51.087891 2.0039062 C 49.978891 1.9579062 49.053953 2.8111094 49.001953 3.9121094 C 48.986173 4.2373595 48.614729 10.975525 44.140625 12.632812 C 44.698074 11.444597 45 10.134795 45 8.8574219 C 45 6.0604219 43.818547 4.1338281 43.685547 3.9238281 C 43.094547 3.0008281 41.879219 2.7325 40.949219 3.3125 C 40.019219 3.8915 39.735687 5.1215937 40.304688 6.0585938 C 40.311687 6.0695937 41 7.2224219 41 8.8574219 C 41 10.505422 39.909328 12.864859 37.861328 13.005859 C 37.775668 13.011695 37.695384 13.030731 37.613281 13.046875 C 35.72898 13.114692 33.843878 13.319385 31.984375 13.660156 C 31.987857 13.60629 32 13.554729 32 13.5 C 32 12.122 30.879 11 29.5 11 C 28.121 11 27 12.122 27 13.5 C 27 13.980241 27.143131 14.425242 27.378906 14.806641 C 17.776265 17.862996 10 24.765289 10 35.126953 C 10 47.570953 19.346 55 35 55 L 47 55 C 48.104 55 49 54.104 49 53 C 49 52.834662 48.973428 52.677134 48.935547 52.523438 C 48.619288 50.807267 46.751953 49.564453 46.751953 49.564453 C 46.751953 49.564453 47.900286 48.188023 47.984375 46.21875 C 47.987848 46.18701 47.99024 46.155149 47.992188 46.123047 C 47.993204 46.080964 48 46.0426 48 46 C 47.996575 46.000127 47.993657 46.001824 47.990234 46.001953 C 47.990273 45.92613 47.995118 45.850573 47.986328 45.773438 C 47.861328 44.675437 46.853391 43.887672 45.775391 44.013672 C 45.523391 44.042672 39.986516 44.730297 36.853516 49.904297 C 32.979516 49.255297 30 45.463156 30 42.910156 C 30 39.690156 31.595063 38.546891 34.914062 36.462891 C 39.453786 33.612705 45.60417 29.708632 45.964844 16.228516 C 51.115753 14.049093 52.845912 7.7365483 52.998047 4.0820312 C 53.044047 2.9800312 52.189891 2.0519063 51.087891 2.0039062 z M 39 17 L 41.949219 17 C 41.441177 27.631086 36.859684 30.517306 32.787109 33.074219 C 29.450109 35.169219 26 37.336156 26 42.910156 C 26 45.564842 27.505296 48.503504 29.896484 50.691406 C 26.515628 50.267112 23.649633 49.391445 21.314453 48.101562 C 21.602827 47.868546 21.891222 47.612543 22.173828 47.310547 C 22.928828 46.504547 22.886078 45.239375 22.080078 44.484375 C 21.273078 43.729375 20.008906 43.769125 19.253906 44.578125 C 18.783818 45.079845 18.293416 45.37725 17.910156 45.554688 C 16.517589 44.138837 15.479781 42.462577 14.830078 40.527344 C 15.75695 40.781696 16.800672 40.975354 17.957031 41 L 18.001953 41 C 19.086953 41 19.977 40.132969 20 39.042969 C 20.023 37.938969 19.146969 37.023 18.042969 37 C 16.255022 36.962194 14.850601 36.374839 14.039062 35.957031 C 14.027553 35.679465 14 35.411658 14 35.126953 C 14 33.462561 14.265922 31.909946 14.742188 30.464844 C 15.674549 31.061655 16.934999 31.647163 18.630859 31.966797 C 18.755859 31.989797 18.878953 32.001953 19.001953 32.001953 C 19.944953 32.001953 20.784797 31.331094 20.966797 30.371094 C 21.170797 29.285094 20.455141 28.240156 19.369141 28.035156 C 17.892838 27.756586 17.027298 27.231402 16.527344 26.837891 C 20.867589 20.403493 30.134725 17 39 17 z M 33 19 C 31.345 19 30 20.346 30 22 C 30 23.654 31.345 25 33 25 C 34.655 25 36 23.654 36 22 C 36 20.346 34.655 19 33 19 z"/></svg>