<svg xmlns="http://www.w3.org/2000/svg"  viewBox="0 0 64 64" width="24px" height="24px"><path d="M 22.535156 4.5117188 C 22.123656 4.4655938 21.697812 4.5476719 21.320312 4.7636719 C 18.097313 6.6046719 13.8125 9.9790469 13.8125 17.998047 C 13.8125 23.892047 17.535859 26.556 20.255859 28.5 C 22.592859 30.17 23.8125 31.128047 23.8125 32.998047 C 23.8125 35.706047 21.7145 35.998047 20.8125 35.998047 C 18.7935 35.998047 17.8125 34.689047 17.8125 31.998047 C 17.8125 31.147047 17.27375 30.388375 16.46875 30.109375 C 15.66075 29.829375 14.770188 30.090766 14.242188 30.759766 C 11.096187 34.742766 10.055469 39.364094 11.230469 44.121094 C 12.605911 49.692868 16.742153 54.234806 20 55.757812 C 20.023545 55.770601 20.04819 55.78112 20.072266 55.792969 C 20.09469 55.803188 20.118288 55.816244 20.140625 55.826172 C 20.154105 55.832123 20.168106 55.834207 20.181641 55.839844 C 20.281136 55.881633 20.383942 55.914077 20.490234 55.939453 C 20.519001 55.946359 20.547333 55.955347 20.576172 55.960938 C 20.699202 55.984573 20.824287 56 20.953125 56 C 45.825125 56 52.075891 38.298094 53.587891 27.746094 C 53.973891 25.058094 53.170766 22.335391 51.384766 20.275391 C 49.977458 18.652114 48.075011 17.578325 46 17.179688 L 46 11 C 46 9.896 45.104 9 44 9 C 42.896 9 42 9.896 42 11 L 42 17.224609 C 41.462374 17.342019 40.94042 17.503202 40.439453 17.708984 C 39.062635 13.395303 34.961185 9.9140656 28.886719 8.0859375 C 28.142719 7.8609375 27.327547 8.0917344 26.810547 8.6777344 C 26.293547 9.2647344 26.166375 10.0975 26.484375 10.8125 C 27.676375 13.4935 27.629031 15.621891 27.082031 16.462891 C 26.978031 16.623891 26.7345 17 25.8125 17 C 24.8795 17 24.248719 16.322906 23.886719 15.753906 C 22.909719 14.227906 22.388906 11.108891 24.128906 7.3378906 C 24.492906 6.5478906 24.306062 5.6133906 23.664062 5.0253906 C 23.343562 4.7318906 22.946656 4.5578437 22.535156 4.5117188 z M 18.988281 12.390625 C 19.015281 14.448625 19.525578 16.358203 20.517578 17.908203 C 21.774578 19.873203 23.7045 21 25.8125 21 C 27.8065 21 29.447547 20.162625 30.435547 18.640625 C 31.322547 17.277625 31.626469 15.429375 31.355469 13.359375 C 34.662287 15.078443 36.595355 17.48189 36.892578 20.255859 C 35.670179 21.65618 34.837244 23.418559 34.597656 25.386719 C 33.768346 32.22078 30.877038 44.521689 20.857422 51.648438 C 18.788994 50.243401 16.062789 47.002554 15.113281 43.162109 C 14.607281 41.111109 14.645656 39.137906 15.222656 37.253906 C 16.585656 39.214906 18.7425 40 20.8125 40 C 24.1835 40 27.8125 37.81 27.8125 33 C 27.8125 28.985 25.033031 26.998094 22.582031 25.246094 C 20.022031 23.416094 17.8125 21.836 17.8125 18 C 17.8125 15.6 18.260281 13.795625 18.988281 12.390625 z M 44 21 C 44.000663 21 44.00129 21.000001 44.001953 21 L 44.207031 21 C 45.802031 21 47.317328 21.691484 48.361328 22.896484 C 49.388328 24.079484 49.849906 25.640687 49.628906 27.179688 C 48.179906 37.286687 43.010344 49.126734 27.152344 51.552734 C 35.235344 43.503734 37.774359 32.403094 38.568359 25.871094 C 38.733884 24.507113 39.386671 23.312552 40.330078 22.445312 C 40.351527 22.424876 40.372052 22.404175 40.392578 22.382812 C 41.36139 21.520414 42.627661 21.000498 44 21 z"/></svg>