<svg xmlns="http://www.w3.org/2000/svg"  viewBox="0 0 64 64" width="24px" height="24px"><path d="M 32 5.9980469 C 30.896 5.9980469 30 6.8940469 30 7.9980469 L 30 9.9042969 C 18.803292 10.918554 10 20.354067 10 31.810547 C 10 43.941547 19.869 53.810547 32 53.810547 C 44.131 53.810547 54 43.941547 54 31.810547 C 54 26.408937 52.040674 21.458071 48.798828 17.625 L 50.222656 16.201172 C 51.003656 15.419172 51.003656 14.154047 50.222656 13.373047 C 49.441656 12.592047 48.175531 12.593047 47.394531 13.373047 L 45.953125 14.814453 C 42.637737 12.08769 38.513116 10.313119 34 9.9042969 L 34 7.9980469 C 34 6.8940469 33.104 5.9980469 32 5.9980469 z M 32 13.810547 C 41.925 13.810547 50 21.885547 50 31.810547 C 50 41.735547 41.925 49.810547 32 49.810547 C 22.075 49.810547 14 41.735547 14 31.810547 C 14 21.885547 22.075 13.810547 32 13.810547 z M 32 18.880859 C 30.896 18.880859 30 19.776859 30 20.880859 L 30 29.96875 C 29.552911 30.45447 29.273438 31.09644 29.273438 31.808594 C 29.273437 33.314594 30.494 34.535156 32 34.535156 C 33.506 34.535156 34.726562 33.314594 34.726562 31.808594 C 34.726562 31.09644 34.447089 30.45447 34 29.96875 L 34 20.880859 C 34 19.776859 33.104 18.880859 32 18.880859 z"/></svg>