<svg xmlns="http://www.w3.org/2000/svg"  viewBox="0 0 64 64" width="24px" height="24px" clip-rule="evenodd" baseProfile="basic"><path fill="#060000" fill-rule="evenodd" d="M57.678,40.666c0.187,2.666-1.048,5.287-3.224,6.841	l-6.743,4.818c-0.123,0.088-0.234,0.195-0.33,0.318l-6.175,8.084c0,0-1.207,1.085-2.598,0.089c-1.517-1.086-0.561-2.545-0.561-2.545	l6.178-8.087c0.336-0.43,0.726-0.803,1.161-1.114l6.742-4.817c1.052-0.751,1.649-2.018,1.559-3.308	c-0.09-1.29-0.857-2.461-2.004-3.059c-2.419-1.26-3.466-4.207-2.386-6.708l0.958-2.222c0.447-1.037,0.4-2.203-0.128-3.199	c-0.528-0.997-1.467-1.69-2.574-1.902l-0.119-0.022c-2.623-0.502-4.527-2.805-4.527-5.477v-3.679c0-0.46-0.192-0.907-0.527-1.225	c-0.334-0.318-0.784-0.482-1.25-0.463l-2.341,0.12c-2.305,0.123-4.456-1.213-5.384-3.311l-0.381-0.861	c-0.203-0.459-0.622-0.798-1.117-0.901c-0.493-0.105-1.014,0.038-1.386,0.379l-1.109,1.015c-1.206,1.102-2.877,1.546-4.47,1.193	l-0.965-0.215c-0.464-0.103-0.944,0.007-1.319,0.303c-0.373,0.294-0.591,0.736-0.598,1.212l-0.042,2.866	c1.499-0.563,3.147-0.473,4.576,0.273c1.517,0.791,2.579,2.209,2.913,3.889l0.304,1.53c0.021,0.106,0.086,0.198,0.179,0.254	c0.092,0.055,0.202,0.068,0.308,0.036c1.903-0.586,4.009-0.113,5.482,1.238c1.473,1.349,2.128,3.401,1.71,5.355l-0.892,4.161	c-0.024,0.111,0.025,0.223,0.123,0.278c1.641,0.938,2.815,2.531,3.227,4.372s0.025,3.782-1.06,5.327l-1.303,1.854	c-0.426,0.607-0.366,1.438,0.143,1.978c1.992,2.114,2.144,5.31,0.36,7.601l-6.453,8.294l-0.041-0.032C31.23,61.682,30.653,62,30,62	c-0.006,0-0.012,0-0.018,0c-1.104-0.01-1.992-0.913-1.982-2.018c0.123-13.73-1.729-23.955-11.329-32.487	c-0.825-0.734-0.899-1.998-0.166-2.823c0.734-0.826,1.996-0.9,2.824-0.166c9.259,8.23,12.075,18.008,12.582,29.855l3.021-3.883	c0.563-0.724,0.516-1.733-0.112-2.399c-1.807-1.917-2.019-4.869-0.507-7.021l1.302-1.854c0.44-0.626,0.597-1.412,0.43-2.157	c-0.166-0.746-0.642-1.39-1.305-1.77c-1.617-0.924-2.442-2.769-2.053-4.59l0.893-4.161c0.122-0.572-0.07-1.173-0.502-1.569	c-0.431-0.396-1.043-0.534-1.606-0.363c-1.188,0.362-2.475,0.206-3.533-0.427c-1.062-0.635-1.81-1.695-2.05-2.908l-0.304-1.531	c-0.096-0.483-0.402-0.892-0.841-1.121c-0.439-0.231-0.951-0.247-1.403-0.049l-1.421,0.622c-1.479,0.648-3.2,0.353-4.381-0.753	c-0.689-0.645-1.675-0.88-2.584-0.615c-0.904,0.267-1.608,1-1.837,1.915l-0.615,2.46c-0.151,0.606-0.578,1.106-1.152,1.353	L9.761,24.22c-1.002,0.429-1.644,1.41-1.636,2.499c0.008,1.089,0.664,2.061,1.671,2.476l0.533,0.219	c2.951,1.216,4.411,4.623,3.256,7.595l-0.228,0.586c-0.175,0.452-0.13,0.969,0.121,1.384c0.255,0.421,0.682,0.694,1.171,0.75	c0.014,0.001,0.026,0.003,0.04,0.005c1.289,0.155,2.464,0.844,3.228,1.895c0.771,1.057,1.065,2.401,0.808,3.687l-0.233,1.156	c-0.109,0.545,0.021,1.113,0.357,1.558c0.337,0.443,0.849,0.722,1.404,0.763l0.474,0.036C23.121,49.003,25,51.027,25,53.433V57	c0,1.104-0.896,2-2,2s-2-0.896-2-2v-3.567c0-0.323-0.252-0.594-0.573-0.618l-0.469-0.035c-1.7-0.126-3.267-0.977-4.297-2.335	c-1.03-1.359-1.427-3.096-1.091-4.767l0.232-1.152c0.038-0.188-0.005-0.387-0.119-0.543c-0.114-0.157-0.288-0.258-0.479-0.279	c-0.013-0.001-0.025-0.003-0.038-0.005c-1.692-0.202-3.228-1.19-4.11-2.649c-0.89-1.47-1.05-3.302-0.428-4.903l0.228-0.585	c0.372-0.959-0.099-2.057-1.049-2.448l-0.534-0.22c-2.501-1.03-4.129-3.442-4.148-6.146c-0.02-2.704,1.574-5.14,4.061-6.205	l0.677-0.29l0.374-1.498c0.57-2.284,2.329-4.117,4.589-4.782c1.397-0.411,2.872-0.341,4.202,0.15l0.033-2.261	c0.024-1.685,0.797-3.25,2.119-4.293c1.323-1.044,3.025-1.434,4.667-1.067l0.964,0.215c0.322,0.072,0.659-0.019,0.902-0.241	l1.107-1.014c1.321-1.208,3.154-1.71,4.907-1.343c1.751,0.366,3.229,1.562,3.955,3.198l0.371,0.839	c0.271,0.613,0.859,0.988,1.531,0.956l2.339-0.12c1.553-0.082,3.086,0.488,4.212,1.558c1.126,1.07,1.771,2.574,1.771,4.125v3.679	c0.041,1.248,1.398,1.571,1.398,1.571c2.305,0.44,4.257,1.883,5.357,3.958c1.099,2.074,1.196,4.5,0.267,6.656l-0.959,2.222	c-0.254,0.589-0.008,1.281,0.56,1.577C55.904,35.575,57.492,37.999,57.678,40.666z" clip-rule="evenodd"/></svg>