<?xml version="1.0" encoding="UTF-8"?>
<svg xmlns="http://www.w3.org/2000/svg" xmlns:xlink="http://www.w3.org/1999/xlink" width="36pt" height="36pt" viewBox="0 0 36 36" version="1.1">
<g id="surface20200">
<path style=" stroke:none;fill-rule:nonzero;fill:rgb(100%,67.058825%,56.862748%);fill-opacity:1;" d="M 25.257812 10.5 C 23.683594 10.5 22.226562 11.234375 21.003906 12.480469 C 19.78125 11.230469 18.316406 10.5 16.742188 10.5 C 12.464844 10.5 9 15.871094 9 22.5 C 9 29.128906 12.464844 34.5 16.742188 34.5 C 18.308594 34.5 19.761719 33.78125 20.980469 32.542969 L 20.980469 32.484375 C 22.207031 33.75 23.671875 34.5 25.257812 34.5 C 29.535156 34.5 33 29.128906 33 22.5 C 33 15.871094 29.535156 10.5 25.257812 10.5 Z M 25.257812 10.5 "/>
<path style="fill:none;stroke-width:3;stroke-linecap:round;stroke-linejoin:round;stroke:rgb(9.411765%,9.803922%,24.705882%);stroke-opacity:1;stroke-miterlimit:10;" d="M 18.947917 4.5 C 18.947917 4.5 24.052083 7.052083 24.052083 12.15625 " transform="matrix(0.75,0,0,0.75,0,0)"/>
<path style="fill:none;stroke-width:3;stroke-linecap:round;stroke-linejoin:round;stroke:rgb(9.411765%,9.803922%,24.705882%);stroke-opacity:1;stroke-miterlimit:10;" d="M 21.979167 36.21875 C 21.151042 34.755208 20.5 33.046875 20.072917 31.171875 " transform="matrix(0.75,0,0,0.75,0,0)"/>
<path style="fill:none;stroke-width:3;stroke-linecap:round;stroke-linejoin:round;stroke:rgb(9.411765%,9.803922%,24.705882%);stroke-opacity:1;stroke-miterlimit:10;" d="M 38.557292 19.421875 C 39.161458 21.416667 39.5 23.645833 39.5 26 C 39.5 34.5625 35.020833 41.5 29.5 41.5 C 26.5 41.5 23.8125 39.458333 21.979167 36.21875 " transform="matrix(0.75,0,0,0.75,0,0)"/>
<path style="fill:none;stroke-width:3;stroke-linecap:round;stroke-linejoin:round;stroke:rgb(9.411765%,9.803922%,24.705882%);stroke-opacity:1;stroke-miterlimit:10;" d="M 22.385417 15.104167 C 24.203125 12.260417 26.71875 10.5 29.5 10.5 C 31.385417 10.5 33.145833 11.307292 34.651042 12.708333 " transform="matrix(0.75,0,0,0.75,0,0)"/>
<path style="fill:none;stroke-width:3;stroke-linecap:round;stroke-linejoin:round;stroke:rgb(9.411765%,9.803922%,24.705882%);stroke-opacity:1;stroke-miterlimit:10;" d="M 18.239583 41.494792 C 12.838542 41.28125 8.5 34.427083 8.5 26 C 8.5 17.4375 12.979167 10.5 18.5 10.5 C 20.536458 10.5 22.427083 11.442708 24.005208 13.057292 " transform="matrix(0.75,0,0,0.75,0,0)"/>
</g>
</svg>
