<?xml version="1.0" encoding="UTF-8"?>
<svg xmlns="http://www.w3.org/2000/svg" xmlns:xlink="http://www.w3.org/1999/xlink" width="36pt" height="36pt" viewBox="0 0 36 36" version="1.1">
<g id="surface25136">
<path style=" stroke:none;fill-rule:nonzero;fill:rgb(64.705884%,83.92157%,65.490198%);fill-opacity:1;" d="M 30.683594 17.398438 C 30.632812 15.890625 30.261719 14.46875 29.640625 13.195312 C 29.1875 12.261719 28.070312 11.882812 27.136719 12.335938 C 26.765625 12.515625 26.417969 12.722656 26.074219 12.941406 C 25.296875 10.8125 23.699219 8.546875 22.160156 7.472656 C 21.433594 6.964844 20.566406 6.964844 19.84375 7.472656 C 18.121094 8.675781 16.773438 10.65625 16.089844 13.046875 C 15.699219 12.785156 15.292969 12.546875 14.863281 12.335938 C 13.929688 11.882812 12.8125 12.261719 12.359375 13.195312 C 11.738281 14.46875 11.367188 15.890625 11.316406 17.398438 C 11.265625 18.8125 11.507812 20.167969 11.976562 21.414062 C 11.097656 23.304688 12.359375 26.605469 13.851562 28.046875 C 15.007812 29.164062 16.632812 29.464844 18.066406 29.007812 C 18.066406 29.011719 18.070312 29.015625 18.070312 29.019531 L 18.03125 29.019531 L 18.03125 32.007812 C 18.03125 32.960938 18.910156 33.730469 19.996094 33.730469 L 22.003906 33.730469 C 23.089844 33.730469 23.96875 32.960938 23.96875 32.007812 L 23.96875 29.019531 C 25.390625 29.460938 27 29.152344 28.148438 28.046875 C 29.640625 26.605469 30.910156 23.296875 30.019531 21.40625 C 30.488281 20.160156 30.734375 18.808594 30.683594 17.398438 Z M 30.683594 17.398438 "/>
<path style="fill:none;stroke-width:3;stroke-linecap:round;stroke-linejoin:round;stroke:rgb(9.411765%,9.803922%,24.705882%);stroke-opacity:1;stroke-miterlimit:10;" d="M 27.416667 37.041667 L 27.416667 40.515625 C 27.416667 41.614583 26.40625 42.5 25.15625 42.5 L 22.84375 42.5 C 21.59375 42.5 20.583333 41.614583 20.583333 40.515625 L 20.583333 37.078125 " transform="matrix(0.75,0,0,0.75,0,0)"/>
<path style="fill:none;stroke-width:3;stroke-linecap:round;stroke-linejoin:round;stroke:rgb(9.411765%,9.803922%,24.705882%);stroke-opacity:1;stroke-miterlimit:10;" d="M 27.65625 8.489583 C 27.010417 7.708333 26.286458 7.036458 25.5 6.489583 C 24.5625 5.833333 23.4375 5.833333 22.5 6.489583 C 20.260417 8.052083 18.510417 10.635417 17.630208 13.75 " transform="matrix(0.75,0,0,0.75,0,0)"/>
<path style="fill:none;stroke-width:3;stroke-linecap:round;stroke-linejoin:round;stroke:rgb(9.411765%,9.803922%,24.705882%);stroke-opacity:1;stroke-miterlimit:10;" d="M 21.28125 17.28125 C 19.963542 15.375 18.166667 13.817708 16.057292 12.791667 C 14.84375 12.203125 13.395833 12.692708 12.807292 13.901042 C 12.171875 15.203125 11.739583 16.625 11.557292 18.125 " transform="matrix(0.75,0,0,0.75,0,0)"/>
<path style="fill:none;stroke-width:3;stroke-linecap:round;stroke-linejoin:round;stroke:rgb(9.411765%,9.803922%,24.705882%);stroke-opacity:1;stroke-miterlimit:10;" d="M 35.572917 24.848958 C 36.255208 23.151042 36.609375 21.286458 36.541667 19.34375 C 36.473958 17.390625 35.994792 15.552083 35.192708 13.901042 C 34.604167 12.692708 33.151042 12.197917 31.942708 12.786458 C 29.833333 13.817708 28.036458 15.369792 26.71875 17.28125 " transform="matrix(0.75,0,0,0.75,0,0)"/>
<path style="fill:none;stroke-width:3;stroke-linecap:round;stroke-linejoin:round;stroke:rgb(9.411765%,9.803922%,24.705882%);stroke-opacity:1;stroke-miterlimit:10;" d="M 28.734375 20.463542 C 28.078125 19.286458 27.296875 18.239583 26.421875 17.364583 C 24.994792 15.932292 23.010417 15.932292 21.578125 17.364583 C 19.770833 19.171875 18.375 21.697917 17.625 24.635417 " transform="matrix(0.75,0,0,0.75,0,0)"/>
<path style="fill:none;stroke-width:3;stroke-linecap:round;stroke-linejoin:round;stroke:rgb(9.411765%,9.803922%,24.705882%);stroke-opacity:1;stroke-miterlimit:4;" d="M 22.333333 27.213542 C 24.5 29.307292 24.5625 32.765625 22.46875 34.9375 C 20.375 37.109375 16.916667 37.166667 14.744792 35.072917 C 12.572917 32.979167 10.765625 27.838542 12.859375 25.666667 C 14.958333 23.494792 20.161458 25.119792 22.333333 27.213542 Z M 22.333333 27.213542 " transform="matrix(0.75,0,0,0.75,0,0)"/>
<path style="fill:none;stroke-width:3;stroke-linecap:round;stroke-linejoin:round;stroke:rgb(9.411765%,9.803922%,24.705882%);stroke-opacity:1;stroke-miterlimit:4;" d="M 35.614583 31.036458 C 36.260417 29.015625 36.3125 26.880208 35.140625 25.666667 C 33.046875 23.494792 27.838542 25.119792 25.666667 27.213542 C 23.5 29.307292 23.4375 32.765625 25.53125 34.9375 C 27.385417 36.859375 30.3125 37.125 32.463542 35.708333 " transform="matrix(0.75,0,0,0.75,0,0)"/>
</g>
</svg>
