<?xml version="1.0" encoding="UTF-8"?>
<svg xmlns="http://www.w3.org/2000/svg" xmlns:xlink="http://www.w3.org/1999/xlink" width="36pt" height="36pt" viewBox="0 0 36 36" version="1.1">
<g id="surface26665">
<path style=" stroke:none;fill-rule:nonzero;fill:rgb(64.705884%,83.92157%,65.490198%);fill-opacity:1;" d="M 16.5 17.347656 C 16.5 14.585938 14.265625 12.230469 13.246094 11.296875 C 12.964844 11.039062 12.535156 11.039062 12.253906 11.296875 C 11.234375 12.230469 9 14.585938 9 17.347656 C 9 18.507812 9.394531 19.59375 9.929688 20.535156 C 10.3125 21.210938 10.5 21.980469 10.5 22.761719 L 10.5 34.488281 C 10.5 34.910156 10.835938 35.25 11.25 35.25 L 14.25 35.25 C 14.664062 35.25 15 34.910156 15 34.488281 L 15 22.761719 C 15 21.980469 15.1875 21.210938 15.570312 20.535156 C 16.105469 19.59375 16.5 18.507812 16.5 17.347656 Z M 16.5 17.347656 "/>
<path style=" stroke:none;fill-rule:nonzero;fill:rgb(64.705884%,83.92157%,65.490198%);fill-opacity:1;" d="M 24.75 13.699219 C 24.75 10.957031 22.515625 8.617188 21.496094 7.695312 C 21.214844 7.4375 20.785156 7.4375 20.503906 7.695312 C 19.484375 8.617188 17.25 10.957031 17.25 13.699219 C 17.25 14.851562 17.644531 15.929688 18.179688 16.863281 C 18.5625 17.535156 18.75 18.296875 18.75 19.074219 L 18.75 34.492188 C 18.75 34.910156 19.085938 35.25 19.5 35.25 L 22.5 35.25 C 22.914062 35.25 23.25 34.910156 23.25 34.492188 L 23.25 19.074219 C 23.25 18.300781 23.4375 17.535156 23.820312 16.863281 C 24.355469 15.929688 24.75 14.847656 24.75 13.699219 Z M 24.75 13.699219 "/>
<path style=" stroke:none;fill-rule:nonzero;fill:rgb(64.705884%,83.92157%,65.490198%);fill-opacity:1;" d="M 33 17.347656 C 33 14.585938 30.765625 12.230469 29.746094 11.296875 C 29.464844 11.039062 29.035156 11.039062 28.753906 11.296875 C 27.734375 12.230469 25.5 14.585938 25.5 17.347656 C 25.5 18.507812 25.894531 19.59375 26.429688 20.535156 C 26.8125 21.210938 27 21.980469 27 22.761719 L 27 34.488281 C 27 34.910156 27.335938 35.25 27.75 35.25 L 30.75 35.25 C 31.164062 35.25 31.5 34.910156 31.5 34.488281 L 31.5 22.761719 C 31.5 21.980469 31.6875 21.210938 32.070312 20.535156 C 32.605469 19.59375 33 18.507812 33 17.347656 Z M 33 17.347656 "/>
<path style="fill:none;stroke-width:3;stroke-linecap:round;stroke-linejoin:round;stroke:rgb(9.411765%,9.803922%,24.705882%);stroke-opacity:1;stroke-miterlimit:10;" d="M 9.5 33.78125 L 9.5 41.5 C 9.5 42.052083 9.947917 42.5 10.5 42.5 L 14.5 42.5 C 15.052083 42.5 15.5 42.052083 15.5 41.5 L 15.5 26.109375 C 15.5 25.083333 15.75 24.072917 16.260417 23.1875 C 16.973958 21.953125 17.5 20.520833 17.5 19 C 17.5 15.375 14.520833 12.28125 13.161458 11.0625 C 12.786458 10.71875 12.213542 10.71875 11.838542 11.0625 C 10.479167 12.28125 7.5 15.375 7.5 19 C 7.5 20.520833 8.026042 21.953125 8.739583 23.1875 C 9.25 24.072917 9.5 25.083333 9.5 26.109375 L 9.5 27.651042 " transform="matrix(0.75,0,0,0.75,0,0)"/>
<path style="fill:none;stroke-width:3;stroke-linecap:round;stroke-linejoin:round;stroke:rgb(9.411765%,9.803922%,24.705882%);stroke-opacity:1;stroke-miterlimit:10;" d="M 8 19 C 8 19 13 19 15.5 15.5 " transform="matrix(0.75,0,0,0.75,0,0)"/>
<path style="fill:none;stroke-width:3;stroke-linecap:round;stroke-linejoin:round;stroke:rgb(9.411765%,9.803922%,24.705882%);stroke-opacity:1;stroke-miterlimit:10;" d="M 27 22.828125 L 27 21.109375 C 27 20.083333 27.25 19.072917 27.760417 18.1875 C 28.473958 16.953125 29 15.520833 29 14 C 29 10.375 26.020833 7.28125 24.661458 6.0625 C 24.286458 5.71875 23.713542 5.71875 23.338542 6.0625 C 21.979167 7.28125 19 10.375 19 14 C 19 15.520833 19.526042 16.953125 20.239583 18.1875 C 20.75 19.072917 21 20.083333 21 21.109375 L 21 41.5 C 21 42.052083 21.447917 42.5 22 42.5 L 26 42.5 C 26.552083 42.5 27 42.052083 27 41.5 L 27 28.041667 " transform="matrix(0.75,0,0,0.75,0,0)"/>
<path style="fill:none;stroke-width:3;stroke-linecap:round;stroke-linejoin:round;stroke:rgb(9.411765%,9.803922%,24.705882%);stroke-opacity:1;stroke-miterlimit:10;" d="M 19.5 14 C 19.5 14 24.5 14 27 10.5 " transform="matrix(0.75,0,0,0.75,0,0)"/>
<path style="fill:none;stroke-width:3;stroke-linecap:round;stroke-linejoin:round;stroke:rgb(9.411765%,9.803922%,24.705882%);stroke-opacity:1;stroke-miterlimit:10;" d="M 32.5 40.239583 L 32.5 41.5 C 32.5 42.052083 32.947917 42.5 33.5 42.5 L 37.5 42.5 C 38.052083 42.5 38.5 42.052083 38.5 41.5 L 38.5 26.109375 C 38.5 25.083333 38.75 24.072917 39.260417 23.1875 C 39.973958 21.953125 40.5 20.520833 40.5 19 C 40.5 15.375 37.520833 12.28125 36.161458 11.0625 C 35.786458 10.71875 35.213542 10.71875 34.838542 11.0625 C 33.479167 12.28125 30.5 15.375 30.5 19 C 30.5 20.520833 31.026042 21.953125 31.739583 23.1875 C 32.25 24.072917 32.5 25.083333 32.5 26.109375 L 32.5 34.958333 " transform="matrix(0.75,0,0,0.75,0,0)"/>
<path style="fill:none;stroke-width:3;stroke-linecap:round;stroke-linejoin:round;stroke:rgb(9.411765%,9.803922%,24.705882%);stroke-opacity:1;stroke-miterlimit:10;" d="M 31 19 C 31 19 36 19 38.5 15.5 " transform="matrix(0.75,0,0,0.75,0,0)"/>
</g>
</svg>
