<?xml version="1.0" encoding="UTF-8"?>
<svg xmlns="http://www.w3.org/2000/svg" xmlns:xlink="http://www.w3.org/1999/xlink" width="36pt" height="36pt" viewBox="0 0 36 36" version="1.1">
<g id="surface20250">
<path style=" stroke:none;fill-rule:nonzero;fill:rgb(64.705884%,83.92157%,65.490198%);fill-opacity:1;" d="M 25.726562 11.925781 L 25.648438 11.476562 C 25.273438 9.449219 23.699219 7.800781 21.601562 7.574219 C 19.125 7.273438 16.875 8.925781 16.425781 11.324219 L 16.273438 11.925781 C 15.675781 15.226562 14.324219 18.375 12.601562 21.300781 C 11.476562 23.101562 11.023438 25.351562 11.324219 27.675781 C 11.925781 32.023438 15.523438 35.476562 19.875 35.925781 C 25.800781 36.601562 30.75 32.023438 30.75 26.25 C 30.75 24.449219 30.300781 22.800781 29.398438 21.375 C 27.675781 18.375 26.324219 15.226562 25.726562 11.925781 Z M 25.726562 11.925781 "/>
<path style="fill:none;stroke-width:3;stroke-linecap:round;stroke-linejoin:round;stroke:rgb(9.411765%,9.803922%,24.705882%);stroke-opacity:1;stroke-miterlimit:10;" d="M 18.901042 34.697917 C 18.302083 33.802083 18 32.697917 18 31.5 C 18 28.197917 20.697917 23.401042 24 23.401042 C 27.302083 23.401042 30 28.098958 30 31.5 C 30 34.901042 27.302083 37.5 24 37.5 " transform="matrix(0.75,0,0,0.75,0,0)"/>
<path style="fill:none;stroke-width:3;stroke-linecap:round;stroke-linejoin:round;stroke:rgb(9.411765%,9.803922%,24.705882%);stroke-opacity:1;stroke-miterlimit:10;" d="M 24 3.5 L 24 5.5 " transform="matrix(0.75,0,0,0.75,0,0)"/>
<path style="fill:none;stroke-width:3;stroke-linecap:round;stroke-linejoin:round;stroke:rgb(9.411765%,9.803922%,24.705882%);stroke-opacity:1;stroke-miterlimit:10;" d="M 36 36.5 C 36.598958 35 37 33.302083 37 31.5 C 37 29.098958 36.401042 26.901042 35.197917 25 C 32.901042 21.098958 31.098958 16.901042 30.197917 12.401042 L 30.098958 11.802083 C 29.598958 9.098958 27.5 6.901042 24.697917 6.598958 C 21.401042 6.197917 18.401042 8.401042 17.802083 11.598958 L 17.598958 12.401042 C 17.401042 13.197917 17.302083 14 17.098958 14.802083 " transform="matrix(0.75,0,0,0.75,0,0)"/>
<path style="fill:none;stroke-width:3;stroke-linecap:round;stroke-linejoin:round;stroke:rgb(9.411765%,9.803922%,24.705882%);stroke-opacity:1;stroke-miterlimit:10;" d="M 15.401042 19.901042 C 14.697917 21.598958 13.802083 23.302083 12.802083 24.901042 C 11.302083 27.302083 10.697917 30.302083 11.098958 33.401042 C 11.901042 39.197917 16.697917 43.802083 22.5 44.401042 C 26.302083 44.802083 29.802083 43.598958 32.401042 41.401042 " transform="matrix(0.75,0,0,0.75,0,0)"/>
</g>
</svg>
