<?xml version="1.0" encoding="UTF-8"?>
<svg xmlns="http://www.w3.org/2000/svg" xmlns:xlink="http://www.w3.org/1999/xlink" width="36pt" height="36pt" viewBox="0 0 36 36" version="1.1">
<g id="surface15300">
<path style=" stroke:none;fill-rule:nonzero;fill:rgb(100%,87.843138%,50.980395%);fill-opacity:1;" d="M 31.605469 16.226562 C 35.265625 12.566406 36.929688 8.292969 35.316406 6.683594 C 33.707031 5.070312 29.433594 6.734375 25.773438 10.394531 C 25.683594 10.484375 25.601562 10.574219 25.511719 10.664062 L 25.507812 10.660156 L 10.128906 26.039062 L 10.132812 26.042969 C 6.660156 29.644531 5.109375 33.746094 6.679688 35.320312 C 8.253906 36.890625 12.355469 35.34375 15.957031 31.867188 L 15.960938 31.871094 L 31.339844 16.492188 L 31.335938 16.488281 C 31.425781 16.398438 31.515625 16.316406 31.605469 16.226562 Z M 31.605469 16.226562 "/>
<path style="fill:none;stroke-width:3;stroke-linecap:round;stroke-linejoin:round;stroke:rgb(9.411765%,9.803922%,24.705882%);stroke-opacity:1;stroke-miterlimit:10;" d="M 20.0625 35.713542 L 37.786458 17.989583 L 37.78125 17.984375 C 37.901042 17.864583 38.020833 17.755208 38.140625 17.635417 C 43.020833 12.755208 45.239583 7.057292 43.088542 4.90625 C 41.776042 3.588542 39.125 3.916667 36.145833 5.484375 " transform="matrix(0.75,0,0,0.75,0,0)"/>
<path style="fill:none;stroke-width:3;stroke-linecap:round;stroke-linejoin:round;stroke:rgb(9.411765%,9.803922%,24.705882%);stroke-opacity:1;stroke-miterlimit:10;" d="M 30.661458 9.5625 C 30.463542 9.75 30.557292 9.666667 30.364583 9.859375 C 30.244792 9.979167 30.135417 10.098958 30.015625 10.21875 L 30.010417 10.213542 L 9.505208 30.71875 L 9.510417 30.723958 C 4.880208 35.526042 2.8125 40.994792 4.90625 43.09375 C 6.760417 44.947917 11.265625 43.541667 15.604167 39.979167 " transform="matrix(0.75,0,0,0.75,0,0)"/>
<path style="fill:none;stroke-width:3;stroke-linecap:round;stroke-linejoin:round;stroke:rgb(9.411765%,9.803922%,24.705882%);stroke-opacity:1;stroke-miterlimit:10;" d="M 26.177083 14.895833 C 26.973958 15.942708 27.473958 17.234375 27.546875 18.645833 " transform="matrix(0.75,0,0,0.75,0,0)"/>
<path style="fill:none;stroke-width:3;stroke-linecap:round;stroke-linejoin:round;stroke:rgb(9.411765%,9.803922%,24.705882%);stroke-opacity:1;stroke-miterlimit:10;" d="M 21.151042 19.927083 C 21.942708 20.973958 22.442708 22.265625 22.515625 23.677083 " transform="matrix(0.75,0,0,0.75,0,0)"/>
<path style="fill:none;stroke-width:3;stroke-linecap:round;stroke-linejoin:round;stroke:rgb(9.411765%,9.803922%,24.705882%);stroke-opacity:1;stroke-miterlimit:10;" d="M 16.119792 24.953125 C 16.911458 26.005208 17.411458 27.291667 17.489583 28.708333 " transform="matrix(0.75,0,0,0.75,0,0)"/>
<path style="fill:none;stroke-width:3;stroke-linecap:round;stroke-linejoin:round;stroke:rgb(9.411765%,9.803922%,24.705882%);stroke-opacity:1;stroke-miterlimit:10;" d="M 30.661458 9.5625 C 31.989583 10.307292 32.5 12.203125 32.578125 13.614583 " transform="matrix(0.75,0,0,0.75,0,0)"/>
<path style="fill:none;stroke-width:3;stroke-linecap:round;stroke-linejoin:round;stroke:rgb(9.411765%,9.803922%,24.705882%);stroke-opacity:1;stroke-miterlimit:10;" d="M 11.088542 29.984375 C 11.880208 31.036458 12.380208 32.322917 12.458333 33.739583 " transform="matrix(0.75,0,0,0.75,0,0)"/>
</g>
</svg>
