<?xml version="1.0" encoding="UTF-8"?>
<svg xmlns="http://www.w3.org/2000/svg" xmlns:xlink="http://www.w3.org/1999/xlink" width="36pt" height="36pt" viewBox="0 0 36 36" version="1.1">
<g id="surface15554">
<path style=" stroke:none;fill-rule:nonzero;fill:rgb(62.352943%,65.882355%,85.490197%);fill-opacity:1;" d="M 30.050781 31.5 L 11.949219 31.5 C 10.347656 31.5 9.050781 30.203125 9.050781 28.601562 L 9.050781 13.398438 C 9.050781 11.796875 10.347656 10.5 11.949219 10.5 L 30.050781 10.5 C 31.652344 10.5 32.949219 11.796875 32.949219 13.398438 L 32.949219 28.601562 C 32.949219 30.203125 31.652344 31.5 30.050781 31.5 Z M 30.050781 31.5 "/>
<path style="fill:none;stroke-width:3;stroke-linecap:round;stroke-linejoin:round;stroke:rgb(9.411765%,9.803922%,24.705882%);stroke-opacity:1;stroke-miterlimit:10;" d="M 40.5 34.5 C 40.5 36.708333 38.708333 38.5 36.5 38.5 L 11.5 38.5 C 9.291667 38.5 7.5 36.708333 7.5 34.5 L 7.5 21.828125 " transform="matrix(0.75,0,0,0.75,0,0)"/>
<path style="fill:none;stroke-width:3;stroke-linecap:round;stroke-linejoin:round;stroke:rgb(9.411765%,9.803922%,24.705882%);stroke-opacity:1;stroke-miterlimit:10;" d="M 7.5 14.291667 L 7.5 13.5 C 7.5 11.291667 9.291667 9.5 11.5 9.5 L 36.5 9.5 C 38.708333 9.5 40.5 11.291667 40.5 13.5 L 40.5 26.911458 " transform="matrix(0.75,0,0,0.75,0,0)"/>
<path style="fill:none;stroke-width:3;stroke-linecap:round;stroke-linejoin:round;stroke:rgb(9.411765%,9.803922%,24.705882%);stroke-opacity:1;stroke-miterlimit:10;" d="M 12.5 7.5 L 20.5 7.5 " transform="matrix(0.75,0,0,0.75,0,0)"/>
<path style="fill:none;stroke-width:3;stroke-linecap:round;stroke-linejoin:round;stroke:rgb(9.411765%,9.803922%,24.705882%);stroke-opacity:1;stroke-miterlimit:10;" d="M 27.5 7.5 L 35.5 7.5 " transform="matrix(0.75,0,0,0.75,0,0)"/>
<path style=" stroke:none;fill-rule:nonzero;fill:rgb(9.411765%,9.803922%,24.705882%);fill-opacity:1;" d="M 10.5 10.875 C 10.5 11.496094 9.996094 12 9.375 12 C 8.753906 12 8.25 11.496094 8.25 10.875 C 8.25 10.253906 8.753906 9.75 9.375 9.75 C 9.996094 9.75 10.5 10.253906 10.5 10.875 Z M 10.5 10.875 "/>
<path style=" stroke:none;fill-rule:nonzero;fill:rgb(9.411765%,9.803922%,24.705882%);fill-opacity:1;" d="M 14.25 10.875 C 14.25 11.496094 13.746094 12 13.125 12 C 12.503906 12 12 11.496094 12 10.875 C 12 10.253906 12.503906 9.75 13.125 9.75 C 13.746094 9.75 14.25 10.253906 14.25 10.875 Z M 14.25 10.875 "/>
<path style=" stroke:none;fill-rule:nonzero;fill:rgb(9.411765%,9.803922%,24.705882%);fill-opacity:1;" d="M 18 10.875 C 18 11.496094 17.496094 12 16.875 12 C 16.253906 12 15.75 11.496094 15.75 10.875 C 15.75 10.253906 16.253906 9.75 16.875 9.75 C 17.496094 9.75 18 10.253906 18 10.875 Z M 18 10.875 "/>
<path style=" stroke:none;fill-rule:nonzero;fill:rgb(9.411765%,9.803922%,24.705882%);fill-opacity:1;" d="M 27.75 10.875 C 27.75 11.496094 27.246094 12 26.625 12 C 26.003906 12 25.5 11.496094 25.5 10.875 C 25.5 10.253906 26.003906 9.75 26.625 9.75 C 27.246094 9.75 27.75 10.253906 27.75 10.875 Z M 27.75 10.875 "/>
<path style="fill:none;stroke-width:3;stroke-linecap:round;stroke-linejoin:round;stroke:rgb(9.411765%,9.803922%,24.705882%);stroke-opacity:1;stroke-miterlimit:10;" d="M 31.046875 19.5 L 33.5 19.5 C 34.604167 19.5 35.5 20.395833 35.5 21.5 L 35.5 31.5 C 35.5 32.604167 34.604167 33.5 33.5 33.5 L 14.5 33.5 C 13.395833 33.5 12.5 32.604167 12.5 31.5 L 12.5 21.5 C 12.5 20.395833 13.395833 19.5 14.5 19.5 L 25.03125 19.5 " transform="matrix(0.75,0,0,0.75,0,0)"/>
<path style="fill:none;stroke-width:3;stroke-linecap:round;stroke-linejoin:round;stroke:rgb(9.411765%,9.803922%,24.705882%);stroke-opacity:1;stroke-miterlimit:10;" d="M 28.5 33.5 L 19.5 33.5 C 18.395833 33.5 17.5 32.604167 17.5 31.5 C 17.5 28.739583 19.739583 26.5 22.5 26.5 L 25.5 26.5 C 28.260417 26.5 30.5 28.739583 30.5 31.5 C 30.5 32.604167 29.604167 33.5 28.5 33.5 Z M 28.5 33.5 " transform="matrix(0.75,0,0,0.75,0,0)"/>
<path style="fill:none;stroke-width:3;stroke-linecap:round;stroke-linejoin:round;stroke:rgb(9.411765%,9.803922%,24.705882%);stroke-opacity:1;stroke-miterlimit:10;" d="M 11.5 40.5 L 14.5 40.5 " transform="matrix(0.75,0,0,0.75,0,0)"/>
<path style="fill:none;stroke-width:3;stroke-linecap:round;stroke-linejoin:round;stroke:rgb(9.411765%,9.803922%,24.705882%);stroke-opacity:1;stroke-miterlimit:10;" d="M 33.5 40.5 L 36.5 40.5 " transform="matrix(0.75,0,0,0.75,0,0)"/>
</g>
</svg>
