<?xml version="1.0" encoding="UTF-8"?>
<svg xmlns="http://www.w3.org/2000/svg" xmlns:xlink="http://www.w3.org/1999/xlink" width="36pt" height="36pt" viewBox="0 0 36 36" version="1.1">
<g id="surface22081">
<path style=" stroke:none;fill-rule:nonzero;fill:rgb(64.705884%,83.92157%,65.490198%);fill-opacity:1;" d="M 26.355469 21.921875 L 24.890625 22.554688 C 24.890625 19.941406 23.183594 17.523438 22.234375 16.375 C 21.90625 15.976562 21.316406 15.9375 20.929688 16.277344 L 19.972656 17.121094 C 17.605469 15.121094 15.246094 14.144531 14.050781 13.738281 C 13.601562 13.585938 13.117188 13.8125 12.929688 14.246094 L 12.46875 15.3125 C 12.46875 15.3125 10.5 14.199219 7.617188 14.191406 C 7.109375 14.191406 6.691406 14.609375 6.691406 15.117188 C 6.699219 18.003906 7.808594 19.96875 7.808594 19.96875 L 6.746094 20.425781 C 6.3125 20.609375 6.085938 21.097656 6.238281 21.546875 C 6.644531 22.742188 7.621094 25.109375 9.621094 27.472656 L 8.78125 28.410156 C 8.4375 28.792969 8.476562 29.382812 8.871094 29.714844 C 10.019531 30.671875 12.445312 32.386719 15.054688 32.386719 L 14.421875 33.855469 C 14.183594 34.402344 14.527344 35.035156 15.117188 35.117188 C 15.667969 35.199219 16.394531 35.261719 17.238281 35.246094 C 19.160156 35.210938 21.71875 34.78125 24.28125 33.21875 C 24.867188 32.863281 25.363281 32.367188 25.71875 31.78125 C 27.28125 29.21875 27.710938 26.660156 27.746094 24.738281 C 27.761719 23.894531 27.699219 23.167969 27.617188 22.617188 C 27.535156 22.027344 26.90625 21.683594 26.355469 21.921875 Z M 26.355469 21.921875 "/>
<path style="fill:none;stroke-width:3;stroke-linecap:round;stroke-linejoin:round;stroke:rgb(9.411765%,9.803922%,24.705882%);stroke-opacity:1;stroke-miterlimit:10;" d="M 8.494792 32.770833 L 6.5 35 C 6.5 35 10.994792 39.552083 15.989583 39.552083 L 14.5 43 C 14.5 43 16.3125 43.546875 19 43.494792 C 21.953125 43.4375 25.989583 42.713542 29.911458 39.911458 " transform="matrix(0.75,0,0,0.75,0,0)"/>
<path style="fill:none;stroke-width:3;stroke-linecap:round;stroke-linejoin:round;stroke:rgb(9.411765%,9.803922%,24.705882%);stroke-opacity:1;stroke-miterlimit:10;" d="M 32.588542 34.567708 C 33.239583 32.520833 33.463542 30.604167 33.494792 29 C 33.546875 26.3125 33 24.5 33 24.5 L 29.552083 25.989583 C 29.552083 20.994792 25.03125 16.505208 25.03125 16.505208 L 22.770833 18.494792 C 18.130208 14.572917 13.5 13.5 13.5 13.5 L 12.421875 16 C 12.421875 16 9.140625 14.140625 4.5 14.5 C 4.140625 19.140625 6 22.421875 6 22.421875 L 3.5 23.494792 C 3.5 23.494792 3.765625 24.651042 4.526042 26.390625 " transform="matrix(0.75,0,0,0.75,0,0)"/>
<path style="fill:none;stroke-width:3;stroke-linecap:round;stroke-linejoin:round;stroke:rgb(9.411765%,9.803922%,24.705882%);stroke-opacity:1;stroke-miterlimit:10;" d="M 13.5 22.5 C 13.5 22.5 24.734375 30.786458 30 40 C 32 43.5 32.5 45 32.5 45 " transform="matrix(0.75,0,0,0.75,0,0)"/>
<path style=" stroke:none;fill-rule:nonzero;fill:rgb(9.411765%,9.803922%,24.705882%);fill-opacity:1;" d="M 33.816406 22.214844 L 32.550781 21.671875 C 34.472656 18.734375 34.5 14.816406 34.5 14.625 C 34.5 14.003906 33.996094 13.5 33.375 13.5 L 32.132812 13.5 C 31.574219 9.359375 29.90625 6.652344 29.828125 6.527344 C 29.539062 6.066406 28.964844 5.875 28.457031 6.082031 L 27.574219 6.433594 C 27.054688 5.46875 26.070312 3.988281 24.363281 2.523438 C 23.941406 2.164062 23.308594 2.164062 22.886719 2.523438 C 21.179688 3.988281 20.195312 5.46875 19.679688 6.433594 L 18.792969 6.082031 C 18.285156 5.875 17.710938 6.066406 17.421875 6.527344 C 17.390625 6.578125 17.078125 7.089844 16.6875 7.964844 C 16.355469 8.710938 16.894531 9.558594 17.710938 9.558594 C 18.160156 9.558594 18.566406 9.285156 18.746094 8.875 C 18.796875 8.753906 18.847656 8.644531 18.894531 8.546875 L 19.832031 8.917969 C 20.113281 9.03125 20.4375 9.023438 20.71875 8.894531 C 21 8.765625 21.214844 8.527344 21.316406 8.238281 C 21.320312 8.21875 21.878906 6.652344 23.625 4.90625 C 25.371094 6.652344 25.929688 8.21875 25.933594 8.230469 C 26.03125 8.527344 26.246094 8.765625 26.527344 8.898438 C 26.804688 9.027344 27.128906 9.035156 27.417969 8.921875 L 28.355469 8.546875 C 28.894531 9.667969 29.765625 11.875 30.003906 14.726562 C 30.054688 15.304688 30.542969 15.75 31.125 15.75 L 32.175781 15.75 C 31.992188 17.367188 31.417969 19.867188 29.953125 21.328125 C 29.691406 21.59375 29.574219 21.96875 29.644531 22.335938 C 29.714844 22.703125 29.964844 23.011719 30.308594 23.160156 L 31.644531 23.730469 C 30.890625 24.648438 29.554688 25.992188 27.621094 27.050781 C 27.394531 27.175781 27.214844 27.367188 27.113281 27.605469 C 26.707031 28.589844 27.765625 29.539062 28.699219 29.03125 C 32.480469 26.976562 34.253906 23.980469 34.351562 23.808594 C 34.511719 23.53125 34.542969 23.199219 34.441406 22.894531 C 34.339844 22.589844 34.113281 22.34375 33.816406 22.214844 Z M 33.816406 22.214844 "/>
</g>
</svg>
