<?xml version="1.0" encoding="UTF-8"?>
<svg xmlns="http://www.w3.org/2000/svg" xmlns:xlink="http://www.w3.org/1999/xlink" width="36pt" height="36pt" viewBox="0 0 36 36" version="1.1">
<g id="surface11327">
<path style=" stroke:none;fill-rule:nonzero;fill:rgb(100%,87.843138%,50.980395%);fill-opacity:1;" d="M 26.625 22.125 C 26.625 27.925781 24.105469 34.125 21 34.125 C 17.894531 34.125 15.375 27.925781 15.375 22.125 C 15.375 16.324219 17.894531 11.625 21 11.625 C 24.105469 11.625 26.625 16.324219 26.625 22.125 Z M 26.625 22.125 "/>
<path style="fill:none;stroke-width:3;stroke-linecap:round;stroke-linejoin:round;stroke:rgb(9.411765%,9.803922%,24.705882%);stroke-opacity:1;stroke-miterlimit:10;" d="M 16.791667 29.526042 C 16.598958 28.197917 16.5 26.84375 16.5 25.5 C 16.5 17.765625 19.859375 11.5 24 11.5 C 28.140625 11.5 31.5 17.765625 31.5 25.5 C 31.5 33.234375 28.140625 41.5 24 41.5 C 21.520833 41.5 19.322917 38.536458 17.958333 34.5 " transform="matrix(0.75,0,0,0.75,0,0)"/>
<path style="fill:none;stroke-width:3;stroke-linecap:round;stroke-linejoin:round;stroke:rgb(9.411765%,9.803922%,24.705882%);stroke-opacity:1;stroke-miterlimit:10;" d="M 17.213542 20.5 L 24.96875 20.5 " transform="matrix(0.75,0,0,0.75,0,0)"/>
<path style="fill:none;stroke-width:3;stroke-linecap:round;stroke-linejoin:round;stroke:rgb(9.411765%,9.803922%,24.705882%);stroke-opacity:1;stroke-miterlimit:10;" d="M 16.895833 27.5 L 30.776042 27.5 " transform="matrix(0.75,0,0,0.75,0,0)"/>
<path style="fill:none;stroke-width:3;stroke-linecap:round;stroke-linejoin:round;stroke:rgb(9.411765%,9.803922%,24.705882%);stroke-opacity:1;stroke-miterlimit:10;" d="M 17.958333 34.5 L 24.651042 34.5 " transform="matrix(0.75,0,0,0.75,0,0)"/>
<path style="fill:none;stroke-width:3;stroke-linecap:round;stroke-linejoin:miter;stroke:rgb(9.411765%,9.803922%,24.705882%);stroke-opacity:1;stroke-miterlimit:10;" d="M 17.5 6.5 C 17.5 6.5 21.8125 6.28125 21.5 11.5 " transform="matrix(0.75,0,0,0.75,0,0)"/>
<path style="fill:none;stroke-width:3;stroke-linecap:round;stroke-linejoin:miter;stroke:rgb(9.411765%,9.803922%,24.705882%);stroke-opacity:1;stroke-miterlimit:10;" d="M 30.515625 6.5 C 30.515625 6.5 26.203125 6.28125 26.515625 11.5 " transform="matrix(0.75,0,0,0.75,0,0)"/>
<path style="fill:none;stroke-width:3;stroke-linecap:round;stroke-linejoin:round;stroke:rgb(9.411765%,9.803922%,24.705882%);stroke-opacity:1;stroke-miterlimit:10;" d="M 34.96875 21.161458 L 39.192708 25.510417 C 44.255208 30.786458 41.151042 39.875 33.859375 40.463542 C 33.578125 40.489583 33.291667 40.5 33 40.5 C 31.114583 40.5 29.338542 40 27.8125 39.130208 " transform="matrix(0.75,0,0,0.75,0,0)"/>
<path style="fill:none;stroke-width:3;stroke-linecap:round;stroke-linejoin:round;stroke:rgb(9.411765%,9.803922%,24.705882%);stroke-opacity:1;stroke-miterlimit:10;" d="M 6.927083 34.770833 C 7.984375 37.765625 10.578125 40.171875 14.213542 40.463542 C 14.5 40.489583 14.786458 40.5 15.072917 40.5 C 16.963542 40.5 18.734375 40 20.265625 39.130208 " transform="matrix(0.75,0,0,0.75,0,0)"/>
<path style="fill:none;stroke-width:3;stroke-linecap:round;stroke-linejoin:round;stroke:rgb(9.411765%,9.803922%,24.705882%);stroke-opacity:1;stroke-miterlimit:10;" d="M 18.5 15.609375 L 8.885417 25.510417 C 8.291667 26.130208 7.8125 26.796875 7.4375 27.5 " transform="matrix(0.75,0,0,0.75,0,0)"/>
</g>
</svg>
