<?xml version="1.0" encoding="UTF-8"?>
<svg xmlns="http://www.w3.org/2000/svg" xmlns:xlink="http://www.w3.org/1999/xlink" width="36pt" height="36pt" viewBox="0 0 36 36" version="1.1">
<g id="surface26757">
<path style=" stroke:none;fill-rule:nonzero;fill:rgb(95.686275%,56.078434%,69.411767%);fill-opacity:1;" d="M 25.273438 12.675781 C 23.851562 12.300781 22.425781 12.148438 21 12.074219 C 19.574219 12.148438 18.148438 12.300781 16.726562 12.675781 C 12.300781 13.800781 8.398438 17.023438 8.398438 20.550781 C 8.398438 27.898438 16.125 26.175781 20.324219 34.425781 C 20.625 34.949219 21.375 34.949219 21.675781 34.425781 C 25.875 26.175781 33.601562 27.898438 33.601562 20.550781 C 33.601562 17.023438 29.699219 13.800781 25.273438 12.675781 Z M 25.273438 12.675781 "/>
<path style="fill:none;stroke-width:3;stroke-linecap:round;stroke-linejoin:round;stroke:rgb(9.411765%,9.803922%,24.705882%);stroke-opacity:1;stroke-miterlimit:4;" d="M 24 11.697917 L 24 3 " transform="matrix(0.75,0,0,0.75,0,0)"/>
<path style="fill:none;stroke-width:3;stroke-linecap:round;stroke-linejoin:round;stroke:rgb(9.411765%,9.803922%,24.705882%);stroke-opacity:1;stroke-miterlimit:4;" d="M 12.5 15.5 C 9.401042 17.598958 7.197917 20.401042 7.197917 23.5 C 7.197917 33.302083 17.5 31 23.098958 42 C 23.5 42.697917 24.5 42.697917 24.901042 42 C 26.401042 39.098958 28.197917 37.098958 30.098958 35.5 " transform="matrix(0.75,0,0,0.75,0,0)"/>
<path style="fill:none;stroke-width:3;stroke-linecap:round;stroke-linejoin:round;stroke:rgb(9.411765%,9.803922%,24.705882%);stroke-opacity:1;stroke-miterlimit:4;" d="M 36.697917 31.098958 C 39.098958 29.401042 40.802083 27.401042 40.802083 23.5 C 40.802083 18.802083 35.598958 14.401042 29.697917 13 C 27.802083 12.5 25.901042 12.302083 24 12.197917 C 22.401042 12.197917 20.901042 12.401042 19.302083 12.802083 " transform="matrix(0.75,0,0,0.75,0,0)"/>
<path style="fill:none;stroke-width:3;stroke-linecap:round;stroke-linejoin:round;stroke:rgb(9.411765%,9.803922%,24.705882%);stroke-opacity:1;stroke-miterlimit:10;" d="M 14.098958 5.098958 C 18.197917 5.098958 21.697917 7.901042 23 11.697917 " transform="matrix(0.75,0,0,0.75,0,0)"/>
<path style="fill:none;stroke-width:3;stroke-linecap:round;stroke-linejoin:round;stroke:rgb(9.411765%,9.803922%,24.705882%);stroke-opacity:1;stroke-miterlimit:10;" d="M 33.901042 5.098958 C 29.802083 5.098958 26.302083 7.901042 25 11.697917 " transform="matrix(0.75,0,0,0.75,0,0)"/>
<path style="fill:none;stroke-width:3;stroke-linecap:round;stroke-linejoin:round;stroke:rgb(9.411765%,9.803922%,24.705882%);stroke-opacity:1;stroke-miterlimit:4;" d="M 7.697917 21.901042 L 12.5 21.901042 " transform="matrix(0.75,0,0,0.75,0,0)"/>
<path style="fill:none;stroke-width:3;stroke-linecap:round;stroke-linejoin:round;stroke:rgb(9.411765%,9.803922%,24.705882%);stroke-opacity:1;stroke-miterlimit:4;" d="M 25.302083 19 L 29.401042 19 " transform="matrix(0.75,0,0,0.75,0,0)"/>
<path style="fill:none;stroke-width:3;stroke-linecap:round;stroke-linejoin:round;stroke:rgb(9.411765%,9.803922%,24.705882%);stroke-opacity:1;stroke-miterlimit:4;" d="M 19.302083 29.098958 L 24 29.098958 " transform="matrix(0.75,0,0,0.75,0,0)"/>
<path style="fill:none;stroke-width:3;stroke-linecap:round;stroke-linejoin:round;stroke:rgb(9.411765%,9.803922%,24.705882%);stroke-opacity:1;stroke-miterlimit:4;" d="M 35.098958 24.901042 L 40.302083 24.901042 " transform="matrix(0.75,0,0,0.75,0,0)"/>
</g>
</svg>
