<?xml version="1.0" encoding="UTF-8"?>
<svg xmlns="http://www.w3.org/2000/svg" xmlns:xlink="http://www.w3.org/1999/xlink" width="36pt" height="36pt" viewBox="0 0 36 36" version="1.1">
<g id="surface31267">
<path style=" stroke:none;fill-rule:nonzero;fill:rgb(56.470591%,79.215688%,97.647059%);fill-opacity:1;" d="M 29.351562 33.519531 L 28.433594 27.625 C 28.046875 25.941406 26.546875 24.75 24.824219 24.75 L 24.746094 24.75 C 25.890625 24.75 26.855469 23.886719 26.980469 22.75 L 28.492188 9.164062 C 28.589844 8.277344 27.894531 7.5 27 7.5 L 11.40625 7.5 C 10.746094 7.5 10.40625 8.289062 10.863281 8.765625 L 12.828125 10.828125 L 13.902344 22.746094 C 14.03125 23.886719 14.992188 24.75 16.140625 24.75 L 16.035156 24.75 C 14.308594 24.75 12.8125 25.941406 12.425781 27.621094 L 11.503906 33.519531 C 11.363281 34.429688 12.066406 35.25 12.988281 35.25 L 27.871094 35.25 C 28.792969 35.25 29.496094 34.429688 29.351562 33.519531 Z M 29.351562 33.519531 "/>
<path style="fill:none;stroke-width:3;stroke-linecap:round;stroke-linejoin:miter;stroke:rgb(9.411765%,9.803922%,24.705882%);stroke-opacity:1;stroke-miterlimit:10;" d="M 14.046875 12.567708 L 18.265625 12.567708 " transform="matrix(0.75,0,0,0.75,0,0)"/>
<path style="fill:none;stroke-width:3;stroke-linecap:round;stroke-linejoin:miter;stroke:rgb(9.411765%,9.803922%,24.705882%);stroke-opacity:1;stroke-miterlimit:10;" d="M 14.046875 17.786458 L 18.265625 17.786458 " transform="matrix(0.75,0,0,0.75,0,0)"/>
<path style="fill:none;stroke-width:3;stroke-linecap:round;stroke-linejoin:miter;stroke:rgb(9.411765%,9.803922%,24.705882%);stroke-opacity:1;stroke-miterlimit:10;" d="M 14.890625 23 L 18.265625 23 " transform="matrix(0.75,0,0,0.75,0,0)"/>
<path style="fill:none;stroke-width:3;stroke-linecap:round;stroke-linejoin:round;stroke:rgb(9.411765%,9.803922%,24.705882%);stroke-opacity:1;stroke-miterlimit:10;" d="M 35.5 9.5 L 37.385417 9.5 C 38.911458 9.5 40.09375 10.84375 39.895833 12.359375 L 38.723958 21.296875 C 38.5625 22.557292 37.489583 23.5 36.21875 23.5 L 33.5 23.5 " transform="matrix(0.75,0,0,0.75,0,0)"/>
<path style="fill:none;stroke-width:3;stroke-linecap:round;stroke-linejoin:round;stroke:rgb(9.411765%,9.803922%,24.705882%);stroke-opacity:1;stroke-miterlimit:10;" d="M 24.859375 42.5 L 13.317708 42.5 C 12.088542 42.5 11.151042 41.40625 11.338542 40.192708 L 12.567708 32.333333 C 13.083333 30.088542 15.078125 28.5 17.380208 28.5 L 29.098958 28.5 C 31.395833 28.5 33.395833 30.088542 33.911458 32.333333 L 35.135417 40.192708 C 35.328125 41.40625 34.390625 42.5 33.161458 42.5 L 31.65625 42.5 " transform="matrix(0.75,0,0,0.75,0,0)"/>
<path style="fill:none;stroke-width:3;stroke-linecap:round;stroke-linejoin:round;stroke:rgb(9.411765%,9.803922%,24.705882%);stroke-opacity:1;stroke-miterlimit:10;" d="M 15.078125 5.5 L 11.208333 5.5 C 10.328125 5.5 9.875 6.552083 10.484375 7.1875 L 13.104167 9.9375 L 14.536458 25.828125 C 14.708333 27.348958 15.989583 28.5 17.520833 28.5 L 28.994792 28.5 C 30.520833 28.5 31.807292 27.348958 31.973958 25.828125 L 33.989583 7.71875 C 34.119792 6.536458 33.192708 5.5 32 5.5 L 19.869792 5.5 " transform="matrix(0.75,0,0,0.75,0,0)"/>
<path style=" stroke:none;fill-rule:nonzero;fill:rgb(9.411765%,9.803922%,24.705882%);fill-opacity:1;" d="M 19.5 27.375 C 19.5 28.410156 18.660156 29.25 17.625 29.25 C 16.589844 29.25 15.75 28.410156 15.75 27.375 C 15.75 26.339844 16.589844 25.5 17.625 25.5 C 18.660156 25.5 19.5 26.339844 19.5 27.375 Z M 19.5 27.375 "/>
</g>
</svg>
