<?xml version="1.0" encoding="UTF-8"?>
<svg xmlns="http://www.w3.org/2000/svg" xmlns:xlink="http://www.w3.org/1999/xlink" width="36pt" height="36pt" viewBox="0 0 36 36" version="1.1">
<g id="surface15803">
<path style=" stroke:none;fill-rule:nonzero;fill:rgb(62.352943%,65.882355%,85.490197%);fill-opacity:1;" d="M 25.554688 18.742188 C 25.023438 18.742188 24.507812 18.8125 24.007812 18.925781 C 24.011719 18.867188 24.019531 18.804688 24.019531 18.742188 C 24.019531 14.992188 20.980469 11.953125 17.230469 11.953125 C 13.480469 11.953125 10.441406 14.992188 10.441406 18.742188 C 10.441406 19.683594 10.632812 20.582031 10.980469 21.394531 C 9.34375 22.65625 8.285156 24.628906 8.285156 26.855469 C 8.285156 30.664062 11.371094 33.75 15.179688 33.75 C 17.625 33.75 19.769531 32.46875 20.992188 30.546875 C 22.199219 31.644531 23.796875 32.320312 25.554688 32.320312 C 29.304688 32.320312 32.34375 29.28125 32.34375 25.53125 C 32.34375 21.78125 29.304688 18.742188 25.554688 18.742188 Z M 25.554688 18.742188 "/>
<path style="fill:none;stroke-width:3;stroke-linecap:round;stroke-linejoin:round;stroke:rgb(9.411765%,9.803922%,24.705882%);stroke-opacity:1;stroke-miterlimit:10;" d="M 10.458333 24.541667 C 9.84375 23.322917 9.5 21.953125 9.5 20.5 C 9.5 15.53125 13.53125 11.5 18.5 11.5 C 23.46875 11.5 27.5 15.53125 27.5 20.5 C 27.5 20.895833 27.473958 21.28125 27.427083 21.661458 " transform="matrix(0.75,0,0,0.75,0,0)"/>
<path style="fill:none;stroke-width:3;stroke-linecap:round;stroke-linejoin:round;stroke:rgb(9.411765%,9.803922%,24.705882%);stroke-opacity:1;stroke-miterlimit:10;" d="M 39.5 30.5 C 39.5 35.46875 35.46875 39.5 30.5 39.5 C 28.328125 39.5 26.338542 38.734375 24.786458 37.453125 " transform="matrix(0.75,0,0,0.75,0,0)"/>
<path style="fill:none;stroke-width:3;stroke-linecap:round;stroke-linejoin:round;stroke:rgb(9.411765%,9.803922%,24.705882%);stroke-opacity:1;stroke-miterlimit:10;" d="M 23.395833 24.973958 C 25.041667 22.859375 27.614583 21.5 30.5 21.5 C 33.135417 21.5 35.510417 22.635417 37.15625 24.442708 " transform="matrix(0.75,0,0,0.75,0,0)"/>
<path style="fill:none;stroke-width:3;stroke-linecap:round;stroke-linejoin:round;stroke:rgb(9.411765%,9.803922%,24.705882%);stroke-opacity:1;stroke-miterlimit:10;" d="M 36.744792 7.510417 C 36.989583 7.505208 37.244792 7.5 37.5 7.5 C 37.5 7.5 41.5 15.5 35.5 21.5 " transform="matrix(0.75,0,0,0.75,0,0)"/>
<path style="fill:none;stroke-width:3;stroke-linecap:round;stroke-linejoin:round;stroke:rgb(9.411765%,9.803922%,24.705882%);stroke-opacity:1;stroke-miterlimit:10;" d="M 24.5 13.5 C 24.5 13.5 25.713542 9.859375 31.447917 8.25 " transform="matrix(0.75,0,0,0.75,0,0)"/>
<path style=" stroke:none;fill-rule:nonzero;fill:rgb(9.411765%,9.803922%,24.705882%);fill-opacity:1;" d="M 12.75 23.25 C 12.75 24.078125 12.078125 24.75 11.25 24.75 C 10.421875 24.75 9.75 24.078125 9.75 23.25 C 9.75 22.421875 10.421875 21.75 11.25 21.75 C 12.078125 21.75 12.75 22.421875 12.75 23.25 Z M 12.75 23.25 "/>
<path style=" stroke:none;fill-rule:nonzero;fill:rgb(9.411765%,9.803922%,24.705882%);fill-opacity:1;" d="M 26.25 23.25 C 26.25 24.078125 25.578125 24.75 24.75 24.75 C 23.921875 24.75 23.25 24.078125 23.25 23.25 C 23.25 22.421875 23.921875 21.75 24.75 21.75 C 25.578125 21.75 26.25 22.421875 26.25 23.25 Z M 26.25 23.25 "/>
<path style=" stroke:none;fill-rule:nonzero;fill:rgb(9.411765%,9.803922%,24.705882%);fill-opacity:1;" d="M 14.25 12.75 C 14.25 13.578125 13.578125 14.25 12.75 14.25 C 11.921875 14.25 11.25 13.578125 11.25 12.75 C 11.25 11.921875 11.921875 11.25 12.75 11.25 C 13.578125 11.25 14.25 11.921875 14.25 12.75 Z M 14.25 12.75 "/>
<path style="fill:none;stroke-width:3;stroke-linecap:round;stroke-linejoin:round;stroke:rgb(9.411765%,9.803922%,24.705882%);stroke-opacity:1;stroke-miterlimit:10;" d="M 7 31.75 C 7 26.640625 11.140625 22.5 16.25 22.5 C 21.359375 22.5 25.5 26.640625 25.5 31.75 C 25.5 36.859375 21.359375 41 16.25 41 C 13.645833 41 11.296875 39.927083 9.614583 38.192708 " transform="matrix(0.75,0,0,0.75,0,0)"/>
</g>
</svg>
