<?xml version="1.0" encoding="UTF-8"?>
<svg xmlns="http://www.w3.org/2000/svg" xmlns:xlink="http://www.w3.org/1999/xlink" width="36pt" height="36pt" viewBox="0 0 36 36" version="1.1">
<g id="surface25194">
<path style=" stroke:none;fill-rule:nonzero;fill:rgb(64.705884%,83.92157%,65.490198%);fill-opacity:1;" d="M 24.84375 29.675781 C 27.058594 24.539062 32.953125 21.722656 32.953125 16.128906 C 32.953125 11.585938 29.472656 9.425781 27.21875 9.425781 C 27.136719 9.425781 26.746094 9.417969 26.34375 9.414062 C 24.828125 8.019531 22.742188 7.613281 21.113281 7.613281 C 19.484375 7.613281 17.398438 8.019531 15.886719 9.417969 C 15.371094 9.421875 14.914062 9.425781 14.800781 9.425781 C 12.539062 9.425781 9.046875 11.585938 9.046875 16.128906 C 9.046875 21.945312 15.34375 24.511719 17.34375 30.074219 C 17.300781 30.324219 17.269531 30.574219 17.269531 30.835938 C 17.269531 32.796875 19.015625 34.390625 21.164062 34.390625 C 23.316406 34.390625 25.195312 32.792969 25.058594 30.835938 C 25.035156 30.453125 24.957031 30.066406 24.84375 29.675781 Z M 24.84375 29.675781 "/>
<path style="fill:none;stroke-width:3;stroke-linecap:round;stroke-linejoin:round;stroke:rgb(9.411765%,9.803922%,24.705882%);stroke-opacity:1;stroke-miterlimit:10;" d="M 10.734375 9.84375 C 8.90625 11.359375 7.458333 13.8125 7.458333 17.255208 C 7.458333 25.375 16.255208 28.770833 18.9375 36.609375 " transform="matrix(0.75,0,0,0.75,0,0)"/>
<path style="fill:none;stroke-width:3;stroke-linecap:round;stroke-linejoin:round;stroke:rgb(9.411765%,9.803922%,24.705882%);stroke-opacity:1;stroke-miterlimit:10;" d="M 38.854167 11.557292 C 39.864583 13.005208 40.541667 14.901042 40.541667 17.260417 C 40.541667 25.072917 32.432292 28.505208 29.432292 35.739583 " transform="matrix(0.75,0,0,0.75,0,0)"/>
<path style="fill:none;stroke-width:3;stroke-linecap:round;stroke-linejoin:round;stroke:rgb(9.411765%,9.803922%,24.705882%);stroke-opacity:1;stroke-miterlimit:10;" d="M 17.838542 25.328125 C 19.088542 27.276042 20.458333 29.020833 21.598958 30.375 " transform="matrix(0.75,0,0,0.75,0,0)"/>
<path style="fill:none;stroke-width:3;stroke-linecap:round;stroke-linejoin:round;stroke:rgb(9.411765%,9.803922%,24.705882%);stroke-opacity:1;stroke-miterlimit:10;" d="M 30.942708 24.588542 C 32.734375 21.65625 34.171875 18.348958 34.171875 15.302083 C 34.171875 7.255208 28.161458 5.46875 24.161458 5.46875 C 20.15625 5.46875 14.151042 7.255208 14.151042 15.302083 C 14.151042 16.713542 14.458333 18.182292 14.96875 19.645833 " transform="matrix(0.75,0,0,0.75,0,0)"/>
<path style="fill:none;stroke-width:3;stroke-linecap:round;stroke-linejoin:round;stroke:rgb(9.411765%,9.803922%,24.705882%);stroke-opacity:1;stroke-miterlimit:10;" d="M 24 22.9375 C 24 19.65625 24 20.526042 24 16.161458 C 24 16.161458 24 14.630208 24 22.828125 C 24 30.208333 18.838542 33.0625 18.838542 37.609375 C 18.838542 40.328125 21.255208 42.53125 24.229167 42.53125 C 27.208333 42.53125 29.807292 40.322917 29.619792 37.609375 C 29.307292 33.0625 24 27.854167 24 22.9375 Z M 24 22.9375 " transform="matrix(0.75,0,0,0.75,0,0)"/>
</g>
</svg>
