<?xml version="1.0" encoding="UTF-8"?>
<svg xmlns="http://www.w3.org/2000/svg" xmlns:xlink="http://www.w3.org/1999/xlink" width="36pt" height="36pt" viewBox="0 0 36 36" version="1.1">
<g id="surface15390">
<path style=" stroke:none;fill-rule:nonzero;fill:rgb(100%,87.843138%,50.980395%);fill-opacity:1;" d="M 32.269531 8.296875 L 10.457031 8.296875 C 8.046875 8.296875 6.09375 10.25 6.09375 12.660156 L 6.09375 13.386719 C 6.09375 14.992188 7.394531 16.296875 9.003906 16.296875 L 9.003906 32.292969 C 9.003906 33.898438 9.578125 35.203125 11.183594 35.203125 L 29.363281 35.203125 C 30.96875 35.203125 32.269531 33.898438 32.269531 32.292969 L 32.269531 15.570312 C 34.277344 15.570312 35.90625 13.941406 35.90625 11.933594 C 35.90625 9.925781 34.277344 8.296875 32.269531 8.296875 Z M 32.269531 8.296875 "/>
<path style="fill:none;stroke-width:3;stroke-linecap:round;stroke-linejoin:round;stroke:rgb(9.411765%,9.803922%,24.705882%);stroke-opacity:1;stroke-miterlimit:10;" d="M 17.5 17.5 C 14.739583 17.5 12.5 15.260417 12.5 12.5 L 12.5 11.5 C 12.5 8.739583 14.739583 6.5 17.5 6.5 L 28 6.5 " transform="matrix(0.75,0,0,0.75,0,0)"/>
<path style="fill:none;stroke-width:3;stroke-linecap:round;stroke-linejoin:round;stroke:rgb(9.411765%,9.803922%,24.705882%);stroke-opacity:1;stroke-miterlimit:10;" d="M 36 6.5 L 39.5 6.5 C 42.260417 6.5 44.5 8.739583 44.5 11.5 C 44.5 14.260417 42.260417 16.5 39.5 16.5 L 39.5 39.5 C 39.5 41.708333 37.708333 43.5 35.5 43.5 L 21.5 43.5 C 19.291667 43.5 17.5 41.708333 17.5 39.5 L 17.5 25.541667 " transform="matrix(0.75,0,0,0.75,0,0)"/>
<path style="fill:none;stroke-width:3;stroke-linecap:round;stroke-linejoin:round;stroke:rgb(9.411765%,9.803922%,24.705882%);stroke-opacity:1;stroke-miterlimit:10;" d="M 13.911458 43.5 L 10.5 43.5 C 8.291667 43.5 7.5 41.708333 7.5 39.5 L 7.5 17.5 C 5.291667 17.5 3.5 15.708333 3.5 13.5 L 3.5 12.5 C 3.5 9.1875 6.1875 6.5 9.5 6.5 L 21.5 6.5 " transform="matrix(0.75,0,0,0.75,0,0)"/>
<path style="fill:none;stroke-width:3;stroke-linecap:round;stroke-linejoin:round;stroke:rgb(9.411765%,9.803922%,24.705882%);stroke-opacity:1;stroke-miterlimit:10;" d="M 17.651042 17.5 L 7.5 17.5 " transform="matrix(0.75,0,0,0.75,0,0)"/>
<path style=" stroke:none;fill-rule:nonzero;fill:rgb(9.411765%,9.803922%,24.705882%);fill-opacity:1;" d="M 18.75 13.875 C 18.75 14.496094 18.246094 15 17.625 15 C 17.003906 15 16.5 14.496094 16.5 13.875 C 16.5 13.253906 17.003906 12.75 17.625 12.75 C 18.246094 12.75 18.75 13.253906 18.75 13.875 Z M 18.75 13.875 "/>
<path style=" stroke:none;fill-rule:nonzero;fill:rgb(9.411765%,9.803922%,24.705882%);fill-opacity:1;" d="M 23.25 10.875 C 23.25 11.496094 22.746094 12 22.125 12 C 21.503906 12 21 11.496094 21 10.875 C 21 10.253906 21.503906 9.75 22.125 9.75 C 22.746094 9.75 23.25 10.253906 23.25 10.875 Z M 23.25 10.875 "/>
<path style=" stroke:none;fill-rule:nonzero;fill:rgb(9.411765%,9.803922%,24.705882%);fill-opacity:1;" d="M 21.75 17.625 C 21.75 18.246094 21.246094 18.75 20.625 18.75 C 20.003906 18.75 19.5 18.246094 19.5 17.625 C 19.5 17.003906 20.003906 16.5 20.625 16.5 C 21.246094 16.5 21.75 17.003906 21.75 17.625 Z M 21.75 17.625 "/>
<path style=" stroke:none;fill-rule:nonzero;fill:rgb(9.411765%,9.803922%,24.705882%);fill-opacity:1;" d="M 26.25 20.625 C 26.25 21.246094 25.746094 21.75 25.125 21.75 C 24.503906 21.75 24 21.246094 24 20.625 C 24 20.003906 24.503906 19.5 25.125 19.5 C 25.746094 19.5 26.25 20.003906 26.25 20.625 Z M 26.25 20.625 "/>
<path style=" stroke:none;fill-rule:nonzero;fill:rgb(9.411765%,9.803922%,24.705882%);fill-opacity:1;" d="M 18.75 22.125 C 18.75 22.746094 18.246094 23.25 17.625 23.25 C 17.003906 23.25 16.5 22.746094 16.5 22.125 C 16.5 21.503906 17.003906 21 17.625 21 C 18.246094 21 18.75 21.503906 18.75 22.125 Z M 18.75 22.125 "/>
<path style=" stroke:none;fill-rule:nonzero;fill:rgb(9.411765%,9.803922%,24.705882%);fill-opacity:1;" d="M 23.25 24.375 C 23.25 24.996094 22.746094 25.5 22.125 25.5 C 21.503906 25.5 21 24.996094 21 24.375 C 21 23.753906 21.503906 23.25 22.125 23.25 C 22.746094 23.25 23.25 23.753906 23.25 24.375 Z M 23.25 24.375 "/>
<path style=" stroke:none;fill-rule:nonzero;fill:rgb(9.411765%,9.803922%,24.705882%);fill-opacity:1;" d="M 26.25 28.875 C 26.25 29.496094 25.746094 30 25.125 30 C 24.503906 30 24 29.496094 24 28.875 C 24 28.253906 24.503906 27.75 25.125 27.75 C 25.746094 27.75 26.25 28.253906 26.25 28.875 Z M 26.25 28.875 "/>
<path style=" stroke:none;fill-rule:nonzero;fill:rgb(9.411765%,9.803922%,24.705882%);fill-opacity:1;" d="M 18.75 28.125 C 18.75 28.746094 18.246094 29.25 17.625 29.25 C 17.003906 29.25 16.5 28.746094 16.5 28.125 C 16.5 27.503906 17.003906 27 17.625 27 C 18.246094 27 18.75 27.503906 18.75 28.125 Z M 18.75 28.125 "/>
<path style=" stroke:none;fill-rule:nonzero;fill:rgb(9.411765%,9.803922%,24.705882%);fill-opacity:1;" d="M 27 15.375 C 27 15.996094 26.496094 16.5 25.875 16.5 C 25.253906 16.5 24.75 15.996094 24.75 15.375 C 24.75 14.753906 25.253906 14.25 25.875 14.25 C 26.496094 14.25 27 14.753906 27 15.375 Z M 27 15.375 "/>
</g>
</svg>
