<?xml version="1.0" encoding="UTF-8"?>
<svg xmlns="http://www.w3.org/2000/svg" xmlns:xlink="http://www.w3.org/1999/xlink" width="36pt" height="36pt" viewBox="0 0 36 36" version="1.1">
<g id="surface15468">
<path style=" stroke:none;fill-rule:nonzero;fill:rgb(100%,87.843138%,50.980395%);fill-opacity:1;" d="M 29.175781 8.175781 C 25.875 8.175781 23.851562 8.851562 22.199219 10.5 C 18.449219 9.449219 14.699219 12.375 14.476562 15.898438 C 10.425781 16.875 9 20.25 9.75 23.699219 C 8.550781 24.976562 8.175781 27.074219 8.175781 29.101562 C 8.175781 30.675781 8.398438 31.949219 9.75 33 C 12.074219 35.324219 17.773438 30.75 24.375 24.226562 C 29.699219 18.898438 33.824219 14.476562 33.824219 11.25 C 33.824219 9.375 31.351562 8.175781 29.175781 8.175781 Z M 29.175781 8.175781 "/>
<path style="fill:none;stroke-width:3;stroke-linecap:round;stroke-linejoin:miter;stroke:rgb(9.411765%,9.803922%,24.705882%);stroke-opacity:1;stroke-miterlimit:4;" d="M 31.598958 24.901042 C 30.598958 26 29.5 27.098958 28.401042 28.197917 C 19.901042 36.598958 12.598958 42.5 9.598958 39.5 C 7.901042 38.197917 7.598958 36.5 7.598958 34.5 C 7.598958 34.401042 7.598958 34.401042 7.598958 34.302083 " transform="matrix(0.75,0,0,0.75,0,0)"/>
<path style="fill:none;stroke-width:3;stroke-linecap:round;stroke-linejoin:miter;stroke:rgb(9.411765%,9.803922%,24.705882%);stroke-opacity:1;stroke-miterlimit:4;" d="M 31.302083 7.697917 C 32.302083 7.598958 33.302083 7.5 34.5 7.5 C 37.302083 7.5 40.5 9 40.5 11.5 C 40.5 13.5 39.302083 15.802083 37.302083 18.5 " transform="matrix(0.75,0,0,0.75,0,0)"/>
<path style="fill:none;stroke-width:3;stroke-linecap:round;stroke-linejoin:miter;stroke:rgb(9.411765%,9.803922%,24.705882%);stroke-opacity:1;stroke-miterlimit:4;" d="M 15.5 17.5 C 15.802083 12.901042 20.697917 9.098958 25.5 10.5 " transform="matrix(0.75,0,0,0.75,0,0)"/>
<path style="fill:none;stroke-width:3;stroke-linecap:round;stroke-linejoin:miter;stroke:rgb(9.411765%,9.803922%,24.705882%);stroke-opacity:1;stroke-miterlimit:4;" d="M 9.5 27.5 C 8.598958 23.098958 10.302083 18.697917 15.5 17.5 " transform="matrix(0.75,0,0,0.75,0,0)"/>
<path style="fill:none;stroke-width:3;stroke-linecap:round;stroke-linejoin:miter;stroke:rgb(9.411765%,9.803922%,24.705882%);stroke-opacity:1;stroke-miterlimit:4;" d="M 9.5 27.5 C 12.697917 27.5 15.5 29.5 15.5 29.5 " transform="matrix(0.75,0,0,0.75,0,0)"/>
<path style="fill:none;stroke-width:3;stroke-linecap:round;stroke-linejoin:miter;stroke:rgb(9.411765%,9.803922%,24.705882%);stroke-opacity:1;stroke-miterlimit:4;" d="M 15.5 17.5 C 19.401042 17.5 22.5 19.5 22.5 19.5 " transform="matrix(0.75,0,0,0.75,0,0)"/>
<path style="fill:none;stroke-width:3;stroke-linecap:round;stroke-linejoin:miter;stroke:rgb(9.411765%,9.803922%,24.705882%);stroke-opacity:1;stroke-miterlimit:4;" d="M 25.5 10.5 C 27.901042 11.197917 30.5 12.5 30.5 12.5 " transform="matrix(0.75,0,0,0.75,0,0)"/>
</g>
</svg>
