<?xml version="1.0" encoding="UTF-8"?>
<svg xmlns="http://www.w3.org/2000/svg" xmlns:xlink="http://www.w3.org/1999/xlink" width="36pt" height="36pt" viewBox="0 0 36 36" version="1.1">
<g id="surface25252">
<path style=" stroke:none;fill-rule:nonzero;fill:rgb(64.705884%,83.92157%,65.490198%);fill-opacity:1;" d="M 35.625 18 C 35.625 15.375 34.050781 13.125 31.726562 12.148438 C 31.125 9.300781 28.574219 7.125 25.5 7.125 C 23.773438 7.125 22.125 7.800781 21 9 C 19.875 7.875 18.226562 7.125 16.5 7.125 C 13.425781 7.125 10.726562 9.523438 10.125 12.375 C 7.800781 13.351562 6.375 15.375 6.375 18 C 6.375 21.523438 9.226562 24.375 12.75 24.375 C 12.75 24.375 12.75 24.375 12.824219 24.375 C 14.476562 27 15.148438 29.925781 15.300781 32.699219 C 15.375 34.125 16.648438 35.25 18 35.25 C 19.800781 35.25 22.199219 35.25 24 35.25 C 25.425781 35.25 26.625 34.199219 26.699219 32.773438 C 27.074219 28.800781 28.125 26.925781 29.476562 24.375 C 32.925781 24.226562 35.625 21.449219 35.625 18 Z M 35.625 18 "/>
<path style="fill:none;stroke-width:3;stroke-linecap:round;stroke-linejoin:round;stroke:rgb(9.411765%,9.803922%,24.705882%);stroke-opacity:1;stroke-miterlimit:4;" d="M 15.598958 33.401042 C 16.302083 35.197917 16.697917 37 16.802083 39.098958 C 16.901042 41 18.598958 42.5 20.401042 42.5 L 27.697917 42.5 C 29.598958 42.5 31.197917 41.098958 31.302083 39.197917 C 31.802083 33.901042 33.302083 32.5 35.197917 29 " transform="matrix(0.75,0,0,0.75,0,0)"/>
<path style="fill:none;stroke-width:3;stroke-linecap:round;stroke-linejoin:round;stroke:rgb(9.411765%,9.803922%,24.705882%);stroke-opacity:1;stroke-miterlimit:4;" d="M 9.5 12.5 C 6.401042 13.802083 4.5 16.5 4.5 20 C 4.5 24.697917 8.302083 28.5 13 28.5 C 15.697917 28.5 18.098958 27.302083 19.598958 25.302083 C 20.598958 26.598958 22.197917 27.5 24 27.5 C 25.802083 27.5 27.401042 26.598958 28.401042 25.302083 C 30 27.197917 32.302083 28.5 35 28.5 C 37 28.5 38.802083 27.802083 40.302083 26.598958 " transform="matrix(0.75,0,0,0.75,0,0)"/>
<path style="fill:none;stroke-width:3;stroke-linecap:round;stroke-linejoin:round;stroke:rgb(9.411765%,9.803922%,24.705882%);stroke-opacity:1;stroke-miterlimit:4;" d="M 43.197917 22.302083 C 43.401042 21.598958 43.5 20.802083 43.5 20.098958 C 43.5 16.598958 41.401042 13.598958 38.302083 12.302083 C 37.5 8.5 34.098958 5.598958 30 5.598958 C 27.697917 5.598958 25.5 6.5 24 8.098958 C 22.5 6.598958 20.302083 5.598958 18 5.598958 C 16.5 5.598958 15.098958 6 13.802083 6.802083 " transform="matrix(0.75,0,0,0.75,0,0)"/>
<path style="fill:none;stroke-width:3;stroke-linecap:round;stroke-linejoin:round;stroke:rgb(9.411765%,9.803922%,24.705882%);stroke-opacity:1;stroke-miterlimit:4;" d="M 30.5 19.5 C 30.5 19.5 30.5 15.5 34.5 15.5 " transform="matrix(0.75,0,0,0.75,0,0)"/>
<path style="fill:none;stroke-width:3;stroke-linecap:round;stroke-linejoin:round;stroke:rgb(9.411765%,9.803922%,24.705882%);stroke-opacity:1;stroke-miterlimit:4;" d="M 13.5 15.5 C 13.5 15.5 17.5 15.5 17.5 19.5 " transform="matrix(0.75,0,0,0.75,0,0)"/>
<path style="fill:none;stroke-width:3;stroke-linecap:round;stroke-linejoin:round;stroke:rgb(9.411765%,9.803922%,24.705882%);stroke-opacity:1;stroke-miterlimit:4;" d="M 19.197917 27.098958 C 20.302083 28.802083 21.197917 31.197917 21.697917 34 C 21.901042 35 22.802083 35.802083 23.802083 35.802083 L 24 35.802083 C 25.098958 35.802083 26 35 26.197917 33.901042 C 26.401042 32.901042 26.598958 32 26.901042 31.098958 " transform="matrix(0.75,0,0,0.75,0,0)"/>
</g>
</svg>
