<?xml version="1.0" encoding="UTF-8"?>
<svg xmlns="http://www.w3.org/2000/svg" xmlns:xlink="http://www.w3.org/1999/xlink" width="36pt" height="36pt" viewBox="0 0 36 36" version="1.1">
<g id="surface28232">
<path style=" stroke:none;fill-rule:nonzero;fill:rgb(100%,87.843138%,50.980395%);fill-opacity:1;" d="M 33.824219 20.25 L 23.730469 20.25 C 21.816406 18.992188 21.085938 16.984375 21.226562 15.007812 L 31.417969 15.035156 C 32.316406 15.039062 32.96875 14.160156 32.691406 13.300781 C 31.9375 10.96875 29.738281 9 27.167969 9 L 14.988281 9 C 9.535156 9 8.578125 17.292969 11.578125 20.25 L 8.175781 20.25 C 7.386719 20.25 6.75 20.921875 6.75 21.75 L 6.75 32.25 C 6.75 33.078125 7.386719 33.75 8.175781 33.75 L 33.824219 33.75 C 34.613281 33.75 35.25 33.078125 35.25 32.25 L 35.25 21.75 C 35.25 20.921875 34.613281 20.25 33.824219 20.25 Z M 33.824219 20.25 "/>
<path style="fill:none;stroke-width:3;stroke-linecap:round;stroke-linejoin:round;stroke:rgb(9.411765%,9.803922%,24.705882%);stroke-opacity:1;stroke-miterlimit:10;" d="M 24.541667 15.479167 L 37.697917 15.526042 C 38.875 15.526042 39.713542 14.385417 39.359375 13.265625 C 38.375 10.161458 35.453125 7.53125 32.03125 7.53125 L 30.223958 7.53125 " transform="matrix(0.75,0,0,0.75,0,0)"/>
<path style="fill:none;stroke-width:3;stroke-linecap:round;stroke-linejoin:round;stroke:rgb(9.411765%,9.803922%,24.705882%);stroke-opacity:1;stroke-miterlimit:10;" d="M 12.114583 22.53125 C 7.744792 19.03125 8.838542 7.53125 16.166667 7.53125 L 31.291667 7.53125 C 24.427083 8.109375 21.192708 18.744792 28.135417 22.53125 " transform="matrix(0.75,0,0,0.75,0,0)"/>
<path style="fill:none;stroke-width:3;stroke-linecap:round;stroke-linejoin:round;stroke:rgb(9.411765%,9.803922%,24.705882%);stroke-opacity:1;stroke-miterlimit:10;" d="M 36.354167 40.46875 L 40.708333 40.46875 C 41.729167 40.46875 42.5625 39.578125 42.5625 38.473958 L 42.5625 24.526042 C 42.5625 23.421875 41.729167 22.53125 40.708333 22.53125 L 28.135417 22.53125 " transform="matrix(0.75,0,0,0.75,0,0)"/>
<path style="fill:none;stroke-width:3;stroke-linecap:round;stroke-linejoin:round;stroke:rgb(9.411765%,9.803922%,24.705882%);stroke-opacity:1;stroke-miterlimit:10;" d="M 17.8125 22.53125 L 7.291667 22.53125 C 6.270833 22.53125 5.4375 23.421875 5.4375 24.526042 L 5.4375 38.473958 C 5.4375 39.578125 6.270833 40.46875 7.291667 40.46875 L 28.770833 40.46875 " transform="matrix(0.75,0,0,0.75,0,0)"/>
</g>
</svg>
