<?xml version="1.0" encoding="UTF-8"?>
<svg xmlns="http://www.w3.org/2000/svg" xmlns:xlink="http://www.w3.org/1999/xlink" width="36pt" height="36pt" viewBox="0 0 36 36" version="1.1">
<g id="surface26831">
<path style=" stroke:none;fill-rule:nonzero;fill:rgb(64.705884%,83.92157%,65.490198%);fill-opacity:1;" d="M 31.125 22.125 L 31.058594 22.164062 C 32.003906 21.480469 32.625 20.378906 32.625 19.125 C 32.625 18.335938 32.378906 17.613281 31.960938 17.011719 C 31.570312 16.453125 31.527344 15.734375 31.710938 15.078125 C 31.914062 14.351562 31.941406 13.554688 31.730469 12.726562 C 31.320312 11.089844 29.957031 9.796875 28.300781 9.46875 C 26.785156 9.164062 25.371094 9.625 24.367188 10.535156 C 23.816406 11.03125 23.039062 11.1875 22.320312 10.996094 C 22.019531 10.917969 21.703125 10.875 21.375 10.875 C 19.855469 10.875 18.554688 11.785156 17.964844 13.082031 C 17.394531 12.109375 16.289062 11.4375 15 11.4375 C 13.136719 11.4375 11.625 12.824219 11.625 14.53125 C 11.625 14.828125 11.6875 15.113281 11.773438 15.386719 C 9.1875 15.507812 7.125 17.632812 7.125 20.25 C 7.125 21.832031 7.878906 23.238281 9.046875 24.125 C 9.757812 24.664062 10.183594 25.484375 10.128906 26.371094 C 10.125 26.425781 10.125 26.476562 10.125 26.53125 C 10.125 28.875 12.375 29.625 12.375 29.625 C 12.375 29.625 11.625 34.125 19.125 33.375 L 19.125 33.351562 C 20.238281 34.300781 21.675781 34.875 23.25 34.875 C 25.320312 34.875 27.152344 33.886719 28.316406 32.359375 C 28.554688 32.042969 28.917969 31.847656 29.3125 31.804688 C 30.597656 31.671875 34.125 30.375 34.125 26.625 C 34.125 24.75 32.839844 22.625 31.125 22.125 Z M 31.125 22.125 "/>
<path style="fill:none;stroke-width:3;stroke-linecap:round;stroke-linejoin:round;stroke:rgb(9.411765%,9.803922%,24.705882%);stroke-opacity:1;stroke-miterlimit:10;" d="M 14.119792 22.270833 C 15.666667 17.75 19.953125 14.5 25 14.5 C 25.510417 14.5 26.010417 14.53125 26.5 14.598958 " transform="matrix(0.75,0,0,0.75,0,0)"/>
<path style="fill:none;stroke-width:3;stroke-linecap:round;stroke-linejoin:round;stroke:rgb(9.411765%,9.803922%,24.705882%);stroke-opacity:1;stroke-miterlimit:10;" d="M 33.119792 17.859375 C 35.208333 19.9375 36.5 22.817708 36.5 26 C 36.5 32.348958 31.348958 37.5 25 37.5 C 19.958333 37.5 15.671875 34.255208 14.119792 29.739583 " transform="matrix(0.75,0,0,0.75,0,0)"/>
<path style="fill:none;stroke-width:3;stroke-linecap:round;stroke-linejoin:round;stroke:rgb(9.411765%,9.803922%,24.705882%);stroke-opacity:1;stroke-miterlimit:10;" d="M 21.5 15.5 C 21.5 15.5 22.5 21.5 27.5 21.5 C 27.5 21.5 26.5 26.5 31.5 26.5 C 31.5 26.5 30.5 30.5 35.5 30.5 " transform="matrix(0.75,0,0,0.75,0,0)"/>
<path style="fill:none;stroke-width:3;stroke-linecap:round;stroke-linejoin:round;stroke:rgb(9.411765%,9.803922%,24.705882%);stroke-opacity:1;stroke-miterlimit:10;" d="M 14.5 29.5 C 14.5 29.5 18.5 29.5 19.5 24.5 C 19.5 24.5 23.5 27.5 26.5 23.5 " transform="matrix(0.75,0,0,0.75,0,0)"/>
<path style="fill:none;stroke-width:3;stroke-linecap:round;stroke-linejoin:round;stroke:rgb(9.411765%,9.803922%,24.705882%);stroke-opacity:1;stroke-miterlimit:10;" d="M 36.447917 26.109375 C 38.239583 25.348958 39.5 23.572917 39.5 21.5 C 39.5 20.447917 39.171875 19.484375 38.614583 18.682292 C 38.09375 17.9375 38.036458 16.979167 38.28125 16.104167 C 38.552083 15.135417 38.588542 14.072917 38.307292 12.96875 C 37.760417 10.786458 35.942708 9.0625 33.734375 8.625 C 31.713542 8.21875 29.828125 8.833333 28.489583 10.046875 C 27.755208 10.708333 26.71875 10.916667 25.760417 10.661458 C 25.359375 10.557292 24.9375 10.5 24.5 10.5 C 21.739583 10.5 19.5 12.739583 19.5 15.5 " transform="matrix(0.75,0,0,0.75,0,0)"/>
<path style="fill:none;stroke-width:3;stroke-linecap:round;stroke-linejoin:round;stroke:rgb(9.411765%,9.803922%,24.705882%);stroke-opacity:1;stroke-miterlimit:10;" d="M 20.5 15.375 C 20.5 13.098958 18.484375 11.25 16 11.25 C 13.515625 11.25 11.5 13.098958 11.5 15.375 C 11.5 15.770833 11.583333 16.151042 11.697917 16.515625 C 8.25 16.677083 5.5 19.510417 5.5 23 C 5.5 25.109375 6.505208 26.984375 8.0625 28.166667 C 9.010417 28.885417 9.578125 29.979167 9.505208 31.161458 C 9.5 31.234375 9.5 31.302083 9.5 31.375 C 9.5 34.5 12.5 35.5 12.5 35.5 C 12.5 35.5 11.5 41.5 21.5 40.5 " transform="matrix(0.75,0,0,0.75,0,0)"/>
<path style="fill:none;stroke-width:3;stroke-linecap:round;stroke-linejoin:round;stroke:rgb(9.411765%,9.803922%,24.705882%);stroke-opacity:1;stroke-miterlimit:10;" d="M 33.755208 39.145833 C 34.072917 38.723958 34.557292 38.463542 35.083333 38.40625 C 36.796875 38.229167 41.5 36.5 41.5 31.5 C 41.5 29 39.786458 26.166667 37.5 25.5 " transform="matrix(0.75,0,0,0.75,0,0)"/>
<path style="fill:none;stroke-width:3;stroke-linecap:round;stroke-linejoin:round;stroke:rgb(9.411765%,9.803922%,24.705882%);stroke-opacity:1;stroke-miterlimit:10;" d="M 18.739583 36.005208 C 19.640625 39.734375 22.994792 42.5 27 42.5 C 27.505208 42.5 28 42.458333 28.479167 42.369792 " transform="matrix(0.75,0,0,0.75,0,0)"/>
</g>
</svg>
