<?xml version="1.0" encoding="UTF-8"?>
<svg xmlns="http://www.w3.org/2000/svg" xmlns:xlink="http://www.w3.org/1999/xlink" width="36pt" height="36pt" viewBox="0 0 36 36" version="1.1">
<g id="surface24556">
<path style=" stroke:none;fill-rule:nonzero;fill:rgb(95.686275%,56.078434%,69.411767%);fill-opacity:1;" d="M 35.324219 18.148438 L 13.273438 13.125 C 12.824219 13.050781 12.449219 13.050781 12 13.125 C 10.125 13.5 6.074219 15.226562 6.074219 19.125 L 6.074219 32.175781 C 6.074219 33.449219 7.125 34.5 8.398438 34.5 L 33.675781 34.5 C 34.949219 34.5 36 33.449219 36 32.175781 L 36 18.898438 C 35.925781 18.523438 35.699219 18.226562 35.324219 18.148438 Z M 35.324219 18.148438 "/>
<path style="fill:none;stroke-width:3;stroke-linecap:round;stroke-linejoin:round;stroke:rgb(9.411765%,9.803922%,24.705882%);stroke-opacity:1;stroke-miterlimit:10;" d="M 17.5 14.598958 L 13.197917 13.598958 C 11.697917 13.598958 4.5 15.5 4.5 21.5 " transform="matrix(0.75,0,0,0.75,0,0)"/>
<path style="fill:none;stroke-width:3;stroke-linecap:round;stroke-linejoin:round;stroke:rgb(9.411765%,9.803922%,24.705882%);stroke-opacity:1;stroke-miterlimit:10;" d="M 43.5 27.598958 L 43.5 21.302083 C 43.5 20.802083 43.197917 20.401042 42.697917 20.302083 L 24.098958 16 " transform="matrix(0.75,0,0,0.75,0,0)"/>
<path style="fill:none;stroke-width:3;stroke-linecap:round;stroke-linejoin:round;stroke:rgb(9.411765%,9.803922%,24.705882%);stroke-opacity:1;stroke-miterlimit:10;" d="M 43.5 27.598958 L 43.5 21.5 " transform="matrix(0.75,0,0,0.75,0,0)"/>
<path style="fill:none;stroke-width:3;stroke-linecap:round;stroke-linejoin:round;stroke:rgb(9.411765%,9.803922%,24.705882%);stroke-opacity:1;stroke-miterlimit:10;" d="M 22.802083 41.5 L 40.5 41.5 C 42.197917 41.5 43.5 40.197917 43.5 38.5 L 43.5 33.697917 " transform="matrix(0.75,0,0,0.75,0,0)"/>
<path style="fill:none;stroke-width:3;stroke-linecap:round;stroke-linejoin:round;stroke:rgb(9.411765%,9.803922%,24.705882%);stroke-opacity:1;stroke-miterlimit:10;" d="M 4.5 21.5 L 4.5 38.5 C 4.5 40.197917 5.802083 41.5 7.5 41.5 L 12.901042 41.5 " transform="matrix(0.75,0,0,0.75,0,0)"/>
<path style="fill:none;stroke-width:3;stroke-linecap:round;stroke-linejoin:round;stroke:rgb(9.411765%,9.803922%,24.705882%);stroke-opacity:1;stroke-miterlimit:10;" d="M 43.5 21.5 L 5.697917 21.5 " transform="matrix(0.75,0,0,0.75,0,0)"/>
<path style="fill:none;stroke-width:3;stroke-linecap:butt;stroke-linejoin:miter;stroke:rgb(9.411765%,9.803922%,24.705882%);stroke-opacity:1;stroke-miterlimit:10;" d="M 24.401042 13.901042 C 24.401042 15.776042 22.880208 17.302083 21 17.302083 C 19.119792 17.302083 17.598958 15.776042 17.598958 13.901042 C 17.598958 12.020833 19.119792 10.5 21 10.5 C 22.880208 10.5 24.401042 12.020833 24.401042 13.901042 Z M 24.401042 13.901042 " transform="matrix(0.75,0,0,0.75,0,0)"/>
<path style="fill:none;stroke-width:3;stroke-linecap:round;stroke-linejoin:miter;stroke:rgb(9.411765%,9.803922%,24.705882%);stroke-opacity:1;stroke-miterlimit:10;" d="M 29.098958 5.802083 C 25.901042 5.802083 23.098958 7.697917 21.802083 10.401042 " transform="matrix(0.75,0,0,0.75,0,0)"/>
<path style="fill:none;stroke-width:3;stroke-linecap:round;stroke-linejoin:round;stroke:rgb(9.411765%,9.803922%,24.705882%);stroke-opacity:1;stroke-miterlimit:10;" d="M 31.302083 34.5 L 4.5 34.5 " transform="matrix(0.75,0,0,0.75,0,0)"/>
<path style="fill:none;stroke-width:3;stroke-linecap:round;stroke-linejoin:round;stroke:rgb(9.411765%,9.803922%,24.705882%);stroke-opacity:1;stroke-miterlimit:10;" d="M 4.5 28.5 L 36.598958 28.5 " transform="matrix(0.75,0,0,0.75,0,0)"/>
</g>
</svg>
