<?xml version="1.0" encoding="UTF-8"?>
<svg xmlns="http://www.w3.org/2000/svg" xmlns:xlink="http://www.w3.org/1999/xlink" width="36pt" height="36pt" viewBox="0 0 36 36" version="1.1">
<g id="surface24075">
<path style=" stroke:none;fill-rule:nonzero;fill:rgb(100%,87.843138%,50.980395%);fill-opacity:1;" d="M 11.878906 9 L 30.121094 9 C 31.710938 9 33 10.289062 33 11.878906 L 33 30.121094 C 33 31.710938 31.710938 33 30.121094 33 L 11.878906 33 C 10.289062 33 9 31.710938 9 30.121094 L 9 11.878906 C 9 10.289062 10.289062 9 11.878906 9 Z M 11.878906 9 "/>
<path style="fill:none;stroke-width:3;stroke-linecap:round;stroke-linejoin:round;stroke:rgb(9.411765%,9.803922%,24.705882%);stroke-opacity:1;stroke-miterlimit:10;" d="M 24.380208 40.5 L 11.5 40.5 C 9.291667 40.5 7.5 38.708333 7.5 36.5 L 7.5 11.5 C 7.5 9.291667 9.291667 7.5 11.5 7.5 L 13.421875 7.5 " transform="matrix(0.75,0,0,0.75,0,0)"/>
<path style="fill:none;stroke-width:3;stroke-linecap:round;stroke-linejoin:round;stroke:rgb(9.411765%,9.803922%,24.705882%);stroke-opacity:1;stroke-miterlimit:10;" d="M 19.291667 7.5 L 36.5 7.5 C 38.708333 7.5 40.5 9.291667 40.5 11.5 L 40.5 36.5 C 40.5 38.708333 38.708333 40.5 36.5 40.5 L 30.541667 40.5 " transform="matrix(0.75,0,0,0.75,0,0)"/>
<path style=" stroke:none;fill-rule:nonzero;fill:rgb(9.411765%,9.803922%,24.705882%);fill-opacity:1;" d="M 11.09375 25.117188 C 10.484375 25.117188 9.527344 24.582031 9.527344 22.136719 C 9.53125 19.6875 11.554688 18.765625 11.554688 18.765625 C 11.554688 18.765625 12.851562 19.6875 12.851562 22.222656 C 12.851562 23.964844 11.707031 25.117188 11.09375 25.117188 Z M 11.09375 25.117188 "/>
<path style=" stroke:none;fill-rule:nonzero;fill:rgb(9.411765%,9.803922%,24.705882%);fill-opacity:1;" d="M 13.96875 26.578125 C 11.523438 26.578125 10.992188 25.621094 10.992188 25.011719 C 10.992188 24.398438 12.140625 23.25 13.882812 23.25 C 16.417969 23.253906 17.246094 24.457031 17.246094 24.457031 C 17.246094 24.457031 16.417969 26.578125 13.96875 26.578125 Z M 13.96875 26.578125 "/>
<path style=" stroke:none;fill-rule:nonzero;fill:rgb(9.411765%,9.803922%,24.705882%);fill-opacity:1;" d="M 15.304688 15.015625 C 15.304688 15.015625 16.679688 15.859375 16.679688 18.394531 C 16.679688 20.136719 15.535156 21.285156 14.921875 21.285156 C 14.3125 21.285156 13.355469 20.75 13.355469 18.308594 C 13.359375 15.859375 15.304688 15.015625 15.304688 15.015625 Z M 15.304688 15.015625 "/>
<path style=" stroke:none;fill-rule:nonzero;fill:rgb(9.411765%,9.803922%,24.705882%);fill-opacity:1;" d="M 17.800781 22.75 C 15.351562 22.75 14.820312 21.792969 14.820312 21.183594 C 14.820312 20.570312 15.96875 19.421875 17.710938 19.421875 C 20.246094 19.421875 20.996094 20.707031 20.996094 20.707031 C 20.996094 20.707031 20.246094 22.75 17.800781 22.75 Z M 17.800781 22.75 "/>
<path style=" stroke:none;fill-rule:nonzero;fill:rgb(9.411765%,9.803922%,24.705882%);fill-opacity:1;" d="M 17.304688 13.925781 C 17.714844 12.289062 19.308594 11.355469 20.546875 11.257812 C 20.648438 11.160156 21.371094 12.792969 20.546875 15.007812 C 19.925781 16.644531 18.644531 17.484375 18.335938 17.390625 C 18.027344 17.292969 16.789062 15.945312 17.304688 13.925781 Z M 17.304688 13.925781 "/>
<path style=" stroke:none;fill-rule:nonzero;fill:rgb(9.411765%,9.803922%,24.705882%);fill-opacity:1;" d="M 22.160156 18.78125 C 20.140625 19.300781 18.792969 18.058594 18.695312 17.75 C 18.601562 17.441406 19.347656 16.066406 20.984375 15.445312 C 23.199219 14.621094 24.832031 15.34375 24.734375 15.445312 C 24.640625 16.683594 23.800781 18.367188 22.160156 18.78125 Z M 22.160156 18.78125 "/>
<path style=" stroke:none;fill-rule:nonzero;fill:rgb(9.411765%,9.803922%,24.705882%);fill-opacity:1;" d="M 25.660156 13.265625 C 24.097656 14.8125 22.339844 14.230469 22.046875 14.039062 C 21.753906 13.75 21.265625 12.007812 22.730469 10.460938 C 24 9.199219 26.738281 9.199219 26.738281 9.199219 C 26.738281 9.199219 26.832031 12.007812 25.660156 13.265625 Z M 25.660156 13.265625 "/>
<path style="fill:none;stroke-width:3;stroke-linecap:round;stroke-linejoin:round;stroke:rgb(9.411765%,9.803922%,24.705882%);stroke-opacity:1;stroke-miterlimit:10;" d="M 32.458333 15.619792 L 13.552083 34.526042 " transform="matrix(0.75,0,0,0.75,0,0)"/>
</g>
</svg>
