<?xml version="1.0" encoding="UTF-8"?>
<svg xmlns="http://www.w3.org/2000/svg" xmlns:xlink="http://www.w3.org/1999/xlink" width="36pt" height="36pt" viewBox="0 0 36 36" version="1.1">
<g id="surface25324">
<path style=" stroke:none;fill-rule:nonzero;fill:rgb(100%,67.058825%,56.862748%);fill-opacity:1;" d="M 28.875 24 C 28.125 24.75 27.300781 25.5 26.398438 26.175781 C 22.949219 28.875 18.523438 31.199219 14.773438 33 C 14.175781 33.300781 13.648438 33.523438 13.125 33.75 C 10.800781 34.800781 8.925781 35.550781 7.875 35.925781 C 7.351562 36.074219 6.75 36 6.300781 35.550781 C 5.851562 35.101562 5.699219 34.5 5.925781 33.976562 C 6.074219 33.523438 6.300781 32.925781 6.601562 32.175781 C 6.824219 31.648438 7.050781 31.050781 7.351562 30.449219 C 8.625 27.523438 10.425781 23.550781 12.675781 19.800781 C 12.976562 19.273438 13.273438 18.824219 13.648438 18.300781 C 14.476562 17.023438 15.300781 15.824219 16.273438 14.699219 C 17.175781 13.574219 18.148438 12.523438 19.425781 11.851562 C 22.125 10.5 25.875 10.949219 28.351562 13.425781 C 31.425781 16.5 31.351562 21.523438 28.875 24 Z M 28.875 24 "/>
<path style="fill:none;stroke-width:3;stroke-linecap:round;stroke-linejoin:round;stroke:rgb(9.411765%,9.803922%,24.705882%);stroke-opacity:1;stroke-miterlimit:10;" d="M 28 11.302083 L 29.302083 5.802083 C 29.697917 4.302083 31.598958 3.697917 32.697917 4.901042 " transform="matrix(0.75,0,0,0.75,0,0)"/>
<path style="fill:none;stroke-width:3;stroke-linecap:round;stroke-linejoin:round;stroke:rgb(9.411765%,9.803922%,24.705882%);stroke-opacity:1;stroke-miterlimit:10;" d="M 43.197917 15.302083 C 44.302083 16.401042 43.802083 18.302083 42.302083 18.697917 L 36.5 20 " transform="matrix(0.75,0,0,0.75,0,0)"/>
<path style="fill:none;stroke-width:3;stroke-linecap:round;stroke-linejoin:round;stroke:rgb(9.411765%,9.803922%,24.705882%);stroke-opacity:1;stroke-miterlimit:10;" d="M 31.697917 12.901042 L 37.197917 5.5 C 37.901042 4.5 39.401042 4.401042 40.197917 5.302083 L 42.598958 7.697917 C 43.5 8.598958 43.401042 10 42.401042 10.697917 L 35.197917 16.197917 " transform="matrix(0.75,0,0,0.75,0,0)"/>
<path style="fill:none;stroke-width:3;stroke-linecap:round;stroke-linejoin:round;stroke:rgb(9.411765%,9.803922%,24.705882%);stroke-opacity:1;stroke-miterlimit:10;" d="M 32.197917 30 C 31.802083 30.401042 31.302083 30.697917 30.901042 31.098958 C 26.401042 34.598958 20.697917 37.697917 15.802083 39.901042 C 15.098958 40.197917 14.302083 40.598958 13.598958 40.901042 C 10.598958 42.197917 8.098958 43.197917 6.802083 43.697917 C 6.098958 44 5.401042 43.802083 4.802083 43.197917 C 4.197917 42.598958 4.098958 41.901042 4.302083 41.197917 C 4.5 40.598958 4.802083 39.802083 5.197917 38.901042 C 5.5 38.197917 5.802083 37.5 6.098958 36.598958 " transform="matrix(0.75,0,0,0.75,0,0)"/>
<path style="fill:none;stroke-width:3;stroke-linecap:round;stroke-linejoin:round;stroke:rgb(9.411765%,9.803922%,24.705882%);stroke-opacity:1;stroke-miterlimit:10;" d="M 8.302083 31.802083 C 9.598958 28.901042 11.302083 25.802083 13.098958 22.802083 C 13.5 22.098958 13.901042 21.5 14.302083 20.802083 C 15.401042 19.197917 16.5 17.598958 17.697917 16.098958 C 18.901042 14.697917 20.098958 13.197917 21.802083 12.401042 C 25.302083 10.697917 30.197917 11.197917 33.401042 14.5 C 36.5 17.598958 37.098958 22.098958 35.697917 25.5 " transform="matrix(0.75,0,0,0.75,0,0)"/>
<path style="fill:none;stroke-width:3;stroke-linecap:round;stroke-linejoin:round;stroke:rgb(9.411765%,9.803922%,24.705882%);stroke-opacity:1;stroke-miterlimit:10;" d="M 20.197917 14.197917 L 25.098958 19.197917 " transform="matrix(0.75,0,0,0.75,0,0)"/>
<path style="fill:none;stroke-width:3;stroke-linecap:round;stroke-linejoin:round;stroke:rgb(9.411765%,9.803922%,24.705882%);stroke-opacity:1;stroke-miterlimit:10;" d="M 25.802083 28.401042 L 28.697917 31.197917 " transform="matrix(0.75,0,0,0.75,0,0)"/>
<path style="fill:none;stroke-width:3;stroke-linecap:round;stroke-linejoin:round;stroke:rgb(9.411765%,9.803922%,24.705882%);stroke-opacity:1;stroke-miterlimit:10;" d="M 13.197917 24.197917 L 15.901042 26.901042 " transform="matrix(0.75,0,0,0.75,0,0)"/>
<path style="fill:none;stroke-width:3;stroke-linecap:round;stroke-linejoin:round;stroke:rgb(9.411765%,9.803922%,24.705882%);stroke-opacity:1;stroke-miterlimit:10;" d="M 13.901042 34.802083 L 17.401042 38.302083 " transform="matrix(0.75,0,0,0.75,0,0)"/>
</g>
</svg>
