<?xml version="1.0" encoding="UTF-8"?>
<svg xmlns="http://www.w3.org/2000/svg" xmlns:xlink="http://www.w3.org/1999/xlink" width="36pt" height="36pt" viewBox="0 0 36 36" version="1.1">
<g id="surface18151">
<path style=" stroke:none;fill-rule:nonzero;fill:rgb(100%,87.843138%,50.980395%);fill-opacity:1;" d="M 28.003906 8.203125 L 28.003906 6.042969 C 28.003906 5.191406 27.3125 4.5 26.460938 4.5 L 15.640625 4.5 C 14.785156 4.5 14.09375 5.191406 14.09375 6.042969 L 14.09375 8.25 L 14.097656 8.25 L 10.707031 13.921875 C 10.570312 14.152344 10.496094 14.421875 10.496094 14.691406 L 10.5 34.464844 C 10.5 34.898438 10.851562 35.25 11.285156 35.25 L 30.738281 35.25 C 31.15625 35.25 31.5 34.90625 31.5 34.488281 L 31.5 14.652344 C 31.5 14.390625 31.429688 14.128906 31.296875 13.902344 Z M 28.003906 8.203125 "/>
<path style=" stroke:none;fill-rule:nonzero;fill:rgb(9.411765%,9.803922%,24.705882%);fill-opacity:1;" d="M 14.351562 20.28125 C 14.351562 20.28125 17.699219 20.28125 18.101562 17.132812 C 18.144531 16.789062 17.839844 16.5 17.5 16.5625 C 16.417969 16.753906 14.351562 17.484375 14.351562 20.28125 Z M 14.351562 20.28125 "/>
<path style="fill:none;stroke-width:3;stroke-linecap:round;stroke-linejoin:round;stroke:rgb(9.411765%,9.803922%,24.705882%);stroke-opacity:1;stroke-miterlimit:10;" d="M 28.5 39.34375 L 28.5 42.5 L 11.5 42.5 C 10.947917 42.5 10.5 42.052083 10.5 41.5 L 10.5 25.260417 " transform="matrix(0.75,0,0,0.75,0,0)"/>
<path style="fill:none;stroke-width:3;stroke-linecap:round;stroke-linejoin:round;stroke:rgb(9.411765%,9.803922%,24.705882%);stroke-opacity:1;stroke-miterlimit:10;" d="M 10.5 17.822917 L 10.5 15.5 L 28.5 15.5 L 28.5 33.526042 " transform="matrix(0.75,0,0,0.75,0,0)"/>
<path style="fill:none;stroke-width:3;stroke-linecap:round;stroke-linejoin:round;stroke:rgb(9.411765%,9.803922%,24.705882%);stroke-opacity:1;stroke-miterlimit:10;" d="M 33 7.5 L 28.5 15.5 L 10.5 15.5 L 15.166667 7.5 L 27.270833 7.5 " transform="matrix(0.75,0,0,0.75,0,0)"/>
<path style="fill:none;stroke-width:3;stroke-linecap:round;stroke-linejoin:round;stroke:rgb(9.411765%,9.803922%,24.705882%);stroke-opacity:1;stroke-miterlimit:10;" d="M 37.5 20.708333 L 37.5 41.5 C 37.5 42.052083 37.052083 42.5 36.5 42.5 L 28.5 42.5 " transform="matrix(0.75,0,0,0.75,0,0)"/>
<path style="fill:none;stroke-width:3;stroke-linecap:round;stroke-linejoin:round;stroke:rgb(9.411765%,9.803922%,24.705882%);stroke-opacity:1;stroke-miterlimit:10;" d="M 28.5 15.5 L 37.5 15.5 " transform="matrix(0.75,0,0,0.75,0,0)"/>
<path style="fill:none;stroke-width:3;stroke-linecap:round;stroke-linejoin:round;stroke:rgb(9.411765%,9.803922%,24.705882%);stroke-opacity:1;stroke-miterlimit:10;" d="M 33 7.5 L 37.5 15.5 " transform="matrix(0.75,0,0,0.75,0,0)"/>
<path style="fill:none;stroke-width:3;stroke-linecap:round;stroke-linejoin:round;stroke:rgb(9.411765%,9.803922%,24.705882%);stroke-opacity:1;stroke-miterlimit:10;" d="M 33 7.5 L 33 4.5 C 33 3.395833 32.104167 2.5 31 2.5 L 17.5 2.5 C 16.395833 2.5 15.5 3.395833 15.5 4.5 L 15.5 7.5 " transform="matrix(0.75,0,0,0.75,0,0)"/>
<path style="fill:none;stroke-width:3;stroke-linecap:round;stroke-linejoin:round;stroke:rgb(9.411765%,9.803922%,24.705882%);stroke-opacity:1;stroke-miterlimit:10;" d="M 23.5 31.5 C 23.5 33.708333 21.708333 35.5 19.5 35.5 C 17.291667 35.5 15.5 33.708333 15.5 31.5 C 15.5 29.291667 17.291667 27.5 19.5 27.5 C 21.708333 27.5 23.5 29.291667 23.5 31.5 Z M 23.5 31.5 " transform="matrix(0.75,0,0,0.75,0,0)"/>
<path style="fill:none;stroke-width:3;stroke-linecap:round;stroke-linejoin:round;stroke:rgb(9.411765%,9.803922%,24.705882%);stroke-opacity:1;stroke-miterlimit:10;" d="M 16.703125 24.135417 C 18.1875 24.489583 19.291667 25.859375 19.291667 27.5 " transform="matrix(0.75,0,0,0.75,0,0)"/>
</g>
</svg>
