<?xml version="1.0" encoding="UTF-8"?>
<svg xmlns="http://www.w3.org/2000/svg" xmlns:xlink="http://www.w3.org/1999/xlink" width="36pt" height="36pt" viewBox="0 0 36 36" version="1.1">
<g id="surface25398">
<path style=" stroke:none;fill-rule:nonzero;fill:rgb(64.705884%,83.92157%,65.490198%);fill-opacity:1;" d="M 34.203125 18.632812 C 34.855469 17.855469 35.25 16.847656 35.25 15.75 C 35.25 13.265625 33.234375 11.25 30.75 11.25 C 30.75 8.351562 28.398438 6 25.5 6 C 24.101562 6 22.832031 6.550781 21.890625 7.441406 C 21.199219 7.007812 20.378906 6.75 19.5 6.75 C 18.167969 6.75 16.976562 7.332031 16.152344 8.25 C 16.140625 8.25 16.132812 8.25 16.125 8.25 C 13.433594 8.25 11.25 10.433594 11.25 13.125 C 11.25 13.289062 11.257812 13.449219 11.273438 13.609375 C 8.695312 14.121094 6.75 16.394531 6.75 19.125 C 6.75 20.78125 7.46875 22.265625 8.609375 23.292969 C 8.378906 23.859375 8.25 24.476562 8.25 25.125 C 8.25 27.160156 9.496094 28.902344 11.269531 29.632812 C 11.257812 29.753906 11.25 29.875 11.25 30 C 11.25 32.484375 13.265625 34.5 15.75 34.5 C 15.878906 34.5 16.007812 34.492188 16.132812 34.480469 C 16.960938 35.410156 18.160156 36 19.5 36 C 20.8125 36 21.988281 35.433594 22.8125 34.539062 C 23.472656 34.988281 24.265625 35.25 25.125 35.25 C 26.167969 35.25 27.117188 34.859375 27.84375 34.222656 C 28.277344 34.398438 28.753906 34.5 29.25 34.5 C 31.320312 34.5 33 32.820312 33 30.75 C 33 30.601562 32.972656 30.460938 32.957031 30.316406 C 34.316406 29.640625 35.25 28.246094 35.25 26.625 C 35.25 25.628906 34.894531 24.714844 34.308594 24 C 34.894531 23.285156 35.25 22.371094 35.25 21.375 C 35.25 20.320312 34.851562 19.363281 34.203125 18.632812 Z M 34.203125 18.632812 "/>
<path style="fill:none;stroke-width:3;stroke-linecap:round;stroke-linejoin:round;stroke:rgb(9.411765%,9.803922%,24.705882%);stroke-opacity:1;stroke-miterlimit:10;" d="M 11 36 C 11 39.3125 13.6875 42 17 42 C 17.171875 42 17.34375 41.989583 17.510417 41.973958 C 18.614583 43.213542 20.213542 44 22 44 C 23.40625 44 24.697917 43.515625 25.723958 42.708333 " transform="matrix(0.75,0,0,0.75,0,0)"/>
<path style="fill:none;stroke-width:3;stroke-linecap:round;stroke-linejoin:round;stroke:rgb(9.411765%,9.803922%,24.705882%);stroke-opacity:1;stroke-miterlimit:10;" d="M 39.942708 36.421875 C 41.755208 35.520833 43 33.661458 43 31.5 C 43 30.171875 42.526042 28.953125 41.744792 28 " transform="matrix(0.75,0,0,0.75,0,0)"/>
<path style="fill:none;stroke-width:3;stroke-linecap:round;stroke-linejoin:round;stroke:rgb(9.411765%,9.803922%,24.705882%);stroke-opacity:1;stroke-miterlimit:10;" d="M 24.234375 35.911458 C 24.083333 36.411458 24 36.947917 24 37.5 C 24 40.536458 26.463542 43 29.5 43 C 30.890625 43 32.15625 42.479167 33.125 41.630208 C 33.703125 41.864583 34.338542 42 35 42 C 35.453125 42 35.890625 41.9375 36.307292 41.828125 " transform="matrix(0.75,0,0,0.75,0,0)"/>
<path style="fill:none;stroke-width:3;stroke-linecap:round;stroke-linejoin:round;stroke:rgb(9.411765%,9.803922%,24.705882%);stroke-opacity:1;stroke-miterlimit:10;" d="M 7.479167 27.057292 C 7.171875 27.8125 7 28.635417 7 29.5 C 7 33.088542 9.911458 36 13.5 36 C 15.1875 36 16.71875 35.359375 17.875 34.307292 " transform="matrix(0.75,0,0,0.75,0,0)"/>
<path style="fill:none;stroke-width:3;stroke-linecap:round;stroke-linejoin:round;stroke:rgb(9.411765%,9.803922%,24.705882%);stroke-opacity:1;stroke-miterlimit:10;" d="M 17.5 7 C 13.911458 7 11 9.911458 11 13.5 C 11 13.71875 11.010417 13.932292 11.03125 14.145833 C 7.59375 14.828125 5 17.859375 5 21.5 C 5 21.838542 5.020833 22.171875 5.067708 22.5 " transform="matrix(0.75,0,0,0.75,0,0)"/>
<path style="fill:none;stroke-width:3;stroke-linecap:round;stroke-linejoin:round;stroke:rgb(9.411765%,9.803922%,24.705882%);stroke-opacity:1;stroke-miterlimit:10;" d="M 36.1875 29.84375 C 36.609375 29.942708 37.046875 30 37.5 30 C 40.536458 30 43 27.536458 43 24.5 C 43 23.09375 42.46875 21.817708 41.604167 20.84375 C 42.473958 19.807292 43 18.463542 43 17 C 43 13.6875 40.3125 11 37 11 C 37 7.135417 33.864583 4 30 4 C 28.135417 4 26.442708 4.734375 25.1875 5.921875 C 24.265625 5.34375 23.171875 5 22 5 C 18.6875 5 16 7.6875 16 11 C 16 12.463542 16.520833 13.802083 17.390625 14.838542 " transform="matrix(0.75,0,0,0.75,0,0)"/>
<path style="fill:none;stroke-width:3;stroke-linecap:round;stroke-linejoin:round;stroke:rgb(9.411765%,9.803922%,24.705882%);stroke-opacity:1;stroke-miterlimit:10;" d="M 27.817708 34.515625 C 28.802083 34.984375 29.989583 34.979167 31 34.390625 C 32.010417 33.807292 32.609375 32.78125 32.697917 31.697917 C 33.78125 31.609375 34.807292 31.010417 35.390625 30 C 35.979167 28.989583 35.984375 27.802083 35.515625 26.817708 C 36.411458 26.197917 37 25.166667 37 24 C 37 22.833333 36.411458 21.802083 35.515625 21.182292 C 35.984375 20.197917 35.979167 19.010417 35.390625 18 C 34.807292 16.989583 33.78125 16.390625 32.697917 16.302083 C 32.609375 15.21875 32.010417 14.192708 31 13.609375 C 29.989583 13.020833 28.802083 13.015625 27.817708 13.484375 C 27.197917 12.588542 26.166667 12 25 12 C 23.828125 12 22.802083 12.588542 22.182292 13.484375 C 21.197917 13.015625 20.010417 13.020833 19 13.609375 C 17.989583 14.192708 17.390625 15.21875 17.302083 16.302083 " transform="matrix(0.75,0,0,0.75,0,0)"/>
<path style="fill:none;stroke-width:3;stroke-linecap:round;stroke-linejoin:round;stroke:rgb(9.411765%,9.803922%,24.705882%);stroke-opacity:1;stroke-miterlimit:10;" d="M 14.484375 21.182292 C 13.588542 21.802083 13 22.833333 13 24 C 13 25.171875 13.588542 26.197917 14.484375 26.817708 C 14.015625 27.802083 14.020833 28.989583 14.609375 30 C 15.192708 31.010417 16.21875 31.609375 17.302083 31.697917 C 17.390625 32.78125 17.989583 33.807292 19 34.390625 C 20.010417 34.979167 21.197917 34.984375 22.182292 34.515625 C 22.572917 35.083333 23.135417 35.53125 23.786458 35.776042 " transform="matrix(0.75,0,0,0.75,0,0)"/>
</g>
</svg>
