<?xml version="1.0" encoding="UTF-8"?>
<svg xmlns="http://www.w3.org/2000/svg" xmlns:xlink="http://www.w3.org/1999/xlink" width="36pt" height="36pt" viewBox="0 0 36 36" version="1.1">
<g id="surface25462">
<path style=" stroke:none;fill-rule:nonzero;fill:rgb(64.705884%,83.92157%,65.490198%);fill-opacity:1;" d="M 34.363281 17.09375 C 34.363281 17.09375 33.679688 15.117188 31.285156 14.183594 C 31.28125 14.179688 31.28125 14.179688 31.28125 14.175781 C 32.695312 11.9375 32.136719 9.863281 32.136719 9.863281 C 32.136719 9.863281 30.0625 9.304688 27.824219 10.714844 C 27.820312 10.71875 27.816406 10.714844 27.816406 10.714844 C 26.882812 8.320312 24.90625 7.632812 24.90625 7.632812 C 24.90625 7.632812 23.949219 8.460938 23.519531 10.035156 C 21.429688 8.464844 19.417969 9.136719 19.417969 9.136719 C 19.417969 9.136719 19.105469 10.609375 20.074219 12.210938 C 20.089844 12.234375 20.078125 12.265625 20.050781 12.273438 C 17.78125 12.921875 16.8125 14.550781 16.8125 14.550781 C 16.8125 14.550781 17.359375 15.542969 18.648438 16.324219 L 10.574219 22.023438 C 7.152344 24.433594 6.734375 29.347656 9.691406 32.308594 C 12.652344 35.265625 17.5625 34.847656 19.976562 31.425781 L 25.675781 23.351562 C 26.457031 24.636719 27.445312 25.1875 27.445312 25.1875 C 27.445312 25.1875 29.074219 24.214844 29.726562 21.949219 C 29.734375 21.921875 29.761719 21.910156 29.789062 21.925781 C 31.390625 22.894531 32.859375 22.582031 32.859375 22.582031 C 32.859375 22.582031 33.53125 20.570312 31.96875 18.480469 C 33.542969 18.054688 34.363281 17.09375 34.363281 17.09375 Z M 34.363281 17.09375 "/>
<path style="fill:none;stroke-width:3;stroke-linecap:round;stroke-linejoin:round;stroke:rgb(9.411765%,9.803922%,24.705882%);stroke-opacity:1;stroke-miterlimit:10;" d="M 15.453125 21.583333 L 20.510417 18.015625 " transform="matrix(0.75,0,0,0.75,0,0)"/>
<path style="fill:none;stroke-width:3;stroke-linecap:round;stroke-linejoin:round;stroke:rgb(9.411765%,9.803922%,24.705882%);stroke-opacity:1;stroke-miterlimit:10;" d="M 21.510417 39.213542 C 18.0625 42.53125 12.453125 42.604167 8.921875 39.078125 C 4.979167 35.130208 5.536458 28.578125 10.098958 25.364583 " transform="matrix(0.75,0,0,0.75,0,0)"/>
<path style="fill:none;stroke-width:3;stroke-linecap:round;stroke-linejoin:round;stroke:rgb(9.411765%,9.803922%,24.705882%);stroke-opacity:1;stroke-miterlimit:10;" d="M 30.234375 27.135417 L 25.520833 33.8125 " transform="matrix(0.75,0,0,0.75,0,0)"/>
<path style="fill:none;stroke-width:3;stroke-linecap:round;stroke-linejoin:round;stroke:rgb(9.411765%,9.803922%,24.705882%);stroke-opacity:1;stroke-miterlimit:10;" d="M 26.348958 8.739583 C 24.604167 7.833333 23.03125 7.953125 22.307292 8.083333 C 22.052083 8.130208 21.854167 8.348958 21.838542 8.614583 C 21.802083 9.166667 21.822917 10.197917 22.307292 11.375 C 22.520833 11.895833 22.291667 12.484375 21.770833 12.703125 C 20.083333 13.421875 19.083333 14.510417 18.65625 15.0625 C 18.5 15.265625 18.494792 15.541667 18.645833 15.75 C 19.208333 16.526042 20.84375 18.385417 23.9375 18.880208 C 24.526042 18.979167 24.895833 19.541667 24.760417 20.125 C 24.484375 21.34375 24.552083 22.348958 24.630208 22.880208 C 24.666667 23.135417 24.864583 23.333333 25.119792 23.369792 C 25.651042 23.447917 26.65625 23.515625 27.880208 23.239583 C 28.458333 23.104167 29.026042 23.473958 29.119792 24.0625 C 29.614583 27.15625 31.473958 28.791667 32.25 29.359375 C 32.463542 29.510417 32.734375 29.505208 32.942708 29.34375 C 33.489583 28.916667 34.583333 27.916667 35.296875 26.229167 " transform="matrix(0.75,0,0,0.75,0,0)"/>
<path style="fill:none;stroke-width:3;stroke-linecap:round;stroke-linejoin:round;stroke:rgb(9.411765%,9.803922%,24.705882%);stroke-opacity:1;stroke-miterlimit:10;" d="M 39.916667 25.6875 C 40.046875 24.96875 40.166667 23.395833 39.260417 21.65625 C 38.989583 21.135417 39.177083 20.489583 39.713542 20.255208 C 40.583333 19.864583 41.1875 19.385417 41.520833 19.088542 C 41.713542 18.911458 41.765625 18.635417 41.651042 18.40625 C 41.317708 17.734375 40.442708 16.322917 38.630208 15.338542 C 38.15625 15.078125 37.96875 14.5 38.197917 14.015625 C 39.130208 12.0625 39.036458 10.322917 38.927083 9.557292 C 38.890625 9.302083 38.692708 9.109375 38.4375 9.072917 C 37.677083 8.963542 35.9375 8.864583 33.984375 9.796875 C 33.494792 10.03125 32.921875 9.84375 32.661458 9.369792 C 31.677083 7.557292 30.265625 6.682292 29.59375 6.348958 " transform="matrix(0.75,0,0,0.75,0,0)"/>
<path style="fill:none;stroke-width:3;stroke-linecap:round;stroke-linejoin:round;stroke:rgb(9.411765%,9.803922%,24.705882%);stroke-opacity:1;stroke-miterlimit:10;" d="M 22.411458 29.21875 L 20.052083 32.125 C 18.979167 33.645833 16.796875 33.833333 15.484375 32.515625 C 14.166667 31.203125 14.354167 29.015625 15.875 27.947917 L 19.34375 25.130208 " transform="matrix(0.75,0,0,0.75,0,0)"/>
</g>
</svg>
