<?xml version="1.0" encoding="UTF-8"?>
<svg xmlns="http://www.w3.org/2000/svg" xmlns:xlink="http://www.w3.org/1999/xlink" width="36pt" height="36pt" viewBox="0 0 36 36" version="1.1">
<g id="surface18872">
<path style=" stroke:none;fill-rule:nonzero;fill:rgb(100%,87.843138%,50.980395%);fill-opacity:1;" d="M 30.085938 8.625 L 7.472656 8.625 C 6.960938 8.625 6.597656 9.125 6.761719 9.613281 L 7.875 12.953125 L 7.875 31.125 C 7.875 31.953125 8.546875 32.625 9.375 32.625 L 28.125 32.625 C 28.953125 32.625 29.625 31.953125 29.625 31.125 L 29.625 13.125 L 30.796875 9.613281 C 30.957031 9.125 30.59375 8.625 30.085938 8.625 Z M 30.085938 8.625 "/>
<path style=" stroke:none;fill-rule:nonzero;fill:rgb(9.411765%,9.803922%,24.705882%);fill-opacity:1;" d="M 18.402344 16.5 L 18.394531 16.496094 C 17.679688 16.03125 17.25 15.234375 17.25 14.382812 L 17.25 14.367188 C 17.25 13.804688 17.4375 13.261719 17.785156 12.816406 L 18.113281 12.394531 C 18.265625 12.199219 18.566406 12.203125 18.714844 12.40625 L 19.027344 12.84375 C 19.335938 13.269531 19.5 13.785156 19.5 14.3125 L 19.5 14.421875 C 19.5 15.253906 19.089844 16.03125 18.402344 16.5 Z M 18.402344 16.5 "/>
<path style=" stroke:none;fill-rule:nonzero;fill:rgb(9.411765%,9.803922%,24.705882%);fill-opacity:1;" d="M 18 18.308594 C 18 18.554688 17.804688 18.75 17.558594 18.75 C 16.882812 18.75 16.230469 18.480469 15.75 18 C 15.269531 17.519531 15 16.867188 15 16.191406 C 15 15.945312 15.195312 15.75 15.441406 15.75 C 16.117188 15.75 16.769531 16.019531 17.25 16.5 C 17.730469 16.980469 18 17.632812 18 18.308594 Z M 18 18.308594 "/>
<path style=" stroke:none;fill-rule:nonzero;fill:rgb(9.411765%,9.803922%,24.705882%);fill-opacity:1;" d="M 18.75 18.308594 C 18.75 18.554688 18.945312 18.75 19.191406 18.75 C 19.867188 18.75 20.519531 18.480469 21 18 C 21.480469 17.519531 21.75 16.867188 21.75 16.191406 C 21.75 15.945312 21.554688 15.75 21.308594 15.75 C 20.632812 15.75 19.980469 16.019531 19.5 16.5 C 19.019531 16.980469 18.75 17.632812 18.75 18.308594 Z M 18.75 18.308594 "/>
<path style="fill:none;stroke-width:3;stroke-linecap:round;stroke-linejoin:round;stroke:rgb(9.411765%,9.803922%,24.705882%);stroke-opacity:1;stroke-miterlimit:10;" d="M 36.348958 39.916667 C 35.411458 40.296875 34.395833 40.5 33.348958 40.5 L 28.651042 40.5 C 25.515625 40.5 22.666667 38.666667 21.369792 35.8125 L 19.473958 31.645833 C 19.020833 30.640625 19.755208 29.5 20.859375 29.5 L 23 29.5 " transform="matrix(0.75,0,0,0.75,0,0)"/>
<path style="fill:none;stroke-width:3;stroke-linecap:round;stroke-linejoin:round;stroke:rgb(9.411765%,9.803922%,24.705882%);stroke-opacity:1;stroke-miterlimit:10;" d="M 28.71875 29.5 L 41.140625 29.5 C 42.244792 29.5 42.979167 30.640625 42.520833 31.645833 L 40.630208 35.8125 C 40.484375 36.130208 40.322917 36.4375 40.140625 36.729167 " transform="matrix(0.75,0,0,0.75,0,0)"/>
<path style="fill:none;stroke-width:3;stroke-linecap:round;stroke-linejoin:round;stroke:rgb(9.411765%,9.803922%,24.705882%);stroke-opacity:1;stroke-miterlimit:10;" d="M 37.5 29.5 L 43.5 24.5 " transform="matrix(0.75,0,0,0.75,0,0)"/>
<path style="fill:none;stroke-width:3;stroke-linecap:round;stroke-linejoin:round;stroke:rgb(9.411765%,9.803922%,24.705882%);stroke-opacity:1;stroke-miterlimit:10;" d="M 17.067708 39.5 L 12.5 39.5 L 12.5 12.5 L 35.5 12.5 L 35.5 23.5 " transform="matrix(0.75,0,0,0.75,0,0)"/>
<path style="fill:none;stroke-width:3;stroke-linecap:round;stroke-linejoin:round;stroke:rgb(9.411765%,9.803922%,24.705882%);stroke-opacity:1;stroke-miterlimit:10;" d="M 12.5 13.5 L 10.9375 8.817708 C 10.723958 8.166667 11.203125 7.5 11.885417 7.5 L 36.114583 7.5 C 36.791667 7.5 37.276042 8.166667 37.0625 8.817708 L 35.5 13.5 " transform="matrix(0.75,0,0,0.75,0,0)"/>
<path style="fill:none;stroke-width:3;stroke-linecap:round;stroke-linejoin:round;stroke:rgb(9.411765%,9.803922%,24.705882%);stroke-opacity:1;stroke-miterlimit:10;" d="M 6.578125 13.5 L 5.015625 8.817708 C 4.796875 8.166667 5.28125 7.5 5.963542 7.5 L 12.541667 7.5 " transform="matrix(0.75,0,0,0.75,0,0)"/>
<path style="fill:none;stroke-width:3;stroke-linecap:round;stroke-linejoin:round;stroke:rgb(9.411765%,9.803922%,24.705882%);stroke-opacity:1;stroke-miterlimit:10;" d="M 6.5 24.5 L 6.5 37.5 C 6.5 38.604167 7.395833 39.5 8.5 39.5 L 16.5 39.5 " transform="matrix(0.75,0,0,0.75,0,0)"/>
<path style="fill:none;stroke-width:3;stroke-linecap:round;stroke-linejoin:round;stroke:rgb(9.411765%,9.803922%,24.705882%);stroke-opacity:1;stroke-miterlimit:10;" d="M 6.5 13.0625 L 6.5 17.791667 " transform="matrix(0.75,0,0,0.75,0,0)"/>
<path style="fill:none;stroke-width:3;stroke-linecap:round;stroke-linejoin:round;stroke:rgb(9.411765%,9.803922%,24.705882%);stroke-opacity:1;stroke-miterlimit:10;" d="M 11.5625 13.0625 L 6.5 13.0625 " transform="matrix(0.75,0,0,0.75,0,0)"/>
</g>
</svg>
