<?xml version="1.0" encoding="UTF-8"?>
<svg xmlns="http://www.w3.org/2000/svg" xmlns:xlink="http://www.w3.org/1999/xlink" width="36pt" height="36pt" viewBox="0 0 36 36" version="1.1">
<g id="surface16955">
<path style=" stroke:none;fill-rule:nonzero;fill:rgb(100%,87.843138%,50.980395%);fill-opacity:1;" d="M 7.5 20.324219 L 7.5 30.675781 C 7.5 32.398438 8.851562 33.75 10.574219 33.75 L 31.425781 33.75 C 33.148438 33.75 34.5 32.398438 34.5 30.675781 L 34.5 29.925781 C 34.5 29.625 34.351562 29.324219 34.050781 29.25 C 32.699219 28.648438 31.800781 27.375 31.800781 25.875 C 31.800781 24.375 32.699219 23.101562 34.050781 22.5 C 34.351562 22.351562 34.5 22.125 34.5 21.824219 L 34.5 20.25 C 34.5 18.601562 33.148438 17.25 31.5 17.25 L 10.574219 17.25 C 8.851562 17.25 7.5 18.601562 7.5 20.324219 Z M 7.5 20.324219 "/>
<path style="fill:none;stroke-width:3;stroke-linecap:round;stroke-linejoin:round;stroke:rgb(9.411765%,9.803922%,24.705882%);stroke-opacity:1;stroke-miterlimit:4;" d="M 19.197917 40.5 L 37.5 40.5 C 39.697917 40.5 41.5 38.697917 41.5 36.5 L 41.5 35.401042 C 41.5 35 41.302083 34.697917 40.901042 34.5 C 39.197917 33.697917 38 32 38 30 C 38 28 39.197917 26.302083 40.901042 25.5 C 41.197917 25.302083 41.5 25 41.5 24.598958 L 41.5 18.5 L 24.5 18.5 " transform="matrix(0.75,0,0,0.75,0,0)"/>
<path style="fill:none;stroke-width:3;stroke-linecap:round;stroke-linejoin:round;stroke:rgb(9.411765%,9.803922%,24.705882%);stroke-opacity:1;stroke-miterlimit:4;" d="M 17.697917 18.5 L 10.5 18.5 C 8.302083 18.5 6.5 20.302083 6.5 22.5 L 6.5 36.5 C 6.5 38.697917 8.302083 40.5 10.5 40.5 L 13.098958 40.5 " transform="matrix(0.75,0,0,0.75,0,0)"/>
<path style="fill:none;stroke-width:3;stroke-linecap:round;stroke-linejoin:round;stroke:rgb(9.411765%,9.803922%,24.705882%);stroke-opacity:1;stroke-miterlimit:4;" d="M 18.5 30 C 18.5 31.932292 16.932292 33.5 15 33.5 C 13.067708 33.5 11.5 31.932292 11.5 30 C 11.5 28.067708 13.067708 26.5 15 26.5 C 16.932292 26.5 18.5 28.067708 18.5 30 Z M 18.5 30 " transform="matrix(0.75,0,0,0.75,0,0)"/>
<path style="fill:none;stroke-width:3;stroke-linecap:round;stroke-linejoin:round;stroke:rgb(9.411765%,9.803922%,24.705882%);stroke-opacity:1;stroke-miterlimit:4;" d="M 32.598958 19.5 C 32.697917 19.802083 32.697917 20.098958 32.697917 20.5 C 32.697917 22.802083 30.802083 24.697917 28.5 24.697917 C 26.901042 24.697917 25.5 23.802083 24.802083 22.5 " transform="matrix(0.75,0,0,0.75,0,0)"/>
<path style="fill:none;stroke-width:3;stroke-linecap:round;stroke-linejoin:round;stroke:rgb(9.411765%,9.803922%,24.705882%);stroke-opacity:1;stroke-miterlimit:4;" d="M 30.901042 13.802083 L 16.401042 7.302083 C 15.197917 6.802083 13.802083 7 12.901042 7.901042 C 9.197917 11.802083 6.802083 17 6.5 22 " transform="matrix(0.75,0,0,0.75,0,0)"/>
<path style="fill:none;stroke-width:3;stroke-linecap:round;stroke-linejoin:round;stroke:rgb(9.411765%,9.803922%,24.705882%);stroke-opacity:1;stroke-miterlimit:4;" d="M 27.598958 40.5 C 27 40.401042 26.302083 40.098958 25.901042 39.598958 C 24.697917 38.401042 24.697917 36.401042 25.901042 35.197917 C 27.098958 34 29.098958 34 30.302083 35.197917 " transform="matrix(0.75,0,0,0.75,0,0)"/>
</g>
</svg>
