<?xml version="1.0" encoding="UTF-8"?>
<svg xmlns="http://www.w3.org/2000/svg" xmlns:xlink="http://www.w3.org/1999/xlink" width="36pt" height="36pt" viewBox="0 0 36 36" version="1.1">
<g id="surface18956">
<path style=" stroke:none;fill-rule:nonzero;fill:rgb(100%,87.843138%,50.980395%);fill-opacity:1;" d="M 32.976562 22.089844 L 32.976562 18.023438 C 32.976562 13.453125 29.273438 9.75 24.703125 9.75 L 17.296875 9.75 C 12.726562 9.75 9.023438 13.453125 9.023438 18.023438 L 9.023438 22.089844 C 7.421875 22.089844 6.121094 23.386719 6.121094 24.992188 C 6.121094 26.59375 7.421875 27.894531 9.023438 27.894531 L 9.023438 29.660156 C 9.023438 31.089844 10.183594 32.25 11.617188 32.25 L 30.386719 32.25 C 31.816406 32.25 32.976562 31.089844 32.976562 29.660156 L 32.976562 27.894531 C 34.582031 27.894531 35.878906 26.59375 35.878906 24.992188 C 35.878906 23.386719 34.578125 22.089844 32.976562 22.089844 Z M 32.976562 22.089844 "/>
<path style="fill:none;stroke-width:3;stroke-linecap:round;stroke-linejoin:round;stroke:rgb(9.411765%,9.803922%,24.705882%);stroke-opacity:1;stroke-miterlimit:10;" d="M 28.739583 39.5 L 11.067708 39.5 C 9.098958 39.5 7.5 37.901042 7.5 35.932292 L 7.5 33.5 " transform="matrix(0.75,0,0,0.75,0,0)"/>
<path style="fill:none;stroke-width:3;stroke-linecap:round;stroke-linejoin:round;stroke:rgb(9.411765%,9.803922%,24.705882%);stroke-opacity:1;stroke-miterlimit:10;" d="M 40.5 33.5 L 40.5 35.932292 C 40.5 37.901042 38.901042 39.5 36.932292 39.5 L 35.0625 39.5 " transform="matrix(0.75,0,0,0.75,0,0)"/>
<path style="fill:none;stroke-width:3;stroke-linecap:round;stroke-linejoin:round;stroke:rgb(9.411765%,9.803922%,24.705882%);stroke-opacity:1;stroke-miterlimit:10;" d="M 30.171875 8.552083 C 35.963542 9.088542 40.5 13.963542 40.5 19.895833 L 40.5 25.5 " transform="matrix(0.75,0,0,0.75,0,0)"/>
<path style="fill:none;stroke-width:3;stroke-linecap:round;stroke-linejoin:round;stroke:rgb(9.411765%,9.803922%,24.705882%);stroke-opacity:1;stroke-miterlimit:10;" d="M 7.5 25.109375 L 7.5 19.895833 C 7.5 13.604167 12.604167 8.5 18.895833 8.5 L 21.4375 8.5 " transform="matrix(0.75,0,0,0.75,0,0)"/>
<path style="fill:none;stroke-width:3;stroke-linecap:round;stroke-linejoin:round;stroke:rgb(9.411765%,9.803922%,24.705882%);stroke-opacity:1;stroke-miterlimit:10;" d="M 12.4375 33.5 L 7.5 33.5 C 5.291667 33.5 3.5 31.708333 3.5 29.5 C 3.5 27.291667 5.291667 25.5 7.5 25.5 L 13.5 25.5 " transform="matrix(0.75,0,0,0.75,0,0)"/>
<path style="fill:none;stroke-width:3;stroke-linecap:round;stroke-linejoin:round;stroke:rgb(9.411765%,9.803922%,24.705882%);stroke-opacity:1;stroke-miterlimit:10;" d="M 25.463542 33.5 L 19.541667 33.5 " transform="matrix(0.75,0,0,0.75,0,0)"/>
<path style="fill:none;stroke-width:3;stroke-linecap:round;stroke-linejoin:round;stroke:rgb(9.411765%,9.803922%,24.705882%);stroke-opacity:1;stroke-miterlimit:10;" d="M 39.5 25.5 L 40.5 25.5 C 42.708333 25.5 44.5 27.291667 44.5 29.5 C 44.5 31.708333 42.708333 33.5 40.5 33.5 L 30.5 33.5 " transform="matrix(0.75,0,0,0.75,0,0)"/>
<path style="fill:none;stroke-width:3;stroke-linecap:round;stroke-linejoin:round;stroke:rgb(9.411765%,9.803922%,24.705882%);stroke-opacity:1;stroke-miterlimit:10;" d="M 40.5 20.5 L 7.5 20.5 " transform="matrix(0.75,0,0,0.75,0,0)"/>
<path style="fill:none;stroke-width:3;stroke-linecap:round;stroke-linejoin:round;stroke:rgb(9.411765%,9.803922%,24.705882%);stroke-opacity:1;stroke-miterlimit:10;" d="M 7.5 25.5 L 17.515625 25.5 C 18.6875 25.5 19.807292 26.010417 20.572917 26.901042 L 26.677083 33.96875 C 27.375 34.776042 28.625 34.776042 29.322917 33.96875 L 35.427083 26.901042 C 36.192708 26.010417 37.3125 25.5 38.484375 25.5 L 40.5 25.5 " transform="matrix(0.75,0,0,0.75,0,0)"/>
</g>
</svg>
