<svg xmlns="http://www.w3.org/2000/svg"  viewBox="0 0 48 48" width="48px" height="48px"><path fill="#ffe082" d="M10,27.1v13.8c0,2.3,1.8,4.1,4.1,4.1h27.8c2.3,0,4.1-1.8,4.1-4.1v-1c0-0.4-0.2-0.8-0.6-0.9	c-1.8-0.8-3-2.5-3-4.5c0-2,1.2-3.7,3-4.5c0.4-0.2,0.6-0.5,0.6-0.9l0-2.1c0-2.2-1.8-4-4-4H14.1C11.8,23,10,24.8,10,27.1z"/><path fill="none" stroke="#18193f" stroke-linecap="round" stroke-linejoin="round" stroke-width="3" d="M19.2,40.5h18.3c2.2,0,4-1.8,4-4l0-1.1c0-0.4-0.2-0.7-0.6-0.9c-1.7-0.8-2.9-2.5-2.9-4.5c0-2,1.2-3.7,2.9-4.5	c0.3-0.2,0.6-0.5,0.6-0.9l0-6.1h-17"/><path fill="none" stroke="#18193f" stroke-linecap="round" stroke-linejoin="round" stroke-width="3" d="M17.7,18.5h-7.2c-2.2,0-4,1.8-4,4v14c0,2.2,1.8,4,4,4h2.6"/><circle cx="15" cy="30" r="3.5" fill="none" stroke="#18193f" stroke-linecap="round" stroke-linejoin="round" stroke-width="3"/><path fill="none" stroke="#18193f" stroke-linecap="round" stroke-linejoin="round" stroke-width="3" d="M32.6,19.5c0.1,0.3,0.1,0.6,0.1,1c0,2.3-1.9,4.2-4.2,4.2c-1.6,0-3-0.9-3.7-2.2"/><path fill="none" stroke="#18193f" stroke-linecap="round" stroke-linejoin="round" stroke-width="3" d="M30.9,13.8L16.4,7.3c-1.2-0.5-2.6-0.3-3.5,0.6c-3.7,3.9-6.1,9.1-6.4,14.1"/><path fill="none" stroke="#18193f" stroke-linecap="round" stroke-linejoin="round" stroke-width="3" d="M27.6,40.5c-0.6-0.1-1.3-0.4-1.7-0.9c-1.2-1.2-1.2-3.2,0-4.4c1.2-1.2,3.2-1.2,4.4,0"/></svg>