<?xml version="1.0" encoding="UTF-8"?>
<svg xmlns="http://www.w3.org/2000/svg" xmlns:xlink="http://www.w3.org/1999/xlink" width="36pt" height="36pt" viewBox="0 0 36 36" version="1.1">
<g id="surface33727">
<path style=" stroke:none;fill-rule:nonzero;fill:rgb(56.470591%,79.215688%,97.647059%);fill-opacity:1;" d="M 35.863281 6.46875 L 34.789062 6.714844 C 28.101562 8.121094 6.882812 30.496094 6.882812 30.496094 C 5.890625 31.402344 5.890625 32.972656 6.882812 33.960938 L 7.707031 34.789062 C 8.78125 35.859375 10.515625 35.777344 11.421875 34.621094 L 18.9375 24.714844 L 19.816406 24.03125 L 23.242188 27.78125 C 23.75 28.335938 24.605469 28.375 25.160156 27.871094 C 25.472656 27.589844 25.800781 27.28125 26.035156 27.027344 C 37.304688 14.886719 35.863281 6.46875 35.863281 6.46875 Z M 35.863281 6.46875 "/>
<path style="fill:none;stroke-width:3;stroke-linecap:round;stroke-linejoin:round;stroke:rgb(9.411765%,9.803922%,24.705882%);stroke-opacity:1;stroke-miterlimit:10;" d="M 12.723958 40.192708 L 11.229167 42.161458 C 10.020833 43.703125 7.708333 43.8125 6.276042 42.385417 L 5.177083 41.28125 C 3.854167 39.963542 3.854167 37.869792 5.177083 36.661458 L 17.0625 24.770833 L 21.25 28.953125 L 16.411458 35.328125 " transform="matrix(0.75,0,0,0.75,0,0)"/>
<path style="fill:none;stroke-width:3;stroke-linecap:round;stroke-linejoin:round;stroke:rgb(9.411765%,9.803922%,24.705882%);stroke-opacity:1;stroke-miterlimit:10;" d="M 27.546875 14.40625 C 32.395833 10.130208 38.098958 5.854167 42.385417 4.953125 L 43.817708 4.625 C 43.817708 4.625 45.739583 15.848958 30.713542 32.036458 C 30.401042 32.375 29.96875 32.786458 29.546875 33.161458 C 28.807292 33.833333 27.666667 33.78125 26.989583 33.041667 L 22.427083 28.041667 L 21.25 28.953125 L 17.067708 24.770833 L 17.729167 24 C 17.953125 23.776042 19.869792 21.6875 22.651042 18.973958 " transform="matrix(0.75,0,0,0.75,0,0)"/>
</g>
</svg>
