<?xml version="1.0" encoding="UTF-8"?>
<svg xmlns="http://www.w3.org/2000/svg" xmlns:xlink="http://www.w3.org/1999/xlink" width="36pt" height="36pt" viewBox="0 0 36 36" version="1.1">
<g id="surface19091">
<path style=" stroke:none;fill-rule:nonzero;fill:rgb(95.686275%,56.078434%,69.411767%);fill-opacity:1;" d="M 27.207031 36 L 14.726562 36 C 13.765625 36 12.914062 35.394531 12.601562 34.488281 L 9.632812 20.007812 C 9.5 19.359375 9.996094 18.75 10.660156 18.75 L 31.335938 18.75 C 32 18.75 32.496094 19.359375 32.363281 20.011719 L 29.359375 34.40625 C 29.070312 35.351562 28.199219 36 27.207031 36 Z M 27.207031 36 "/>
<path style="fill:none;stroke-width:3;stroke-linecap:round;stroke-linejoin:round;stroke:rgb(9.411765%,9.803922%,24.705882%);stroke-opacity:1;stroke-miterlimit:10;" d="M 25.854167 10.348958 L 29.041667 2.703125 " transform="matrix(0.75,0,0,0.75,0,0)"/>
<path style="fill:none;stroke-width:3;stroke-linecap:round;stroke-linejoin:round;stroke:rgb(9.411765%,9.803922%,24.705882%);stroke-opacity:1;stroke-miterlimit:10;" d="M 8.5 21.5 C 8.5 21.5 8.463542 21.239583 8.46875 20.828125 " transform="matrix(0.75,0,0,0.75,0,0)"/>
<path style="fill:none;stroke-width:3;stroke-linecap:round;stroke-linejoin:round;stroke:rgb(9.411765%,9.803922%,24.705882%);stroke-opacity:1;stroke-miterlimit:10;" d="M 38.473958 19.942708 C 38.260417 17.776042 36.848958 15.963542 34.90625 15.182292 C 33.817708 14.744792 32.854167 13.994792 32.395833 12.916667 C 31.671875 11.203125 29.973958 10 28 10 C 26.421875 10 25.036458 10.770833 24.171875 11.947917 C 23.635417 12.6875 22.71875 12.989583 21.8125 12.890625 C 21.651042 12.875 21.484375 12.864583 21.317708 12.864583 C 19.734375 12.864583 18.338542 13.640625 17.479167 14.828125 C 16.958333 15.552083 16.057292 15.864583 15.177083 15.760417 C 14.536458 15.682292 13.859375 15.739583 13.145833 15.973958 C 11.489583 16.526042 10.213542 17.963542 9.932292 19.682292 C 9.885417 19.958333 9.864583 20.234375 9.864583 20.5 " transform="matrix(0.75,0,0,0.75,0,0)"/>
<path style="fill:none;stroke-width:3;stroke-linecap:round;stroke-linejoin:round;stroke:rgb(9.411765%,9.803922%,24.705882%);stroke-opacity:1;stroke-miterlimit:10;" d="M 28.036458 16.1875 L 39.963542 5.8125 " transform="matrix(0.75,0,0,0.75,0,0)"/>
<path style="fill:none;stroke-width:3;stroke-linecap:round;stroke-linejoin:round;stroke:rgb(9.411765%,9.803922%,24.705882%);stroke-opacity:1;stroke-miterlimit:10;" d="M 24.479167 43.5 L 15.635417 43.5 C 14.354167 43.5 13.21875 42.692708 12.802083 41.484375 L 8.5 20.5 L 14.890625 20.5 " transform="matrix(0.75,0,0,0.75,0,0)"/>
<path style="fill:none;stroke-width:3;stroke-linecap:round;stroke-linejoin:round;stroke:rgb(9.411765%,9.803922%,24.705882%);stroke-opacity:1;stroke-miterlimit:10;" d="M 20.46875 20.5 L 39.5 20.5 L 35.145833 41.375 C 34.760417 42.635417 33.598958 43.5 32.276042 43.5 L 31.375 43.5 " transform="matrix(0.75,0,0,0.75,0,0)"/>
<path style="fill:none;stroke-width:3;stroke-linecap:round;stroke-linejoin:round;stroke:rgb(9.411765%,9.803922%,24.705882%);stroke-opacity:1;stroke-miterlimit:10;" d="M 8.5 20.5 L 3.5 28.5 " transform="matrix(0.75,0,0,0.75,0,0)"/>
<path style="fill:none;stroke-width:3;stroke-linecap:round;stroke-linejoin:round;stroke:rgb(9.411765%,9.803922%,24.705882%);stroke-opacity:1;stroke-miterlimit:10;" d="M 39.5 20.5 L 44.5 28.5 " transform="matrix(0.75,0,0,0.75,0,0)"/>
<path style="fill:none;stroke-width:3;stroke-linecap:round;stroke-linejoin:round;stroke:rgb(9.411765%,9.803922%,24.705882%);stroke-opacity:1;stroke-miterlimit:10;" d="M 9.046875 21.53125 L 14.0625 26.171875 C 14.989583 27.026042 16.197917 27.5 17.458333 27.5 L 31.359375 27.5 C 32.729167 27.5 34.036458 26.942708 34.979167 25.953125 L 38.869792 21.869792 " transform="matrix(0.75,0,0,0.75,0,0)"/>
</g>
</svg>
