<?xml version="1.0" encoding="UTF-8"?>
<svg xmlns="http://www.w3.org/2000/svg" xmlns:xlink="http://www.w3.org/1999/xlink" width="36pt" height="36pt" viewBox="0 0 36 36" version="1.1">
<g id="surface16521">
<path style=" stroke:none;fill-rule:nonzero;fill:rgb(100%,87.843138%,50.980395%);fill-opacity:1;" d="M 28.425781 34.5 L 13.574219 34.5 C 11.851562 34.5 10.5 33.148438 10.5 31.425781 L 10.5 9.824219 C 10.5 8.101562 11.851562 6.75 13.574219 6.75 L 28.425781 6.75 C 30.148438 6.75 31.5 8.101562 31.5 9.824219 L 31.5 31.425781 C 31.5 33.148438 30.148438 34.5 28.425781 34.5 Z M 28.425781 34.5 "/>
<path style="fill:none;stroke-width:3;stroke-linecap:round;stroke-linejoin:round;stroke:rgb(9.411765%,9.803922%,24.705882%);stroke-opacity:1;stroke-miterlimit:4;" d="M 37.5 23.5 L 37.5 37.5 C 37.5 39.697917 35.697917 41.5 33.5 41.5 L 14.5 41.5 C 12.302083 41.5 10.5 39.697917 10.5 37.5 L 10.5 34.697917 " transform="matrix(0.75,0,0,0.75,0,0)"/>
<path style="fill:none;stroke-width:3;stroke-linecap:round;stroke-linejoin:round;stroke:rgb(9.411765%,9.803922%,24.705882%);stroke-opacity:1;stroke-miterlimit:4;" d="M 10.5 29.098958 L 10.5 9.5 C 10.5 7.302083 12.302083 5.5 14.5 5.5 L 33.5 5.5 C 35.697917 5.5 37.5 7.302083 37.5 9.5 L 37.5 17.598958 " transform="matrix(0.75,0,0,0.75,0,0)"/>
<path style="fill:none;stroke-width:3;stroke-linecap:round;stroke-linejoin:round;stroke:rgb(9.411765%,9.803922%,24.705882%);stroke-opacity:1;stroke-miterlimit:4;" d="M 19.5 10.098958 L 19.5 22.5 " transform="matrix(0.75,0,0,0.75,0,0)"/>
<path style="fill:none;stroke-width:3;stroke-linecap:round;stroke-linejoin:round;stroke:rgb(9.411765%,9.803922%,24.705882%);stroke-opacity:1;stroke-miterlimit:4;" d="M 28.5 6.5 L 28.5 18.302083 " transform="matrix(0.75,0,0,0.75,0,0)"/>
<path style="fill:none;stroke-width:3;stroke-linecap:round;stroke-linejoin:round;stroke:rgb(9.411765%,9.803922%,24.705882%);stroke-opacity:1;stroke-miterlimit:4;" d="M 14.197917 14.5 L 36.5 14.5 " transform="matrix(0.75,0,0,0.75,0,0)"/>
<path style="fill:none;stroke-width:3;stroke-linecap:round;stroke-linejoin:round;stroke:rgb(9.411765%,9.803922%,24.705882%);stroke-opacity:1;stroke-miterlimit:4;" d="M 11.5 23.5 L 37.5 23.5 " transform="matrix(0.75,0,0,0.75,0,0)"/>
<path style="fill:none;stroke-width:3;stroke-linecap:round;stroke-linejoin:round;stroke:rgb(9.411765%,9.803922%,24.705882%);stroke-opacity:1;stroke-miterlimit:4;" d="M 20.098958 27.598958 L 27.697917 30.901042 C 29.901042 31.802083 32.5 31.098958 33.802083 29.098958 L 37.5 23.598958 " transform="matrix(0.75,0,0,0.75,0,0)"/>
</g>
</svg>
