<?xml version="1.0" encoding="UTF-8"?>
<svg xmlns="http://www.w3.org/2000/svg" xmlns:xlink="http://www.w3.org/1999/xlink" width="36pt" height="36pt" viewBox="0 0 36 36" version="1.1">
<g id="surface28308">
<path style=" stroke:none;fill-rule:nonzero;fill:rgb(100%,87.843138%,50.980395%);fill-opacity:1;" d="M 27.8125 15.160156 C 25.222656 14.417969 22.847656 14.789062 22.507812 15.984375 L 19.875 22.875 L 19.875 9.375 C 19.875 8.132812 17.691406 7.125 15 7.125 C 12.308594 7.125 10.125 8.132812 10.125 9.375 L 10.125 32.625 C 10.125 33.867188 12.308594 34.875 15 34.875 C 17.023438 34.875 18.757812 34.304688 19.496094 33.496094 C 20.257812 33.824219 21.222656 34.207031 21.6875 34.339844 C 24.277344 35.082031 26.652344 34.710938 26.992188 33.515625 L 31.882812 18.660156 C 32.222656 17.464844 30.402344 15.898438 27.8125 15.160156 Z M 27.8125 15.160156 "/>
<path style="fill:none;stroke-width:3;stroke-linecap:round;stroke-linejoin:round;stroke:rgb(9.411765%,9.803922%,24.705882%);stroke-opacity:1;stroke-miterlimit:10;" d="M 17.5 11.5 C 17.151042 11.526042 16.364583 11.5 16 11.5 C 12.411458 11.5 9.5 10.15625 9.5 8.5 C 9.5 6.84375 12.411458 5.5 16 5.5 C 19.588542 5.5 22.5 6.84375 22.5 8.5 " transform="matrix(0.75,0,0,0.75,0,0)"/>
<path style="fill:none;stroke-width:3;stroke-linecap:round;stroke-linejoin:round;stroke:rgb(9.411765%,9.803922%,24.705882%);stroke-opacity:1;stroke-miterlimit:10;" d="M 22.5 39.5 L 22.5 8.5 " transform="matrix(0.75,0,0,0.75,0,0)"/>
<path style="fill:none;stroke-width:3;stroke-linecap:round;stroke-linejoin:round;stroke:rgb(9.411765%,9.803922%,24.705882%);stroke-opacity:1;stroke-miterlimit:10;" d="M 9.5 39.5 C 9.5 41.15625 12.411458 42.5 16 42.5 C 19.588542 42.5 22.5 41.15625 22.5 39.5 " transform="matrix(0.75,0,0,0.75,0,0)"/>
<path style="fill:none;stroke-width:3;stroke-linecap:round;stroke-linejoin:round;stroke:rgb(9.411765%,9.803922%,24.705882%);stroke-opacity:1;stroke-miterlimit:10;" d="M 9.5 21.630208 L 9.5 39.5 " transform="matrix(0.75,0,0,0.75,0,0)"/>
<path style="fill:none;stroke-width:3;stroke-linecap:round;stroke-linejoin:round;stroke:rgb(9.411765%,9.803922%,24.705882%);stroke-opacity:1;stroke-miterlimit:10;" d="M 9.5 8.5 L 9.5 14.0625 " transform="matrix(0.75,0,0,0.75,0,0)"/>
<path style="fill:none;stroke-width:3;stroke-linecap:round;stroke-linejoin:round;stroke:rgb(9.411765%,9.803922%,24.705882%);stroke-opacity:1;stroke-miterlimit:10;" d="M 17.5 11.5 L 17.5 36.760417 " transform="matrix(0.75,0,0,0.75,0,0)"/>
<path style="fill:none;stroke-width:3;stroke-linecap:round;stroke-linejoin:round;stroke:rgb(9.411765%,9.803922%,24.705882%);stroke-opacity:1;stroke-miterlimit:10;" d="M 32.875 22.390625 C 32.536458 22.322917 31.78125 22.083333 31.432292 21.979167 C 27.984375 20.994792 25.552083 18.90625 26.010417 17.3125 C 26.463542 15.71875 29.630208 15.223958 33.083333 16.213542 C 36.536458 17.197917 38.963542 19.286458 38.510417 20.880208 " transform="matrix(0.75,0,0,0.75,0,0)"/>
<path style="fill:none;stroke-width:3;stroke-linecap:round;stroke-linejoin:round;stroke:rgb(9.411765%,9.803922%,24.705882%);stroke-opacity:1;stroke-miterlimit:10;" d="M 37.244792 24.729167 L 38.510417 20.880208 " transform="matrix(0.75,0,0,0.75,0,0)"/>
<path style="fill:none;stroke-width:3;stroke-linecap:round;stroke-linejoin:round;stroke:rgb(9.411765%,9.803922%,24.705882%);stroke-opacity:1;stroke-miterlimit:10;" d="M 22.369792 40.770833 C 23.114583 41.171875 23.979167 41.520833 24.916667 41.786458 C 28.369792 42.776042 31.536458 42.28125 31.989583 40.6875 L 34.911458 31.817708 " transform="matrix(0.75,0,0,0.75,0,0)"/>
<path style="fill:none;stroke-width:3;stroke-linecap:round;stroke-linejoin:round;stroke:rgb(9.411765%,9.803922%,24.705882%);stroke-opacity:1;stroke-miterlimit:10;" d="M 26.010417 17.3125 L 22.5 26.5 " transform="matrix(0.75,0,0,0.75,0,0)"/>
<path style="fill:none;stroke-width:3;stroke-linecap:round;stroke-linejoin:round;stroke:rgb(9.411765%,9.803922%,24.705882%);stroke-opacity:1;stroke-miterlimit:10;" d="M 32.875 22.390625 L 26.635417 41.239583 " transform="matrix(0.75,0,0,0.75,0,0)"/>
</g>
</svg>
