<?xml version="1.0" encoding="UTF-8"?>
<svg xmlns="http://www.w3.org/2000/svg" xmlns:xlink="http://www.w3.org/1999/xlink" width="36pt" height="36pt" viewBox="0 0 36 36" version="1.1">
<g id="surface20395">
<path style=" stroke:none;fill-rule:nonzero;fill:rgb(100%,87.843138%,50.980395%);fill-opacity:1;" d="M 25.800781 21 C 25.800781 28.082031 21.535156 33.824219 16.273438 33.824219 C 11.015625 33.824219 6.75 28.082031 6.75 21 C 6.75 13.917969 11.015625 8.175781 16.273438 8.175781 C 21.535156 8.175781 25.800781 13.917969 25.800781 21 Z M 25.800781 21 "/>
<path style=" stroke:none;fill-rule:nonzero;fill:rgb(100%,87.843138%,50.980395%);fill-opacity:1;" d="M 16.726562 33.824219 C 24.074219 33.449219 30.226562 30.148438 32.699219 25.574219 C 33.226562 24.601562 33.898438 23.699219 34.800781 23.101562 C 35.476562 22.648438 36 21.898438 36 21 C 36 20.175781 35.550781 19.351562 34.800781 18.898438 C 33.976562 18.375 33.226562 17.550781 32.773438 16.648438 C 30.300781 11.851562 23.851562 8.398438 16.125 8.175781 "/>
<path style="fill:none;stroke-width:3;stroke-linecap:round;stroke-linejoin:round;stroke:rgb(9.411765%,9.803922%,24.705882%);stroke-opacity:1;stroke-miterlimit:4;" d="M 5.197917 29.5 C 4.802083 27.802083 4.5 25.901042 4.5 24 C 4.5 14.302083 10.302083 6.5 17.5 6.5 C 21.802083 6.5 25.697917 9.401042 28 13.697917 " transform="matrix(0.75,0,0,0.75,0,0)"/>
<path style="fill:none;stroke-width:3;stroke-linecap:round;stroke-linejoin:round;stroke:rgb(9.411765%,9.803922%,24.705882%);stroke-opacity:1;stroke-miterlimit:4;" d="M 30 19.302083 C 30.302083 20.802083 30.5 22.401042 30.5 24 C 30.5 33.697917 24.697917 41.5 17.5 41.5 C 13.5 41.5 9.901042 39 7.5 35.197917 " transform="matrix(0.75,0,0,0.75,0,0)"/>
<path style="fill:none;stroke-width:3;stroke-linecap:round;stroke-linejoin:round;stroke:rgb(9.411765%,9.803922%,24.705882%);stroke-opacity:1;stroke-miterlimit:4;" d="M 8.697917 24.5 L 25.598958 24.5 " transform="matrix(0.75,0,0,0.75,0,0)"/>
<path style="fill:none;stroke-width:3;stroke-linecap:round;stroke-linejoin:round;stroke:rgb(9.411765%,9.803922%,24.705882%);stroke-opacity:1;stroke-miterlimit:4;" d="M 21.401042 14.5 L 12.901042 35.197917 " transform="matrix(0.75,0,0,0.75,0,0)"/>
<path style="fill:none;stroke-width:3;stroke-linecap:round;stroke-linejoin:round;stroke:rgb(9.411765%,9.803922%,24.705882%);stroke-opacity:1;stroke-miterlimit:4;" d="M 12.098958 16 L 22.302083 33.697917 " transform="matrix(0.75,0,0,0.75,0,0)"/>
<path style="fill:none;stroke-width:3;stroke-linecap:round;stroke-linejoin:round;stroke:rgb(9.411765%,9.803922%,24.705882%);stroke-opacity:1;stroke-miterlimit:4;" d="M 37.401042 33.697917 C 38.5 32.598958 39.302083 31.401042 40 30.197917 C 40.697917 28.901042 41.598958 27.598958 42.901042 26.802083 C 43.901042 26.197917 44.5 25.098958 44.5 24 C 44.5 22.802083 43.901042 21.802083 42.901042 21.197917 C 41.697917 20.401042 40.802083 19.401042 40.197917 18.098958 C 36.802083 11.598958 28 6.901042 17.5 6.5 " transform="matrix(0.75,0,0,0.75,0,0)"/>
<path style="fill:none;stroke-width:3;stroke-linecap:round;stroke-linejoin:round;stroke:rgb(9.411765%,9.803922%,24.705882%);stroke-opacity:1;stroke-miterlimit:4;" d="M 18.197917 41.5 C 24 41.197917 29.197917 39.598958 33.197917 37.098958 " transform="matrix(0.75,0,0,0.75,0,0)"/>
</g>
</svg>
