<?xml version="1.0" encoding="UTF-8"?>
<svg xmlns="http://www.w3.org/2000/svg" xmlns:xlink="http://www.w3.org/1999/xlink" width="36pt" height="36pt" viewBox="0 0 36 36" version="1.1">
<g id="surface33777">
<path style=" stroke:none;fill-rule:nonzero;fill:rgb(100%,87.843138%,50.980395%);fill-opacity:1;" d="M 16.648438 20.808594 C 18.824219 22.777344 20.707031 25.101562 21.519531 26.144531 C 21.761719 26.457031 22.207031 26.53125 22.535156 26.308594 C 27.046875 23.246094 31.09375 19.394531 34.730469 14.855469 C 35.011719 14.507812 34.917969 13.996094 34.542969 13.753906 C 32.429688 12.367188 30.457031 10.621094 28.519531 8.984375 C 27.539062 8.160156 26.070312 8.328125 25.28125 9.335938 C 23.382812 11.757812 20.183594 16.792969 17.09375 19.882812 C 13.695312 23.277344 9.636719 26.867188 7.773438 28.488281 C 7.171875 29.007812 7.078125 29.914062 7.574219 30.535156 C 7.921875 30.96875 8.371094 31.472656 8.886719 31.925781 C 9.3125 32.300781 9.726562 32.601562 10.085938 32.839844 C 10.757812 33.28125 11.65625 33.101562 12.121094 32.445312 L 18.746094 23.117188 "/>
<path style="fill:none;stroke-width:3;stroke-linecap:round;stroke-linejoin:round;stroke:rgb(9.411765%,9.803922%,24.705882%);stroke-opacity:1;stroke-miterlimit:10;" d="M 15.90625 33.994792 L 20.994792 26.822917 " transform="matrix(0.75,0,0,0.75,0,0)"/>
<path style="fill:none;stroke-width:3;stroke-linecap:round;stroke-linejoin:round;stroke:rgb(9.411765%,9.803922%,24.705882%);stroke-opacity:1;stroke-miterlimit:10;" d="M 24.619792 15.453125 C 22.78125 17.953125 20.770833 20.53125 18.791667 22.510417 C 14.260417 27.036458 8.848958 31.822917 6.364583 33.984375 C 5.5625 34.677083 5.4375 35.885417 6.098958 36.713542 C 6.5625 37.291667 7.161458 37.963542 7.848958 38.567708 C 8.416667 39.067708 8.96875 39.46875 9.447917 39.786458 C 10.34375 40.375 11.541667 40.135417 12.161458 39.260417 L 13.291667 37.671875 " transform="matrix(0.75,0,0,0.75,0,0)"/>
<path style="fill:none;stroke-width:3;stroke-linecap:round;stroke-linejoin:round;stroke:rgb(9.411765%,9.803922%,24.705882%);stroke-opacity:1;stroke-miterlimit:10;" d="M 18.197917 23.744792 C 21.098958 26.369792 23.609375 29.46875 24.692708 30.859375 C 25.015625 31.276042 25.609375 31.375 26.046875 31.078125 C 32.0625 26.994792 37.458333 21.859375 42.307292 15.807292 C 42.682292 15.34375 42.557292 14.661458 42.057292 14.338542 C 39.239583 12.489583 36.609375 10.161458 34.026042 7.979167 C 32.71875 6.880208 30.760417 7.104167 29.708333 8.447917 C 29.057292 9.276042 28.291667 10.338542 27.442708 11.526042 " transform="matrix(0.75,0,0,0.75,0,0)"/>
<path style=" stroke:none;fill-rule:nonzero;fill:rgb(9.411765%,9.803922%,24.705882%);fill-opacity:1;" d="M 25.519531 10.027344 C 25.519531 10.660156 25.007812 11.171875 24.375 11.171875 C 23.746094 11.171875 23.234375 10.660156 23.234375 10.027344 C 23.234375 9.398438 23.746094 8.886719 24.375 8.886719 C 25.007812 8.886719 25.519531 9.398438 25.519531 10.027344 Z M 25.519531 10.027344 "/>
</g>
</svg>
