<?xml version="1.0" encoding="UTF-8"?>
<svg xmlns="http://www.w3.org/2000/svg" xmlns:xlink="http://www.w3.org/1999/xlink" width="36pt" height="36pt" viewBox="0 0 36 36" version="1.1">
<g id="surface8722">
<path style=" stroke:none;fill-rule:nonzero;fill:rgb(100%,67.058825%,56.862748%);fill-opacity:1;" d="M 33 12.75 L 29.25 9 C 28.648438 8.398438 27.75 8.398438 27.148438 9 L 21 15.148438 L 14.851562 9 C 14.25 8.398438 13.351562 8.398438 12.75 9 L 9 12.75 C 8.398438 13.351562 8.398438 14.25 9 14.851562 L 15.148438 21 L 9 27.148438 C 8.398438 27.75 8.398438 28.648438 9 29.25 L 12.75 33 C 13.351562 33.601562 14.25 33.601562 14.851562 33 L 21 26.851562 L 27.148438 33 C 27.75 33.601562 28.648438 33.601562 29.25 33 L 33 29.25 C 33.601562 28.648438 33.601562 27.75 33 27.148438 L 26.851562 21 L 33 14.851562 C 33.601562 14.25 33.601562 13.351562 33 12.75 Z M 33 12.75 "/>
<path style="fill:none;stroke-width:3;stroke-linecap:round;stroke-linejoin:round;stroke:rgb(9.411765%,9.803922%,24.705882%);stroke-opacity:1;stroke-miterlimit:10;" d="M 11.697917 28.5 L 8 32.197917 C 7.197917 33 7.197917 34.197917 8 35 L 13 40 C 13.802083 40.802083 15 40.802083 15.802083 40 L 24 31.802083 L 32.197917 40 C 33 40.802083 34.197917 40.802083 35 40 L 40 35 C 40.802083 34.197917 40.802083 33 40 32.197917 L 31.802083 24 L 40 15.802083 C 40.802083 15 40.802083 13.802083 40 13 L 37.401042 10.401042 " transform="matrix(0.75,0,0,0.75,0,0)"/>
<path style="fill:none;stroke-width:3;stroke-linecap:round;stroke-linejoin:round;stroke:rgb(9.411765%,9.803922%,24.705882%);stroke-opacity:1;stroke-miterlimit:10;" d="M 33.098958 7.098958 L 24 16.197917 L 15.802083 8 C 15 7.197917 13.802083 7.197917 13 8 L 8 13 C 7.197917 13.802083 7.197917 15 8 15.802083 L 16.197917 24 " transform="matrix(0.75,0,0,0.75,0,0)"/>
</g>
</svg>
