<?xml version="1.0" encoding="UTF-8"?>
<svg xmlns="http://www.w3.org/2000/svg" xmlns:xlink="http://www.w3.org/1999/xlink" width="36pt" height="36pt" viewBox="0 0 36 36" version="1.1">
<g id="surface20476">
<path style=" stroke:none;fill-rule:nonzero;fill:rgb(100%,87.843138%,50.980395%);fill-opacity:1;" d="M 32.101562 10.648438 C 30.75 8.851562 26.324219 7.574219 21 7.574219 C 15.675781 7.574219 11.175781 8.925781 9.898438 10.648438 C 7.800781 13.199219 6.523438 16.425781 6.523438 19.949219 C 6.523438 27.976562 12.976562 34.425781 21 34.425781 C 29.023438 34.425781 35.476562 27.976562 35.476562 19.949219 C 35.476562 16.425781 34.199219 13.199219 32.101562 10.648438 Z M 32.101562 10.648438 "/>
<path style="fill:none;stroke-width:3;stroke-linecap:round;stroke-linejoin:round;stroke:rgb(9.411765%,9.803922%,24.705882%);stroke-opacity:1;stroke-miterlimit:4;" d="M 42.5 24.901042 C 42.598958 24.197917 42.598958 23.401042 42.598958 22.598958 C 42.598958 18.098958 41 13.901042 38.302083 10.598958 " transform="matrix(0.75,0,0,0.75,0,0)"/>
<path style="fill:none;stroke-width:3;stroke-linecap:round;stroke-linejoin:round;stroke:rgb(9.411765%,9.803922%,24.705882%);stroke-opacity:1;stroke-miterlimit:4;" d="M 7.5 31.401042 C 10.598958 37.302083 16.802083 41.302083 24 41.302083 C 31.802083 41.302083 38.5 36.5 41.302083 29.598958 " transform="matrix(0.75,0,0,0.75,0,0)"/>
<path style="fill:none;stroke-width:3;stroke-linecap:round;stroke-linejoin:round;stroke:rgb(9.411765%,9.803922%,24.705882%);stroke-opacity:1;stroke-miterlimit:4;" d="M 9.697917 10.697917 C 7 13.901042 5.401042 18.098958 5.401042 22.697917 C 5.401042 22.901042 5.401042 23 5.401042 23.197917 " transform="matrix(0.75,0,0,0.75,0,0)"/>
<path style="fill:none;stroke-width:3;stroke-linecap:round;stroke-linejoin:round;stroke:rgb(9.411765%,9.803922%,24.705882%);stroke-opacity:1;stroke-miterlimit:4;" d="M 15.5 16.5 C 17.901042 17.098958 20.802083 17.5 24 17.5 L 26 17.5 C 26.401042 17.5 26.802083 17.802083 27 18.197917 L 28.5 22.5 C 28.802083 23.401042 30.098958 23.401042 30.401042 22.5 L 32.802083 16.802083 C 32.901042 16.5 33.197917 16.302083 33.5 16.197917 C 36.802083 15.197917 38.802083 13.697917 38.802083 12.098958 C 38.802083 9.098958 32.197917 6.697917 24 6.697917 C 17 6.697917 11.098958 8.5 9.598958 10.802083 " transform="matrix(0.75,0,0,0.75,0,0)"/>
</g>
</svg>
