<?xml version="1.0" encoding="UTF-8"?>
<svg xmlns="http://www.w3.org/2000/svg" xmlns:xlink="http://www.w3.org/1999/xlink" width="36pt" height="36pt" viewBox="0 0 36 36" version="1.1">
<g id="surface18234">
<path style=" stroke:none;fill-rule:nonzero;fill:rgb(95.686275%,56.078434%,69.411767%);fill-opacity:1;" d="M 26.773438 28.273438 C 26.773438 25.199219 27.523438 22.875 27.523438 19.800781 C 27.523438 14.324219 24.523438 13.726562 24.449219 7.574219 C 24.675781 7.351562 24.75 7.050781 24.75 6.75 L 24.75 6 C 24.75 5.175781 24.074219 4.5 23.25 4.5 L 18.75 4.5 C 17.925781 4.5 17.25 5.175781 17.25 6 L 17.25 6.75 C 17.25 7.050781 17.324219 7.351562 17.550781 7.574219 C 17.398438 13.125 14.476562 14.398438 14.476562 19.800781 C 14.476562 22.648438 15.226562 25.199219 15.226562 28.273438 C 15.226562 30.226562 15 31.199219 14.773438 32.25 C 14.398438 34.125 15.824219 35.925781 17.773438 35.925781 L 24.226562 35.925781 C 26.175781 35.925781 27.601562 34.125 27.226562 32.25 C 27 31.273438 26.773438 30.300781 26.773438 28.273438 Z M 26.773438 28.273438 "/>
<path style="fill:none;stroke-width:3;stroke-linecap:round;stroke-linejoin:round;stroke:rgb(9.411765%,9.803922%,24.705882%);stroke-opacity:1;stroke-miterlimit:4;" d="M 16.401042 32.697917 C 16.197917 29.5 15.5 26.697917 15.5 23.5 C 15.5 16.5 19.197917 14.901042 19.5 8 " transform="matrix(0.75,0,0,0.75,0,0)"/>
<path style="fill:none;stroke-width:3;stroke-linecap:round;stroke-linejoin:round;stroke:rgb(9.411765%,9.803922%,24.705882%);stroke-opacity:1;stroke-miterlimit:4;" d="M 31.802083 18.802083 C 32.197917 20.098958 32.5 21.598958 32.5 23.5 C 32.5 27.5 31.5 30.5 31.5 34.5 C 31.5 37 31.802083 38.302083 32.098958 39.697917 C 32.598958 42.197917 30.697917 44.5 28.197917 44.5 C 26.197917 44.5 21.802083 44.5 19.802083 44.5 C 17.302083 44.5 15.401042 42.197917 15.901042 39.697917 C 15.901042 39.598958 15.901042 39.598958 15.901042 39.5 " transform="matrix(0.75,0,0,0.75,0,0)"/>
<path style="fill:none;stroke-width:3;stroke-linecap:round;stroke-linejoin:round;stroke:rgb(9.411765%,9.803922%,24.705882%);stroke-opacity:1;stroke-miterlimit:4;" d="M 28.5 7.802083 C 28.5 9.901042 28.901042 11.5 29.302083 12.901042 " transform="matrix(0.75,0,0,0.75,0,0)"/>
<path style="fill:none;stroke-width:3;stroke-linecap:round;stroke-linejoin:round;stroke:rgb(9.411765%,9.803922%,24.705882%);stroke-opacity:1;stroke-miterlimit:4;" d="M 20.802083 18.5 L 31.697917 18.5 " transform="matrix(0.75,0,0,0.75,0,0)"/>
<path style="fill:none;stroke-width:3;stroke-linecap:butt;stroke-linejoin:miter;stroke:rgb(9.411765%,9.803922%,24.705882%);stroke-opacity:1;stroke-miterlimit:4;" d="M 27 8 L 21 8 C 19.901042 8 19 7.098958 19 6 L 19 5 C 19 3.901042 19.901042 3 21 3 L 27 3 C 28.098958 3 29 3.901042 29 5 L 29 6 C 29 7.098958 28.098958 8 27 8 Z M 27 8 " transform="matrix(0.75,0,0,0.75,0,0)"/>
<path style="fill:none;stroke-width:3;stroke-linecap:butt;stroke-linejoin:miter;stroke:rgb(9.411765%,9.803922%,24.705882%);stroke-opacity:1;stroke-miterlimit:4;" d="M 31.098958 29.5 L 15.098958 29.5 " transform="matrix(0.75,0,0,0.75,0,0)"/>
</g>
</svg>
