<?xml version="1.0" encoding="UTF-8"?>
<svg xmlns="http://www.w3.org/2000/svg" xmlns:xlink="http://www.w3.org/1999/xlink" width="36pt" height="36pt" viewBox="0 0 36 36" version="1.1">
<g id="surface31353">
<path style=" stroke:none;fill-rule:nonzero;fill:rgb(62.352943%,65.882355%,85.490197%);fill-opacity:1;" d="M 31.5 33.75 L 10.5 33.75 C 9.226562 33.75 8.25 32.773438 8.25 31.5 L 8.25 9.75 C 8.25 8.476562 9.226562 7.5 10.5 7.5 L 31.5 7.5 C 32.773438 7.5 33.75 8.476562 33.75 9.75 L 33.75 31.5 C 33.75 32.773438 32.699219 33.75 31.5 33.75 Z M 31.5 33.75 "/>
<path style=" stroke:none;fill-rule:nonzero;fill:rgb(9.411765%,9.803922%,24.705882%);fill-opacity:1;" d="M 10.5 8.625 C 10.5 9.246094 9.996094 9.75 9.375 9.75 C 8.753906 9.75 8.25 9.246094 8.25 8.625 C 8.25 8.003906 8.753906 7.5 9.375 7.5 C 9.996094 7.5 10.5 8.003906 10.5 8.625 Z M 10.5 8.625 "/>
<path style=" stroke:none;fill-rule:nonzero;fill:rgb(9.411765%,9.803922%,24.705882%);fill-opacity:1;" d="M 14.25 8.625 C 14.25 9.246094 13.746094 9.75 13.125 9.75 C 12.503906 9.75 12 9.246094 12 8.625 C 12 8.003906 12.503906 7.5 13.125 7.5 C 13.746094 7.5 14.25 8.003906 14.25 8.625 Z M 14.25 8.625 "/>
<path style=" stroke:none;fill-rule:nonzero;fill:rgb(9.411765%,9.803922%,24.705882%);fill-opacity:1;" d="M 18 8.625 C 18 9.246094 17.496094 9.75 16.875 9.75 C 16.253906 9.75 15.75 9.246094 15.75 8.625 C 15.75 8.003906 16.253906 7.5 16.875 7.5 C 17.496094 7.5 18 8.003906 18 8.625 Z M 18 8.625 "/>
<path style=" stroke:none;fill-rule:nonzero;fill:rgb(9.411765%,9.803922%,24.705882%);fill-opacity:1;" d="M 21.75 8.625 C 21.75 9.246094 21.246094 9.75 20.625 9.75 C 20.003906 9.75 19.5 9.246094 19.5 8.625 C 19.5 8.003906 20.003906 7.5 20.625 7.5 C 21.246094 7.5 21.75 8.003906 21.75 8.625 Z M 21.75 8.625 "/>
<path style=" stroke:none;fill-rule:nonzero;fill:rgb(9.411765%,9.803922%,24.705882%);fill-opacity:1;" d="M 27.75 8.625 C 27.75 9.246094 27.246094 9.75 26.625 9.75 C 26.003906 9.75 25.5 9.246094 25.5 8.625 C 25.5 8.003906 26.003906 7.5 26.625 7.5 C 27.246094 7.5 27.75 8.003906 27.75 8.625 Z M 27.75 8.625 "/>
<path style="fill:none;stroke-width:3;stroke-linecap:round;stroke-linejoin:round;stroke:rgb(9.411765%,9.803922%,24.705882%);stroke-opacity:1;stroke-miterlimit:4;" d="M 12.5 17.5 L 35.5 17.5 L 35.5 35.5 L 12.5 35.5 Z M 12.5 17.5 " transform="matrix(0.75,0,0,0.75,0,0)"/>
<path style="fill:none;stroke-width:3;stroke-linecap:round;stroke-linejoin:round;stroke:rgb(9.411765%,9.803922%,24.705882%);stroke-opacity:1;stroke-miterlimit:4;" d="M 40.5 35.5 L 40.5 37.5 C 40.5 39.197917 39.197917 40.5 37.5 40.5 L 10.5 40.5 C 8.802083 40.5 7.5 39.197917 7.5 37.5 L 7.5 28.098958 " transform="matrix(0.75,0,0,0.75,0,0)"/>
<path style="fill:none;stroke-width:3;stroke-linecap:round;stroke-linejoin:round;stroke:rgb(9.411765%,9.803922%,24.705882%);stroke-opacity:1;stroke-miterlimit:4;" d="M 7.5 19.401042 L 7.5 9.5 C 7.5 7.802083 8.802083 6.5 10.5 6.5 L 37.5 6.5 C 39.197917 6.5 40.5 7.802083 40.5 9.5 L 40.5 28.802083 " transform="matrix(0.75,0,0,0.75,0,0)"/>
<path style="fill:none;stroke-width:3;stroke-linecap:round;stroke-linejoin:round;stroke:rgb(9.411765%,9.803922%,24.705882%);stroke-opacity:1;stroke-miterlimit:4;" d="M 10.5 43.5 L 10.5 40.5 " transform="matrix(0.75,0,0,0.75,0,0)"/>
<path style="fill:none;stroke-width:3;stroke-linecap:round;stroke-linejoin:round;stroke:rgb(9.411765%,9.803922%,24.705882%);stroke-opacity:1;stroke-miterlimit:4;" d="M 37.5 43.5 L 37.5 40.5 " transform="matrix(0.75,0,0,0.75,0,0)"/>
</g>
</svg>
