<?xml version="1.0" encoding="UTF-8"?>
<svg xmlns="http://www.w3.org/2000/svg" xmlns:xlink="http://www.w3.org/1999/xlink" width="36pt" height="36pt" viewBox="0 0 36 36" version="1.1">
<g id="surface24668">
<path style=" stroke:none;fill-rule:nonzero;fill:rgb(100%,87.843138%,50.980395%);fill-opacity:1;" d="M 27.75 25.125 C 27.75 31.132812 22.882812 36 16.875 36 C 10.867188 36 6 31.132812 6 25.125 C 6 19.117188 10.867188 14.25 16.875 14.25 C 22.882812 14.25 27.75 19.117188 27.75 25.125 Z M 27.75 25.125 "/>
<path style="fill:none;stroke-width:3;stroke-linecap:round;stroke-linejoin:round;stroke:rgb(9.411765%,9.803922%,24.705882%);stroke-opacity:1;stroke-miterlimit:4;" d="M 22.901042 42.802083 C 21.5 43.302083 20 43.5 18.5 43.5 C 10.802083 43.5 4.5 37.197917 4.5 29.5 C 4.5 27.598958 4.901042 25.901042 5.5 24.302083 " transform="matrix(0.75,0,0,0.75,0,0)"/>
<path style="fill:none;stroke-width:3;stroke-linecap:round;stroke-linejoin:round;stroke:rgb(9.411765%,9.803922%,24.705882%);stroke-opacity:1;stroke-miterlimit:4;" d="M 9.302083 19 C 11.802083 16.802083 15 15.5 18.5 15.5 C 26.197917 15.5 32.5 21.802083 32.5 29.5 C 32.5 33.197917 31 36.598958 28.697917 39.098958 " transform="matrix(0.75,0,0,0.75,0,0)"/>
<path style="fill:none;stroke-width:3;stroke-linecap:round;stroke-linejoin:round;stroke:rgb(9.411765%,9.803922%,24.705882%);stroke-opacity:1;stroke-miterlimit:4;" d="M 18.5 9.802083 C 21.098958 6.5 25 4.5 29.5 4.5 C 37.197917 4.5 43.5 10.802083 43.5 18.5 C 43.5 23.5 40.901042 27.901042 36.901042 30.401042 " transform="matrix(0.75,0,0,0.75,0,0)"/>
<path style=" stroke:none;fill-rule:nonzero;fill:rgb(9.411765%,9.803922%,24.705882%);fill-opacity:1;" d="M 20.25 7.875 C 20.25 8.496094 19.746094 9 19.125 9 C 18.503906 9 18 8.496094 18 7.875 C 18 7.253906 18.503906 6.75 19.125 6.75 C 19.746094 6.75 20.25 7.253906 20.25 7.875 Z M 20.25 7.875 "/>
<path style=" stroke:none;fill-rule:nonzero;fill:rgb(9.411765%,9.803922%,24.705882%);fill-opacity:1;" d="M 11.25 20.25 C 11.25 21.078125 10.578125 21.75 9.75 21.75 C 8.921875 21.75 8.25 21.078125 8.25 20.25 C 8.25 19.421875 8.921875 18.75 9.75 18.75 C 10.578125 18.75 11.25 19.421875 11.25 20.25 Z M 11.25 20.25 "/>
<path style=" stroke:none;fill-rule:nonzero;fill:rgb(9.411765%,9.803922%,24.705882%);fill-opacity:1;" d="M 26.25 9.375 C 26.25 10.410156 25.410156 11.25 24.375 11.25 C 23.339844 11.25 22.5 10.410156 22.5 9.375 C 22.5 8.339844 23.339844 7.5 24.375 7.5 C 25.410156 7.5 26.25 8.339844 26.25 9.375 Z M 26.25 9.375 "/>
<path style=" stroke:none;fill-rule:nonzero;fill:rgb(9.411765%,9.803922%,24.705882%);fill-opacity:1;" d="M 28.5 16.875 C 28.5 17.496094 27.996094 18 27.375 18 C 26.753906 18 26.25 17.496094 26.25 16.875 C 26.25 16.253906 26.753906 15.75 27.375 15.75 C 27.996094 15.75 28.5 16.253906 28.5 16.875 Z M 28.5 16.875 "/>
<path style=" stroke:none;fill-rule:nonzero;fill:rgb(9.411765%,9.803922%,24.705882%);fill-opacity:1;" d="M 13.5 27.375 C 13.5 27.996094 12.996094 28.5 12.375 28.5 C 11.753906 28.5 11.25 27.996094 11.25 27.375 C 11.25 26.753906 11.753906 26.25 12.375 26.25 C 12.996094 26.25 13.5 26.753906 13.5 27.375 Z M 13.5 27.375 "/>
<path style=" stroke:none;fill-rule:nonzero;fill:rgb(9.411765%,9.803922%,24.705882%);fill-opacity:1;" d="M 21 23.625 C 21 24.660156 20.160156 25.5 19.125 25.5 C 18.089844 25.5 17.25 24.660156 17.25 23.625 C 17.25 22.589844 18.089844 21.75 19.125 21.75 C 20.160156 21.75 21 22.589844 21 23.625 Z M 21 23.625 "/>
<path style=" stroke:none;fill-rule:nonzero;fill:rgb(9.411765%,9.803922%,24.705882%);fill-opacity:1;" d="M 16.5 17.625 C 16.5 18.246094 15.996094 18.75 15.375 18.75 C 14.753906 18.75 14.25 18.246094 14.25 17.625 C 14.25 17.003906 14.753906 16.5 15.375 16.5 C 15.996094 16.5 16.5 17.003906 16.5 17.625 Z M 16.5 17.625 "/>
</g>
</svg>
