<?xml version="1.0" encoding="UTF-8"?>
<svg xmlns="http://www.w3.org/2000/svg" xmlns:xlink="http://www.w3.org/1999/xlink" width="36pt" height="36pt" viewBox="0 0 36 36" version="1.1">
<g id="surface25572">
<path style=" stroke:none;fill-rule:nonzero;fill:rgb(100%,87.843138%,50.980395%);fill-opacity:1;" d="M 29.25 17.773438 C 28.351562 18.074219 27.601562 18.523438 26.851562 18.976562 C 26.550781 11.625 24.074219 5.773438 21 5.773438 C 17.925781 5.773438 15.449219 11.550781 15.148438 18.976562 C 14.398438 18.449219 13.574219 18.074219 12.75 17.773438 C 12.074219 17.550781 11.476562 18.226562 11.851562 18.824219 C 13.125 21 13.800781 23.476562 13.800781 26.023438 L 13.800781 28.726562 C 13.800781 32.476562 16.875 35.550781 20.625 35.550781 L 21.449219 35.550781 C 25.199219 35.550781 28.273438 32.476562 28.273438 28.726562 L 28.273438 26.023438 C 28.273438 23.476562 28.949219 21 30.226562 18.824219 C 30.523438 18.226562 29.925781 17.476562 29.25 17.773438 Z M 29.25 17.773438 "/>
<path style="fill:none;stroke-width:3;stroke-linecap:round;stroke-linejoin:round;stroke:rgb(9.411765%,9.803922%,24.705882%);stroke-opacity:1;stroke-miterlimit:10;" d="M 16.802083 15.598958 C 18 8.598958 20.802083 3.697917 24 3.697917 C 27.098958 3.697917 29.697917 8.098958 31 14.401042 " transform="matrix(0.75,0,0,0.75,0,0)"/>
<path style="fill:none;stroke-width:3;stroke-linecap:round;stroke-linejoin:round;stroke:rgb(9.411765%,9.803922%,24.705882%);stroke-opacity:1;stroke-miterlimit:10;" d="M 21.098958 26.098958 C 19.197917 23.197917 16.401042 20.901042 13 19.598958 C 12.098958 19.302083 11.302083 20.197917 11.802083 21 C 13.5 23.901042 14.401042 27.197917 14.401042 30.598958 L 14.401042 34.197917 C 14.401042 39.197917 18.5 43.302083 23.5 43.302083 L 24 43.302083 " transform="matrix(0.75,0,0,0.75,0,0)"/>
<path style="fill:none;stroke-width:3;stroke-linecap:round;stroke-linejoin:round;stroke:rgb(9.411765%,9.803922%,24.705882%);stroke-opacity:1;stroke-miterlimit:10;" d="M 24 43.401042 L 24 46.401042 " transform="matrix(0.75,0,0,0.75,0,0)"/>
<path style="fill:none;stroke-width:3;stroke-linecap:round;stroke-linejoin:round;stroke:rgb(9.411765%,9.803922%,24.705882%);stroke-opacity:1;stroke-miterlimit:10;" d="M 24 38.197917 L 24 35.598958 C 24 29.697917 27.098958 24.302083 31.901042 21.197917 " transform="matrix(0.75,0,0,0.75,0,0)"/>
<path style="fill:none;stroke-width:3;stroke-linecap:round;stroke-linejoin:round;stroke:rgb(9.411765%,9.803922%,24.705882%);stroke-opacity:1;stroke-miterlimit:10;" d="M 31.901042 21.197917 C 32.901042 20.598958 33.901042 20.098958 35 19.697917 C 35.901042 19.401042 36.697917 20.302083 36.197917 21.098958 C 34.5 24 33.598958 27.302083 33.598958 30.697917 L 33.598958 34.302083 C 33.598958 39.302083 29.5 43.401042 24.5 43.401042 L 24 43.401042 " transform="matrix(0.75,0,0,0.75,0,0)"/>
</g>
</svg>
