<?xml version="1.0" encoding="UTF-8"?>
<svg xmlns="http://www.w3.org/2000/svg" xmlns:xlink="http://www.w3.org/1999/xlink" width="36pt" height="36pt" viewBox="0 0 36 36" version="1.1">
<g id="surface12095">
<path style=" stroke:none;fill-rule:nonzero;fill:rgb(100%,67.058825%,56.862748%);fill-opacity:1;" d="M 30.148438 29.699219 L 22.199219 34.273438 C 21.226562 34.875 19.949219 34.875 18.976562 34.199219 L 11.699219 29.699219 C 10.273438 28.800781 9.824219 27 10.574219 25.5 L 12.523438 21.898438 C 13.351562 20.398438 14.925781 19.425781 16.648438 19.425781 L 25.199219 19.425781 C 26.925781 19.425781 28.5 20.398438 29.324219 21.898438 L 31.273438 25.425781 C 32.175781 27 31.648438 28.875 30.148438 29.699219 Z M 30.148438 29.699219 "/>
<path style="fill:none;stroke-width:3;stroke-linecap:round;stroke-linejoin:round;stroke:rgb(9.411765%,9.803922%,24.705882%);stroke-opacity:1;stroke-miterlimit:4;" d="M 28.197917 22.5 L 29.401042 22.5 C 31.598958 22.5 33.598958 23.697917 34.697917 25.598958 L 37.098958 30.098958 C 38.098958 32 37.5 34.401042 35.598958 35.5 L 25.5 41.302083 C 24.197917 42 22.598958 42 21.401042 41.197917 L 12.197917 35.5 C 10.401042 34.401042 9.802083 32 10.802083 30.197917 L 13.302083 25.598958 C 14.401042 23.697917 16.401042 22.5 18.598958 22.5 L 21.901042 22.5 " transform="matrix(0.75,0,0,0.75,0,0)"/>
<path style="fill:none;stroke-width:3;stroke-linecap:round;stroke-linejoin:round;stroke:rgb(9.411765%,9.803922%,24.705882%);stroke-opacity:1;stroke-miterlimit:4;" d="M 8.098958 6.901042 C 9.5 5.598958 11 4.5 12.5 3.901042 C 13.302083 3.598958 14.098958 4.401042 13.697917 5.197917 L 11 11.5 L 15 10.197917 C 16.802083 9.598958 18.302083 11.598958 17.302083 13.197917 C 16.802083 14 16.098958 14.802083 15.401042 15.598958 C 12 19 7 20 4.5 17.5 C 3 16.098958 3.098958 14.197917 4 12.197917 " transform="matrix(0.75,0,0,0.75,0,0)"/>
<path style="fill:none;stroke-width:3;stroke-linecap:round;stroke-linejoin:round;stroke:rgb(9.411765%,9.803922%,24.705882%);stroke-opacity:1;stroke-miterlimit:4;" d="M 37.697917 18.598958 C 40 19.197917 42.098958 18.901042 43.5 17.5 C 46 15 44 11 40.5 7.5 C 39 6 37.197917 4.5 35.401042 3.901042 C 34.598958 3.598958 33.802083 4.401042 34.197917 5.197917 L 36.901042 11.5 L 32.901042 10.197917 C 31.098958 9.598958 29.598958 11.598958 30.598958 13.197917 C 31.098958 14 31.697917 14.697917 32.401042 15.401042 " transform="matrix(0.75,0,0,0.75,0,0)"/>
<path style="fill:none;stroke-width:3;stroke-linecap:round;stroke-linejoin:round;stroke:rgb(9.411765%,9.803922%,24.705882%);stroke-opacity:1;stroke-miterlimit:4;" d="M 4.5 18.5 C 4.5 18.5 3.5 25.302083 13 25.5 " transform="matrix(0.75,0,0,0.75,0,0)"/>
<path style="fill:none;stroke-width:3;stroke-linecap:round;stroke-linejoin:round;stroke:rgb(9.411765%,9.803922%,24.705882%);stroke-opacity:1;stroke-miterlimit:4;" d="M 43.5 18.5 C 43.5 18.5 44.5 25.5 35.5 25.5 " transform="matrix(0.75,0,0,0.75,0,0)"/>
<path style="fill:none;stroke-width:3;stroke-linecap:round;stroke-linejoin:round;stroke:rgb(9.411765%,9.803922%,24.705882%);stroke-opacity:1;stroke-miterlimit:4;" d="M 3.5 28.5 C 3.5 28.5 3.5 32.5 9.5 32.5 " transform="matrix(0.75,0,0,0.75,0,0)"/>
<path style="fill:none;stroke-width:3;stroke-linecap:round;stroke-linejoin:round;stroke:rgb(9.411765%,9.803922%,24.705882%);stroke-opacity:1;stroke-miterlimit:4;" d="M 44.5 28.5 C 44.5 28.5 44.5 32.5 38.5 32.5 " transform="matrix(0.75,0,0,0.75,0,0)"/>
<path style="fill:none;stroke-width:3;stroke-linecap:round;stroke-linejoin:round;stroke:rgb(9.411765%,9.803922%,24.705882%);stroke-opacity:1;stroke-miterlimit:4;" d="M 11.5 44.5 C 11.5 44.5 11.5 40.5 19.5 40.5 " transform="matrix(0.75,0,0,0.75,0,0)"/>
<path style="fill:none;stroke-width:3;stroke-linecap:round;stroke-linejoin:round;stroke:rgb(9.411765%,9.803922%,24.705882%);stroke-opacity:1;stroke-miterlimit:4;" d="M 36.5 44.5 C 36.5 44.5 35.5 40.5 27.5 40.5 " transform="matrix(0.75,0,0,0.75,0,0)"/>
<path style="fill:none;stroke-width:3;stroke-linecap:round;stroke-linejoin:round;stroke:rgb(9.411765%,9.803922%,24.705882%);stroke-opacity:1;stroke-miterlimit:4;" d="M 34.5 36.5 C 34.5 36.5 38.5 39.5 43.5 38.5 " transform="matrix(0.75,0,0,0.75,0,0)"/>
<path style="fill:none;stroke-width:3;stroke-linecap:round;stroke-linejoin:round;stroke:rgb(9.411765%,9.803922%,24.705882%);stroke-opacity:1;stroke-miterlimit:4;" d="M 13.5 36.5 C 13.5 36.5 9.5 39.5 4.5 38.5 " transform="matrix(0.75,0,0,0.75,0,0)"/>
</g>
</svg>
