<?xml version="1.0" encoding="UTF-8"?>
<svg xmlns="http://www.w3.org/2000/svg" xmlns:xlink="http://www.w3.org/1999/xlink" width="36pt" height="36pt" viewBox="0 0 36 36" version="1.1">
<g id="surface27156">
<path style=" stroke:none;fill-rule:nonzero;fill:rgb(64.705884%,83.92157%,65.490198%);fill-opacity:1;" d="M 27.898438 9.226562 C 31.425781 10.273438 33.226562 14.25 31.648438 17.550781 C 28.125 25.5 21.75 31.875 13.800781 35.476562 C 10.425781 36.976562 6.523438 35.25 5.476562 31.726562 C 4.574219 28.875 6 25.800781 8.699219 24.523438 C 14.023438 22.050781 18.226562 17.773438 20.699219 12.523438 C 21.976562 9.75 25.050781 8.398438 27.898438 9.226562 Z M 27.898438 9.226562 "/>
<path style="fill:none;stroke-width:3;stroke-linecap:round;stroke-linejoin:round;stroke:rgb(9.411765%,9.803922%,24.705882%);stroke-opacity:1;stroke-miterlimit:4;" d="M 17.401042 21.697917 C 19.901042 19.098958 22 16.098958 23.598958 12.802083 C 25.302083 9.197917 29.302083 7.5 33.098958 8.598958 C 37.697917 10 40.098958 15.098958 38.098958 19.5 C 36.5 23 34.5 26.302083 32.098958 29.302083 " transform="matrix(0.75,0,0,0.75,0,0)"/>
<path style="fill:none;stroke-width:3;stroke-linecap:round;stroke-linejoin:round;stroke:rgb(9.411765%,9.803922%,24.705882%);stroke-opacity:1;stroke-miterlimit:4;" d="M 28 33.802083 C 24.098958 37.598958 19.598958 40.697917 14.5 43 C 10.098958 45 5 42.697917 3.598958 38 C 2.5 34.197917 4.197917 30.197917 7.802083 28.5 C 9.401042 27.697917 11 26.802083 12.5 25.802083 " transform="matrix(0.75,0,0,0.75,0,0)"/>
<path style=" stroke:none;fill-rule:nonzero;fill:rgb(9.411765%,9.803922%,24.705882%);fill-opacity:1;" d="M 8.625 19.875 C 8.625 20.453125 8.15625 20.925781 7.574219 20.925781 C 6.996094 20.925781 6.523438 20.453125 6.523438 19.875 C 6.523438 19.296875 6.996094 18.824219 7.574219 18.824219 C 8.15625 18.824219 8.625 19.296875 8.625 19.875 Z M 8.625 19.875 "/>
<path style=" stroke:none;fill-rule:nonzero;fill:rgb(9.411765%,9.803922%,24.705882%);fill-opacity:1;" d="M 20.476562 28.050781 C 20.476562 28.628906 20.003906 29.101562 19.425781 29.101562 C 18.84375 29.101562 18.375 28.628906 18.375 28.050781 C 18.375 27.46875 18.84375 27 19.425781 27 C 20.003906 27 20.476562 27.46875 20.476562 28.050781 Z M 20.476562 28.050781 "/>
<path style=" stroke:none;fill-rule:nonzero;fill:rgb(9.411765%,9.803922%,24.705882%);fill-opacity:1;" d="M 28.574219 18.375 C 28.574219 18.953125 28.105469 19.425781 27.523438 19.425781 C 26.945312 19.425781 26.476562 18.953125 26.476562 18.375 C 26.476562 17.796875 26.945312 17.324219 27.523438 17.324219 C 28.105469 17.324219 28.574219 17.796875 28.574219 18.375 Z M 28.574219 18.375 "/>
<path style=" stroke:none;fill-rule:nonzero;fill:rgb(9.411765%,9.803922%,24.705882%);fill-opacity:1;" d="M 17.324219 10.875 C 17.324219 11.453125 16.855469 11.925781 16.273438 11.925781 C 15.695312 11.925781 15.226562 11.453125 15.226562 10.875 C 15.226562 10.296875 15.695312 9.824219 16.273438 9.824219 C 16.855469 9.824219 17.324219 10.296875 17.324219 10.875 Z M 17.324219 10.875 "/>
<path style=" stroke:none;fill-rule:nonzero;fill:rgb(9.411765%,9.803922%,24.705882%);fill-opacity:1;" d="M 24.300781 12.226562 C 24.300781 12.804688 23.828125 13.273438 23.25 13.273438 C 22.671875 13.273438 22.199219 12.804688 22.199219 12.226562 C 22.199219 11.644531 22.671875 11.175781 23.25 11.175781 C 23.828125 11.175781 24.300781 11.644531 24.300781 12.226562 Z M 24.300781 12.226562 "/>
<path style=" stroke:none;fill-rule:nonzero;fill:rgb(9.411765%,9.803922%,24.705882%);fill-opacity:1;" d="M 15.824219 15.824219 C 15.824219 16.40625 15.355469 16.875 14.773438 16.875 C 14.195312 16.875 13.726562 16.40625 13.726562 15.824219 C 13.726562 15.246094 14.195312 14.773438 14.773438 14.773438 C 15.355469 14.773438 15.824219 15.246094 15.824219 15.824219 Z M 15.824219 15.824219 "/>
<path style=" stroke:none;fill-rule:nonzero;fill:rgb(9.411765%,9.803922%,24.705882%);fill-opacity:1;" d="M 15.375 29.101562 C 15.375 29.679688 14.90625 30.148438 14.324219 30.148438 C 13.746094 30.148438 13.273438 29.679688 13.273438 29.101562 C 13.273438 28.519531 13.746094 28.050781 14.324219 28.050781 C 14.90625 28.050781 15.375 28.519531 15.375 29.101562 Z M 15.375 29.101562 "/>
<path style=" stroke:none;fill-rule:nonzero;fill:rgb(9.411765%,9.803922%,24.705882%);fill-opacity:1;" d="M 9.226562 26.324219 C 9.226562 26.90625 8.753906 27.375 8.175781 27.375 C 7.59375 27.375 7.125 26.90625 7.125 26.324219 C 7.125 25.746094 7.59375 25.273438 8.175781 25.273438 C 8.753906 25.273438 9.226562 25.746094 9.226562 26.324219 Z M 9.226562 26.324219 "/>
<path style=" stroke:none;fill-rule:nonzero;fill:rgb(9.411765%,9.803922%,24.705882%);fill-opacity:1;" d="M 20.476562 20.550781 C 20.476562 21.128906 20.003906 21.601562 19.425781 21.601562 C 18.84375 21.601562 18.375 21.128906 18.375 20.550781 C 18.375 19.96875 18.84375 19.5 19.425781 19.5 C 20.003906 19.5 20.476562 19.96875 20.476562 20.550781 Z M 20.476562 20.550781 "/>
<path style="fill:none;stroke-width:3;stroke-linecap:round;stroke-linejoin:round;stroke:rgb(9.411765%,9.803922%,24.705882%);stroke-opacity:1;stroke-miterlimit:4;" d="M 35.5 9.901042 C 37.598958 5.5 35.5 3.802083 33.802083 3.401042 " transform="matrix(0.75,0,0,0.75,0,0)"/>
</g>
</svg>
