<?xml version="1.0" encoding="UTF-8"?>
<svg xmlns="http://www.w3.org/2000/svg" xmlns:xlink="http://www.w3.org/1999/xlink" width="36pt" height="36pt" viewBox="0 0 36 36" version="1.1">
<g id="surface32204">
<path style=" stroke:none;fill-rule:nonzero;fill:rgb(100%,67.058825%,56.862748%);fill-opacity:1;" d="M 25.992188 16.007812 C 23.71875 13.738281 20.800781 12.972656 18.53125 15.246094 C 18.269531 15.503906 8.839844 30.546875 7.992188 32.382812 C 7.515625 33.417969 8.582031 34.484375 9.617188 34.007812 C 11.226562 33.261719 26.453125 23.773438 26.757812 23.46875 C 29.027344 21.199219 28.261719 18.28125 25.992188 16.007812 Z M 25.992188 16.007812 "/>
<path style="fill:none;stroke-width:3;stroke-linecap:round;stroke-linejoin:round;stroke:rgb(9.411765%,9.803922%,24.705882%);stroke-opacity:1;stroke-miterlimit:10;" d="M 31 17 L 41.5 6.5 " transform="matrix(0.75,0,0,0.75,0,0)"/>
<path style="fill:none;stroke-width:3;stroke-linecap:round;stroke-linejoin:round;stroke:rgb(9.411765%,9.803922%,24.705882%);stroke-opacity:1;stroke-miterlimit:10;" d="M 30.5 6.5 C 30.5 6.5 39 9 31 17 " transform="matrix(0.75,0,0,0.75,0,0)"/>
<path style="fill:none;stroke-width:3;stroke-linecap:round;stroke-linejoin:round;stroke:rgb(9.411765%,9.803922%,24.705882%);stroke-opacity:1;stroke-miterlimit:10;" d="M 41.5 17.5 C 41.5 17.5 39.5 8.5 31 17 " transform="matrix(0.75,0,0,0.75,0,0)"/>
<path style="fill:none;stroke-width:3;stroke-linecap:round;stroke-linejoin:round;stroke:rgb(9.411765%,9.803922%,24.705882%);stroke-opacity:1;stroke-miterlimit:10;" d="M 32.75 25.916667 C 34.364583 23.145833 33.239583 19.932292 30.65625 17.34375 C 27.625 14.317708 23.734375 13.296875 20.708333 16.328125 C 20.307292 16.723958 19.677083 17.546875 18.890625 18.661458 " transform="matrix(0.75,0,0,0.75,0,0)"/>
<path style="fill:none;stroke-width:3;stroke-linecap:round;stroke-linejoin:round;stroke:rgb(9.411765%,9.803922%,24.705882%);stroke-opacity:1;stroke-miterlimit:10;" d="M 7.59375 37.276042 C 7.234375 37.973958 6.916667 38.614583 6.65625 39.177083 C 6.020833 40.557292 7.442708 41.979167 8.822917 41.34375 C 10.96875 40.348958 15.526042 37.880208 19.552083 35.546875 C 21.395833 34.479167 22.151042 32.151042 21.177083 30.255208 C 20.6875 29.3125 20 28.395833 19.15625 27.552083 L 19.114583 27.510417 C 17.223958 25.630208 14.078125 26.020833 12.697917 28.302083 C 11.84375 29.723958 11 31.145833 10.213542 32.515625 " transform="matrix(0.75,0,0,0.75,0,0)"/>
<path style="fill:none;stroke-width:3;stroke-linecap:round;stroke-linejoin:round;stroke:rgb(9.411765%,9.803922%,24.705882%);stroke-opacity:1;stroke-miterlimit:10;" d="M 24.880208 37.005208 C 34.489583 42.53125 40.5 40.270833 40.5 40.270833 L 6.5 6.5 " transform="matrix(0.75,0,0,0.75,0,0)"/>
<path style="fill:none;stroke-width:3;stroke-linecap:round;stroke-linejoin:round;stroke:rgb(9.411765%,9.803922%,24.705882%);stroke-opacity:1;stroke-miterlimit:10;" d="M 11.546875 24.244792 C 11.661458 25.427083 12.182292 26.552083 13.052083 27.411458 " transform="matrix(0.75,0,0,0.75,0,0)"/>
<path style="fill:none;stroke-width:3;stroke-linecap:round;stroke-linejoin:round;stroke:rgb(9.411765%,9.803922%,24.705882%);stroke-opacity:1;stroke-miterlimit:10;" d="M 13.90625 14.072917 L 11.697917 22.416667 C 11.536458 23.020833 11.489583 23.640625 11.546875 24.244792 " transform="matrix(0.75,0,0,0.75,0,0)"/>
</g>
</svg>
