<?xml version="1.0" encoding="UTF-8"?>
<svg xmlns="http://www.w3.org/2000/svg" xmlns:xlink="http://www.w3.org/1999/xlink" width="36pt" height="36pt" viewBox="0 0 36 36" version="1.1">
<g id="surface21126">
<path style=" stroke:none;fill-rule:nonzero;fill:rgb(100%,87.843138%,50.980395%);fill-opacity:1;" d="M 30.234375 21.585938 C 30.234375 23.058594 29.523438 24.460938 29.167969 25.800781 C 28.8125 27.273438 28.882812 28.878906 28.246094 30.085938 C 27.464844 31.492188 26.113281 32.363281 25.046875 33.234375 C 23.769531 34.167969 22.492188 35.242188 21 35.242188 C 19.507812 35.242188 18.230469 34.171875 16.949219 33.164062 C 15.882812 32.296875 14.464844 31.425781 13.753906 30.019531 C 13.113281 28.816406 13.113281 27.273438 12.832031 25.734375 C 12.546875 24.394531 11.765625 22.992188 11.765625 21.515625 C 11.765625 20.042969 12.476562 18.640625 12.832031 17.300781 C 13.1875 15.828125 13.113281 14.222656 13.753906 13.015625 C 14.535156 11.609375 15.8125 10.671875 16.949219 9.871094 C 18.582031 8.796875 23.484375 8.730469 24.976562 9.871094 C 26.042969 10.671875 27.460938 11.609375 28.171875 13.015625 C 28.8125 14.21875 28.8125 15.757812 29.097656 17.300781 C 29.523438 18.640625 30.234375 20.042969 30.234375 21.585938 Z M 30.234375 21.585938 "/>
<path style="fill:none;stroke-width:3;stroke-linecap:round;stroke-linejoin:round;stroke:rgb(9.411765%,9.803922%,24.705882%);stroke-opacity:1;stroke-miterlimit:10;" d="M 33.286458 37.635417 C 32.208333 38.96875 30.78125 39.927083 29.609375 40.885417 C 27.838542 42.182292 26.067708 43.666667 24 43.666667 C 21.932292 43.666667 20.161458 42.182292 18.390625 40.791667 C 16.916667 39.588542 14.947917 38.380208 13.963542 36.432292 C 13.078125 34.765625 13.078125 32.630208 12.682292 30.5 C 12.291667 28.645833 11.208333 26.697917 11.208333 24.65625 C 11.208333 22.614583 12.192708 20.671875 12.682292 18.8125 " transform="matrix(0.75,0,0,0.75,0,0)"/>
<path style="fill:none;stroke-width:3;stroke-linecap:round;stroke-linejoin:round;stroke:rgb(9.411765%,9.803922%,24.705882%);stroke-opacity:1;stroke-miterlimit:10;" d="M 14.197917 12.484375 C 15.286458 10.755208 16.927083 9.557292 18.390625 8.520833 C 20.65625 7.036458 27.442708 6.947917 29.510417 8.520833 C 30.984375 9.635417 32.953125 10.932292 33.9375 12.880208 C 34.822917 14.546875 34.822917 16.682292 35.21875 18.8125 C 35.807292 20.671875 36.791667 22.614583 36.791667 24.75 C 36.791667 26.791667 35.807292 28.739583 35.317708 30.59375 C 35.229167 30.958333 35.161458 31.328125 35.098958 31.703125 " transform="matrix(0.75,0,0,0.75,0,0)"/>
<path style="fill:none;stroke-width:3;stroke-linecap:round;stroke-linejoin:miter;stroke:rgb(9.411765%,9.803922%,24.705882%);stroke-opacity:1;stroke-miterlimit:4;" d="M 23.5 6.697917 C 24.984375 2.161458 28.947917 1.5 28.947917 1.5 " transform="matrix(0.75,0,0,0.75,0,0)"/>
<path style="fill:none;stroke-width:3;stroke-linecap:round;stroke-linejoin:round;stroke:rgb(9.411765%,9.803922%,24.705882%);stroke-opacity:1;stroke-miterlimit:4;" d="M 19.604167 15.432292 C 16.96875 18.0625 19.15625 24.046875 17.166667 26.036458 " transform="matrix(0.75,0,0,0.75,0,0)"/>
<path style="fill:none;stroke-width:3;stroke-linecap:round;stroke-linejoin:round;stroke:rgb(9.411765%,9.803922%,24.705882%);stroke-opacity:1;stroke-miterlimit:4;" d="M 25.666667 27.484375 C 21.979167 31 27.635417 34.234375 24 37.130208 " transform="matrix(0.75,0,0,0.75,0,0)"/>
<path style="fill:none;stroke-width:3;stroke-linecap:round;stroke-linejoin:round;stroke:rgb(9.411765%,9.803922%,24.705882%);stroke-opacity:1;stroke-miterlimit:4;" d="M 29.067708 13.239583 C 27.442708 14.697917 28.776042 17.588542 25.666667 19.526042 " transform="matrix(0.75,0,0,0.75,0,0)"/>
</g>
</svg>
