<?xml version="1.0" encoding="UTF-8"?>
<svg xmlns="http://www.w3.org/2000/svg" xmlns:xlink="http://www.w3.org/1999/xlink" width="36pt" height="36pt" viewBox="0 0 36 36" version="1.1">
<g id="surface27064">
<path style=" stroke:none;fill-rule:nonzero;fill:rgb(95.686275%,56.078434%,69.411767%);fill-opacity:1;" d="M 34.109375 14.257812 L 30.140625 11.859375 L 27.742188 7.890625 C 27.347656 7.238281 26.355469 7.445312 26.253906 8.199219 L 25.34375 14.96875 C 22.4375 12.867188 18.355469 13.117188 15.738281 15.738281 C 13.117188 18.355469 12.867188 22.4375 14.964844 25.347656 L 8.199219 26.253906 C 7.445312 26.355469 7.238281 27.347656 7.890625 27.742188 L 11.859375 30.140625 L 14.257812 34.113281 C 14.652344 34.761719 15.644531 34.554688 15.746094 33.800781 L 16.65625 27.035156 C 19.5625 29.132812 23.644531 28.882812 26.261719 26.265625 C 28.882812 23.644531 29.132812 19.566406 27.035156 16.65625 L 33.800781 15.746094 C 34.554688 15.644531 34.761719 14.652344 34.109375 14.257812 Z M 34.109375 14.257812 "/>
<path style="fill:none;stroke-width:3;stroke-linecap:round;stroke-linejoin:round;stroke:rgb(9.411765%,9.803922%,24.705882%);stroke-opacity:1;stroke-miterlimit:10;" d="M 9.619792 30.84375 L 6.203125 31.302083 C 5.15625 31.442708 4.869792 32.822917 5.776042 33.369792 L 11.291667 36.708333 L 14.630208 42.223958 C 15.177083 43.130208 16.557292 42.84375 16.697917 41.796875 L 17.854167 33.182292 " transform="matrix(0.75,0,0,0.75,0,0)"/>
<path style="fill:none;stroke-width:3;stroke-linecap:round;stroke-linejoin:round;stroke:rgb(9.411765%,9.803922%,24.705882%);stroke-opacity:1;stroke-miterlimit:10;" d="M 30.104167 15.145833 L 31.307292 6.203125 C 31.447917 5.15625 32.828125 4.869792 33.375 5.776042 L 36.708333 11.291667 L 42.229167 14.630208 C 43.130208 15.177083 42.84375 16.557292 41.796875 16.697917 L 38.125 17.1875 " transform="matrix(0.75,0,0,0.75,0,0)"/>
<path style="fill:none;stroke-width:3;stroke-linecap:round;stroke-linejoin:round;stroke:rgb(9.411765%,9.803922%,24.705882%);stroke-opacity:1;stroke-miterlimit:10;" d="M 25.119792 34.286458 C 22.114583 34.614583 18.989583 33.619792 16.682292 31.317708 C 12.640625 27.276042 12.640625 20.723958 16.682292 16.682292 " transform="matrix(0.75,0,0,0.75,0,0)"/>
<path style="fill:none;stroke-width:3;stroke-linecap:round;stroke-linejoin:round;stroke:rgb(9.411765%,9.803922%,24.705882%);stroke-opacity:1;stroke-miterlimit:10;" d="M 22.671875 13.739583 C 25.744792 13.34375 28.958333 14.322917 31.317708 16.682292 C 35.359375 20.723958 35.359375 27.276042 31.317708 31.317708 " transform="matrix(0.75,0,0,0.75,0,0)"/>
<path style="fill:none;stroke-width:3;stroke-linecap:round;stroke-linejoin:miter;stroke:rgb(9.411765%,9.803922%,24.705882%);stroke-opacity:1;stroke-miterlimit:4;" d="M 42.5 42.5 L 5.5 5.5 " transform="matrix(0.75,0,0,0.75,0,0)"/>
</g>
</svg>
