<?xml version="1.0" encoding="UTF-8"?>
<svg xmlns="http://www.w3.org/2000/svg" xmlns:xlink="http://www.w3.org/1999/xlink" width="36pt" height="36pt" viewBox="0 0 36 36" version="1.1">
<g id="surface8581">
<path style=" stroke:none;fill-rule:nonzero;fill:rgb(54.901963%,90.588236%,94.901961%);fill-opacity:1;" d="M 24.898438 7.5 L 12.75 7.5 C 11.476562 7.5 10.5 8.476562 10.5 9.75 L 10.5 33 C 10.5 34.273438 11.476562 35.25 12.75 35.25 L 30 35.25 C 31.273438 35.25 32.25 34.273438 32.25 33 L 32.25 14.851562 C 32.25 14.476562 32.101562 14.101562 31.800781 13.800781 L 25.949219 7.949219 C 25.648438 7.648438 25.273438 7.5 24.898438 7.5 Z M 24.898438 7.5 "/>
<path style="fill:none;stroke-width:3;stroke-linecap:round;stroke-linejoin:miter;stroke:rgb(9.411765%,9.803922%,24.705882%);stroke-opacity:1;stroke-miterlimit:10;" d="M 17.5 22.5 L 30.5 22.5 " transform="matrix(0.75,0,0,0.75,0,0)"/>
<path style="fill:none;stroke-width:3;stroke-linecap:round;stroke-linejoin:miter;stroke:rgb(9.411765%,9.803922%,24.705882%);stroke-opacity:1;stroke-miterlimit:10;" d="M 17.5 29.5 L 26.5 29.5 " transform="matrix(0.75,0,0,0.75,0,0)"/>
<path style="fill:none;stroke-width:3;stroke-linecap:round;stroke-linejoin:round;stroke:rgb(9.411765%,9.803922%,24.705882%);stroke-opacity:1;stroke-miterlimit:10;" d="M 22.098958 42.5 L 35.5 42.5 C 37.197917 42.5 38.5 41.197917 38.5 39.5 L 38.5 14.5 L 31.5 14.5 C 30.401042 14.5 29.5 13.598958 29.5 12.5 L 29.5 5.5 " transform="matrix(0.75,0,0,0.75,0,0)"/>
<path style="fill:none;stroke-width:3;stroke-linecap:round;stroke-linejoin:round;stroke:rgb(9.411765%,9.803922%,24.705882%);stroke-opacity:1;stroke-miterlimit:10;" d="M 24 5.5 L 12.5 5.5 C 10.802083 5.5 9.5 6.802083 9.5 8.5 L 9.5 39.5 C 9.5 41.197917 10.802083 42.5 12.5 42.5 L 16.401042 42.5 " transform="matrix(0.75,0,0,0.75,0,0)"/>
<path style="fill:none;stroke-width:3;stroke-linecap:round;stroke-linejoin:round;stroke:rgb(9.411765%,9.803922%,24.705882%);stroke-opacity:1;stroke-miterlimit:10;" d="M 38.5 14.5 L 29.5 5.5 " transform="matrix(0.75,0,0,0.75,0,0)"/>
</g>
</svg>
