<?xml version="1.0" encoding="UTF-8"?>
<svg xmlns="http://www.w3.org/2000/svg" xmlns:xlink="http://www.w3.org/1999/xlink" width="36pt" height="36pt" viewBox="0 0 36 36" version="1.1">
<g id="surface8690">
<path style=" stroke:none;fill-rule:nonzero;fill:rgb(64.705884%,83.92157%,65.490198%);fill-opacity:1;" d="M 35.023438 13.875 L 31.726562 10.574219 C 31.125 9.976562 30.226562 9.976562 29.625 10.574219 L 18 22.199219 L 14.023438 18.226562 C 13.425781 17.625 12.523438 17.625 11.925781 18.226562 L 8.625 21.523438 C 8.023438 22.125 8.023438 23.023438 8.625 23.625 L 16.949219 31.949219 C 17.550781 32.550781 18.449219 32.550781 19.050781 31.949219 L 35.023438 15.976562 C 35.550781 15.449219 35.550781 14.476562 35.023438 13.875 Z M 35.023438 13.875 "/>
<path style="fill:none;stroke-width:3;stroke-linecap:round;stroke-linejoin:round;stroke:rgb(9.411765%,9.803922%,24.705882%);stroke-opacity:1;stroke-miterlimit:10;" d="M 14.598958 34.598958 L 18.598958 38.598958 C 19.401042 39.401042 20.598958 39.401042 21.401042 38.598958 L 42.697917 17.302083 C 43.5 16.5 43.5 15.302083 42.697917 14.5 L 38.302083 10.098958 C 37.5 9.302083 36.302083 9.302083 35.5 10.098958 L 32 13.598958 " transform="matrix(0.75,0,0,0.75,0,0)"/>
<path style="fill:none;stroke-width:3;stroke-linecap:round;stroke-linejoin:round;stroke:rgb(9.411765%,9.803922%,24.705882%);stroke-opacity:1;stroke-miterlimit:10;" d="M 28 17.598958 L 20 25.598958 L 14.697917 20.302083 C 13.901042 19.5 12.697917 19.5 11.901042 20.302083 L 7.5 24.697917 C 6.697917 25.5 6.697917 26.697917 7.5 27.5 L 10.802083 30.802083 " transform="matrix(0.75,0,0,0.75,0,0)"/>
</g>
</svg>
