<?xml version="1.0" encoding="UTF-8"?>
<svg xmlns="http://www.w3.org/2000/svg" xmlns:xlink="http://www.w3.org/1999/xlink" width="36pt" height="36pt" viewBox="0 0 36 36" version="1.1">
<g id="surface21036">
<path style=" stroke:none;fill-rule:nonzero;fill:rgb(95.686275%,56.078434%,69.411767%);fill-opacity:1;" d="M 33.265625 22.242188 C 33.265625 24.667969 32.695312 26.949219 31.695312 28.921875 C 31.695312 28.921875 31.765625 29.296875 32.070312 29.59375 C 32.339844 29.851562 32.320312 30.28125 32 30.472656 C 31.191406 30.953125 30.273438 31.234375 29.46875 32.105469 C 27.285156 34.464844 24.277344 35.882812 20.988281 35.882812 C 16.015625 35.882812 11.738281 32.601562 9.804688 27.882812 C 9.3125 26.710938 8.519531 26.273438 7.9375 25.753906 C 7.617188 25.46875 7.75 24.953125 8.152344 24.820312 C 8.636719 24.664062 8.867188 24.441406 8.867188 24.441406 C 8.761719 23.722656 8.707031 22.988281 8.707031 22.242188 C 8.707031 20.839844 8.90625 19.464844 9.273438 18.15625 C 9.367188 17.820312 8.578125 17.246094 8.578125 15.8125 C 8.578125 15.410156 9.019531 15.164062 9.382812 15.347656 C 9.816406 15.570312 10.238281 15.582031 10.238281 15.582031 C 11.628906 12.660156 13.859375 10.257812 16.441406 8.878906 C 19.078125 7.472656 20.621094 5.261719 22.25 4.660156 C 22.617188 4.523438 23.003906 4.804688 22.988281 5.195312 C 22.949219 6.296875 23.191406 7.683594 25.902344 9.054688 C 28.273438 10.25 30.265625 12.433594 31.578125 15.085938 C 31.773438 15.488281 32.484375 15.476562 33.121094 15.039062 C 33.496094 14.777344 34 15.121094 33.949219 15.574219 C 33.765625 17.257812 33.015625 18.269531 33.148438 20.222656 C 33.238281 20.890625 33.265625 21.566406 33.265625 22.242188 Z M 33.265625 22.242188 "/>
<path style="fill:none;stroke-width:3;stroke-linecap:round;stroke-linejoin:round;stroke:rgb(9.411765%,9.803922%,24.705882%);stroke-opacity:1;stroke-miterlimit:10;" d="M 32.447917 43.833333 C 30.0625 45.223958 27.333333 46 24.447917 46 C 17.479167 46 11.479167 41.401042 8.770833 34.78125 C 7.786458 32.432292 5.9375 32.197917 5.317708 30.697917 C 6.770833 30.614583 7.453125 29.953125 7.453125 29.953125 C 7.307292 28.947917 7.229167 27.921875 7.229167 26.869792 C 7.229167 24.90625 7.510417 22.979167 8.020833 21.140625 C 8.1875 20.5625 6.5 19.5 7.229167 16.348958 C 7.9375 17.5 9.375 17.53125 9.375 17.53125 C 10.25 15.697917 11.364583 14.005208 12.651042 12.526042 " transform="matrix(0.75,0,0,0.75,0,0)"/>
<path style="fill:none;stroke-width:3;stroke-linecap:round;stroke-linejoin:round;stroke:rgb(9.411765%,9.803922%,24.705882%);stroke-opacity:1;stroke-miterlimit:10;" d="M 19.447917 7.3125 C 22.864583 5.041667 24.890625 2.046875 27.317708 2 C 27.21875 3.640625 26.692708 6.03125 31.34375 8.380208 C 34.666667 10.057292 37.458333 13.114583 39.296875 16.838542 C 39.713542 17.682292 41.744792 17.223958 42.619792 15.390625 C 43.020833 19.21875 41.265625 20.572917 41.505208 24.041667 C 41.625 24.973958 41.666667 25.921875 41.666667 26.869792 C 41.666667 30.276042 40.864583 33.46875 39.463542 36.239583 C 39.463542 36.239583 39.6875 37.416667 40.916667 37.645833 C 40.078125 38.453125 39.0625 38.817708 38.046875 39.390625 " transform="matrix(0.75,0,0,0.75,0,0)"/>
<path style="fill:none;stroke-width:3;stroke-linecap:round;stroke-linejoin:round;stroke:rgb(9.411765%,9.803922%,24.705882%);stroke-opacity:1;stroke-miterlimit:10;" d="M 14.869792 35.385417 C 13.265625 33.036458 12.3125 30.078125 12.3125 26.869792 C 12.3125 19.208333 17.744792 13 24.447917 13 C 24.703125 13 24.958333 13.010417 25.208333 13.026042 " transform="matrix(0.75,0,0,0.75,0,0)"/>
<path style="fill:none;stroke-width:3;stroke-linecap:round;stroke-linejoin:round;stroke:rgb(9.411765%,9.803922%,24.705882%);stroke-opacity:1;stroke-miterlimit:10;" d="M 30.947917 15.15625 C 34.338542 17.614583 36.583333 21.942708 36.583333 26.869792 C 36.583333 34.53125 31.151042 40.739583 24.447917 40.739583 C 22.5 40.739583 20.661458 40.213542 19.03125 39.286458 " transform="matrix(0.75,0,0,0.75,0,0)"/>
<path style=" stroke:none;fill-rule:nonzero;fill:rgb(9.411765%,9.803922%,24.705882%);fill-opacity:1;" d="M 14.585938 17.285156 C 14.585938 17.90625 14.082031 18.410156 13.460938 18.410156 C 12.839844 18.410156 12.335938 17.90625 12.335938 17.285156 C 12.335938 16.664062 12.839844 16.160156 13.460938 16.160156 C 14.082031 16.160156 14.585938 16.664062 14.585938 17.285156 Z M 14.585938 17.285156 "/>
<path style=" stroke:none;fill-rule:nonzero;fill:rgb(9.411765%,9.803922%,24.705882%);fill-opacity:1;" d="M 24.335938 17.285156 C 24.335938 17.90625 23.832031 18.410156 23.210938 18.410156 C 22.589844 18.410156 22.085938 17.90625 22.085938 17.285156 C 22.085938 16.664062 22.589844 16.160156 23.210938 16.160156 C 23.832031 16.160156 24.335938 16.664062 24.335938 17.285156 Z M 24.335938 17.285156 "/>
<path style=" stroke:none;fill-rule:nonzero;fill:rgb(9.411765%,9.803922%,24.705882%);fill-opacity:1;" d="M 14.585938 23.285156 C 14.585938 23.90625 14.082031 24.410156 13.460938 24.410156 C 12.839844 24.410156 12.335938 23.90625 12.335938 23.285156 C 12.335938 22.664062 12.839844 22.160156 13.460938 22.160156 C 14.082031 22.160156 14.585938 22.664062 14.585938 23.285156 Z M 14.585938 23.285156 "/>
<path style=" stroke:none;fill-rule:nonzero;fill:rgb(9.411765%,9.803922%,24.705882%);fill-opacity:1;" d="M 24.335938 23.285156 C 24.335938 23.90625 23.832031 24.410156 23.210938 24.410156 C 22.589844 24.410156 22.085938 23.90625 22.085938 23.285156 C 22.085938 22.664062 22.589844 22.160156 23.210938 22.160156 C 23.832031 22.160156 24.335938 22.664062 24.335938 23.285156 Z M 24.335938 23.285156 "/>
<path style=" stroke:none;fill-rule:nonzero;fill:rgb(9.411765%,9.803922%,24.705882%);fill-opacity:1;" d="M 19.460938 20.152344 C 19.460938 20.773438 18.957031 21.277344 18.335938 21.277344 C 17.714844 21.277344 17.210938 20.773438 17.210938 20.152344 C 17.210938 19.53125 17.714844 19.027344 18.335938 19.027344 C 18.957031 19.027344 19.460938 19.53125 19.460938 20.152344 Z M 19.460938 20.152344 "/>
<path style=" stroke:none;fill-rule:nonzero;fill:rgb(9.411765%,9.803922%,24.705882%);fill-opacity:1;" d="M 19.460938 14.152344 C 19.460938 14.773438 18.957031 15.277344 18.335938 15.277344 C 17.714844 15.277344 17.210938 14.773438 17.210938 14.152344 C 17.210938 13.53125 17.714844 13.027344 18.335938 13.027344 C 18.957031 13.027344 19.460938 13.53125 19.460938 14.152344 Z M 19.460938 14.152344 "/>
<path style=" stroke:none;fill-rule:nonzero;fill:rgb(9.411765%,9.803922%,24.705882%);fill-opacity:1;" d="M 19.460938 26.152344 C 19.460938 26.773438 18.957031 27.277344 18.335938 27.277344 C 17.714844 27.277344 17.210938 26.773438 17.210938 26.152344 C 17.210938 25.53125 17.714844 25.027344 18.335938 25.027344 C 18.957031 25.027344 19.460938 25.53125 19.460938 26.152344 Z M 19.460938 26.152344 "/>
</g>
</svg>
