<?xml version="1.0" encoding="UTF-8"?>
<svg xmlns="http://www.w3.org/2000/svg" xmlns:xlink="http://www.w3.org/1999/xlink" width="36pt" height="36pt" viewBox="0 0 36 36" version="1.1">
<g id="surface26968">
<path style=" stroke:none;fill-rule:nonzero;fill:rgb(62.352943%,65.882355%,85.490197%);fill-opacity:1;" d="M 7.273438 29.324219 L 7.199219 29.101562 C 6.300781 24.976562 8.851562 20.851562 12.976562 19.726562 C 16.800781 18.601562 20.550781 16.5 23.699219 13.199219 C 27.375 9.300781 33.824219 13.199219 31.875 18.226562 C 29.550781 24.226562 26.398438 29.023438 20.101562 33.976562 C 15.449219 37.648438 8.550781 35.101562 7.273438 29.324219 Z M 7.273438 29.324219 "/>
<path style="fill:none;stroke-width:3;stroke-linecap:round;stroke-linejoin:round;stroke:rgb(9.411765%,9.803922%,24.705882%);stroke-opacity:1;stroke-miterlimit:10;" d="M 40.197917 3.197917 C 40.598958 5.302083 40.197917 7.5 39.302083 9.302083 " transform="matrix(0.75,0,0,0.75,0,0)"/>
<path style="fill:none;stroke-width:3;stroke-linecap:round;stroke-linejoin:round;stroke:rgb(9.411765%,9.803922%,24.705882%);stroke-opacity:1;stroke-miterlimit:10;" d="M 14.802083 43.5 C 10.598958 42.901042 6.697917 39.802083 5.802083 35.098958 L 5.697917 34.802083 C 4.5 29.302083 7.901042 23.802083 13.401042 22.302083 C 18.5 20.802083 23.5 18 27.697917 13.598958 C 27.901042 13.401042 28 13.302083 28.197917 13.098958 " transform="matrix(0.75,0,0,0.75,0,0)"/>
<path style="fill:none;stroke-width:3;stroke-linecap:round;stroke-linejoin:round;stroke:rgb(9.411765%,9.803922%,24.705882%);stroke-opacity:1;stroke-miterlimit:10;" d="M 38.197917 21.302083 C 35.098958 28.802083 31 35 22.901042 41.302083 C 22.5 41.598958 22.197917 41.802083 21.802083 42.098958 " transform="matrix(0.75,0,0,0.75,0,0)"/>
<path style="fill:none;stroke-width:3;stroke-linecap:round;stroke-linejoin:round;stroke:rgb(9.411765%,9.803922%,24.705882%);stroke-opacity:1;stroke-miterlimit:10;" d="M 35.5 14 C 35.401042 14.697917 35.401042 15.401042 35.5 16.197917 C 35.901042 18.901042 37.598958 21 39.697917 22 C 41.5 20.401042 42.5 17.901042 42.098958 15.197917 C 41.802083 12.901042 40.598958 11.098958 38.901042 9.802083 C 37.302083 8.5 35.302083 7.598958 33 7.802083 C 30.302083 8 28 9.401042 26.901042 11.5 C 27.901042 12.802083 29.401042 13.802083 31.098958 14.302083 " transform="matrix(0.75,0,0,0.75,0,0)"/>
</g>
</svg>
