<?xml version="1.0" encoding="UTF-8"?>
<svg xmlns="http://www.w3.org/2000/svg" xmlns:xlink="http://www.w3.org/1999/xlink" width="36pt" height="36pt" viewBox="0 0 36 36" version="1.1">
<g id="surface19165">
<path style=" stroke:none;fill-rule:nonzero;fill:rgb(100%,67.058825%,56.862748%);fill-opacity:1;" d="M 35.25 26.625 C 35.25 25.578125 34.632812 24.683594 33.75 24.261719 L 33.75 23.910156 C 33.75 20.660156 31.113281 18.023438 27.863281 18.023438 L 22.417969 18.023438 C 19.164062 18.023438 16.527344 20.660156 16.527344 23.910156 L 16.527344 24.246094 C 15.628906 24.664062 15 25.566406 15 26.625 C 15 27.671875 15.617188 28.566406 16.5 28.988281 L 16.5 31.429688 C 16.5 33.125 17.875 34.5 19.570312 34.5 L 30.679688 34.5 C 32.375 34.5 33.75 33.125 33.75 31.429688 L 33.75 28.988281 C 34.632812 28.566406 35.25 27.671875 35.25 26.625 Z M 35.25 26.625 "/>
<path style="fill:none;stroke-width:3;stroke-linecap:round;stroke-linejoin:round;stroke:rgb(9.411765%,9.803922%,24.705882%);stroke-opacity:1;stroke-miterlimit:10;" d="M 13.979167 41.5 L 12.09375 41.5 C 10.567708 41.5 9.28125 40.348958 9.114583 38.833333 L 6.182292 12.5625 L 26.989583 12.5625 L 26.359375 18.21875 " transform="matrix(0.75,0,0,0.75,0,0)"/>
<path style="fill:none;stroke-width:3;stroke-linecap:round;stroke-linejoin:round;stroke:rgb(9.411765%,9.803922%,24.705882%);stroke-opacity:1;stroke-miterlimit:10;" d="M 4.5 12.5625 L 28.5 12.5625 " transform="matrix(0.75,0,0,0.75,0,0)"/>
<path style="fill:none;stroke-width:3;stroke-linecap:round;stroke-linejoin:round;stroke:rgb(9.411765%,9.803922%,24.705882%);stroke-opacity:1;stroke-miterlimit:10;" d="M 19.734375 12.052083 L 22.520833 5.5 L 29.5 5.5 " transform="matrix(0.75,0,0,0.75,0,0)"/>
<path style="fill:none;stroke-width:3;stroke-linecap:round;stroke-linejoin:round;stroke:rgb(9.411765%,9.803922%,24.705882%);stroke-opacity:1;stroke-miterlimit:10;" d="M 40.979167 34.5 L 40.979167 37.317708 C 40.979167 39.625 39.109375 41.5 36.796875 41.5 L 21.161458 41.5 C 18.854167 41.5 16.979167 39.625 16.979167 37.317708 L 16.979167 34.5 " transform="matrix(0.75,0,0,0.75,0,0)"/>
<path style="fill:none;stroke-width:3;stroke-linecap:round;stroke-linejoin:round;stroke:rgb(9.411765%,9.803922%,24.705882%);stroke-opacity:1;stroke-miterlimit:10;" d="M 37.359375 19.911458 C 39.244792 21.296875 40.46875 23.526042 40.46875 26.046875 L 40.46875 27.5 L 38.140625 27.5 " transform="matrix(0.75,0,0,0.75,0,0)"/>
<path style="fill:none;stroke-width:3;stroke-linecap:round;stroke-linejoin:round;stroke:rgb(9.411765%,9.803922%,24.705882%);stroke-opacity:1;stroke-miterlimit:10;" d="M 31.145833 27.5 L 17.489583 27.5 L 17.489583 26.046875 C 17.489583 21.84375 20.895833 18.4375 25.098958 18.4375 L 32.859375 18.4375 " transform="matrix(0.75,0,0,0.75,0,0)"/>
<path style="fill:none;stroke-width:3;stroke-linecap:round;stroke-linejoin:round;stroke:rgb(9.411765%,9.803922%,24.705882%);stroke-opacity:1;stroke-miterlimit:10;" d="M 20.828125 34.5 L 18.291667 34.5 C 16.359375 34.5 14.791667 32.932292 14.791667 31 C 14.791667 29.067708 16.359375 27.5 18.291667 27.5 " transform="matrix(0.75,0,0,0.75,0,0)"/>
<path style="fill:none;stroke-width:3;stroke-linecap:round;stroke-linejoin:round;stroke:rgb(9.411765%,9.803922%,24.705882%);stroke-opacity:1;stroke-miterlimit:10;" d="M 39.666667 27.5 C 41.598958 27.5 43.166667 29.067708 43.166667 31 C 43.166667 32.932292 41.598958 34.5 39.666667 34.5 L 25.864583 34.5 " transform="matrix(0.75,0,0,0.75,0,0)"/>
</g>
</svg>
