<?xml version="1.0" encoding="UTF-8"?>
<svg xmlns="http://www.w3.org/2000/svg" xmlns:xlink="http://www.w3.org/1999/xlink" width="36pt" height="36pt" viewBox="0 0 36 36" version="1.1">
<g id="surface20933">
<path style=" stroke:none;fill-rule:nonzero;fill:rgb(95.686275%,56.078434%,69.411767%);fill-opacity:1;" d="M 28.023438 14.191406 C 25.933594 12.679688 24.605469 10.355469 24.328125 7.816406 C 24.328125 7.8125 24.320312 7.808594 24.320312 7.804688 C 24.25 7.25 23.785156 6.816406 23.210938 6.816406 L 18.789062 6.816406 C 18.195312 6.816406 17.710938 7.28125 17.671875 7.867188 C 17.671875 7.875 17.664062 7.878906 17.664062 7.886719 C 17.371094 10.394531 16.046875 12.691406 13.976562 14.191406 C 10.960938 16.367188 9 19.90625 9 23.910156 C 9 30.125 14.382812 35.183594 21 35.183594 C 27.617188 35.183594 33 30.125 33 23.910156 C 33 19.90625 31.039062 16.367188 28.023438 14.191406 Z M 28.023438 14.191406 "/>
<path style=" stroke:none;fill-rule:nonzero;fill:rgb(9.411765%,9.803922%,24.705882%);fill-opacity:1;" d="M 15 16.875 C 15 17.496094 14.496094 18 13.875 18 C 13.253906 18 12.75 17.496094 12.75 16.875 C 12.75 16.253906 13.253906 15.75 13.875 15.75 C 14.496094 15.75 15 16.253906 15 16.875 Z M 15 16.875 "/>
<path style=" stroke:none;fill-rule:nonzero;fill:rgb(9.411765%,9.803922%,24.705882%);fill-opacity:1;" d="M 15 21 C 15 21.621094 14.496094 22.125 13.875 22.125 C 13.253906 22.125 12.75 21.621094 12.75 21 C 12.75 20.378906 13.253906 19.875 13.875 19.875 C 14.496094 19.875 15 20.378906 15 21 Z M 15 21 "/>
<path style=" stroke:none;fill-rule:nonzero;fill:rgb(9.411765%,9.803922%,24.705882%);fill-opacity:1;" d="M 19.125 15.375 C 19.125 15.996094 18.621094 16.5 18 16.5 C 17.378906 16.5 16.875 15.996094 16.875 15.375 C 16.875 14.753906 17.378906 14.25 18 14.25 C 18.621094 14.25 19.125 14.753906 19.125 15.375 Z M 19.125 15.375 "/>
<path style=" stroke:none;fill-rule:nonzero;fill:rgb(9.411765%,9.803922%,24.705882%);fill-opacity:1;" d="M 19.125 26.625 C 19.125 27.246094 18.621094 27.75 18 27.75 C 17.378906 27.75 16.875 27.246094 16.875 26.625 C 16.875 26.003906 17.378906 25.5 18 25.5 C 18.621094 25.5 19.125 26.003906 19.125 26.625 Z M 19.125 26.625 "/>
<path style=" stroke:none;fill-rule:nonzero;fill:rgb(9.411765%,9.803922%,24.705882%);fill-opacity:1;" d="M 19.125 19.125 C 19.125 19.746094 18.621094 20.25 18 20.25 C 17.378906 20.25 16.875 19.746094 16.875 19.125 C 16.875 18.503906 17.378906 18 18 18 C 18.621094 18 19.125 18.503906 19.125 19.125 Z M 19.125 19.125 "/>
<path style=" stroke:none;fill-rule:nonzero;fill:rgb(9.411765%,9.803922%,24.705882%);fill-opacity:1;" d="M 19.125 22.875 C 19.125 23.496094 18.621094 24 18 24 C 17.378906 24 16.875 23.496094 16.875 22.875 C 16.875 22.253906 17.378906 21.75 18 21.75 C 18.621094 21.75 19.125 22.253906 19.125 22.875 Z M 19.125 22.875 "/>
<path style=" stroke:none;fill-rule:nonzero;fill:rgb(9.411765%,9.803922%,24.705882%);fill-opacity:1;" d="M 23.25 16.875 C 23.25 17.496094 22.746094 18 22.125 18 C 21.503906 18 21 17.496094 21 16.875 C 21 16.253906 21.503906 15.75 22.125 15.75 C 22.746094 15.75 23.25 16.253906 23.25 16.875 Z M 23.25 16.875 "/>
<path style=" stroke:none;fill-rule:nonzero;fill:rgb(9.411765%,9.803922%,24.705882%);fill-opacity:1;" d="M 23.25 21 C 23.25 21.621094 22.746094 22.125 22.125 22.125 C 21.503906 22.125 21 21.621094 21 21 C 21 20.378906 21.503906 19.875 22.125 19.875 C 22.746094 19.875 23.25 20.378906 23.25 21 Z M 23.25 21 "/>
<path style=" stroke:none;fill-rule:nonzero;fill:rgb(9.411765%,9.803922%,24.705882%);fill-opacity:1;" d="M 15 25.125 C 15 25.746094 14.496094 26.25 13.875 26.25 C 13.253906 26.25 12.75 25.746094 12.75 25.125 C 12.75 24.503906 13.253906 24 13.875 24 C 14.496094 24 15 24.503906 15 25.125 Z M 15 25.125 "/>
<path style=" stroke:none;fill-rule:nonzero;fill:rgb(9.411765%,9.803922%,24.705882%);fill-opacity:1;" d="M 23.25 25.125 C 23.25 25.746094 22.746094 26.25 22.125 26.25 C 21.503906 26.25 21 25.746094 21 25.125 C 21 24.503906 21.503906 24 22.125 24 C 22.746094 24 23.25 24.503906 23.25 25.125 Z M 23.25 25.125 "/>
<path style="fill:none;stroke-width:3;stroke-linecap:round;stroke-linejoin:round;stroke:rgb(9.411765%,9.803922%,24.705882%);stroke-opacity:1;stroke-miterlimit:10;" d="M 37.635417 36.723958 C 39.442708 34.239583 40.5 31.234375 40.5 28 C 40.5 22.494792 37.802083 17.630208 33.661458 14.635417 C 30.40625 12.286458 28.5 8.510417 28.5 4.5 L 19.5 4.5 C 19.5 6.598958 18.973958 8.640625 18.010417 10.4375 " transform="matrix(0.75,0,0,0.75,0,0)"/>
<path style="fill:none;stroke-width:3;stroke-linecap:round;stroke-linejoin:round;stroke:rgb(9.411765%,9.803922%,24.705882%);stroke-opacity:1;stroke-miterlimit:10;" d="M 12.489583 16.192708 C 9.411458 19.1875 7.5 23.364583 7.5 28 C 7.5 36.546875 14.901042 43.5 24 43.5 C 27.125 43.5 30.052083 42.677083 32.546875 41.255208 " transform="matrix(0.75,0,0,0.75,0,0)"/>
<path style="fill:none;stroke-width:3;stroke-linecap:round;stroke-linejoin:round;stroke:rgb(9.411765%,9.803922%,24.705882%);stroke-opacity:1;stroke-miterlimit:10;" d="M 30.145833 19.5 C 28.640625 18.411458 27.317708 17.088542 26.208333 15.604167 C 25.6875 14.90625 24.869792 14.5 24 14.5 C 23.130208 14.5 22.3125 14.90625 21.791667 15.604167 C 20.6875 17.088542 19.359375 18.411458 17.854167 19.5 C 15.130208 21.46875 13.5 24.645833 13.5 28 C 13.5 33.239583 18.208333 37.5 24 37.5 C 29.791667 37.5 34.5 33.239583 34.5 28 C 34.5 24.645833 32.869792 21.46875 30.145833 19.5 Z M 30.145833 19.5 " transform="matrix(0.75,0,0,0.75,0,0)"/>
</g>
</svg>
