<?xml version="1.0" encoding="UTF-8"?>
<svg xmlns="http://www.w3.org/2000/svg" xmlns:xlink="http://www.w3.org/1999/xlink" width="36pt" height="36pt" viewBox="0 0 36 36" version="1.1">
<g id="surface12957">
<path style=" stroke:none;fill-rule:nonzero;fill:rgb(100%,67.058825%,56.862748%);fill-opacity:1;" d="M 30.074219 15.148438 C 29.398438 16.425781 28.273438 17.324219 27.375 17.851562 C 26.699219 18.226562 25.949219 17.699219 26.023438 16.949219 C 26.324219 14.773438 26.25 10.949219 22.800781 7.648438 C 22.050781 6.898438 20.625 6.976562 20.023438 7.949219 C 16.125 13.949219 7.949219 16.351562 9 24.300781 C 9.75 30.074219 14.699219 34.574219 20.550781 34.726562 C 27.300781 34.949219 32.175781 29.925781 33 23.25 C 33.300781 20.773438 33.148438 17.773438 31.726562 15.148438 C 31.425781 14.550781 30.449219 14.550781 30.074219 15.148438 Z M 30.074219 15.148438 "/>
<path style="fill:none;stroke-width:3;stroke-linecap:round;stroke-linejoin:round;stroke:rgb(9.411765%,9.803922%,24.705882%);stroke-opacity:1;stroke-miterlimit:4;" d="M 29.401042 36 C 29.401042 39.598958 26.5 42.598958 22.802083 42.598958 C 19.098958 42.598958 16.197917 39.697917 16.197917 36 C 16.197917 29.5 22.802083 22 22.802083 22 C 22.802083 22 24.598958 24.098958 26.302083 26.901042 " transform="matrix(0.75,0,0,0.75,0,0)"/>
<path style="fill:none;stroke-width:3;stroke-linecap:round;stroke-linejoin:round;stroke:rgb(9.411765%,9.803922%,24.705882%);stroke-opacity:1;stroke-miterlimit:10;" d="M 8.598958 34.098958 C 11.302083 39.197917 16.697917 42.802083 22.697917 43 C 32 43.302083 38.697917 36.401042 39.802083 27.197917 C 40.197917 23.802083 40 19.697917 38.098958 16.098958 C 37.598958 15.197917 36.302083 15.197917 35.802083 16 C 34.802083 17.802083 33.302083 19 32 19.697917 C 31.098958 20.197917 30 19.5 30.098958 18.5 C 30.598958 15.5 30.401042 10.197917 25.598958 5.697917 C 24.5 4.697917 22.598958 4.802083 21.802083 6.098958 C 17.901042 12.098958 10.697917 15.5 7.802083 21.197917 " transform="matrix(0.75,0,0,0.75,0,0)"/>
</g>
</svg>
