<?xml version="1.0" encoding="UTF-8"?>
<svg xmlns="http://www.w3.org/2000/svg" xmlns:xlink="http://www.w3.org/1999/xlink" width="36pt" height="36pt" viewBox="0 0 36 36" version="1.1">
<g id="surface27248">
<path style=" stroke:none;fill-rule:nonzero;fill:rgb(100%,87.843138%,50.980395%);fill-opacity:1;" d="M 32.101562 31.574219 C 33.375 27.300781 33.300781 22.648438 31.875 18.449219 L 10.125 18.449219 C 8.699219 22.726562 8.699219 27.300781 9.898438 31.574219 L 9 32.925781 C 8.324219 33.898438 9.074219 35.25 10.199219 35.25 L 31.726562 35.25 C 32.925781 35.25 33.601562 33.976562 32.925781 32.925781 Z M 32.101562 31.574219 "/>
<path style=" stroke:none;fill-rule:nonzero;fill:rgb(100%,87.843138%,50.980395%);fill-opacity:1;" d="M 32.023438 14.773438 L 33.300781 16.949219 C 33.824219 17.925781 33.148438 19.125 32.023438 19.125 L 9.976562 19.125 C 8.851562 19.125 8.175781 17.925781 8.699219 16.949219 L 9.976562 14.773438 C 10.199219 14.324219 10.726562 14.023438 11.25 14.023438 L 30.75 14.023438 C 31.273438 14.023438 31.726562 14.324219 32.023438 14.773438 Z M 32.023438 14.773438 "/>
<path style="fill:none;stroke-width:3;stroke-linecap:round;stroke-linejoin:round;stroke:rgb(9.411765%,9.803922%,24.705882%);stroke-opacity:1;stroke-miterlimit:4;" d="M 14.697917 10 L 18.098958 5.802083 C 19.098958 4.598958 20.901042 4.5 22 5.598958 L 23.5 7.098958 C 24.5 8.098958 26.197917 8.098958 27.302083 7.098958 C 28.401042 6 30.302083 6.098958 31.302083 7.302083 L 36.901042 14.401042 " transform="matrix(0.75,0,0,0.75,0,0)"/>
<path style="fill:none;stroke-width:3;stroke-linecap:round;stroke-linejoin:round;stroke:rgb(9.411765%,9.803922%,24.705882%);stroke-opacity:1;stroke-miterlimit:10;" d="M 7.598958 27.802083 C 7.401042 31.401042 7.802083 35 8.802083 38.5 L 7.598958 40.401042 C 6.697917 41.697917 7.697917 43.5 9.302083 43.5 L 38.802083 43.5 C 40.401042 43.5 41.401042 41.697917 40.5 40.401042 L 39.302083 38.5 C 40.901042 33 40.901042 27.197917 39.401042 21.697917 " transform="matrix(0.75,0,0,0.75,0,0)"/>
<path style="fill:none;stroke-width:3;stroke-linecap:round;stroke-linejoin:round;stroke:rgb(9.411765%,9.803922%,24.705882%);stroke-opacity:1;stroke-miterlimit:4;" d="M 30.302083 21.5 L 8.901042 21.5 C 7.401042 21.5 6.401042 19.802083 7.197917 18.5 L 8.901042 15.5 C 9.302083 14.901042 9.901042 14.5 10.598958 14.5 L 37.302083 14.5 C 38 14.5 38.697917 14.901042 39 15.5 L 40.697917 18.5 C 41.5 19.802083 40.5 21.5 39 21.5 L 35.802083 21.5 " transform="matrix(0.75,0,0,0.75,0,0)"/>
</g>
</svg>
