<?xml version="1.0" encoding="UTF-8"?>
<svg xmlns="http://www.w3.org/2000/svg" xmlns:xlink="http://www.w3.org/1999/xlink" width="36pt" height="36pt" viewBox="0 0 36 36" version="1.1">
<g id="surface22165">
<path style=" stroke:none;fill-rule:nonzero;fill:rgb(100%,87.843138%,50.980395%);fill-opacity:1;" d="M 30.117188 29.710938 L 28.105469 19.585938 L 27.972656 19.585938 L 29.269531 16.933594 C 29.71875 16.019531 29.050781 14.953125 28.035156 14.953125 L 27.5 14.953125 L 22.863281 10.089844 C 22.292969 9.492188 21.335938 9.492188 20.765625 10.089844 C 20.15625 10.730469 19.117188 10.679688 18.574219 9.980469 L 17.664062 8.808594 C 17.082031 8.0625 15.953125 8.0625 15.375 8.808594 L 10.597656 14.949219 L 9.636719 14.949219 C 8.617188 14.949219 7.953125 16.019531 8.398438 16.933594 L 9.695312 19.585938 L 9.566406 19.585938 L 7.554688 29.710938 C 7.183594 31.582031 8.734375 33.273438 10.632812 33.066406 L 18.835938 32.164062 L 27.039062 33.066406 C 28.933594 33.273438 30.488281 31.582031 30.117188 29.710938 Z M 30.117188 29.710938 "/>
<path style="fill:none;stroke-width:3;stroke-linecap:round;stroke-linejoin:round;stroke:rgb(9.411765%,9.803922%,24.705882%);stroke-opacity:1;stroke-miterlimit:10;" d="M 21.630208 15.317708 L 8.921875 15.317708 C 7.53125 15.317708 6.619792 16.776042 7.234375 18.03125 L 9.005208 21.65625 L 18.958333 21.65625 " transform="matrix(0.75,0,0,0.75,0,0)"/>
<path style="fill:none;stroke-width:3;stroke-linecap:round;stroke-linejoin:round;stroke:rgb(9.411765%,9.803922%,24.705882%);stroke-opacity:1;stroke-miterlimit:10;" d="M 24.78125 39.213542 L 21.5 38.854167 L 10.286458 40.088542 C 7.692708 40.375 5.567708 38.057292 6.078125 35.5 L 8.828125 21.65625 L 18.692708 21.65625 " transform="matrix(0.75,0,0,0.75,0,0)"/>
<path style="fill:none;stroke-width:3;stroke-linecap:round;stroke-linejoin:round;stroke:rgb(9.411765%,9.803922%,24.705882%);stroke-opacity:1;stroke-miterlimit:10;" d="M 21.140625 8.520833 L 19.895833 6.921875 C 19.104167 5.901042 17.5625 5.901042 16.765625 6.921875 L 10.234375 15.317708 " transform="matrix(0.75,0,0,0.75,0,0)"/>
<path style="fill:none;stroke-width:3;stroke-linecap:round;stroke-linejoin:round;stroke:rgb(9.411765%,9.803922%,24.705882%);stroke-opacity:1;stroke-miterlimit:4;" d="M 33.5 40.5 L 33.421875 5.5 " transform="matrix(0.75,0,0,0.75,0,0)"/>
<path style="fill:none;stroke-width:3;stroke-linecap:round;stroke-linejoin:round;stroke:rgb(9.411765%,9.803922%,24.705882%);stroke-opacity:1;stroke-miterlimit:4;" d="M 36.838542 15.5 L 34.432292 15.5 C 33.916667 15.5 33.5 15.083333 33.5 14.567708 L 33.5 13.161458 C 33.5 10.588542 35.588542 8.5 38.161458 8.5 L 40.567708 8.5 C 41.083333 8.5 41.5 8.916667 41.5 9.432292 L 41.5 10.838542 C 41.5 13.411458 39.411458 15.5 36.838542 15.5 Z M 36.838542 15.5 " transform="matrix(0.75,0,0,0.75,0,0)"/>
<path style="fill:none;stroke-width:3;stroke-linecap:round;stroke-linejoin:round;stroke:rgb(9.411765%,9.803922%,24.705882%);stroke-opacity:1;stroke-miterlimit:4;" d="M 25.5 10.838542 L 25.5 9.432292 C 25.5 8.916667 25.916667 8.5 26.432292 8.5 L 28.838542 8.5 C 31.411458 8.5 33.5 10.588542 33.5 13.161458 L 33.5 14.567708 C 33.5 15.083333 33.083333 15.5 32.567708 15.5 L 30.161458 15.5 C 27.588542 15.5 25.5 13.411458 25.5 10.838542 Z M 25.5 10.838542 " transform="matrix(0.75,0,0,0.75,0,0)"/>
<path style="fill:none;stroke-width:3;stroke-linecap:round;stroke-linejoin:round;stroke:rgb(9.411765%,9.803922%,24.705882%);stroke-opacity:1;stroke-miterlimit:4;" d="M 38.161458 22.5 L 34.432292 22.5 C 33.916667 22.5 33.5 22.083333 33.5 21.567708 L 33.5 20.161458 C 33.5 17.588542 35.588542 15.5 38.161458 15.5 L 40.567708 15.5 C 41.083333 15.5 41.5 15.916667 41.5 16.432292 " transform="matrix(0.75,0,0,0.75,0,0)"/>
<path style="fill:none;stroke-width:3;stroke-linecap:round;stroke-linejoin:round;stroke:rgb(9.411765%,9.803922%,24.705882%);stroke-opacity:1;stroke-miterlimit:4;" d="M 25.5 17.838542 L 25.5 16.432292 C 25.5 15.916667 25.916667 15.5 26.432292 15.5 L 28.838542 15.5 C 31.411458 15.5 33.5 17.588542 33.5 20.161458 L 33.5 21.567708 C 33.5 22.083333 33.083333 22.5 32.567708 22.5 L 30.161458 22.5 C 27.588542 22.5 25.5 20.411458 25.5 17.838542 Z M 25.5 17.838542 " transform="matrix(0.75,0,0,0.75,0,0)"/>
<path style="fill:none;stroke-width:3;stroke-linecap:round;stroke-linejoin:round;stroke:rgb(9.411765%,9.803922%,24.705882%);stroke-opacity:1;stroke-miterlimit:4;" d="M 36.838542 29.5 L 34.432292 29.5 C 33.916667 29.5 33.5 29.083333 33.5 28.567708 L 33.5 27.161458 C 33.5 24.588542 35.588542 22.5 38.161458 22.5 L 40.567708 22.5 C 41.083333 22.5 41.5 22.916667 41.5 23.432292 L 41.5 24.838542 C 41.5 27.411458 39.411458 29.5 36.838542 29.5 Z M 36.838542 29.5 " transform="matrix(0.75,0,0,0.75,0,0)"/>
<path style="fill:none;stroke-width:3;stroke-linecap:round;stroke-linejoin:round;stroke:rgb(9.411765%,9.803922%,24.705882%);stroke-opacity:1;stroke-miterlimit:4;" d="M 25.5 24.838542 L 25.5 23.432292 C 25.5 22.916667 25.916667 22.5 26.432292 22.5 L 28.838542 22.5 C 31.411458 22.5 33.5 24.588542 33.5 27.161458 L 33.5 28.567708 C 33.5 29.083333 33.083333 29.5 32.567708 29.5 " transform="matrix(0.75,0,0,0.75,0,0)"/>
<path style="fill:none;stroke-width:3;stroke-linecap:round;stroke-linejoin:round;stroke:rgb(9.411765%,9.803922%,24.705882%);stroke-opacity:1;stroke-miterlimit:4;" d="M 32.567708 29.5 L 30.161458 29.5 " transform="matrix(0.75,0,0,0.75,0,0)"/>
<path style="fill:none;stroke-width:3;stroke-linecap:round;stroke-linejoin:round;stroke:rgb(9.411765%,9.803922%,24.705882%);stroke-opacity:1;stroke-miterlimit:4;" d="M 36.838542 36.5 L 34.432292 36.5 C 33.916667 36.5 33.5 36.083333 33.5 35.567708 L 33.5 34.161458 C 33.5 31.588542 35.588542 29.5 38.161458 29.5 L 40.567708 29.5 C 41.083333 29.5 41.5 29.916667 41.5 30.432292 L 41.5 31.838542 C 41.5 34.411458 39.411458 36.5 36.838542 36.5 Z M 36.838542 36.5 " transform="matrix(0.75,0,0,0.75,0,0)"/>
<path style="fill:none;stroke-width:3;stroke-linecap:round;stroke-linejoin:round;stroke:rgb(9.411765%,9.803922%,24.705882%);stroke-opacity:1;stroke-miterlimit:4;" d="M 25.5 31.838542 L 25.5 30.432292 C 25.5 29.916667 25.916667 29.5 26.432292 29.5 L 28.838542 29.5 C 31.411458 29.5 33.5 31.588542 33.5 34.161458 L 33.5 35.567708 C 33.5 36.083333 33.083333 36.5 32.567708 36.5 L 30.161458 36.5 C 27.588542 36.5 25.5 34.411458 25.5 31.838542 Z M 25.5 31.838542 " transform="matrix(0.75,0,0,0.75,0,0)"/>
</g>
</svg>
