<?xml version="1.0" encoding="UTF-8"?>
<svg xmlns="http://www.w3.org/2000/svg" xmlns:xlink="http://www.w3.org/1999/xlink" width="36pt" height="36pt" viewBox="0 0 36 36" version="1.1">
<g id="surface19229">
<path style=" stroke:none;fill-rule:nonzero;fill:rgb(100%,67.058825%,56.862748%);fill-opacity:1;" d="M 26.175781 18 C 25.574219 18 25.125 18.375 24.824219 18.824219 C 24.074219 20.175781 22.648438 21.074219 21.074219 21.074219 C 19.5 21.074219 18.074219 20.175781 17.324219 18.824219 C 17.023438 18.300781 16.574219 18 15.976562 18 L 10.875 18 C 9.898438 18 9.148438 18.824219 9.300781 19.800781 L 11.25 32.550781 C 11.476562 34.050781 12.824219 35.175781 14.324219 35.175781 L 27.75 35.175781 C 29.324219 35.175781 30.523438 34.050781 30.898438 32.550781 L 32.925781 19.875 C 33.074219 18.898438 32.324219 18.074219 31.351562 18.074219 Z M 26.175781 18 "/>
<path style="fill:none;stroke-width:3;stroke-linecap:round;stroke-linejoin:round;stroke:rgb(9.411765%,9.803922%,24.705882%);stroke-opacity:1;stroke-miterlimit:4;" d="M 12 20.197917 L 12 10.598958 C 12 10 12.401042 9.598958 13 9.598958 L 17 9.598958 C 17.598958 9.598958 18 10 18 10.598958 " transform="matrix(0.75,0,0,0.75,0,0)"/>
<path style="fill:none;stroke-width:3;stroke-linecap:round;stroke-linejoin:round;stroke:rgb(9.411765%,9.803922%,24.705882%);stroke-opacity:1;stroke-miterlimit:4;" d="M 18 14.901042 L 18 6.5 C 18 5.901042 18.401042 5.5 19 5.5 L 23 5.5 C 23.598958 5.5 24 5.901042 24 6.5 L 24 19.802083 " transform="matrix(0.75,0,0,0.75,0,0)"/>
<path style="fill:none;stroke-width:3;stroke-linecap:butt;stroke-linejoin:round;stroke:rgb(9.411765%,9.803922%,24.705882%);stroke-opacity:1;stroke-miterlimit:4;" d="M 24 16.802083 L 24 12 C 24 11.401042 24.401042 11 25 11 L 29 11 C 29.598958 11 30 11.401042 30 12 " transform="matrix(0.75,0,0,0.75,0,0)"/>
<path style="fill:none;stroke-width:3;stroke-linecap:round;stroke-linejoin:round;stroke:rgb(9.411765%,9.803922%,24.705882%);stroke-opacity:1;stroke-miterlimit:4;" d="M 30 16 L 30 8.401042 C 30 7.802083 30.401042 7.401042 31 7.401042 L 35 7.401042 C 35.598958 7.401042 36 7.802083 36 8.401042 L 36 20.5 " transform="matrix(0.75,0,0,0.75,0,0)"/>
<path style="fill:none;stroke-width:3;stroke-linecap:round;stroke-linejoin:round;stroke:rgb(9.411765%,9.803922%,24.705882%);stroke-opacity:1;stroke-miterlimit:4;" d="M 38.802083 25.197917 L 39.197917 22.802083 C 39.401042 21.598958 38.5 20.5 37.197917 20.5 L 30.5 20.5 C 29.802083 20.5 29.098958 20.901042 28.802083 21.598958 C 27.901042 23.302083 26 24.5 24 24.5 C 22 24.5 20.098958 23.302083 19.197917 21.598958 C 18.802083 20.901042 18.197917 20.5 17.5 20.5 L 10.901042 20.5 C 9.697917 20.5 8.697917 21.598958 8.901042 22.802083 L 10.098958 30.5 " transform="matrix(0.75,0,0,0.75,0,0)"/>
<path style="fill:none;stroke-width:3;stroke-linecap:round;stroke-linejoin:round;stroke:rgb(9.411765%,9.803922%,24.705882%);stroke-opacity:1;stroke-miterlimit:4;" d="M 11 35.901042 L 11.5 39.098958 C 11.802083 41 13.5 42.5 15.401042 42.5 L 32.598958 42.5 C 34.598958 42.5 36.197917 41.098958 36.598958 39.098958 L 38 30.098958 " transform="matrix(0.75,0,0,0.75,0,0)"/>
</g>
</svg>
