<?xml version="1.0" encoding="UTF-8"?>
<svg xmlns="http://www.w3.org/2000/svg" xmlns:xlink="http://www.w3.org/1999/xlink" width="36pt" height="36pt" viewBox="0 0 36 36" version="1.1">
<g id="surface31535">
<path style=" stroke:none;fill-rule:nonzero;fill:rgb(56.470591%,79.215688%,97.647059%);fill-opacity:1;" d="M 14.148438 34.5 L 27.851562 34.5 C 29.453125 34.5 30.75 33.203125 30.75 31.601562 L 30.75 10.398438 C 30.75 8.796875 29.453125 7.5 27.851562 7.5 L 14.148438 7.5 C 12.546875 7.5 11.25 8.796875 11.25 10.398438 L 11.25 31.601562 C 11.25 33.203125 12.546875 34.5 14.148438 34.5 Z M 14.148438 34.5 "/>
<path style="fill:none;stroke-width:3;stroke-linecap:round;stroke-linejoin:round;stroke:rgb(9.411765%,9.803922%,24.705882%);stroke-opacity:1;stroke-miterlimit:10;" d="M 11.5 20.5 L 32.703125 20.5 " transform="matrix(0.75,0,0,0.75,0,0)"/>
<path style="fill:none;stroke-width:3;stroke-linecap:round;stroke-linejoin:round;stroke:rgb(9.411765%,9.803922%,24.705882%);stroke-opacity:1;stroke-miterlimit:10;" d="M 10.5 37.635417 L 10.5 38.5 C 10.5 40.708333 12.291667 42.5 14.5 42.5 L 33.5 42.5 C 35.708333 42.5 37.5 40.708333 37.5 38.5 L 37.5 17.213542 " transform="matrix(0.75,0,0,0.75,0,0)"/>
<path style="fill:none;stroke-width:3;stroke-linecap:round;stroke-linejoin:round;stroke:rgb(9.411765%,9.803922%,24.705882%);stroke-opacity:1;stroke-miterlimit:10;" d="M 37.5 11.5 L 37.5 9.5 C 37.5 7.291667 35.708333 5.5 33.5 5.5 L 14.5 5.5 C 12.291667 5.5 10.5 7.291667 10.5 9.5 L 10.5 32.447917 " transform="matrix(0.75,0,0,0.75,0,0)"/>
<path style="fill:none;stroke-width:3;stroke-linecap:round;stroke-linejoin:round;stroke:rgb(9.411765%,9.803922%,24.705882%);stroke-opacity:1;stroke-miterlimit:10;" d="M 16.5 14.5 L 16.5 11.5 " transform="matrix(0.75,0,0,0.75,0,0)"/>
<path style="fill:none;stroke-width:3;stroke-linecap:round;stroke-linejoin:round;stroke:rgb(9.411765%,9.803922%,24.705882%);stroke-opacity:1;stroke-miterlimit:10;" d="M 16.5 31.5 L 16.5 26.5 " transform="matrix(0.75,0,0,0.75,0,0)"/>
</g>
</svg>
