<?xml version="1.0" encoding="UTF-8"?>
<svg xmlns="http://www.w3.org/2000/svg" xmlns:xlink="http://www.w3.org/1999/xlink" width="36pt" height="36pt" viewBox="0 0 36 36" version="1.1">
<g id="surface32103">
<path style=" stroke:none;fill-rule:nonzero;fill:rgb(62.352943%,65.882355%,85.490197%);fill-opacity:1;" d="M 35.792969 21.617188 C 35.242188 20.421875 33.792969 19.945312 32.640625 20.578125 L 25.277344 24.628906 L 4.730469 24.628906 C 4.285156 24.628906 3.945312 25.039062 4.03125 25.476562 L 4.886719 29.929688 C 5.355469 32.359375 7.484375 34.117188 9.957031 34.117188 L 20.402344 34.117188 C 22.878906 34.117188 25.003906 32.359375 25.472656 29.929688 L 25.851562 27.953125 L 34.53125 24.6875 C 35.761719 24.222656 36.34375 22.8125 35.792969 21.617188 Z M 35.792969 21.617188 "/>
<path style="fill:none;stroke-width:3;stroke-linecap:round;stroke-linejoin:miter;stroke:rgb(9.411765%,9.803922%,24.705882%);stroke-opacity:1;stroke-miterlimit:10;" d="M 14.098958 12.942708 C 13.328125 13.989583 12.411458 14.807292 11.546875 15.578125 C 9.65625 17.265625 8.026042 18.729167 8.026042 22.494792 " transform="matrix(0.75,0,0,0.75,0,0)"/>
<path style="fill:none;stroke-width:3;stroke-linecap:round;stroke-linejoin:miter;stroke:rgb(9.411765%,9.803922%,24.705882%);stroke-opacity:1;stroke-miterlimit:10;" d="M 16.026042 6.494792 C 16.026042 7.104167 15.989583 7.677083 15.927083 8.208333 " transform="matrix(0.75,0,0,0.75,0,0)"/>
<path style="fill:none;stroke-width:3;stroke-linecap:round;stroke-linejoin:miter;stroke:rgb(9.411765%,9.803922%,24.705882%);stroke-opacity:1;stroke-miterlimit:10;" d="M 22.015625 10.515625 C 22.015625 14.322917 20.239583 15.911458 18.666667 17.317708 C 17.25 18.583333 16.026042 19.671875 16.026042 22.494792 " transform="matrix(0.75,0,0,0.75,0,0)"/>
<path style="fill:none;stroke-width:3;stroke-linecap:round;stroke-linejoin:miter;stroke:rgb(9.411765%,9.803922%,24.705882%);stroke-opacity:1;stroke-miterlimit:10;" d="M 26.989583 14.494792 C 26.989583 17.036458 25.8125 18.098958 24.770833 19.036458 C 23.833333 19.880208 23.026042 20.609375 23.026042 22.494792 " transform="matrix(0.75,0,0,0.75,0,0)"/>
<path style="fill:none;stroke-width:3;stroke-linecap:round;stroke-linejoin:round;stroke:rgb(9.411765%,9.803922%,24.705882%);stroke-opacity:1;stroke-miterlimit:10;" d="M 31.911458 28.302083 L 41.546875 23 C 43.161458 22.109375 45.197917 22.776042 45.973958 24.458333 C 46.744792 26.135417 45.932292 28.114583 44.203125 28.765625 L 37.34375 31.348958 " transform="matrix(0.75,0,0,0.75,0,0)"/>
<path style="fill:none;stroke-width:3;stroke-linecap:round;stroke-linejoin:round;stroke:rgb(9.411765%,9.803922%,24.705882%);stroke-opacity:1;stroke-miterlimit:10;" d="M 17.239583 41.5 L 10.010417 41.5 C 6.536458 41.5 3.546875 39.03125 2.890625 35.619792 L 1.755208 29.6875 C 1.635417 29.072917 2.109375 28.5 2.734375 28.5 L 4.8125 28.5 " transform="matrix(0.75,0,0,0.75,0,0)"/>
<path style="fill:none;stroke-width:3;stroke-linecap:round;stroke-linejoin:round;stroke:rgb(9.411765%,9.803922%,24.705882%);stroke-opacity:1;stroke-miterlimit:10;" d="M 10.0625 28.5 L 31.3125 28.5 C 31.942708 28.5 32.416667 29.072917 32.296875 29.6875 L 31.15625 35.619792 C 30.5 39.03125 27.510417 41.5 24.036458 41.5 " transform="matrix(0.75,0,0,0.75,0,0)"/>
</g>
</svg>
