<?xml version="1.0" encoding="UTF-8"?>
<svg xmlns="http://www.w3.org/2000/svg" xmlns:xlink="http://www.w3.org/1999/xlink" width="36pt" height="36pt" viewBox="0 0 36 36" version="1.1">
<g id="surface32018">
<path style=" stroke:none;fill-rule:nonzero;fill:rgb(62.352943%,65.882355%,85.490197%);fill-opacity:1;" d="M 31.152344 21 L 10.847656 21 C 9.589844 21 8.441406 21.753906 7.96875 22.917969 C 6.980469 25.351562 6.3125 27.847656 5.96875 30.410156 C 5.839844 31.378906 6.554688 32.25 7.480469 32.25 L 34.519531 32.25 C 35.445312 32.25 36.160156 31.378906 36.03125 30.410156 C 35.6875 27.847656 35.019531 25.351562 34.03125 22.921875 C 33.558594 21.753906 32.410156 21 31.152344 21 Z M 31.152344 21 "/>
<path style="fill:none;stroke-width:3;stroke-linecap:round;stroke-linejoin:round;stroke:rgb(9.411765%,9.803922%,24.705882%);stroke-opacity:1;stroke-miterlimit:10;" d="M 24.5625 24.5 L 42.5 24.5 " transform="matrix(0.75,0,0,0.75,0,0)"/>
<path style="fill:none;stroke-width:3;stroke-linecap:round;stroke-linejoin:round;stroke:rgb(9.411765%,9.803922%,24.705882%);stroke-opacity:1;stroke-miterlimit:10;" d="M 5.5 24.5 L 19.671875 24.5 " transform="matrix(0.75,0,0,0.75,0,0)"/>
<path style="fill:none;stroke-width:3;stroke-linecap:round;stroke-linejoin:round;stroke:rgb(9.411765%,9.803922%,24.705882%);stroke-opacity:1;stroke-miterlimit:10;" d="M 8 24.5 C 6.078125 28.276042 4.822917 32.177083 4.25 36.208333 C 4.078125 37.416667 5.020833 38.5 6.239583 38.5 L 8.328125 38.5 " transform="matrix(0.75,0,0,0.75,0,0)"/>
<path style="fill:none;stroke-width:3;stroke-linecap:round;stroke-linejoin:round;stroke:rgb(9.411765%,9.803922%,24.705882%);stroke-opacity:1;stroke-miterlimit:10;" d="M 14.848958 38.5 L 41.760417 38.5 C 42.979167 38.5 43.921875 37.416667 43.75 36.208333 C 43.177083 32.177083 41.921875 28.276042 40 24.5 " transform="matrix(0.75,0,0,0.75,0,0)"/>
<path style="fill:none;stroke-width:3;stroke-linecap:round;stroke-linejoin:round;stroke:rgb(9.411765%,9.803922%,24.705882%);stroke-opacity:1;stroke-miterlimit:10;" d="M 19.833333 24.572917 L 19.833333 27.5 " transform="matrix(0.75,0,0,0.75,0,0)"/>
<path style="fill:none;stroke-width:3;stroke-linecap:round;stroke-linejoin:round;stroke:rgb(9.411765%,9.803922%,24.705882%);stroke-opacity:1;stroke-miterlimit:10;" d="M 28.166667 25.5 L 28.166667 27.5 " transform="matrix(0.75,0,0,0.75,0,0)"/>
<path style="fill:none;stroke-width:3;stroke-linecap:round;stroke-linejoin:round;stroke:rgb(9.411765%,9.803922%,24.705882%);stroke-opacity:1;stroke-miterlimit:10;" d="M 11.5 25.5 L 11.5 27.5 " transform="matrix(0.75,0,0,0.75,0,0)"/>
<path style="fill:none;stroke-width:3;stroke-linecap:round;stroke-linejoin:round;stroke:rgb(9.411765%,9.803922%,24.705882%);stroke-opacity:1;stroke-miterlimit:10;" d="M 36.5 25.5 L 36.5 27.5 " transform="matrix(0.75,0,0,0.75,0,0)"/>
<path style=" stroke:none;fill-rule:nonzero;fill:rgb(9.411765%,9.803922%,24.705882%);fill-opacity:1;" d="M 12.761719 11.644531 C 12.554688 11.433594 12.214844 11.433594 12.007812 11.644531 C 11.882812 11.765625 10.785156 12.902344 10.785156 14.152344 C 10.785156 15.035156 11.503906 15.753906 12.382812 15.753906 C 13.265625 15.753906 13.984375 15.035156 13.984375 14.152344 C 13.984375 12.902344 12.886719 11.765625 12.761719 11.644531 Z M 12.761719 11.644531 "/>
<path style=" stroke:none;fill-rule:nonzero;fill:rgb(9.411765%,9.803922%,24.705882%);fill-opacity:1;" d="M 23.992188 11.644531 C 23.785156 11.433594 23.445312 11.433594 23.238281 11.644531 C 23.113281 11.765625 22.015625 12.902344 22.015625 14.152344 C 22.015625 15.035156 22.734375 15.753906 23.617188 15.753906 C 24.496094 15.753906 25.214844 15.035156 25.214844 14.152344 C 25.214844 12.902344 24.117188 11.765625 23.992188 11.644531 Z M 23.992188 11.644531 "/>
<path style="fill:none;stroke-width:3;stroke-linecap:round;stroke-linejoin:round;stroke:rgb(9.411765%,9.803922%,24.705882%);stroke-opacity:1;stroke-miterlimit:10;" d="M 29.979167 10.479167 C 30.598958 9.786458 31.171875 9.34375 31.489583 9.34375 C 32.3125 9.34375 35.489583 13.046875 35.489583 15.619792 C 35.489583 17.760417 33.697917 19.5 31.489583 19.5 C 29.276042 19.5 27.489583 17.760417 27.489583 15.619792 C 27.489583 15.479167 27.494792 15.333333 27.515625 15.1875 " transform="matrix(0.75,0,0,0.75,0,0)"/>
<path style="fill:none;stroke-width:3;stroke-linecap:round;stroke-linejoin:round;stroke:rgb(9.411765%,9.803922%,24.705882%);stroke-opacity:1;stroke-miterlimit:10;" d="M 16.510417 19.5 C 14.302083 19.5 12.510417 17.760417 12.510417 15.619792 C 12.510417 13.067708 15.604167 9.34375 16.510417 9.34375 C 17.338542 9.34375 20.510417 13.046875 20.510417 15.619792 " transform="matrix(0.75,0,0,0.75,0,0)"/>
</g>
</svg>
