<?xml version="1.0" encoding="UTF-8"?>
<svg xmlns="http://www.w3.org/2000/svg" xmlns:xlink="http://www.w3.org/1999/xlink" width="36pt" height="36pt" viewBox="0 0 36 36" version="1.1">
<g id="surface22243">
<path style=" stroke:none;fill-rule:nonzero;fill:rgb(100%,87.843138%,50.980395%);fill-opacity:1;" d="M 30.542969 25.730469 C 28.441406 25.730469 26.019531 28.121094 23.019531 28.121094 C 20.921875 28.121094 21 25.800781 21 25.800781 C 23.984375 25.800781 26.398438 22.800781 26.398438 19.800781 C 26.398438 19.800781 26.933594 19.800781 27.300781 19.800781 C 30.449219 19.800781 33.03125 17.25 33.03125 14.101562 C 33.03125 10.953125 30.449219 8.625 27.300781 8.625 C 24.152344 8.625 21.601562 10.953125 21.601562 14.101562 L 21.601562 14.398438 C 21.601562 14.398438 18 15 18 19.199219 C 16.199219 18.601562 15.601562 17.082031 15.601562 16.199219 C 15.601562 15.285156 16.417969 14.035156 16.808594 13.578125 C 17.679688 12.582031 17.578125 11.066406 16.582031 10.191406 C 15.582031 9.320312 14.066406 9.421875 13.191406 10.417969 C 12.949219 10.699219 10.800781 13.242188 10.800781 16.199219 C 10.800781 20.398438 13.800781 23.03125 13.800781 23.03125 C 11.941406 24.796875 10.851562 25.808594 10.230469 26.429688 C 8.589844 28.070312 8.589844 30.730469 10.230469 32.367188 C 11.871094 34.007812 14.53125 34.007812 16.171875 32.367188 C 16.453125 32.085938 16.972656 31.578125 18.125 30.441406 C 19.285156 31.792969 21.78125 33.375 25.199219 33.375 C 28.386719 33.375 30.929688 31.851562 32.09375 30.015625 C 33.5625 27.707031 32.363281 25.730469 30.542969 25.730469 Z M 30.542969 25.730469 "/>
<path style="fill:none;stroke-width:3;stroke-linecap:round;stroke-linejoin:round;stroke:rgb(9.411765%,9.803922%,24.705882%);stroke-opacity:1;stroke-miterlimit:4;" d="M 27.875 40.395833 C 28.427083 40.463542 29.005208 40.5 29.598958 40.5 C 33.848958 40.5 37.239583 38.46875 38.791667 36.020833 C 40.75 32.942708 39.151042 30.307292 36.723958 30.307292 C 33.921875 30.307292 30.692708 33.494792 26.692708 33.494792 C 23.895833 33.494792 24 30.401042 24 30.401042 C 27.979167 30.401042 31.197917 26.401042 31.197917 22.401042 C 31.197917 22.401042 31.911458 22.401042 32.401042 22.401042 C 36.598958 22.401042 40.041667 19 40.041667 14.802083 C 40.041667 10.604167 36.598958 7.5 32.401042 7.5 C 28.203125 7.5 24.802083 10.604167 24.802083 14.802083 L 24.802083 15.197917 C 24.802083 15.197917 23.666667 15.390625 22.5 16.223958 " transform="matrix(0.75,0,0,0.75,0,0)"/>
<path style="fill:none;stroke-width:3;stroke-linecap:round;stroke-linejoin:round;stroke:rgb(9.411765%,9.803922%,24.705882%);stroke-opacity:1;stroke-miterlimit:4;" d="M 20 21.598958 C 17.598958 20.802083 16.802083 18.776042 16.802083 17.598958 C 16.802083 16.380208 17.890625 14.713542 18.411458 14.104167 C 19.572917 12.776042 19.4375 10.755208 18.109375 9.588542 C 16.776042 8.427083 14.755208 8.5625 13.588542 9.890625 C 13.265625 10.265625 10.401042 13.65625 10.401042 17.598958 C 10.401042 23.197917 14.401042 26.708333 14.401042 26.708333 C 11.921875 29.0625 10.46875 30.411458 9.640625 31.239583 C 7.453125 33.427083 7.453125 36.973958 9.640625 39.15625 C 11.828125 41.34375 15.375 41.34375 17.5625 39.15625 C 17.9375 38.78125 18.630208 38.104167 20.166667 36.588542 " transform="matrix(0.75,0,0,0.75,0,0)"/>
<path style="fill:none;stroke-width:3;stroke-linecap:round;stroke-linejoin:round;stroke:rgb(9.411765%,9.803922%,24.705882%);stroke-opacity:1;stroke-miterlimit:4;" d="M 33.755208 33.901042 C 33.046875 33.270833 32.625 32.5625 32.375 31.942708 " transform="matrix(0.75,0,0,0.75,0,0)"/>
<path style="fill:none;stroke-width:3;stroke-linecap:round;stroke-linejoin:round;stroke:rgb(9.411765%,9.803922%,24.705882%);stroke-opacity:1;stroke-miterlimit:4;" d="M 25.458333 24.140625 C 25.458333 24.140625 26.953125 26.239583 29.583333 26.546875 " transform="matrix(0.75,0,0,0.75,0,0)"/>
<path style="fill:none;stroke-width:3;stroke-linecap:round;stroke-linejoin:round;stroke:rgb(9.411765%,9.803922%,24.705882%);stroke-opacity:1;stroke-miterlimit:4;" d="M 33.458333 15.484375 C 33.458333 15.484375 35.161458 18.182292 38.760417 18.682292 L 38.791667 18.6875 " transform="matrix(0.75,0,0,0.75,0,0)"/>
<path style="fill:none;stroke-width:3;stroke-linecap:round;stroke-linejoin:round;stroke:rgb(9.411765%,9.803922%,24.705882%);stroke-opacity:1;stroke-miterlimit:4;" d="M 15.197917 15.197917 C 15.197917 15.197917 15.802083 15.901042 17 16.197917 L 17.125 16.229167 " transform="matrix(0.75,0,0,0.75,0,0)"/>
<path style="fill:none;stroke-width:3;stroke-linecap:round;stroke-linejoin:round;stroke:rgb(9.411765%,9.803922%,24.705882%);stroke-opacity:1;stroke-miterlimit:4;" d="M 10.864583 31.109375 C 10.916667 31.364583 11.385417 33.385417 13.260417 34.885417 " transform="matrix(0.75,0,0,0.75,0,0)"/>
</g>
</svg>
