<?xml version="1.0" encoding="UTF-8"?>
<svg xmlns="http://www.w3.org/2000/svg" xmlns:xlink="http://www.w3.org/1999/xlink" width="36pt" height="36pt" viewBox="0 0 36 36" version="1.1">
<g id="surface15953">
<path style=" stroke:none;fill-rule:nonzero;fill:rgb(62.352943%,65.882355%,85.490197%);fill-opacity:1;" d="M 29.851562 25.5 C 29.851562 23.175781 27.976562 21.300781 25.648438 21.300781 C 25.5 21.300781 25.351562 21.300781 25.199219 21.300781 C 25.425781 20.773438 25.5 20.25 25.5 19.648438 C 25.5 17.324219 23.625 15.449219 21.300781 15.449219 C 19.800781 15.449219 18.449219 16.273438 17.773438 17.398438 C 17.023438 16.351562 15.75 15.601562 14.324219 15.601562 C 12 15.601562 10.125 17.476562 10.125 19.800781 C 10.125 20.324219 10.199219 20.851562 10.425781 21.375 C 8.625 21.824219 7.351562 23.476562 7.351562 25.425781 C 7.351562 26.25 7.574219 27 7.949219 27.601562 C 6 28.050781 4.5 29.773438 4.5 31.800781 C 4.5 34.125 6.375 36 8.699219 36 C 10.273438 36 11.625 35.175781 12.375 33.898438 C 13.125 34.949219 14.324219 35.550781 15.75 35.550781 C 17.25 35.550781 18.601562 34.726562 19.351562 33.523438 C 20.101562 34.574219 21.375 35.25 22.726562 35.25 C 25.050781 35.25 26.925781 33.375 26.925781 31.050781 C 26.925781 30.523438 26.851562 30 26.625 29.550781 C 28.425781 29.175781 29.851562 27.523438 29.851562 25.5 Z M 29.851562 25.5 "/>
<path style="fill:none;stroke-width:3;stroke-linecap:round;stroke-linejoin:round;stroke:rgb(9.411765%,9.803922%,24.705882%);stroke-opacity:1;stroke-miterlimit:4;" d="M 31.197917 25.302083 C 40.098958 24.302083 42.5 16.802083 38.598958 10.901042 " transform="matrix(0.75,0,0,0.75,0,0)"/>
<path style="fill:none;stroke-width:3;stroke-linecap:round;stroke-linejoin:round;stroke:rgb(9.411765%,9.803922%,24.705882%);stroke-opacity:1;stroke-miterlimit:4;" d="M 38.598958 10.901042 C 34.5 3.5 27.5 8.5 27.5 8.5 " transform="matrix(0.75,0,0,0.75,0,0)"/>
<path style="fill:none;stroke-width:3;stroke-linecap:round;stroke-linejoin:round;stroke:rgb(9.411765%,9.803922%,24.705882%);stroke-opacity:1;stroke-miterlimit:4;" d="M 41.5 26.5 C 48.5 26.5 43.5 14.5 38.401042 21.697917 " transform="matrix(0.75,0,0,0.75,0,0)"/>
<path style="fill:none;stroke-width:3;stroke-linecap:round;stroke-linejoin:round;stroke:rgb(9.411765%,9.803922%,24.705882%);stroke-opacity:1;stroke-miterlimit:4;" d="M 34.5 6.5 C 31.5 1.5 18.5 2.598958 18.5 12.5 C 21.401042 10.598958 25.5 14.5 28.5 14.5 C 32.5 14.5 33.5 12.5 33.5 12.5 " transform="matrix(0.75,0,0,0.75,0,0)"/>
<path style="fill:none;stroke-width:3;stroke-linecap:round;stroke-linejoin:round;stroke:rgb(9.411765%,9.803922%,24.705882%);stroke-opacity:1;stroke-miterlimit:4;" d="M 3.5 40.197917 C 3.5 40.098958 3.5 40 3.5 40 C 3.5 37.5 5.5 35.5 8 35.5 C 10.5 35.5 12.5 37.5 12.5 40 C 12.5 42.5 10.5 44.5 8 44.5 " transform="matrix(0.75,0,0,0.75,0,0)"/>
<path style="fill:none;stroke-width:3;stroke-linecap:round;stroke-linejoin:round;stroke:rgb(9.411765%,9.803922%,24.705882%);stroke-opacity:1;stroke-miterlimit:4;" d="M 11.098958 26.598958 C 13.5 26.098958 15.901042 27.697917 16.401042 30.098958 C 16.901042 32.5 15.302083 34.901042 12.901042 35.401042 C 10.5 35.901042 8.098958 34.302083 7.598958 31.901042 " transform="matrix(0.75,0,0,0.75,0,0)"/>
<path style="fill:none;stroke-width:3;stroke-linecap:round;stroke-linejoin:round;stroke:rgb(9.411765%,9.803922%,24.705882%);stroke-opacity:1;stroke-miterlimit:4;" d="M 20.598958 23 C 20.598958 25.484375 18.583333 27.5 16.098958 27.5 C 13.614583 27.5 11.598958 25.484375 11.598958 23 C 11.598958 20.515625 13.614583 18.5 16.098958 18.5 C 18.583333 18.5 20.598958 20.515625 20.598958 23 Z M 20.598958 23 " transform="matrix(0.75,0,0,0.75,0,0)"/>
<path style="fill:none;stroke-width:3;stroke-linecap:round;stroke-linejoin:round;stroke:rgb(9.411765%,9.803922%,24.705882%);stroke-opacity:1;stroke-miterlimit:4;" d="M 26.5 31 C 26.5 33.484375 24.484375 35.5 22 35.5 C 19.515625 35.5 17.5 33.484375 17.5 31 C 17.5 28.515625 19.515625 26.5 22 26.5 C 24.484375 26.5 26.5 28.515625 26.5 31 Z M 26.5 31 " transform="matrix(0.75,0,0,0.75,0,0)"/>
<path style="fill:none;stroke-width:3;stroke-linecap:round;stroke-linejoin:round;stroke:rgb(9.411765%,9.803922%,24.705882%);stroke-opacity:1;stroke-miterlimit:4;" d="M 25.302083 42.598958 C 24.197917 41.802083 23.5 40.5 23.5 39 C 23.5 36.5 25.5 34.5 28 34.5 C 30.5 34.5 32.5 36.5 32.5 39 C 32.5 40.598958 31.697917 41.901042 30.5 42.697917 " transform="matrix(0.75,0,0,0.75,0,0)"/>
<path style="fill:none;stroke-width:3;stroke-linecap:round;stroke-linejoin:round;stroke:rgb(9.411765%,9.803922%,24.705882%);stroke-opacity:1;stroke-miterlimit:4;" d="M 22.5 39.401042 C 22.5 41.885417 20.484375 43.901042 18 43.901042 C 15.515625 43.901042 13.5 41.885417 13.5 39.401042 C 13.5 36.916667 15.515625 34.901042 18 34.901042 C 20.484375 34.901042 22.5 36.916667 22.5 39.401042 Z M 22.5 39.401042 " transform="matrix(0.75,0,0,0.75,0,0)"/>
<path style="fill:none;stroke-width:3;stroke-linecap:round;stroke-linejoin:round;stroke:rgb(9.411765%,9.803922%,24.705882%);stroke-opacity:1;stroke-miterlimit:4;" d="M 25.697917 18.802083 C 28.197917 18.802083 30.197917 20.802083 30.197917 23.302083 C 30.197917 25.802083 28.197917 27.802083 25.697917 27.802083 " transform="matrix(0.75,0,0,0.75,0,0)"/>
<path style="fill:none;stroke-width:3;stroke-linecap:round;stroke-linejoin:round;stroke:rgb(9.411765%,9.803922%,24.705882%);stroke-opacity:1;stroke-miterlimit:4;" d="M 35.197917 30.697917 C 35.098958 32.302083 34.197917 33.697917 32.697917 34.401042 C 30.5 35.5 27.802083 34.598958 26.697917 32.302083 " transform="matrix(0.75,0,0,0.75,0,0)"/>
</g>
</svg>
