<?xml version="1.0" encoding="UTF-8"?>
<svg xmlns="http://www.w3.org/2000/svg" xmlns:xlink="http://www.w3.org/1999/xlink" width="36pt" height="36pt" viewBox="0 0 36 36" version="1.1">
<g id="surface20835">
<path style=" stroke:none;fill-rule:nonzero;fill:rgb(62.352943%,65.882355%,85.490197%);fill-opacity:1;" d="M 28.125 24.75 C 28.125 22.886719 26.613281 21.375 24.75 21.375 C 24.34375 21.375 23.960938 21.457031 23.601562 21.589844 C 24.449219 20.976562 25.003906 19.984375 25.003906 18.859375 C 25.003906 16.996094 23.496094 15.484375 21.628906 15.484375 C 19.988281 15.484375 18.625 16.660156 18.320312 18.214844 C 18.0625 16.605469 16.679688 15.375 15 15.375 C 13.136719 15.375 11.625 16.886719 11.625 18.75 C 11.625 19.539062 11.90625 20.253906 12.359375 20.824219 C 12.007812 20.703125 11.640625 20.625 11.25 20.625 C 9.386719 20.625 7.875 22.136719 7.875 24 C 7.875 25.078125 8.390625 26.023438 9.175781 26.640625 C 9.113281 26.640625 9.058594 26.625 9 26.625 C 7.136719 26.625 5.625 28.136719 5.625 30 C 5.625 31.863281 7.136719 33.375 9 33.375 C 10.316406 33.375 11.445312 32.613281 12 31.515625 C 12.554688 32.613281 13.683594 33.375 15 33.375 C 16.84375 33.375 18.339844 31.894531 18.371094 30.054688 L 18.382812 30.054688 C 18.410156 31.894531 19.90625 33.375 21.75 33.375 C 23.613281 33.375 25.125 31.863281 25.125 30 C 25.125 29.296875 24.910156 28.644531 24.539062 28.105469 C 24.609375 28.109375 24.679688 28.125 24.75 28.125 C 26.613281 28.125 28.125 26.613281 28.125 24.75 Z M 28.125 24.75 "/>
<path style="fill:none;stroke-width:3;stroke-linecap:round;stroke-linejoin:round;stroke:rgb(9.411765%,9.803922%,24.705882%);stroke-opacity:1;stroke-miterlimit:10;" d="M 12.5 36 C 12.5 38.484375 10.484375 40.5 8 40.5 C 5.515625 40.5 3.5 38.484375 3.5 36 C 3.5 33.515625 5.515625 31.5 8 31.5 C 10.484375 31.5 12.5 33.515625 12.5 36 Z M 12.5 36 " transform="matrix(0.75,0,0,0.75,0,0)"/>
<path style="fill:none;stroke-width:3;stroke-linecap:round;stroke-linejoin:round;stroke:rgb(9.411765%,9.803922%,24.705882%);stroke-opacity:1;stroke-miterlimit:10;" d="M 16.5 27 C 16.5 29.484375 14.484375 31.5 12 31.5 C 9.515625 31.5 7.5 29.484375 7.5 27 C 7.5 24.515625 9.515625 22.5 12 22.5 C 14.484375 22.5 16.5 24.515625 16.5 27 Z M 16.5 27 " transform="matrix(0.75,0,0,0.75,0,0)"/>
<path style="fill:none;stroke-width:3;stroke-linecap:round;stroke-linejoin:round;stroke:rgb(9.411765%,9.803922%,24.705882%);stroke-opacity:1;stroke-miterlimit:10;" d="M 17 39.5 C 14.515625 39.5 12.5 37.484375 12.5 35 C 12.5 32.515625 14.515625 30.5 17 30.5 C 19.484375 30.5 21.5 32.515625 21.5 35 " transform="matrix(0.75,0,0,0.75,0,0)"/>
<path style="fill:none;stroke-width:3;stroke-linecap:round;stroke-linejoin:round;stroke:rgb(9.411765%,9.803922%,24.705882%);stroke-opacity:1;stroke-miterlimit:10;" d="M 25.5 26 C 25.5 28.484375 23.484375 30.5 21 30.5 C 18.515625 30.5 16.5 28.484375 16.5 26 C 16.5 23.515625 18.515625 21.5 21 21.5 C 23.484375 21.5 25.5 23.515625 25.5 26 Z M 25.5 26 " transform="matrix(0.75,0,0,0.75,0,0)"/>
<path style="fill:none;stroke-width:3;stroke-linecap:round;stroke-linejoin:round;stroke:rgb(9.411765%,9.803922%,24.705882%);stroke-opacity:1;stroke-miterlimit:10;" d="M 15.65625 13.708333 C 18.026042 12.963542 20.552083 14.28125 21.291667 16.65625 C 22.036458 19.026042 20.71875 21.552083 18.34375 22.291667 C 15.973958 23.036458 13.447917 21.71875 12.708333 19.34375 " transform="matrix(0.75,0,0,0.75,0,0)"/>
<path style="fill:none;stroke-width:3;stroke-linecap:round;stroke-linejoin:round;stroke:rgb(9.411765%,9.803922%,24.705882%);stroke-opacity:1;stroke-miterlimit:10;" d="M 31.5 19 C 31.5 21.484375 29.484375 23.5 27 23.5 C 24.515625 23.5 22.5 21.484375 22.5 19 C 22.5 16.515625 24.515625 14.5 27 14.5 C 29.484375 14.5 31.5 16.515625 31.5 19 Z M 31.5 19 " transform="matrix(0.75,0,0,0.75,0,0)"/>
<path style="fill:none;stroke-width:3;stroke-linecap:round;stroke-linejoin:round;stroke:rgb(9.411765%,9.803922%,24.705882%);stroke-opacity:1;stroke-miterlimit:10;" d="M 35.380208 26.96875 C 35.947917 29.390625 34.447917 31.8125 32.03125 32.380208 C 29.609375 32.947917 27.1875 31.447917 26.619792 29.03125 C 26.052083 26.609375 27.552083 24.1875 29.96875 23.619792 " transform="matrix(0.75,0,0,0.75,0,0)"/>
<path style="fill:none;stroke-width:3;stroke-linecap:round;stroke-linejoin:round;stroke:rgb(9.411765%,9.803922%,24.705882%);stroke-opacity:1;stroke-miterlimit:10;" d="M 30.5 36 C 30.5 38.484375 28.484375 40.5 26 40.5 C 23.515625 40.5 21.5 38.484375 21.5 36 C 21.5 33.515625 23.515625 31.5 26 31.5 C 28.484375 31.5 30.5 33.515625 30.5 36 Z M 30.5 36 " transform="matrix(0.75,0,0,0.75,0,0)"/>
<path style="fill:none;stroke-width:3;stroke-linecap:round;stroke-linejoin:round;stroke:rgb(9.411765%,9.803922%,24.705882%);stroke-opacity:1;stroke-miterlimit:10;" d="M 45.3125 18.546875 C 37.359375 17.802083 32.5 20.088542 30.119792 23.5 " transform="matrix(0.75,0,0,0.75,0,0)"/>
<path style="fill:none;stroke-width:3;stroke-linecap:round;stroke-linejoin:round;stroke:rgb(9.411765%,9.803922%,24.705882%);stroke-opacity:1;stroke-miterlimit:10;" d="M 44.671875 18.854167 C 40.697917 22.005208 42.083333 25.729167 42.083333 25.729167 " transform="matrix(0.75,0,0,0.75,0,0)"/>
<path style="fill:none;stroke-width:3;stroke-linecap:round;stroke-linejoin:round;stroke:rgb(9.411765%,9.803922%,24.705882%);stroke-opacity:1;stroke-miterlimit:10;" d="M 35.640625 8.885417 C 34.541667 10.640625 34.369792 12.911458 35.401042 14.875 C 36.223958 16.442708 37.645833 17.494792 39.239583 17.895833 C 40 18.088542 40.75 17.697917 41.026042 16.958333 C 41.59375 15.421875 41.536458 13.65625 40.713542 12.088542 " transform="matrix(0.75,0,0,0.75,0,0)"/>
</g>
</svg>
