<?xml version="1.0" encoding="UTF-8"?>
<svg xmlns="http://www.w3.org/2000/svg" xmlns:xlink="http://www.w3.org/1999/xlink" width="36pt" height="36pt" viewBox="0 0 36 36" version="1.1">
<g id="surface27362">
<path style=" stroke:none;fill-rule:nonzero;fill:rgb(100%,87.843138%,50.980395%);fill-opacity:1;" d="M 32.003906 34.183594 C 32.101562 35.148438 31.414062 36 30.527344 36 L 11.570312 36 C 10.652344 36 9.941406 35.089844 10.097656 34.09375 L 11.300781 26.183594 L 9.914062 18.917969 C 9.859375 18.433594 10.203125 18 10.652344 18 L 31.28125 18 C 31.753906 18 32.101562 18.476562 32.011719 18.980469 L 30.699219 22.910156 Z M 32.003906 34.183594 "/>
<path style="fill:none;stroke-width:3;stroke-linecap:butt;stroke-linejoin:miter;stroke:rgb(9.411765%,9.803922%,24.705882%);stroke-opacity:1;stroke-miterlimit:10;" d="M 11.5 20 L 11.5 10.5 C 11.5 8.015625 13.515625 6 16 6 C 18.484375 6 20.5 8.015625 20.5 10.5 L 20.5 21 " transform="matrix(0.75,0,0,0.75,0,0)"/>
<path style="fill:none;stroke-width:3;stroke-linecap:round;stroke-linejoin:round;stroke:rgb(9.411765%,9.803922%,24.705882%);stroke-opacity:1;stroke-miterlimit:10;" d="M 10.036458 26.15625 L 9.140625 21.671875 C 9.067708 21.052083 9.53125 20.5 10.130208 20.5 L 37.78125 20.5 C 38.411458 20.5 38.880208 21.104167 38.760417 21.755208 L 37 26.770833 L 34.703125 32.614583 " transform="matrix(0.75,0,0,0.75,0,0)"/>
<path style="fill:none;stroke-width:3;stroke-linecap:round;stroke-linejoin:round;stroke:rgb(9.411765%,9.803922%,24.705882%);stroke-opacity:1;stroke-miterlimit:10;" d="M 38.036458 35.291667 L 38.75 41.182292 C 38.880208 42.411458 37.958333 43.5 36.770833 43.5 L 11.359375 43.5 C 10.130208 43.5 9.182292 42.338542 9.390625 41.0625 L 11 32.526042 " transform="matrix(0.75,0,0,0.75,0,0)"/>
<path style="fill:none;stroke-width:3;stroke-linecap:round;stroke-linejoin:round;stroke:rgb(9.411765%,9.803922%,24.705882%);stroke-opacity:1;stroke-miterlimit:10;" d="M 11 32.526042 L 14.458333 28.848958 " transform="matrix(0.75,0,0,0.75,0,0)"/>
<path style="fill:none;stroke-width:3;stroke-linecap:round;stroke-linejoin:round;stroke:rgb(9.411765%,9.803922%,24.705882%);stroke-opacity:1;stroke-miterlimit:10;" d="M 37.255208 19.958333 C 37.177083 17.234375 34.947917 15.052083 32.203125 15.052083 C 31.229167 15.052083 30.328125 15.338542 29.557292 15.817708 C 29.598958 15.5625 29.635417 15.3125 29.635417 15.052083 C 29.635417 12.53125 27.791667 10.447917 25.385417 10.0625 " transform="matrix(0.75,0,0,0.75,0,0)"/>
</g>
</svg>
