<?xml version="1.0" encoding="UTF-8"?>
<svg xmlns="http://www.w3.org/2000/svg" xmlns:xlink="http://www.w3.org/1999/xlink" width="36pt" height="36pt" viewBox="0 0 36 36" version="1.1">
<g id="surface20737">
<path style=" stroke:none;fill-rule:nonzero;fill:rgb(100%,87.843138%,50.980395%);fill-opacity:1;" d="M 33.808594 23.089844 C 33.046875 22.328125 32.0625 21.90625 30.984375 21.769531 C 31.820312 19.878906 32.277344 17.648438 32.277344 16.261719 C 32.277344 13.996094 31.804688 12.5 31.039062 11.652344 C 30.644531 10.484375 30.421875 9.269531 30.375 8.027344 C 30.363281 7.675781 30.09375 7.394531 29.742188 7.355469 C 28.582031 7.238281 27.53125 7.527344 26.574219 8.164062 C 26.277344 8.359375 26.175781 8.738281 26.332031 9.054688 C 26.6875 9.78125 26.96875 10.53125 27.179688 11.300781 C 26.203125 11.878906 25.589844 12.894531 25.304688 14.035156 C 25.1875 14.515625 25.011719 15.21875 24.695312 16.070312 C 23.625 13.261719 21.34375 11.144531 18.726562 11.144531 C 17.972656 11.144531 17.0625 11.375 16.160156 11.859375 L 16.175781 11.792969 C 15.660156 11.484375 14.996094 11.144531 13.828125 11.144531 C 10.503906 11.144531 7.21875 14.933594 7.21875 19.550781 C 7.21875 24.328125 10.023438 26.695312 11.90625 27.691406 C 11.464844 27.980469 11.019531 28.265625 10.585938 28.570312 C 9.605469 29.253906 8.597656 29.929688 7.804688 30.835938 C 7.03125 31.71875 6.253906 33.101562 7.367188 34.039062 C 7.890625 34.476562 8.652344 34.671875 9.277344 34.753906 C 10.328125 34.890625 11.394531 34.730469 12.429688 34.550781 C 13.839844 34.304688 15.222656 33.925781 16.570312 33.445312 C 18.503906 32.761719 20.351562 31.855469 22.09375 30.769531 L 22.15625 30.703125 C 22.304688 31.742188 22.734375 32.6875 23.472656 33.425781 C 25.691406 35.644531 29.804688 35.132812 32.660156 32.277344 C 35.515625 29.421875 36.027344 25.308594 33.808594 23.089844 Z M 33.808594 23.089844 "/>
<path style="fill:none;stroke-width:3;stroke-linecap:round;stroke-linejoin:round;stroke:rgb(9.411765%,9.803922%,24.705882%);stroke-opacity:1;stroke-miterlimit:4;" d="M 34.020833 42.802083 C 31.505208 43.286458 29.0625 42.744792 27.395833 41.078125 C 24.34375 38.026042 25.052083 32.369792 28.973958 28.447917 C 32.895833 24.526042 38.552083 23.817708 41.604167 26.869792 C 44.322917 29.588542 44.057292 34.369792 41.192708 38.15625 " transform="matrix(0.75,0,0,0.75,0,0)"/>
<path style=" stroke:none;fill-rule:nonzero;fill:rgb(9.411765%,9.803922%,24.705882%);fill-opacity:1;" d="M 26.3125 22.144531 C 26.3125 22.472656 25.914062 23.53125 25.714844 23.53125 C 25.515625 23.53125 25.121094 22.472656 25.121094 22.144531 C 25.121094 21.816406 25.386719 21.546875 25.714844 21.546875 C 26.042969 21.546875 26.3125 21.816406 26.3125 22.144531 Z M 26.3125 22.144531 "/>
<path style=" stroke:none;fill-rule:nonzero;fill:rgb(9.411765%,9.803922%,24.705882%);fill-opacity:1;" d="M 29.804688 25.019531 C 29.484375 25.09375 28.363281 24.933594 28.320312 24.738281 C 28.277344 24.546875 29.226562 23.929688 29.546875 23.859375 C 29.867188 23.785156 30.1875 23.992188 30.257812 24.308594 C 30.328125 24.632812 30.125 24.949219 29.804688 25.019531 Z M 29.804688 25.019531 "/>
<path style=" stroke:none;fill-rule:nonzero;fill:rgb(9.411765%,9.803922%,24.705882%);fill-opacity:1;" d="M 28.808594 22.472656 C 28.65625 22.761719 27.804688 23.511719 27.628906 23.417969 C 27.457031 23.324219 27.605469 22.199219 27.757812 21.910156 C 27.914062 21.621094 28.273438 21.511719 28.5625 21.664062 C 28.855469 21.820312 28.964844 22.179688 28.808594 22.472656 Z M 28.808594 22.472656 "/>
<path style=" stroke:none;fill-rule:nonzero;fill:rgb(9.411765%,9.803922%,24.705882%);fill-opacity:1;" d="M 22.160156 25.109375 C 22.488281 25.121094 23.535156 25.542969 23.53125 25.742188 C 23.527344 25.941406 22.457031 26.308594 22.128906 26.300781 C 21.800781 26.292969 21.539062 26.019531 21.546875 25.691406 C 21.554688 25.359375 21.832031 25.101562 22.160156 25.109375 Z M 22.160156 25.109375 "/>
<path style=" stroke:none;fill-rule:nonzero;fill:rgb(9.411765%,9.803922%,24.705882%);fill-opacity:1;" d="M 23.871094 23.03125 C 24.101562 23.261719 24.574219 24.292969 24.433594 24.433594 C 24.289062 24.574219 23.261719 24.105469 23.027344 23.871094 C 22.796875 23.640625 22.796875 23.261719 23.027344 23.03125 C 23.261719 22.796875 23.636719 22.796875 23.871094 23.03125 Z M 23.871094 23.03125 "/>
<path style=" stroke:none;fill-rule:nonzero;fill:rgb(9.411765%,9.803922%,24.705882%);fill-opacity:1;" d="M 25.515625 29.023438 C 25.515625 28.695312 25.121094 27.632812 24.921875 27.632812 C 24.722656 27.632812 24.324219 28.695312 24.324219 29.023438 C 24.324219 29.351562 24.59375 29.617188 24.921875 29.617188 C 25.25 29.617188 25.515625 29.351562 25.515625 29.023438 Z M 25.515625 29.023438 "/>
<path style=" stroke:none;fill-rule:nonzero;fill:rgb(9.411765%,9.803922%,24.705882%);fill-opacity:1;" d="M 28.015625 28.300781 C 27.859375 28.007812 27.011719 27.261719 26.835938 27.355469 C 26.660156 27.445312 26.808594 28.570312 26.964844 28.859375 C 27.117188 29.148438 27.480469 29.257812 27.769531 29.105469 C 28.058594 28.949219 28.171875 28.589844 28.015625 28.300781 Z M 28.015625 28.300781 "/>
<path style=" stroke:none;fill-rule:nonzero;fill:rgb(9.411765%,9.803922%,24.705882%);fill-opacity:1;" d="M 29.253906 26.023438 C 28.925781 26.042969 27.890625 26.5 27.902344 26.699219 C 27.910156 26.898438 28.996094 27.234375 29.320312 27.214844 C 29.652344 27.195312 29.902344 26.914062 29.882812 26.585938 C 29.863281 26.257812 29.582031 26.003906 29.253906 26.023438 Z M 29.253906 26.023438 "/>
<path style=" stroke:none;fill-rule:nonzero;fill:rgb(9.411765%,9.803922%,24.705882%);fill-opacity:1;" d="M 23.078125 28.535156 C 23.308594 28.300781 23.78125 27.273438 23.636719 27.132812 C 23.496094 26.992188 22.46875 27.460938 22.234375 27.691406 C 22.003906 27.925781 22.003906 28.300781 22.234375 28.535156 C 22.46875 28.765625 22.84375 28.765625 23.078125 28.535156 Z M 23.078125 28.535156 "/>
<path style="fill:none;stroke-width:3;stroke-linecap:round;stroke-linejoin:miter;stroke:rgb(9.411765%,9.803922%,24.705882%);stroke-opacity:1;stroke-miterlimit:20;" d="M 28.6875 17.854167 C 27.411458 13.697917 24.177083 10.447917 20.432292 10.447917 C 17.677083 10.447917 13.369792 12.729167 12.015625 18.046875 " transform="matrix(0.75,0,0,0.75,0,0)"/>
<path style="fill:none;stroke-width:3;stroke-linecap:round;stroke-linejoin:miter;stroke:rgb(9.411765%,9.803922%,24.705882%);stroke-opacity:1;stroke-miterlimit:20;" d="M 17.026042 11.317708 C 16.338542 10.90625 15.447917 10.447917 13.890625 10.447917 C 9.442708 10.447917 5.057292 15.510417 5.057292 21.682292 C 5.057292 24.708333 5.895833 27.005208 7.052083 28.734375 " transform="matrix(0.75,0,0,0.75,0,0)"/>
<path style="fill:none;stroke-width:3;stroke-linecap:round;stroke-linejoin:round;stroke:rgb(9.411765%,9.803922%,24.705882%);stroke-opacity:1;stroke-miterlimit:20;" d="M 16.807292 11.442708 C 19.25 9.630208 16.880208 6.666667 16.880208 6.666667 " transform="matrix(0.75,0,0,0.75,0,0)"/>
<path style="fill:none;stroke-width:3;stroke-linecap:round;stroke-linejoin:round;stroke:rgb(9.411765%,9.803922%,24.705882%);stroke-opacity:1;stroke-miterlimit:4;" d="M 20.052083 27.963542 C 18.510417 29.020833 16.901042 29.973958 15.260417 30.901042 C 13.473958 31.916667 11.708333 32.973958 10.026042 34.161458 C 8.572917 35.1875 7.046875 36.166667 5.864583 37.520833 C 4.802083 38.729167 3.734375 40.630208 5.260417 41.916667 C 5.984375 42.520833 7.026042 42.786458 7.885417 42.901042 C 9.333333 43.088542 10.796875 42.869792 12.21875 42.619792 C 14.15625 42.286458 16.057292 41.760417 17.911458 41.104167 C 20.567708 40.161458 23.109375 38.916667 25.5 37.427083 " transform="matrix(0.75,0,0,0.75,0,0)"/>
<path style="fill:none;stroke-width:3;stroke-linecap:round;stroke-linejoin:round;stroke:rgb(9.411765%,9.803922%,24.705882%);stroke-opacity:1;stroke-miterlimit:4;" d="M 37.84375 24.526042 C 39.067708 21.880208 39.5 19.453125 39.5 17.484375 C 39.5 14.375 38.848958 12.317708 37.796875 11.151042 C 37.177083 9.302083 36.859375 7.364583 36.875 5.385417 C 34.635417 4.890625 32.6875 5.458333 30.963542 6.875 C 31.625 8.083333 32.135417 9.354167 32.494792 10.666667 C 31.151042 11.463542 30.307292 12.859375 29.916667 14.427083 C 29.598958 15.703125 29.020833 18.151042 27.182292 20.973958 " transform="matrix(0.75,0,0,0.75,0,0)"/>
</g>
</svg>
