<?xml version="1.0" encoding="UTF-8"?>
<svg xmlns="http://www.w3.org/2000/svg" xmlns:xlink="http://www.w3.org/1999/xlink" width="36pt" height="36pt" viewBox="0 0 36 36" version="1.1">
<g id="surface17248">
<path style=" stroke:none;fill-rule:nonzero;fill:rgb(64.705884%,83.92157%,65.490198%);fill-opacity:1;" d="M 24.863281 35.078125 L 16.722656 35.078125 C 10.621094 35.078125 5.625 30.085938 5.625 23.980469 C 5.625 23.164062 6.289062 22.5 7.105469 22.5 L 34.480469 22.5 C 35.300781 22.5 35.960938 23.164062 35.960938 23.980469 C 35.960938 30.109375 30.992188 35.078125 24.863281 35.078125 Z M 24.863281 35.078125 "/>
<path style=" stroke:none;fill-rule:nonzero;fill:rgb(9.411765%,9.803922%,24.705882%);fill-opacity:1;" d="M 15.75 15.375 C 15.75 15.996094 15.246094 16.5 14.625 16.5 C 14.003906 16.5 13.5 15.996094 13.5 15.375 C 13.5 14.753906 14.003906 14.25 14.625 14.25 C 15.246094 14.25 15.75 14.753906 15.75 15.375 Z M 15.75 15.375 "/>
<path style=" stroke:none;fill-rule:nonzero;fill:rgb(9.411765%,9.803922%,24.705882%);fill-opacity:1;" d="M 12.75 18.375 C 12.75 18.996094 12.246094 19.5 11.625 19.5 C 11.003906 19.5 10.5 18.996094 10.5 18.375 C 10.5 17.753906 11.003906 17.25 11.625 17.25 C 12.246094 17.25 12.75 17.753906 12.75 18.375 Z M 12.75 18.375 "/>
<path style=" stroke:none;fill-rule:nonzero;fill:rgb(9.411765%,9.803922%,24.705882%);fill-opacity:1;" d="M 19.5 18.375 C 19.5 18.996094 18.996094 19.5 18.375 19.5 C 17.753906 19.5 17.25 18.996094 17.25 18.375 C 17.25 17.753906 17.753906 17.25 18.375 17.25 C 18.996094 17.25 19.5 17.753906 19.5 18.375 Z M 19.5 18.375 "/>
<path style=" stroke:none;fill-rule:nonzero;fill:rgb(9.411765%,9.803922%,24.705882%);fill-opacity:1;" d="M 24.75 16.125 C 24.75 16.746094 24.246094 17.25 23.625 17.25 C 23.003906 17.25 22.5 16.746094 22.5 16.125 C 22.5 15.503906 23.003906 15 23.625 15 C 24.246094 15 24.75 15.503906 24.75 16.125 Z M 24.75 16.125 "/>
<path style="fill:none;stroke-width:3;stroke-linecap:round;stroke-linejoin:round;stroke:rgb(9.411765%,9.803922%,24.705882%);stroke-opacity:1;stroke-miterlimit:4;" d="M 10.34375 41.072917 C 6.234375 38.390625 3.5 33.75 3.5 28.5 C 3.5 27.395833 4.395833 26.5 5.5 26.5 L 42.5 26.5 C 43.604167 26.5 44.5 27.395833 44.5 28.5 C 44.5 36.786458 37.786458 43.5 29.5 43.5 L 18.5 43.5 C 17.994792 43.5 17.5 43.473958 17.005208 43.427083 " transform="matrix(0.75,0,0,0.75,0,0)"/>
<path style="fill:none;stroke-width:3;stroke-linecap:round;stroke-linejoin:round;stroke:rgb(9.411765%,9.803922%,24.705882%);stroke-opacity:1;stroke-miterlimit:4;" d="M 21.614583 15.588542 C 21.25 15.53125 20.880208 15.5 20.5 15.5 C 18.03125 15.5 15.90625 16.744792 14.989583 18.526042 C 14.828125 18.510417 14.666667 18.5 14.5 18.5 C 8.5 18.5 7.5 22.5 7.5 25.5 " transform="matrix(0.75,0,0,0.75,0,0)"/>
<path style="fill:none;stroke-width:3;stroke-linecap:round;stroke-linejoin:round;stroke:rgb(9.411765%,9.803922%,24.705882%);stroke-opacity:1;stroke-miterlimit:4;" d="M 40.5 26.5 C 40.5 18.5 34.5 16.5 29.5 16.5 C 29.5 14.359375 27.8125 12.609375 25.692708 12.505208 " transform="matrix(0.75,0,0,0.75,0,0)"/>
<path style="fill:none;stroke-width:3;stroke-linecap:round;stroke-linejoin:round;stroke:rgb(9.411765%,9.803922%,24.705882%);stroke-opacity:1;stroke-miterlimit:4;" d="M 40.119792 15.046875 L 42.692708 12.848958 C 43.130208 12.494792 43.09375 11.817708 42.625 11.510417 L 36.171875 7.276042 C 35.703125 6.96875 35.067708 7.208333 34.916667 7.75 L 32.317708 16.114583 " transform="matrix(0.75,0,0,0.75,0,0)"/>
<path style="fill:none;stroke-width:3;stroke-linecap:round;stroke-linejoin:round;stroke:rgb(9.411765%,9.803922%,24.705882%);stroke-opacity:1;stroke-miterlimit:4;" d="M 16.015625 16.84375 L 14.671875 9.057292 L 14.203125 6.34375 C 14.088542 5.682292 13.359375 5.317708 12.760417 5.630208 L 4.520833 9.885417 C 3.921875 10.192708 3.791667 10.994792 4.270833 11.479167 L 11.369792 18.614583 " transform="matrix(0.75,0,0,0.75,0,0)"/>
</g>
</svg>
