<?xml version="1.0" encoding="UTF-8"?>
<svg xmlns="http://www.w3.org/2000/svg" xmlns:xlink="http://www.w3.org/1999/xlink" width="36pt" height="36pt" viewBox="0 0 36 36" version="1.1">
<g id="surface22333">
<path style=" stroke:none;fill-rule:nonzero;fill:rgb(100%,87.843138%,50.980395%);fill-opacity:1;" d="M 31.34375 20.90625 C 32.25 20 32.25 18.53125 31.34375 17.625 L 30.160156 16.445312 C 31.046875 16.996094 32.222656 16.890625 32.988281 16.125 C 33.882812 15.230469 33.882812 13.78125 32.988281 12.886719 L 29.113281 9.011719 C 28.21875 8.117188 26.769531 8.117188 25.875 9.011719 C 25.109375 9.777344 25.003906 10.953125 25.554688 11.835938 L 24.375 10.65625 C 23.46875 9.75 22 9.75 21.09375 10.65625 C 20.1875 11.5625 20.1875 13.03125 21.09375 13.9375 L 22.6875 15.535156 C 21.792969 14.640625 20.34375 14.640625 19.453125 15.535156 C 18.558594 16.429688 18.558594 17.878906 19.453125 18.773438 L 23.226562 22.546875 C 24.121094 23.441406 25.570312 23.441406 26.464844 22.546875 C 27.359375 21.652344 27.359375 20.203125 26.464844 19.3125 L 28.058594 20.90625 C 28.96875 21.8125 30.4375 21.8125 31.34375 20.90625 Z M 31.34375 20.90625 "/>
<path style="fill:none;stroke-width:3;stroke-linecap:round;stroke-linejoin:round;stroke:rgb(9.411765%,9.803922%,24.705882%);stroke-opacity:1;stroke-miterlimit:10;" d="M 24.239583 23.760417 L 7.119792 40.880208 " transform="matrix(0.75,0,0,0.75,0,0)"/>
<path style="fill:none;stroke-width:3;stroke-linecap:round;stroke-linejoin:round;stroke:rgb(9.411765%,9.803922%,24.705882%);stroke-opacity:1;stroke-miterlimit:10;" d="M 31.447917 21.5 L 33.541667 23.59375 C 34.729167 24.78125 36.65625 24.78125 37.84375 23.59375 C 39.03125 22.40625 39.03125 20.479167 37.84375 19.291667 L 36.296875 17.744792 C 37.453125 18.46875 38.994792 18.333333 40 17.322917 C 41.171875 16.151042 41.171875 14.255208 40 13.083333 L 34.916667 8 C 34.4375 7.515625 33.828125 7.234375 33.197917 7.145833 " transform="matrix(0.75,0,0,0.75,0,0)"/>
<path style="fill:none;stroke-width:3;stroke-linecap:round;stroke-linejoin:round;stroke:rgb(9.411765%,9.803922%,24.705882%);stroke-opacity:1;stroke-miterlimit:10;" d="M 30.255208 11.703125 L 28.708333 10.15625 C 27.520833 8.96875 25.59375 8.96875 24.40625 10.15625 C 23.21875 11.34375 23.21875 13.270833 24.40625 14.458333 L 26.5 16.552083 C 25.328125 15.380208 23.427083 15.380208 22.255208 16.552083 C 21.083333 17.723958 21.083333 19.625 22.255208 20.796875 L 27.203125 25.744792 " transform="matrix(0.75,0,0,0.75,0,0)"/>
<path style=" stroke:none;fill-rule:nonzero;fill:rgb(9.411765%,9.803922%,24.705882%);fill-opacity:1;" d="M 27.75 18.558594 L 27.75 22.929688 C 27.75 23.519531 27.269531 24 26.679688 24 L 26.570312 24 C 26.246094 24 26.011719 23.851562 25.867188 23.726562 C 25.539062 23.433594 25.066406 23.363281 24.664062 23.542969 C 24.257812 23.726562 24 24.125 24 24.570312 L 24 28.179688 C 24 28.769531 23.519531 29.25 22.929688 29.25 L 22.820312 29.25 C 22.230469 29.25 21.75 28.769531 21.75 28.179688 L 21.75 24.390625 C 21.75 23.769531 21.246094 23.265625 20.625 23.265625 C 20.003906 23.265625 19.5 23.769531 19.5 24.390625 L 19.5 28.179688 C 19.5 30.011719 20.988281 31.5 22.820312 31.5 L 22.929688 31.5 C 24.761719 31.5 26.25 30.011719 26.25 28.179688 L 26.25 26.234375 C 26.355469 26.246094 26.464844 26.25 26.570312 26.25 L 26.679688 26.25 C 28.511719 26.25 30 24.761719 30 22.929688 L 30 16.46875 C 29.78125 17.277344 28.105469 18.351562 27.75 18.558594 Z M 27.75 18.558594 "/>
</g>
</svg>
