<?xml version="1.0" encoding="UTF-8"?>
<svg xmlns="http://www.w3.org/2000/svg" xmlns:xlink="http://www.w3.org/1999/xlink" width="36pt" height="36pt" viewBox="0 0 36 36" version="1.1">
<g id="surface16616">
<path style=" stroke:none;fill-rule:nonzero;fill:rgb(100%,87.843138%,50.980395%);fill-opacity:1;" d="M 30.675781 15.75 L 29.398438 15.75 C 29.398438 15.675781 29.398438 15.601562 29.398438 15.601562 C 29.398438 13.273438 27.824219 11.398438 25.726562 10.875 C 25.199219 8.699219 23.25 7.125 21 7.125 C 18.75 7.125 16.800781 8.699219 16.273438 10.800781 C 14.175781 11.324219 12.601562 13.273438 12.601562 15.523438 C 12.601562 15.601562 12.601562 15.675781 12.601562 15.675781 L 11.324219 15.675781 C 10.875 15.675781 10.5 16.050781 10.5 16.5 L 10.5 20.023438 C 10.5 20.476562 10.875 20.851562 11.324219 20.851562 L 12.75 20.851562 L 20.25 34.875 C 20.625 35.476562 21.601562 35.476562 21.898438 34.875 L 28.949219 20.925781 L 30.675781 20.925781 C 31.125 20.925781 31.5 20.550781 31.5 20.101562 L 31.5 16.574219 C 31.5 16.125 31.125 15.75 30.675781 15.75 Z M 30.675781 15.75 "/>
<path style="fill:none;stroke-width:3;stroke-linecap:round;stroke-linejoin:round;stroke:rgb(9.411765%,9.803922%,24.705882%);stroke-opacity:1;stroke-miterlimit:10;" d="M 19.697917 5.098958 C 20.802083 4.098958 22.302083 3.5 24 3.5 C 27 3.5 29.5 5.5 30.302083 8.197917 " transform="matrix(0.75,0,0,0.75,0,0)"/>
<path style="fill:none;stroke-width:3;stroke-linecap:round;stroke-linejoin:round;stroke:rgb(9.411765%,9.803922%,24.705882%);stroke-opacity:1;stroke-miterlimit:10;" d="M 12.802083 15.802083 C 12.802083 12.197917 15.697917 9.302083 19.302083 9.302083 C 21.098958 9.302083 22.697917 10 23.901042 11.197917 " transform="matrix(0.75,0,0,0.75,0,0)"/>
<path style="fill:none;stroke-width:3;stroke-linecap:round;stroke-linejoin:round;stroke:rgb(9.411765%,9.803922%,24.705882%);stroke-opacity:1;stroke-miterlimit:10;" d="M 23.197917 12.197917 C 24.401042 10.401042 26.401042 9.197917 28.697917 9.197917 C 32.302083 9.197917 35.197917 12.098958 35.197917 15.697917 C 35.197917 15.802083 35.197917 16 35.197917 16.098958 " transform="matrix(0.75,0,0,0.75,0,0)"/>
<path style="fill:none;stroke-width:3;stroke-linecap:round;stroke-linejoin:round;stroke:rgb(9.411765%,9.803922%,24.705882%);stroke-opacity:1;stroke-miterlimit:10;" d="M 30.901042 31.197917 L 34.401042 24.197917 " transform="matrix(0.75,0,0,0.75,0,0)"/>
<path style="fill:none;stroke-width:3;stroke-linecap:round;stroke-linejoin:round;stroke:rgb(9.411765%,9.803922%,24.705882%);stroke-opacity:1;stroke-miterlimit:10;" d="M 13.098958 24.197917 L 23 42.5 C 23.5 43.302083 24.802083 43.302083 25.197917 42.5 L 28.901042 35.197917 " transform="matrix(0.75,0,0,0.75,0,0)"/>
<path style="fill:none;stroke-width:3;stroke-linecap:round;stroke-linejoin:round;stroke:rgb(9.411765%,9.803922%,24.705882%);stroke-opacity:1;stroke-miterlimit:10;" d="M 15 23.5 L 12.5 23.5 C 11.401042 23.5 10.5 22.598958 10.5 21.5 L 10.5 19.401042 C 10.5 18.302083 11.401042 17.401042 12.5 17.401042 L 35.5 17.401042 C 36.598958 17.401042 37.5 18.302083 37.5 19.401042 L 37.5 21.5 C 37.5 22.598958 36.598958 23.5 35.5 23.5 L 21 23.5 " transform="matrix(0.75,0,0,0.75,0,0)"/>
</g>
</svg>
