<?xml version="1.0" encoding="UTF-8"?>
<svg xmlns="http://www.w3.org/2000/svg" xmlns:xlink="http://www.w3.org/1999/xlink" width="36pt" height="36pt" viewBox="0 0 36 36" version="1.1">
<g id="surface16742">
<path style=" stroke:none;fill-rule:nonzero;fill:rgb(95.686275%,56.078434%,69.411767%);fill-opacity:1;" d="M 31.683594 16.753906 L 30.140625 13.859375 C 30.734375 13.453125 31.125 12.773438 31.125 12 C 31.125 10.757812 30.117188 9.75 28.875 9.75 L 13.125 9.75 C 11.882812 9.75 10.875 10.757812 10.875 12 C 10.875 12.773438 11.265625 13.453125 11.859375 13.859375 L 10.3125 16.753906 C 9.957031 17.421875 10.660156 18.160156 11.347656 17.835938 C 11.554688 17.734375 11.761719 17.632812 12 17.550781 L 12 29.421875 C 12 31.398438 13.601562 33 15.578125 33 L 26.417969 33 C 28.398438 33 30 31.398438 30 29.421875 L 30 17.546875 C 30.238281 17.632812 30.445312 17.734375 30.652344 17.835938 C 31.335938 18.160156 32.042969 17.421875 31.683594 16.753906 Z M 31.683594 16.753906 "/>
<path style="fill:none;stroke-width:3;stroke-linecap:round;stroke-linejoin:round;stroke:rgb(9.411765%,9.803922%,24.705882%);stroke-opacity:1;stroke-miterlimit:10;" d="M 33.859375 7.5 L 34.5 7.5 C 36.15625 7.5 37.5 8.84375 37.5 10.5 C 37.5 12.15625 36.15625 13.5 34.5 13.5 L 13.5 13.5 C 11.84375 13.5 10.5 12.15625 10.5 10.5 C 10.5 8.84375 11.84375 7.5 13.5 7.5 L 28.822917 7.5 " transform="matrix(0.75,0,0,0.75,0,0)"/>
<path style="fill:none;stroke-width:3;stroke-linecap:round;stroke-linejoin:round;stroke:rgb(9.411765%,9.803922%,24.705882%);stroke-opacity:1;stroke-miterlimit:10;" d="M 36.5 19.661458 L 36.5 35.5 C 36.5 38.260417 34.260417 40.5 31.5 40.5 L 16.5 40.5 C 13.739583 40.5 11.5 38.260417 11.5 35.5 L 11.5 26.135417 " transform="matrix(0.75,0,0,0.75,0,0)"/>
<path style="fill:none;stroke-width:3;stroke-linecap:round;stroke-linejoin:round;stroke:rgb(9.411765%,9.803922%,24.705882%);stroke-opacity:1;stroke-miterlimit:10;" d="M 18.661458 20.140625 C 15.984375 20.140625 15.984375 18.859375 13.307292 18.859375 C 11.895833 18.859375 11.229167 19.21875 10.515625 19.557292 C 9.5625 20.010417 8.578125 18.979167 9.078125 18.046875 L 11.5 13.5 " transform="matrix(0.75,0,0,0.75,0,0)"/>
<path style="fill:none;stroke-width:3;stroke-linecap:round;stroke-linejoin:round;stroke:rgb(9.411765%,9.803922%,24.705882%);stroke-opacity:1;stroke-miterlimit:10;" d="M 36.5 13.5 L 38.921875 18.041667 C 39.421875 18.979167 38.4375 20.010417 37.479167 19.552083 C 36.776042 19.213542 36.109375 18.859375 34.697917 18.859375 C 32.026042 18.859375 32.026042 20.140625 29.354167 20.140625 C 26.682292 20.140625 26.682292 18.859375 24.010417 18.859375 " transform="matrix(0.75,0,0,0.75,0,0)"/>
</g>
</svg>
