<?xml version="1.0" encoding="UTF-8"?>
<svg xmlns="http://www.w3.org/2000/svg" xmlns:xlink="http://www.w3.org/1999/xlink" width="36pt" height="36pt" viewBox="0 0 36 36" version="1.1">
<g id="surface22889">
<path style=" stroke:none;fill-rule:nonzero;fill:rgb(100%,67.058825%,56.862748%);fill-opacity:1;" d="M 27.875 20.078125 C 26.8125 18.84375 24.75 17.652344 24.75 14.46875 L 24.75 10.449219 C 25.152344 10.40625 25.46875 10.105469 25.46875 9.730469 L 25.46875 6.796875 C 25.46875 6.390625 25.105469 6.0625 24.65625 6.0625 L 17.34375 6.0625 C 16.894531 6.0625 16.53125 6.390625 16.53125 6.796875 L 16.53125 9.730469 C 16.53125 10.105469 16.847656 10.402344 17.25 10.449219 L 17.25 14.46875 C 17.25 17.066406 15.0625 18.648438 14.0625 20.078125 C 13.6875 20.535156 13.5 21.117188 13.5 21.703125 L 13.5 32.003906 C 13.5 33.820312 14.875 35.25 16.625 35.25 L 25.375 35.25 C 27.125 35.25 28.5 33.820312 28.5 32.003906 L 28.5 21.765625 C 28.5 21.117188 28.25 20.535156 27.875 20.078125 Z M 27.875 20.078125 "/>
<path style="fill:none;stroke-width:3;stroke-linecap:round;stroke-linejoin:round;stroke:rgb(9.411765%,9.803922%,24.705882%);stroke-opacity:1;stroke-miterlimit:4;" d="M 25 4.5 L 28.5 4.5 C 29.052083 4.5 29.5 4.947917 29.5 5.5 L 29.5 9.5 C 29.5 10.052083 29.052083 10.5 28.5 10.5 L 19.5 10.5 C 18.947917 10.5 18.5 10.052083 18.5 9.5 L 18.5 5.5 C 18.5 4.947917 18.947917 4.5 19.5 4.5 L 20.192708 4.5 " transform="matrix(0.75,0,0,0.75,0,0)"/>
<path style="fill:none;stroke-width:3;stroke-linecap:round;stroke-linejoin:round;stroke:rgb(9.411765%,9.803922%,24.705882%);stroke-opacity:1;stroke-miterlimit:4;" d="M 33.458333 27.5 L 33.458333 24.994792 C 33.458333 24.145833 33.114583 23.385417 32.604167 22.791667 C 31.15625 21.182292 28.338542 19.619792 28.338542 15.46875 L 28.338542 10.734375 " transform="matrix(0.75,0,0,0.75,0,0)"/>
<path style="fill:none;stroke-width:3;stroke-linecap:round;stroke-linejoin:round;stroke:rgb(9.411765%,9.803922%,24.705882%);stroke-opacity:1;stroke-miterlimit:4;" d="M 15.84375 21.989583 C 15.598958 22.260417 15.375 22.526042 15.1875 22.791667 C 14.671875 23.385417 14.416667 24.145833 14.416667 24.90625 L 14.416667 38.348958 C 14.416667 40.71875 16.291667 42.583333 18.682292 42.583333 L 29.192708 42.583333 C 31.583333 42.583333 33.458333 40.71875 33.458333 38.348958 L 33.458333 34.666667 " transform="matrix(0.75,0,0,0.75,0,0)"/>
<path style="fill:none;stroke-width:3;stroke-linecap:round;stroke-linejoin:round;stroke:rgb(9.411765%,9.803922%,24.705882%);stroke-opacity:1;stroke-miterlimit:4;" d="M 19.536458 10.734375 L 19.536458 15.46875 C 19.536458 16.739583 19.114583 17.822917 18.520833 18.78125 " transform="matrix(0.75,0,0,0.75,0,0)"/>
<path style="fill:none;stroke-width:3;stroke-linecap:butt;stroke-linejoin:round;stroke:rgb(9.411765%,9.803922%,24.705882%);stroke-opacity:1;stroke-miterlimit:4;" d="M 28.5 37.5 L 19.5 37.5 L 19.5 30.5 C 21.15625 30.5 22.5 29.15625 22.5 27.5 L 25.5 27.5 C 25.5 29.15625 26.84375 30.5 28.5 30.5 Z M 28.5 37.5 " transform="matrix(0.75,0,0,0.75,0,0)"/>
</g>
</svg>
