<?xml version="1.0" encoding="UTF-8"?>
<svg xmlns="http://www.w3.org/2000/svg" xmlns:xlink="http://www.w3.org/1999/xlink" width="36pt" height="36pt" viewBox="0 0 36 36" version="1.1">
<g id="surface27700">
<path style=" stroke:none;fill-rule:nonzero;fill:rgb(64.705884%,83.92157%,65.490198%);fill-opacity:1;" d="M 31.128906 10.871094 C 35.464844 15.207031 34.441406 23.253906 28.847656 28.847656 C 23.253906 34.445312 15.207031 35.464844 10.871094 31.128906 C 6.535156 26.796875 7.558594 18.746094 13.152344 13.152344 C 18.746094 7.558594 26.792969 6.535156 31.128906 10.871094 Z M 31.128906 10.871094 "/>
<path style="fill:none;stroke-width:3;stroke-linecap:round;stroke-linejoin:round;stroke:rgb(9.411765%,9.803922%,24.705882%);stroke-opacity:1;stroke-miterlimit:4;" d="M 13.098958 39.5 C 12.197917 39 11.302083 38.302083 10.5 37.5 C 4.697917 31.697917 6 21 13.5 13.5 C 17.802083 9.197917 23.197917 6.901042 28.098958 6.901042 " transform="matrix(0.75,0,0,0.75,0,0)"/>
<path style="fill:none;stroke-width:3;stroke-linecap:round;stroke-linejoin:round;stroke:rgb(9.411765%,9.803922%,24.705882%);stroke-opacity:1;stroke-miterlimit:4;" d="M 37.5 10.5 C 43.302083 16.302083 42 27 34.5 34.5 C 29.697917 39.302083 23.598958 41.5 18.302083 41 " transform="matrix(0.75,0,0,0.75,0,0)"/>
<path style=" stroke:none;fill-rule:nonzero;fill:rgb(9.411765%,9.803922%,24.705882%);fill-opacity:1;" d="M 18.75 11.625 C 18.75 12.226562 18 14.25 17.625 14.25 C 17.25 14.25 16.5 12.226562 16.5 11.625 C 16.5 11.023438 17.023438 10.5 17.625 10.5 C 18.226562 10.5 18.75 11.023438 18.75 11.625 Z M 18.75 11.625 "/>
<path style=" stroke:none;fill-rule:nonzero;fill:rgb(9.411765%,9.803922%,24.705882%);fill-opacity:1;" d="M 25.351562 17.023438 C 24.75 17.175781 22.648438 16.875 22.574219 16.5 C 22.5 16.125 24.300781 15 24.898438 14.851562 C 25.5 14.699219 26.101562 15.074219 26.25 15.675781 C 26.324219 16.351562 25.949219 16.949219 25.351562 17.023438 Z M 25.351562 17.023438 "/>
<path style=" stroke:none;fill-rule:nonzero;fill:rgb(9.411765%,9.803922%,24.705882%);fill-opacity:1;" d="M 23.476562 12.226562 C 23.175781 12.75 21.601562 14.175781 21.226562 14.023438 C 20.925781 13.875 21.148438 11.699219 21.449219 11.175781 C 21.75 10.648438 22.425781 10.425781 22.949219 10.726562 C 23.550781 11.023438 23.773438 11.699219 23.476562 12.226562 Z M 23.476562 12.226562 "/>
<path style=" stroke:none;fill-rule:nonzero;fill:rgb(9.411765%,9.803922%,24.705882%);fill-opacity:1;" d="M 10.875 17.25 C 11.476562 17.25 13.5 18.074219 13.5 18.449219 C 13.5 18.824219 11.476562 19.5 10.875 19.5 C 10.273438 19.5 9.75 18.976562 9.75 18.300781 C 9.75 17.699219 10.273438 17.25 10.875 17.25 Z M 10.875 17.25 "/>
<path style=" stroke:none;fill-rule:nonzero;fill:rgb(9.411765%,9.803922%,24.705882%);fill-opacity:1;" d="M 14.175781 13.273438 C 14.625 13.726562 15.523438 15.675781 15.226562 15.898438 C 14.925781 16.125 12.976562 15.300781 12.601562 14.851562 C 12.226562 14.398438 12.148438 13.726562 12.601562 13.273438 C 13.050781 12.824219 13.726562 12.824219 14.175781 13.273438 Z M 14.175781 13.273438 "/>
<path style=" stroke:none;fill-rule:nonzero;fill:rgb(9.411765%,9.803922%,24.705882%);fill-opacity:1;" d="M 17.25 24.601562 C 17.25 24 16.5 21.976562 16.125 21.976562 C 15.75 21.976562 15 24 15 24.601562 C 15 25.199219 15.523438 25.726562 16.125 25.726562 C 16.726562 25.726562 17.25 25.273438 17.25 24.601562 Z M 17.25 24.601562 "/>
<path style=" stroke:none;fill-rule:nonzero;fill:rgb(9.411765%,9.803922%,24.705882%);fill-opacity:1;" d="M 21.976562 23.25 C 21.675781 22.726562 20.101562 21.300781 19.726562 21.449219 C 19.425781 21.601562 19.648438 23.773438 19.949219 24.300781 C 20.25 24.824219 20.925781 25.050781 21.449219 24.75 C 22.050781 24.449219 22.273438 23.773438 21.976562 23.25 Z M 21.976562 23.25 "/>
<path style=" stroke:none;fill-rule:nonzero;fill:rgb(9.411765%,9.803922%,24.705882%);fill-opacity:1;" d="M 24.300781 18.976562 C 23.699219 18.976562 21.75 19.875 21.75 20.25 C 21.75 20.625 23.851562 21.226562 24.449219 21.226562 C 25.050781 21.226562 25.574219 20.625 25.5 20.023438 C 25.425781 19.425781 24.898438 18.898438 24.300781 18.976562 Z M 24.300781 18.976562 "/>
<path style=" stroke:none;fill-rule:nonzero;fill:rgb(9.411765%,9.803922%,24.705882%);fill-opacity:1;" d="M 12.675781 23.699219 C 13.125 23.25 14.023438 21.300781 13.726562 21.074219 C 13.425781 20.851562 11.550781 21.675781 11.101562 22.125 C 10.648438 22.574219 10.648438 23.25 11.101562 23.699219 C 11.476562 24.148438 12.226562 24.148438 12.675781 23.699219 Z M 12.675781 23.699219 "/>
</g>
</svg>
