<?xml version="1.0" encoding="UTF-8"?>
<svg xmlns="http://www.w3.org/2000/svg" xmlns:xlink="http://www.w3.org/1999/xlink" width="36pt" height="36pt" viewBox="0 0 36 36" version="1.1">
<g id="surface25680">
<path style=" stroke:none;fill-rule:nonzero;fill:rgb(64.705884%,83.92157%,65.490198%);fill-opacity:1;" d="M 34.070312 17.96875 C 32.789062 16.78125 31.484375 15.992188 30.191406 15.519531 L 32.902344 12.808594 C 33.335938 12.378906 33.335938 11.675781 32.902344 11.242188 L 30.757812 9.097656 C 30.324219 8.664062 29.625 8.664062 29.191406 9.097656 L 26.480469 11.808594 C 26.007812 10.515625 25.21875 9.210938 24.03125 7.929688 C 23.460938 7.316406 22.484375 7.320312 21.890625 7.914062 L 20.570312 9.234375 C 20.046875 9.757812 19.976562 10.59375 20.429688 11.183594 C 22.789062 14.277344 21.550781 17.058594 20.589844 18.019531 C 20.589844 18.019531 20.589844 18.019531 20.589844 18.023438 L 8.667969 28.382812 C 7.136719 29.71875 7.058594 32.070312 8.496094 33.503906 C 9.929688 34.9375 12.28125 34.859375 13.617188 33.332031 L 23.976562 21.410156 C 23.976562 21.410156 23.976562 21.410156 23.980469 21.410156 C 24.941406 20.449219 27.722656 19.210938 30.816406 21.570312 C 31.40625 22.023438 32.242188 21.953125 32.765625 21.429688 L 34.085938 20.109375 C 34.679688 19.515625 34.683594 18.539062 34.070312 17.96875 Z M 34.070312 17.96875 "/>
<path style="fill:none;stroke-width:3;stroke-linecap:round;stroke-linejoin:round;stroke:rgb(9.411765%,9.803922%,24.705882%);stroke-opacity:1;stroke-miterlimit:10;" d="M 31.505208 11.546875 L 34.921875 8.130208 C 35.494792 7.552083 36.432292 7.552083 37.010417 8.130208 L 39.869792 10.989583 C 40.447917 11.567708 40.447917 12.5 39.869792 13.078125 L 36.369792 16.578125 " transform="matrix(0.75,0,0,0.75,0,0)"/>
<path style="fill:none;stroke-width:3;stroke-linecap:round;stroke-linejoin:round;stroke:rgb(9.411765%,9.803922%,24.705882%);stroke-opacity:1;stroke-miterlimit:10;" d="M 32.239583 15.984375 C 35.213542 15.942708 38.375 17.130208 41.427083 19.958333 C 42.244792 20.71875 42.239583 22.020833 41.447917 22.8125 L 39.6875 24.572917 C 38.989583 25.270833 37.875 25.364583 37.088542 24.760417 C 35.322917 23.416667 33.630208 22.947917 32.171875 22.953125 " transform="matrix(0.75,0,0,0.75,0,0)"/>
<path style="fill:none;stroke-width:3;stroke-linecap:round;stroke-linejoin:round;stroke:rgb(9.411765%,9.803922%,24.705882%);stroke-opacity:1;stroke-miterlimit:10;" d="M 23.885417 29.244792 L 14.15625 40.442708 C 12.375 42.479167 9.239583 42.583333 7.328125 40.671875 C 5.416667 38.760417 5.520833 35.625 7.557292 33.84375 L 10.348958 31.416667 " transform="matrix(0.75,0,0,0.75,0,0)"/>
<path style="fill:none;stroke-width:3;stroke-linecap:round;stroke-linejoin:round;stroke:rgb(9.411765%,9.803922%,24.705882%);stroke-opacity:1;stroke-miterlimit:10;" d="M 15.723958 26.744792 L 23.453125 20.026042 L 27.973958 24.546875 " transform="matrix(0.75,0,0,0.75,0,0)"/>
<path style="fill:none;stroke-width:3;stroke-linecap:round;stroke-linejoin:round;stroke:rgb(9.411765%,9.803922%,24.705882%);stroke-opacity:1;stroke-miterlimit:10;" d="M 31.505208 18.911458 C 32.697917 15.083333 31.890625 10.729167 28.041667 6.572917 C 27.28125 5.755208 25.979167 5.760417 25.1875 6.552083 L 23.427083 8.3125 C 22.729167 9.010417 22.635417 10.125 23.239583 10.911458 C 26.385417 15.036458 24.734375 18.744792 23.453125 20.03125 C 23.453125 20.03125 27.848958 24.453125 27.973958 24.546875 " transform="matrix(0.75,0,0,0.75,0,0)"/>
</g>
</svg>
