<?xml version="1.0" encoding="UTF-8"?>
<svg xmlns="http://www.w3.org/2000/svg" xmlns:xlink="http://www.w3.org/1999/xlink" width="36pt" height="36pt" viewBox="0 0 36 36" version="1.1">
<g id="surface18318">
<path style=" stroke:none;fill-rule:nonzero;fill:rgb(100%,87.843138%,50.980395%);fill-opacity:1;" d="M 13.625 16.453125 C 13.183594 16.453125 12.839844 16.832031 12.878906 17.273438 L 14.285156 32.441406 C 14.386719 33.605469 15.359375 34.5 16.527344 34.5 L 25.472656 34.5 C 26.640625 34.5 27.613281 33.605469 27.714844 32.441406 L 29.121094 17.273438 C 29.160156 16.832031 28.816406 16.453125 28.375 16.453125 Z M 13.625 16.453125 "/>
<path style="fill:none;stroke-width:3;stroke-linecap:round;stroke-linejoin:round;stroke:rgb(9.411765%,9.803922%,24.705882%);stroke-opacity:1;stroke-miterlimit:4;" d="M 34.119792 26.5 L 32.953125 38.755208 C 32.817708 40.307292 31.520833 41.5 29.963542 41.5 L 18.036458 41.5 C 16.479167 41.5 15.182292 40.307292 15.046875 38.755208 L 14.458333 32.552083 " transform="matrix(0.75,0,0,0.75,0,0)"/>
<path style="fill:none;stroke-width:3;stroke-linecap:round;stroke-linejoin:round;stroke:rgb(9.411765%,9.803922%,24.705882%);stroke-opacity:1;stroke-miterlimit:4;" d="M 13.822917 25.911458 L 12.46875 11.671875 C 12.369792 10.505208 13.291667 9.5 14.463542 9.5 L 33.536458 9.5 C 34.708333 9.5 35.630208 10.505208 35.53125 11.671875 L 34.838542 18.9375 " transform="matrix(0.75,0,0,0.75,0,0)"/>
<path style="fill:none;stroke-width:3;stroke-linecap:round;stroke-linejoin:round;stroke:rgb(9.411765%,9.803922%,24.705882%);stroke-opacity:1;stroke-miterlimit:4;" d="M 13.28125 18.5 L 27.5 18.5 " transform="matrix(0.75,0,0,0.75,0,0)"/>
<path style="fill:none;stroke-width:3;stroke-linecap:round;stroke-linejoin:round;stroke:rgb(9.411765%,9.803922%,24.705882%);stroke-opacity:1;stroke-miterlimit:4;" d="M 12.088542 15.671875 C 8.447917 15.671875 5.5 12.723958 5.5 9.088542 C 5.5 5.447917 8.447917 2.5 12.088542 2.5 C 15.348958 2.5 18.0625 4.875 18.583333 7.989583 " transform="matrix(0.75,0,0,0.75,0,0)"/>
<path style=" stroke:none;fill-rule:nonzero;fill:rgb(9.411765%,9.803922%,24.705882%);fill-opacity:1;" d="M 17.25 19.875 C 17.25 20.496094 16.746094 21 16.125 21 C 15.503906 21 15 20.496094 15 19.875 C 15 19.253906 15.503906 18.75 16.125 18.75 C 16.746094 18.75 17.25 19.253906 17.25 19.875 Z M 17.25 19.875 "/>
<path style=" stroke:none;fill-rule:nonzero;fill:rgb(9.411765%,9.803922%,24.705882%);fill-opacity:1;" d="M 21.75 22.125 C 21.75 22.746094 21.246094 23.25 20.625 23.25 C 20.003906 23.25 19.5 22.746094 19.5 22.125 C 19.5 21.503906 20.003906 21 20.625 21 C 21.246094 21 21.75 21.503906 21.75 22.125 Z M 21.75 22.125 "/>
<path style=" stroke:none;fill-rule:nonzero;fill:rgb(9.411765%,9.803922%,24.705882%);fill-opacity:1;" d="M 18.75 25.875 C 18.75 26.496094 18.246094 27 17.625 27 C 17.003906 27 16.5 26.496094 16.5 25.875 C 16.5 25.253906 17.003906 24.75 17.625 24.75 C 18.246094 24.75 18.75 25.253906 18.75 25.875 Z M 18.75 25.875 "/>
</g>
</svg>
