<?xml version="1.0" encoding="UTF-8"?>
<svg xmlns="http://www.w3.org/2000/svg" xmlns:xlink="http://www.w3.org/1999/xlink" width="36pt" height="36pt" viewBox="0 0 36 36" version="1.1">
<g id="surface27624">
<path style=" stroke:none;fill-rule:nonzero;fill:rgb(64.705884%,83.92157%,65.490198%);fill-opacity:1;" d="M 33.976562 20.625 C 33.976562 19.726562 33.601562 18.898438 32.925781 18.300781 C 33.148438 17.925781 33.226562 17.476562 33.226562 16.949219 C 33.226562 15.300781 31.949219 13.949219 30.300781 13.875 C 30.226562 12.523438 29.324219 11.398438 28.050781 11.023438 C 27.75 9.675781 26.550781 8.699219 25.125 8.699219 C 24.601562 8.699219 24.074219 8.851562 23.625 9.074219 C 23.175781 8.101562 22.125 7.425781 21 7.425781 C 19.875 7.425781 18.898438 8.101562 18.375 9 C 18 8.773438 17.550781 8.699219 17.023438 8.699219 C 15.675781 8.699219 14.476562 9.601562 14.101562 10.875 C 14.023438 10.875 14.023438 10.875 13.949219 10.875 C 12.300781 10.875 10.949219 12.148438 10.875 13.800781 C 9.226562 13.875 7.949219 15.226562 7.949219 16.875 C 7.949219 17.324219 8.101562 17.773438 8.25 18.226562 C 7.574219 18.824219 7.199219 19.648438 7.199219 20.550781 C 7.199219 22.273438 8.550781 23.625 10.273438 23.625 C 13.199219 23.550781 15.675781 25.726562 15.976562 28.648438 L 16.425781 32.625 C 16.648438 34.5 18.226562 35.851562 20.101562 35.851562 L 20.851562 35.851562 C 22.726562 35.851562 24.300781 34.425781 24.523438 32.625 L 24.976562 28.648438 C 25.351562 25.726562 27.824219 23.625 30.675781 23.625 C 32.625 23.699219 33.976562 22.351562 33.976562 20.625 Z M 33.976562 20.625 "/>
<path style="fill:none;stroke-width:3;stroke-linecap:round;stroke-linejoin:round;stroke:rgb(9.411765%,9.803922%,24.705882%);stroke-opacity:1;stroke-miterlimit:4;" d="M 33.697917 10.401042 C 33.697917 8.098958 31.901042 6.302083 29.598958 6.302083 C 28.901042 6.302083 28.197917 6.5 27.598958 6.802083 C 27 5.401042 25.598958 4.5 24 4.5 C 22.401042 4.5 21.098958 5.401042 20.401042 6.697917 C 19.802083 6.401042 19.197917 6.302083 18.598958 6.302083 C 18.302083 6.302083 18.098958 6.302083 17.802083 6.401042 " transform="matrix(0.75,0,0,0.75,0,0)"/>
<path style="fill:none;stroke-width:3;stroke-linecap:round;stroke-linejoin:round;stroke:rgb(9.411765%,9.803922%,24.705882%);stroke-opacity:1;stroke-miterlimit:4;" d="M 20 15.401042 C 19.098958 13.197917 17.302083 10.302083 14.5 10.302083 C 12.197917 10.302083 10.401042 12.098958 10.302083 14.302083 C 8.098958 14.401042 6.302083 16.302083 6.302083 18.5 C 6.302083 19.197917 6.5 19.802083 6.697917 20.302083 C 5.802083 21.098958 5.302083 22.197917 5.302083 23.5 C 5.302083 25.802083 7.197917 27.697917 9.5 27.697917 C 9.5 27.697917 9.5 27.697917 9.598958 27.697917 C 13.598958 27.598958 17 30.598958 17.401042 34.5 L 18 40 C 18.302083 42.5 20.5 44.5 23 44.5 L 23.5 44.5 " transform="matrix(0.75,0,0,0.75,0,0)"/>
<path style="fill:none;stroke-width:3;stroke-linecap:round;stroke-linejoin:round;stroke:rgb(9.411765%,9.803922%,24.705882%);stroke-opacity:1;stroke-miterlimit:4;" d="M 31.802083 30.098958 C 30.697917 31.302083 29.901042 32.802083 29.697917 34.598958 L 29 40 C 28.697917 42.5 26.5 44.5 24 44.5 L 23.5 44.5 " transform="matrix(0.75,0,0,0.75,0,0)"/>
<path style="fill:none;stroke-width:3;stroke-linecap:round;stroke-linejoin:round;stroke:rgb(9.411765%,9.803922%,24.705882%);stroke-opacity:1;stroke-miterlimit:4;" d="M 23.5 31.901042 C 23.5 30.901042 23.5 30.302083 23.5 30.302083 C 23.5 28 23.697917 25.598958 24.197917 23.401042 C 25 19.697917 26.401042 15.302083 28.802083 12.302083 C 29.697917 11.197917 30.901042 10.302083 32.401042 10.302083 C 34.697917 10.302083 36.5 12.098958 36.598958 14.302083 C 38.802083 14.401042 40.598958 16.302083 40.598958 18.5 C 40.598958 19.197917 40.401042 19.802083 40.197917 20.302083 C 41.098958 21.098958 41.598958 22.197917 41.598958 23.5 C 41.598958 25.802083 39.697917 27.697917 37.401042 27.697917 " transform="matrix(0.75,0,0,0.75,0,0)"/>
</g>
</svg>
