<svg xmlns="http://www.w3.org/2000/svg"  viewBox="0 0 48 48" width="48px" height="48px"><path fill="#a5d6a7" d="M45.291,29.067h-4.732c0.708-3.797,0.038-7.74-2.07-10.993l0.225-0.225c1.167-1.166,1.154-3.07-0.028-4.252	c-1.182-1.181-3.086-1.193-4.252-0.028l-0.225,0.225c-5.927-3.841-14.147-2.971-19.596,2.478s-6.318,13.669-2.477,19.597	l-0.225,0.225c-1.167,1.166-1.154,3.07,0.028,4.252s3.085,1.194,4.252,0.028l0.225-0.225c2.398,1.554,5.172,2.336,7.987,2.357	l0.001-0.001c2.468,2.045,5.635,3.276,9.09,3.276c7.873,0,14.256-6.383,14.256-14.256v-0.006	C47.747,30.165,46.645,29.067,45.291,29.067z"/><path fill="none" stroke="#18193f" stroke-linecap="round" stroke-linejoin="round" stroke-width="3" d="M9.565,9.794c5.923-5.31,14.422-6.02,20.619-2.004l0.245-0.245c1.27-1.27,3.345-1.257,4.633,0.03	c1.288,1.288,1.302,3.362,0.03,4.633l-0.245,0.245c0.911,1.406,1.579,2.931,2.005,4.518"/><path fill="none" stroke="#18193f" stroke-linecap="round" stroke-linejoin="round" stroke-width="3" d="M19.498,39.076c-3.067-0.022-6.09-0.875-8.703-2.568l-0.245,0.245c-1.271,1.27-3.345,1.257-4.633-0.031	s-1.302-3.362-0.03-4.633l0.245-0.245c-2.655-4.097-3.244-9.199-1.805-13.899"/><path fill="none" stroke="#18193f" stroke-linecap="round" stroke-linejoin="round" stroke-miterlimit="10" stroke-width="3" d="M37.64,40.195c4.084-2.565,6.798-7.109,6.798-12.288c0-0.002,0-0.004,0-0.006	c-0.003-1.377-1.124-2.494-2.502-2.494H29.938"/><path fill="none" stroke="#18193f" stroke-linecap="round" stroke-linejoin="round" stroke-miterlimit="10" stroke-width="3" d="M21.522,25.407H17.94c-1.377,0-2.499,1.117-2.502,2.494c0,0.002,0,0.004,0,0.006c0,8.008,6.492,14.5,14.5,14.5"/><line x1="29.938" x2="29.938" y1="26.554" y2="37.511" fill="none" stroke="#18193f" stroke-linecap="round" stroke-linejoin="round" stroke-miterlimit="10" stroke-width="3"/><line x1="29.938" x2="21.743" y1="25.407" y2="32.514" fill="none" stroke="#18193f" stroke-linecap="round" stroke-linejoin="round" stroke-miterlimit="10" stroke-width="3"/><line x1="29.938" x2="38.171" y1="26.021" y2="32.801" fill="none" stroke="#18193f" stroke-linecap="round" stroke-linejoin="round" stroke-miterlimit="10" stroke-width="3"/></svg>