<?xml version="1.0" encoding="UTF-8"?>
<svg xmlns="http://www.w3.org/2000/svg" xmlns:xlink="http://www.w3.org/1999/xlink" width="36pt" height="36pt" viewBox="0 0 36 36" version="1.1">
<g id="surface20632">
<path style=" stroke:none;fill-rule:nonzero;fill:rgb(64.705884%,83.92157%,65.490198%);fill-opacity:1;" d="M 33.96875 21.800781 L 30.417969 21.800781 C 30.949219 18.953125 30.449219 15.996094 28.867188 13.554688 L 29.035156 13.386719 C 29.910156 12.511719 29.902344 11.085938 29.015625 10.199219 C 28.128906 9.3125 26.699219 9.304688 25.824219 10.175781 L 25.65625 10.34375 C 21.210938 7.464844 15.046875 8.117188 10.960938 12.203125 C 6.871094 16.289062 6.222656 22.457031 9.101562 26.902344 L 8.933594 27.070312 C 8.058594 27.945312 8.066406 29.371094 8.953125 30.257812 C 9.839844 31.144531 11.269531 31.15625 12.144531 30.28125 L 12.3125 30.113281 C 14.109375 31.277344 16.191406 31.863281 18.300781 31.878906 L 18.304688 31.878906 C 20.152344 33.414062 22.527344 34.335938 25.121094 34.335938 C 31.023438 34.335938 35.8125 29.546875 35.8125 23.644531 L 35.8125 23.640625 C 35.808594 22.625 34.984375 21.800781 33.96875 21.800781 Z M 33.96875 21.800781 "/>
<path style="fill:none;stroke-width:3;stroke-linecap:round;stroke-linejoin:round;stroke:rgb(9.411765%,9.803922%,24.705882%);stroke-opacity:1;stroke-miterlimit:4;" d="M 9.5625 9.791667 C 15.489583 4.484375 23.989583 3.776042 30.182292 7.791667 L 30.427083 7.546875 C 31.697917 6.276042 33.776042 6.286458 35.0625 7.572917 C 36.348958 8.864583 36.364583 10.9375 35.09375 12.208333 L 34.848958 12.453125 C 35.760417 13.859375 36.427083 15.385417 36.854167 16.96875 " transform="matrix(0.75,0,0,0.75,0,0)"/>
<path style="fill:none;stroke-width:3;stroke-linecap:round;stroke-linejoin:round;stroke:rgb(9.411765%,9.803922%,24.705882%);stroke-opacity:1;stroke-miterlimit:4;" d="M 19.5 39.078125 C 16.432292 39.052083 13.40625 38.203125 10.796875 36.510417 L 10.552083 36.755208 C 9.28125 38.020833 7.203125 38.010417 5.916667 36.723958 C 4.630208 35.432292 4.614583 33.359375 5.885417 32.088542 L 6.130208 31.84375 C 3.479167 27.744792 2.885417 22.645833 4.328125 17.942708 " transform="matrix(0.75,0,0,0.75,0,0)"/>
<path style="fill:none;stroke-width:3;stroke-linecap:round;stroke-linejoin:round;stroke:rgb(9.411765%,9.803922%,24.705882%);stroke-opacity:1;stroke-miterlimit:10;" d="M 37.640625 40.192708 C 41.723958 37.630208 44.4375 33.088542 44.4375 27.90625 C 44.4375 27.90625 44.4375 27.901042 44.4375 27.901042 C 44.4375 26.526042 43.3125 25.40625 41.9375 25.40625 L 29.9375 25.40625 " transform="matrix(0.75,0,0,0.75,0,0)"/>
<path style="fill:none;stroke-width:3;stroke-linecap:round;stroke-linejoin:round;stroke:rgb(9.411765%,9.803922%,24.705882%);stroke-opacity:1;stroke-miterlimit:10;" d="M 21.520833 25.40625 L 17.9375 25.40625 C 16.5625 25.40625 15.442708 26.526042 15.4375 27.901042 C 15.4375 27.901042 15.4375 27.90625 15.4375 27.90625 C 15.4375 35.916667 21.932292 42.40625 29.9375 42.40625 " transform="matrix(0.75,0,0,0.75,0,0)"/>
<path style="fill:none;stroke-width:3;stroke-linecap:round;stroke-linejoin:round;stroke:rgb(9.411765%,9.803922%,24.705882%);stroke-opacity:1;stroke-miterlimit:10;" d="M 29.9375 26.552083 L 29.9375 37.510417 " transform="matrix(0.75,0,0,0.75,0,0)"/>
<path style="fill:none;stroke-width:3;stroke-linecap:round;stroke-linejoin:round;stroke:rgb(9.411765%,9.803922%,24.705882%);stroke-opacity:1;stroke-miterlimit:10;" d="M 29.9375 25.40625 L 21.744792 32.515625 " transform="matrix(0.75,0,0,0.75,0,0)"/>
<path style="fill:none;stroke-width:3;stroke-linecap:round;stroke-linejoin:round;stroke:rgb(9.411765%,9.803922%,24.705882%);stroke-opacity:1;stroke-miterlimit:10;" d="M 29.9375 26.020833 L 38.171875 32.802083 " transform="matrix(0.75,0,0,0.75,0,0)"/>
</g>
</svg>
