<?xml version="1.0" encoding="UTF-8"?>
<svg xmlns="http://www.w3.org/2000/svg" xmlns:xlink="http://www.w3.org/1999/xlink" width="36pt" height="36pt" viewBox="0 0 36 36" version="1.1">
<g id="surface20560">
<path style=" stroke:none;fill-rule:nonzero;fill:rgb(100%,67.058825%,56.862748%);fill-opacity:1;" d="M 31.625 21 C 27.078125 21 14.921875 21 10.375 21 C 9.378906 21 8.617188 21.886719 8.773438 22.867188 C 9.507812 27.515625 12.949219 31.425781 17.832031 32.617188 C 18.703125 32.832031 19.417969 33.386719 20.023438 34.042969 C 20.285156 34.328125 20.625 34.5 21 34.5 C 21.375 34.5 21.714844 34.328125 21.976562 34.042969 C 22.582031 33.386719 23.300781 32.832031 24.167969 32.617188 C 29.050781 31.425781 32.492188 27.515625 33.226562 22.867188 C 33.382812 21.886719 32.621094 21 31.625 21 Z M 31.625 21 "/>
<path style="fill:none;stroke-width:3;stroke-linecap:round;stroke-linejoin:round;stroke:rgb(9.411765%,9.803922%,24.705882%);stroke-opacity:1;stroke-miterlimit:10;" d="M 30.213542 8.125 C 34.541667 10.5625 37.5 15.510417 37.5 21.5 L 37.5 23.5 " transform="matrix(0.75,0,0,0.75,0,0)"/>
<path style="fill:none;stroke-width:3;stroke-linecap:round;stroke-linejoin:round;stroke:rgb(9.411765%,9.803922%,24.705882%);stroke-opacity:1;stroke-miterlimit:10;" d="M 10.5 23.5 L 10.5 21.5 C 10.5 12.9375 16.541667 6.5 24 6.5 " transform="matrix(0.75,0,0,0.75,0,0)"/>
<path style="fill:none;stroke-width:3;stroke-linecap:round;stroke-linejoin:round;stroke:rgb(9.411765%,9.803922%,24.705882%);stroke-opacity:1;stroke-miterlimit:10;" d="M 36.765625 33.729167 C 38.614583 31.536458 39.848958 28.869792 40.307292 25.989583 C 40.510417 24.682292 39.489583 23.5 38.166667 23.5 L 18.958333 23.5 " transform="matrix(0.75,0,0,0.75,0,0)"/>
<path style="fill:none;stroke-width:3;stroke-linecap:round;stroke-linejoin:round;stroke:rgb(9.411765%,9.803922%,24.705882%);stroke-opacity:1;stroke-miterlimit:10;" d="M 14 23.5 L 9.838542 23.5 C 8.510417 23.5 7.489583 24.682292 7.697917 25.989583 C 8.677083 32.1875 13.265625 37.401042 19.776042 38.989583 C 20.9375 39.276042 21.890625 40.015625 22.697917 40.890625 C 23.046875 41.270833 23.5 41.5 24 41.5 C 24.5 41.5 24.953125 41.270833 25.302083 40.890625 C 26.109375 40.015625 27.067708 39.276042 28.223958 38.989583 C 29.760417 38.614583 31.197917 38.036458 32.5 37.286458 " transform="matrix(0.75,0,0,0.75,0,0)"/>
<path style=" stroke:none;fill-rule:nonzero;fill:rgb(9.411765%,9.803922%,24.705882%);fill-opacity:1;" d="M 6 21.375 C 6 21.996094 5.496094 22.5 4.875 22.5 C 4.253906 22.5 3.75 21.996094 3.75 21.375 C 3.75 20.753906 4.253906 20.25 4.875 20.25 C 5.496094 20.25 6 20.753906 6 21.375 Z M 6 21.375 "/>
<path style=" stroke:none;fill-rule:nonzero;fill:rgb(9.411765%,9.803922%,24.705882%);fill-opacity:1;" d="M 8.25 25.125 C 8.25 25.746094 7.746094 26.25 7.125 26.25 C 6.503906 26.25 6 25.746094 6 25.125 C 6 24.503906 6.503906 24 7.125 24 C 7.746094 24 8.25 24.503906 8.25 25.125 Z M 8.25 25.125 "/>
<path style=" stroke:none;fill-rule:nonzero;fill:rgb(9.411765%,9.803922%,24.705882%);fill-opacity:1;" d="M 12.75 28.875 C 12.75 29.496094 12.246094 30 11.625 30 C 11.003906 30 10.5 29.496094 10.5 28.875 C 10.5 28.253906 11.003906 27.75 11.625 27.75 C 12.246094 27.75 12.75 28.253906 12.75 28.875 Z M 12.75 28.875 "/>
<path style=" stroke:none;fill-rule:nonzero;fill:rgb(9.411765%,9.803922%,24.705882%);fill-opacity:1;" d="M 25.5 28.875 C 25.5 29.496094 24.996094 30 24.375 30 C 23.753906 30 23.25 29.496094 23.25 28.875 C 23.25 28.253906 23.753906 27.75 24.375 27.75 C 24.996094 27.75 25.5 28.253906 25.5 28.875 Z M 25.5 28.875 "/>
<path style=" stroke:none;fill-rule:nonzero;fill:rgb(9.411765%,9.803922%,24.705882%);fill-opacity:1;" d="M 30 25.125 C 30 25.746094 29.496094 26.25 28.875 26.25 C 28.253906 26.25 27.75 25.746094 27.75 25.125 C 27.75 24.503906 28.253906 24 28.875 24 C 29.496094 24 30 24.503906 30 25.125 Z M 30 25.125 "/>
<path style=" stroke:none;fill-rule:nonzero;fill:rgb(9.411765%,9.803922%,24.705882%);fill-opacity:1;" d="M 32.25 21.375 C 32.25 21.996094 31.746094 22.5 31.125 22.5 C 30.503906 22.5 30 21.996094 30 21.375 C 30 20.753906 30.503906 20.25 31.125 20.25 C 31.746094 20.25 32.25 20.753906 32.25 21.375 Z M 32.25 21.375 "/>
</g>
</svg>
