<?xml version="1.0" encoding="UTF-8"?>
<svg xmlns="http://www.w3.org/2000/svg" xmlns:xlink="http://www.w3.org/1999/xlink" width="36pt" height="36pt" viewBox="0 0 36 36" version="1.1">
<g id="surface21174">
<path style=" stroke:none;fill-rule:nonzero;fill:rgb(100%,87.843138%,50.980395%);fill-opacity:1;" d="M 28.953125 14.589844 C 28.898438 14.394531 28.84375 14.195312 28.769531 14.003906 C 27.472656 10.335938 23.773438 7.800781 19.558594 8.316406 C 15.609375 8.800781 12.445312 12.0625 12.066406 16.027344 C 11.898438 17.765625 12.253906 19.402344 12.984375 20.816406 C 13.511719 21.835938 13.980469 22.882812 14.230469 24.003906 C 14.484375 25.121094 14.636719 26.261719 14.695312 27.40625 C 14.71875 27.875 14.730469 28.34375 14.722656 28.808594 C 14.6875 31.449219 16.847656 33.726562 19.636719 33.75 C 19.65625 33.75 19.671875 33.75 19.691406 33.75 C 25.25 33.75 29.753906 27.558594 29.753906 19.925781 C 29.757812 18.027344 29.457031 16.234375 28.953125 14.589844 Z M 28.953125 14.589844 "/>
<path style="fill:none;stroke-width:3;stroke-linecap:round;stroke-linejoin:round;stroke:rgb(9.411765%,9.803922%,24.705882%);stroke-opacity:1;stroke-miterlimit:10;" d="M 14.875 29.145833 C 15.104167 30.364583 15.244792 31.598958 15.3125 32.838542 C 15.34375 33.479167 15.359375 34.125 15.348958 34.770833 C 15.296875 38.40625 18.28125 41.552083 22.125 41.583333 C 22.151042 41.583333 22.177083 41.583333 22.203125 41.583333 C 29.869792 41.583333 36.083333 33.046875 36.083333 22.515625 C 36.083333 20.927083 35.932292 19.395833 35.65625 17.927083 " transform="matrix(0.75,0,0,0.75,0,0)"/>
<path style="fill:none;stroke-width:3;stroke-linecap:round;stroke-linejoin:round;stroke:rgb(9.411765%,9.803922%,24.705882%);stroke-opacity:1;stroke-miterlimit:10;" d="M 33.453125 11.791667 C 31.083333 8.171875 26.786458 5.921875 22.015625 6.505208 C 16.567708 7.171875 12.208333 11.671875 11.682292 17.140625 C 11.494792 19.078125 11.78125 20.927083 12.432292 22.598958 " transform="matrix(0.75,0,0,0.75,0,0)"/>
<path style="fill:none;stroke-width:3;stroke-linecap:round;stroke-linejoin:round;stroke:rgb(9.411765%,9.803922%,24.705882%);stroke-opacity:1;stroke-miterlimit:10;" d="M 24.5 5.026042 C 25.260417 3.598958 26.411458 2.411458 27.8125 1.614583 " transform="matrix(0.75,0,0,0.75,0,0)"/>
</g>
</svg>
