<?xml version="1.0" encoding="UTF-8"?>
<svg xmlns="http://www.w3.org/2000/svg" xmlns:xlink="http://www.w3.org/1999/xlink" width="36pt" height="36pt" viewBox="0 0 36 36" version="1.1">
<g id="surface22812">
<path style=" stroke:none;fill-rule:nonzero;fill:rgb(100%,67.058825%,56.862748%);fill-opacity:1;" d="M 28.5625 19.355469 C 27.617188 17.71875 26.179688 16.417969 24.449219 15.632812 C 24.996094 14.980469 25.285156 14.152344 25.261719 13.304688 C 25.261719 11.992188 24.316406 10.476562 23.296875 9.539062 L 23.296875 6.667969 C 23.296875 5.824219 22.613281 5.136719 21.765625 5.136719 L 20.234375 5.136719 C 19.390625 5.136719 18.703125 5.824219 18.703125 6.667969 L 18.703125 9.539062 C 17.546875 10.515625 16.738281 11.859375 16.738281 13.304688 C 16.714844 14.152344 17.003906 14.976562 17.550781 15.632812 C 15.820312 16.417969 14.382812 17.71875 13.441406 19.355469 C 12.402344 21.144531 12.027344 23.230469 12.375 25.265625 L 14.226562 34.734375 C 14.351562 35.464844 14.992188 35.996094 15.738281 36 L 21.332031 36 L 21.332031 35.996094 L 26.265625 35.996094 C 27.011719 35.996094 27.648438 35.460938 27.773438 34.734375 L 29.625 25.265625 C 29.972656 23.234375 29.597656 21.144531 28.5625 19.355469 Z M 28.5625 19.355469 "/>
<path style="fill:none;stroke-width:3;stroke-linecap:round;stroke-linejoin:round;stroke:rgb(9.411765%,9.803922%,24.705882%);stroke-opacity:1;stroke-miterlimit:10;" d="M 34.651042 32.713542 L 35.265625 29.5625 C 35.723958 26.90625 35.234375 24.177083 33.875 21.838542 C 32.645833 19.703125 30.765625 18.005208 28.505208 16.973958 C 29.21875 16.125 29.598958 15.041667 29.567708 13.932292 C 29.567708 12.21875 28.46875 10.671875 27.135417 9.447917 " transform="matrix(0.75,0,0,0.75,0,0)"/>
<path style="fill:none;stroke-width:3;stroke-linecap:round;stroke-linejoin:round;stroke:rgb(9.411765%,9.803922%,24.705882%);stroke-opacity:1;stroke-miterlimit:10;" d="M 23.567708 43.583333 L 30.875 43.583333 C 31.854167 43.578125 32.682292 42.885417 32.848958 41.932292 L 33.34375 39.401042 " transform="matrix(0.75,0,0,0.75,0,0)"/>
<path style="fill:none;stroke-width:3;stroke-linecap:round;stroke-linejoin:round;stroke:rgb(9.411765%,9.803922%,24.705882%);stroke-opacity:1;stroke-miterlimit:10;" d="M 14.125 21.84375 C 12.765625 24.177083 12.276042 26.90625 12.734375 29.5625 L 15.151042 41.932292 C 15.317708 42.885417 16.145833 43.583333 17.125 43.583333 L 24.432292 43.583333 " transform="matrix(0.75,0,0,0.75,0,0)"/>
<path style="fill:none;stroke-width:3;stroke-linecap:round;stroke-linejoin:round;stroke:rgb(9.411765%,9.803922%,24.705882%);stroke-opacity:1;stroke-miterlimit:10;" d="M 21.270833 9.088542 C 19.760417 10.364583 18.432292 12.046875 18.432292 13.9375 C 18.401042 15.041667 18.78125 16.125 19.494792 16.979167 " transform="matrix(0.75,0,0,0.75,0,0)"/>
<path style="fill:none;stroke-width:3;stroke-linecap:butt;stroke-linejoin:miter;stroke:rgb(9.411765%,9.803922%,24.705882%);stroke-opacity:1;stroke-miterlimit:10;" d="M 23 3.265625 L 25 3.265625 C 26.104167 3.265625 27 4.161458 27 5.265625 L 27 9.015625 L 21 9.015625 L 21 5.265625 C 21 4.161458 21.895833 3.265625 23 3.265625 Z M 23 3.265625 " transform="matrix(0.75,0,0,0.75,0,0)"/>
<path style="fill:none;stroke-width:3;stroke-linecap:round;stroke-linejoin:round;stroke:rgb(9.411765%,9.803922%,24.705882%);stroke-opacity:1;stroke-miterlimit:10;" d="M 32.5 19.5 C 34.708333 19.5 36.5 17.708333 36.5 15.5 C 36.5 13.291667 34.708333 11.5 32.5 11.5 C 31.416667 11.5 30.4375 11.932292 29.713542 12.630208 " transform="matrix(0.75,0,0,0.75,0,0)"/>
<path style=" stroke:none;fill-rule:nonzero;fill:rgb(9.411765%,9.803922%,24.705882%);fill-opacity:1;" d="M 13.707031 24.726562 C 13.519531 24.726562 13.546875 24.632812 13.554688 24.582031 C 13.589844 24.429688 13.839844 24.070312 13.839844 24.070312 C 13.933594 23.898438 13.882812 23.6875 13.722656 23.578125 L 12.699219 22.882812 C 12.429688 22.699219 12.507812 22.285156 12.820312 22.207031 L 13.605469 22.015625 C 13.820312 21.964844 13.941406 21.738281 13.871094 21.53125 L 13.695312 21.027344 C 13.597656 20.742188 13.859375 20.464844 14.148438 20.542969 L 15.785156 20.988281 C 16.046875 21.058594 16.296875 20.835938 16.253906 20.570312 C 16.253906 20.570312 15.929688 18.828125 15.859375 18.066406 C 15.851562 17.984375 15.871094 17.824219 16.003906 17.773438 C 16.171875 17.703125 16.703125 17.945312 16.703125 17.945312 C 16.867188 17.988281 17.035156 17.914062 17.117188 17.773438 L 17.675781 16.8125 C 17.820312 16.566406 18.179688 16.566406 18.324219 16.8125 L 18.882812 17.773438 C 18.96875 17.914062 19.136719 17.988281 19.296875 17.945312 C 19.296875 17.945312 19.777344 17.800781 19.941406 17.785156 C 20.125 17.765625 20.191406 17.761719 20.152344 18 C 20.054688 18.59375 19.746094 20.566406 19.746094 20.566406 C 19.703125 20.835938 19.953125 21.058594 20.214844 20.988281 L 21.851562 20.542969 C 22.140625 20.464844 22.402344 20.742188 22.304688 21.027344 L 22.128906 21.527344 C 22.058594 21.738281 22.179688 21.964844 22.398438 22.015625 L 23.179688 22.207031 C 23.496094 22.28125 23.570312 22.695312 23.300781 22.878906 L 22.210938 23.621094 C 22.082031 23.710938 22.019531 23.871094 22.058594 24.023438 C 22.058594 24.023438 22.132812 24.273438 22.144531 24.359375 C 22.175781 24.554688 22.097656 24.6875 21.90625 24.71875 C 21.574219 24.769531 14.265625 24.726562 13.707031 24.726562 Z M 13.707031 24.726562 "/>
<path style="fill:none;stroke-width:3;stroke-linecap:round;stroke-linejoin:round;stroke:rgb(9.411765%,9.803922%,24.705882%);stroke-opacity:1;stroke-miterlimit:4;" d="M 24.270833 32.916667 C 24.270833 33.796875 24.244792 35.083333 23.072917 35.703125 " transform="matrix(0.75,0,0,0.75,0,0)"/>
</g>
</svg>
