<?xml version="1.0" encoding="UTF-8"?>
<svg xmlns="http://www.w3.org/2000/svg" xmlns:xlink="http://www.w3.org/1999/xlink" width="36pt" height="36pt" viewBox="0 0 36 36" version="1.1">
<g id="surface22744">
<path style=" stroke:none;fill-rule:nonzero;fill:rgb(100%,87.843138%,50.980395%);fill-opacity:1;" d="M 29.25 14.910156 L 29.25 12.75 L 30.046875 12.75 C 30.851562 12.75 31.5 12.101562 31.5 11.296875 L 31.5 8.953125 C 31.5 8.148438 30.851562 7.5 30.046875 7.5 L 11.953125 7.5 C 11.148438 7.5 10.5 8.148438 10.5 8.953125 L 10.5 11.296875 C 10.5 12.101562 11.148438 12.75 11.953125 12.75 L 12.75 12.75 L 12.75 14.910156 C 11.082031 14.976562 9.75 16.292969 9.75 17.917969 L 9.75 30.722656 C 9.75 32.394531 11.105469 33.75 12.777344 33.75 L 29.21875 33.75 C 30.894531 33.75 32.25 32.394531 32.25 30.722656 L 32.25 17.917969 C 32.25 16.292969 30.917969 14.976562 29.25 14.910156 Z M 29.25 14.910156 "/>
<path style="fill:none;stroke-width:3;stroke-linecap:round;stroke-linejoin:round;stroke:rgb(9.411765%,9.803922%,24.705882%);stroke-opacity:1;stroke-miterlimit:10;" d="M 22.78125 12.5 L 11.5 12.5 C 10.395833 12.5 9.5 11.604167 9.5 10.5 L 9.5 7.5 C 9.5 6.395833 10.395833 5.5 11.5 5.5 L 13.197917 5.5 " transform="matrix(0.75,0,0,0.75,0,0)"/>
<path style="fill:none;stroke-width:3;stroke-linecap:round;stroke-linejoin:round;stroke:rgb(9.411765%,9.803922%,24.705882%);stroke-opacity:1;stroke-miterlimit:10;" d="M 19.260417 5.5 L 36.5 5.5 C 37.604167 5.5 38.5 6.395833 38.5 7.5 L 38.5 10.5 C 38.5 11.604167 37.604167 12.5 36.5 12.5 L 30.28125 12.5 " transform="matrix(0.75,0,0,0.75,0,0)"/>
<path style="fill:none;stroke-width:3;stroke-linecap:round;stroke-linejoin:round;stroke:rgb(9.411765%,9.803922%,24.705882%);stroke-opacity:1;stroke-miterlimit:10;" d="M 15.5 25.5 L 32.5 25.5 C 33.052083 25.5 33.5 25.947917 33.5 26.5 L 33.5 30.5 C 33.5 31.052083 33.052083 31.5 32.5 31.5 L 15.5 31.5 C 14.947917 31.5 14.5 31.052083 14.5 30.5 L 14.5 26.5 C 14.5 25.947917 14.947917 25.5 15.5 25.5 Z M 15.5 25.5 " transform="matrix(0.75,0,0,0.75,0,0)"/>
<path style="fill:none;stroke-width:3;stroke-linecap:round;stroke-linejoin:round;stroke:rgb(9.411765%,9.803922%,24.705882%);stroke-opacity:1;stroke-miterlimit:10;" d="M 39.5 31.21875 L 39.5 20.671875 C 39.5 18.427083 37.723958 16.609375 35.5 16.515625 L 35.5 12.5 L 30.28125 12.5 " transform="matrix(0.75,0,0,0.75,0,0)"/>
<path style="fill:none;stroke-width:3;stroke-linecap:round;stroke-linejoin:round;stroke:rgb(9.411765%,9.803922%,24.705882%);stroke-opacity:1;stroke-miterlimit:10;" d="M 8.5 30.828125 L 8.5 37.328125 C 8.5 39.630208 10.369792 41.5 12.671875 41.5 L 35.328125 41.5 C 37.630208 41.5 39.5 39.630208 39.5 37.328125 " transform="matrix(0.75,0,0,0.75,0,0)"/>
<path style="fill:none;stroke-width:3;stroke-linecap:round;stroke-linejoin:round;stroke:rgb(9.411765%,9.803922%,24.705882%);stroke-opacity:1;stroke-miterlimit:10;" d="M 24.739583 12.5 L 12.5 12.5 L 12.5 16.515625 C 10.276042 16.609375 8.5 18.427083 8.5 20.671875 L 8.5 23.260417 " transform="matrix(0.75,0,0,0.75,0,0)"/>
</g>
</svg>
