<?xml version="1.0" encoding="UTF-8"?>
<svg xmlns="http://www.w3.org/2000/svg" xmlns:xlink="http://www.w3.org/1999/xlink" width="36pt" height="36pt" viewBox="0 0 36 36" version="1.1">
<g id="surface31921">
<path style=" stroke:none;fill-rule:nonzero;fill:rgb(100%,67.058825%,56.862748%);fill-opacity:1;" d="M 34.460938 34.5 L 17.246094 34.5 C 16.121094 34.5 15.375 33.328125 15.855469 32.308594 L 22.878906 17.382812 C 23.132812 16.84375 23.675781 16.5 24.269531 16.5 L 34.460938 16.5 C 35.3125 16.5 36 17.1875 36 18.039062 L 36 32.960938 C 36 33.8125 35.3125 34.5 34.460938 34.5 Z M 34.460938 34.5 "/>
<path style="fill:none;stroke-width:3;stroke-linecap:round;stroke-linejoin:round;stroke:rgb(9.411765%,9.803922%,24.705882%);stroke-opacity:1;stroke-miterlimit:10;" d="M 5.5 21.375 L 8.5 21.375 C 9.052083 21.375 9.5 21.822917 9.5 22.375 L 9.5 31.625 C 9.5 32.177083 9.052083 32.625 8.5 32.625 L 5.5 32.625 C 4.947917 32.625 4.5 32.177083 4.5 31.625 L 4.5 22.375 C 4.5 21.822917 4.947917 21.375 5.5 21.375 Z M 5.5 21.375 " transform="matrix(0.75,0,0,0.75,0,0)"/>
<path style="fill:none;stroke-width:3;stroke-linecap:round;stroke-linejoin:round;stroke:rgb(9.411765%,9.803922%,24.705882%);stroke-opacity:1;stroke-miterlimit:10;" d="M 24.5 23.5 L 9.5 23.5 L 9.5 30.5 L 21.359375 30.5 " transform="matrix(0.75,0,0,0.75,0,0)"/>
<path style="fill:none;stroke-width:3;stroke-linecap:round;stroke-linejoin:round;stroke:rgb(9.411765%,9.803922%,24.705882%);stroke-opacity:1;stroke-miterlimit:10;" d="M 21.598958 30.536458 L 26.723958 19.645833 C 27.052083 18.947917 27.760417 18.5 28.536458 18.5 L 41.5 18.5 C 42.604167 18.5 43.5 19.395833 43.5 20.5 L 43.5 21.979167 " transform="matrix(0.75,0,0,0.75,0,0)"/>
<path style="fill:none;stroke-width:3;stroke-linecap:round;stroke-linejoin:round;stroke:rgb(9.411765%,9.803922%,24.705882%);stroke-opacity:1;stroke-miterlimit:10;" d="M 43.5 27.260417 L 43.5 39.5 C 43.5 40.604167 42.604167 41.5 41.5 41.5 L 19.59375 41.5 C 18.125 41.5 17.161458 39.973958 17.78125 38.645833 L 18.90625 36.260417 " transform="matrix(0.75,0,0,0.75,0,0)"/>
<path style="fill:none;stroke-width:3;stroke-linecap:round;stroke-linejoin:round;stroke:rgb(9.411765%,9.803922%,24.705882%);stroke-opacity:1;stroke-miterlimit:10;" d="M 14.5 12.5625 L 20.5 12.5625 L 20.5 23.5 L 14.5 23.5 Z M 14.5 12.5625 " transform="matrix(0.75,0,0,0.75,0,0)"/>
<path style="fill:none;stroke-width:3;stroke-linecap:round;stroke-linejoin:round;stroke:rgb(9.411765%,9.803922%,24.705882%);stroke-opacity:1;stroke-miterlimit:10;" d="M 10.828125 6.5 L 7.5 6.5 C 7.5 9.78125 10.005208 12.4375 13.098958 12.4375 L 21.901042 12.4375 C 24.989583 12.4375 27.5 9.78125 27.5 6.5 L 15.473958 6.5 " transform="matrix(0.75,0,0,0.75,0,0)"/>
<path style="fill:none;stroke-width:3;stroke-linecap:round;stroke-linejoin:round;stroke:rgb(9.411765%,9.803922%,24.705882%);stroke-opacity:1;stroke-miterlimit:10;" d="M 38.375 26.96875 C 38.375 28.864583 36.838542 30.40625 34.9375 30.40625 C 33.041667 30.40625 31.5 28.864583 31.5 26.96875 C 31.5 25.067708 33.041667 23.53125 34.9375 23.53125 C 36.838542 23.53125 38.375 25.067708 38.375 26.96875 Z M 38.375 26.96875 " transform="matrix(0.75,0,0,0.75,0,0)"/>
</g>
</svg>
