<?xml version="1.0" encoding="UTF-8"?>
<svg xmlns="http://www.w3.org/2000/svg" xmlns:xlink="http://www.w3.org/1999/xlink" width="36pt" height="36pt" viewBox="0 0 36 36" version="1.1">
<g id="surface31849">
<path style=" stroke:none;fill-rule:nonzero;fill:rgb(54.901963%,90.588236%,94.901961%);fill-opacity:1;" d="M 7.5 27.832031 L 7.5 14.167969 C 7.5 12.140625 9.140625 10.5 11.167969 10.5 L 30.839844 10.5 C 32.863281 10.5 34.507812 12.140625 34.507812 14.167969 L 34.507812 27.839844 C 34.507812 29.863281 32.863281 31.507812 30.839844 31.507812 L 11.167969 31.507812 C 9.140625 31.5 7.5 29.859375 7.5 27.832031 Z M 7.5 27.832031 "/>
<path style=" stroke:none;fill-rule:nonzero;fill:rgb(9.411765%,9.803922%,24.705882%);fill-opacity:1;" d="M 28.5 11.625 C 28.5 12.246094 27.996094 12.75 27.375 12.75 C 26.753906 12.75 26.25 12.246094 26.25 11.625 C 26.25 11.003906 26.753906 10.5 27.375 10.5 C 27.996094 10.5 28.5 11.003906 28.5 11.625 Z M 28.5 11.625 "/>
<path style=" stroke:none;fill-rule:nonzero;fill:rgb(9.411765%,9.803922%,24.705882%);fill-opacity:1;" d="M 28.5 15.375 C 28.5 15.996094 27.996094 16.5 27.375 16.5 C 26.753906 16.5 26.25 15.996094 26.25 15.375 C 26.25 14.753906 26.753906 14.25 27.375 14.25 C 27.996094 14.25 28.5 14.753906 28.5 15.375 Z M 28.5 15.375 "/>
<path style="fill:none;stroke-width:3;stroke-linecap:round;stroke-linejoin:round;stroke:rgb(9.411765%,9.803922%,24.705882%);stroke-opacity:1;stroke-miterlimit:10;" d="M 33.671875 9.5 L 37.5 9.5 C 40.260417 9.5 42.5 11.739583 42.5 14.5 L 42.5 33.5 C 42.5 36.260417 40.260417 38.5 37.5 38.5 L 17.96875 38.5 " transform="matrix(0.75,0,0,0.75,0,0)"/>
<path style="fill:none;stroke-width:3;stroke-linecap:round;stroke-linejoin:round;stroke:rgb(9.411765%,9.803922%,24.705882%);stroke-opacity:1;stroke-miterlimit:10;" d="M 11.5 38.5 L 10.5 38.5 C 7.739583 38.5 5.5 36.260417 5.5 33.5 L 5.5 14.5 C 5.5 11.739583 7.739583 9.5 10.5 9.5 L 26.578125 9.5 " transform="matrix(0.75,0,0,0.75,0,0)"/>
<path style="fill:none;stroke-width:3;stroke-linecap:round;stroke-linejoin:round;stroke:rgb(9.411765%,9.803922%,24.705882%);stroke-opacity:1;stroke-miterlimit:10;" d="M 36.5 29.5 L 36.5 32.5 " transform="matrix(0.75,0,0,0.75,0,0)"/>
<path style="fill:none;stroke-width:3;stroke-linecap:round;stroke-linejoin:round;stroke:rgb(9.411765%,9.803922%,24.705882%);stroke-opacity:1;stroke-miterlimit:10;" d="M 12.5 15.5 L 29.5 15.5 C 30.052083 15.5 30.5 15.947917 30.5 16.5 L 30.5 31.5 C 30.5 32.052083 30.052083 32.5 29.5 32.5 L 12.5 32.5 C 11.947917 32.5 11.5 32.052083 11.5 31.5 L 11.5 16.5 C 11.5 15.947917 11.947917 15.5 12.5 15.5 Z M 12.5 15.5 " transform="matrix(0.75,0,0,0.75,0,0)"/>
<path style="fill:none;stroke-width:3;stroke-linecap:round;stroke-linejoin:round;stroke:rgb(9.411765%,9.803922%,24.705882%);stroke-opacity:1;stroke-miterlimit:10;" d="M 11.5 38.5 L 11.5 40.5 " transform="matrix(0.75,0,0,0.75,0,0)"/>
<path style="fill:none;stroke-width:3;stroke-linecap:round;stroke-linejoin:round;stroke:rgb(9.411765%,9.803922%,24.705882%);stroke-opacity:1;stroke-miterlimit:10;" d="M 36.5 38.5 L 36.5 40.5 " transform="matrix(0.75,0,0,0.75,0,0)"/>
<path style="fill:none;stroke-width:3;stroke-linecap:round;stroke-linejoin:miter;stroke:rgb(9.411765%,9.803922%,24.705882%);stroke-opacity:1;stroke-miterlimit:10;" d="M 25.5 21.5 C 25.5 21.5 23.489583 20.5 22.5 20.5 C 21.510417 20.5 20.489583 21.5 19.5 21.5 C 18.510417 21.5 16.5 20.5 16.5 20.5 " transform="matrix(0.75,0,0,0.75,0,0)"/>
<path style="fill:none;stroke-width:3;stroke-linecap:round;stroke-linejoin:miter;stroke:rgb(9.411765%,9.803922%,24.705882%);stroke-opacity:1;stroke-miterlimit:10;" d="M 25.5 27.5 C 25.5 27.5 23.489583 26.5 22.5 26.5 C 21.510417 26.5 20.489583 27.5 19.5 27.5 C 18.510417 27.5 16.5 26.5 16.5 26.5 " transform="matrix(0.75,0,0,0.75,0,0)"/>
</g>
</svg>
