<svg xmlns="http://www.w3.org/2000/svg"  viewBox="0 0 48 48" width="48px" height="48px"><path fill="#90caf9" d="M41.593,19.925L37,12.713V8.923c0-1.046-0.848-1.895-1.895-1.895H20.895C19.848,7.029,19,7.877,19,8.923v3.789	l-4.593,7.213C14.139,20.461,14,21.053,14,21.653v24.192c0,1.067,0.864,1.931,1.931,1.931h24.138c1.067,0,1.931-0.864,1.931-1.931	V21.653C42,21.053,41.86,20.462,41.593,19.925z"/><path fill="none" stroke="#18193f" stroke-linecap="round" stroke-linejoin="round" stroke-miterlimit="10" stroke-width="3" d="M32.5,8.5l-4.578,7.155c-0.278,0.555-0.422,1.168-0.422,1.789v19.773"/><path fill="none" stroke="#18193f" stroke-linecap="round" stroke-linejoin="round" stroke-miterlimit="10" stroke-width="3" d="M38.5,32.13V17.444c0-0.621-0.145-1.233-0.422-1.789L33.5,8.5"/><path fill="none" stroke="#18193f" stroke-linecap="round" stroke-linejoin="round" stroke-miterlimit="10" stroke-width="3" d="M9.5,27.435V42.5c0,1.105,0.895,2,2,2h25c1.105,0,2-0.895,2-2v-1.565"/><path fill="none" stroke="#18193f" stroke-linecap="round" stroke-linejoin="round" stroke-miterlimit="10" stroke-width="3" d="M14.5,8.5l-4.578,7.155C9.644,16.21,9.5,16.823,9.5,17.444v2.882"/><path fill="none" stroke="#18193f" stroke-linecap="round" stroke-linejoin="round" stroke-miterlimit="10" stroke-width="3" d="M17.783,2.5H16.5c-1.105,0-2,0.895-2,2v4h19v-4c0-1.105-0.895-2-2-2H17.783"/><line x1="9.613" x2="26.617" y1="16.5" y2="16.5" fill="none" stroke="#18193f" stroke-linecap="round" stroke-linejoin="round" stroke-miterlimit="10" stroke-width="3"/></svg>