<?xml version="1.0" encoding="UTF-8"?>
<svg xmlns="http://www.w3.org/2000/svg" xmlns:xlink="http://www.w3.org/1999/xlink" width="36pt" height="36pt" viewBox="0 0 36 36" version="1.1">
<g id="surface18383">
<path style=" stroke:none;fill-rule:nonzero;fill:rgb(54.901963%,90.588236%,94.901961%);fill-opacity:1;" d="M 25.351562 36 L 16.648438 36 C 14.925781 36 13.5 34.574219 13.5 32.851562 L 13.5 19.949219 C 13.5 17.023438 15.074219 14.398438 15.898438 11.550781 C 16.5 9.148438 17.023438 4.5 17.023438 4.5 L 24.898438 4.5 C 24.898438 4.5 25.425781 9.148438 26.101562 11.550781 C 26.851562 14.398438 28.5 16.949219 28.5 19.949219 L 28.5 32.851562 C 28.5 34.574219 27.074219 36 25.351562 36 Z M 25.351562 36 "/>
<path style=" stroke:none;fill-rule:nonzero;fill:rgb(54.901963%,90.588236%,94.901961%);fill-opacity:1;" d="M 25.425781 9 L 16.574219 9 C 15.75 9 15 8.324219 15 7.425781 L 15 6.074219 C 15 5.175781 15.75 4.5 16.574219 4.5 L 25.425781 4.5 C 26.25 4.5 27 5.175781 27 6.074219 L 27 7.5 C 27 8.324219 26.25 9 25.425781 9 Z M 25.425781 9 "/>
<path style="fill:none;stroke-width:3;stroke-linecap:round;stroke-linejoin:round;stroke:rgb(9.411765%,9.803922%,24.705882%);stroke-opacity:1;stroke-miterlimit:10;" d="M 14.5 30.401042 L 14.5 23.098958 C 14.5 19.401042 16.5 16.098958 17.5 12.5 C 17.802083 11.401042 18.098958 9.901042 18.302083 8.5 " transform="matrix(0.75,0,0,0.75,0,0)"/>
<path style="fill:none;stroke-width:3;stroke-linecap:round;stroke-linejoin:round;stroke:rgb(9.411765%,9.803922%,24.705882%);stroke-opacity:1;stroke-miterlimit:10;" d="M 31.5 15.5 C 32.5 18 33.5 20.5 33.5 23.197917 L 33.5 39.598958 C 33.5 41.802083 31.697917 43.598958 29.5 43.598958 L 18.5 43.598958 C 16.302083 43.598958 14.5 41.802083 14.5 39.598958 L 14.5 36.802083 " transform="matrix(0.75,0,0,0.75,0,0)"/>
<path style="fill:none;stroke-width:3;stroke-linecap:round;stroke-linejoin:round;stroke:rgb(9.411765%,9.803922%,24.705882%);stroke-opacity:1;stroke-miterlimit:10;" d="M 29.5 8.5 L 18.5 8.5 C 17.401042 8.5 16.5 7.598958 16.5 6.5 L 16.5 4.5 C 16.5 3.401042 17.401042 2.5 18.5 2.5 L 29.5 2.5 C 30.598958 2.5 31.5 3.401042 31.5 4.5 L 31.5 6.5 C 31.5 7.598958 30.598958 8.5 29.5 8.5 Z M 29.5 8.5 " transform="matrix(0.75,0,0,0.75,0,0)"/>
<path style="fill:none;stroke-width:3;stroke-linecap:round;stroke-linejoin:round;stroke:rgb(9.411765%,9.803922%,24.705882%);stroke-opacity:1;stroke-miterlimit:10;" d="M 21.697917 15.5 L 31.5 15.5 " transform="matrix(0.75,0,0,0.75,0,0)"/>
</g>
</svg>
