<?xml version="1.0" encoding="UTF-8"?>
<svg xmlns="http://www.w3.org/2000/svg" xmlns:xlink="http://www.w3.org/1999/xlink" width="36pt" height="36pt" viewBox="0 0 36 36" version="1.1">
<g id="surface18445">
<path style=" stroke:none;fill-rule:nonzero;fill:rgb(56.470591%,79.215688%,97.647059%);fill-opacity:1;" d="M 30.34375 15.207031 L 27 9.75 L 27 7.164062 C 27 6.519531 26.480469 6 25.835938 6 L 16.164062 6 C 15.519531 6 15 6.519531 15 7.164062 L 15 9.75 L 11.554688 15.207031 C 11.339844 15.636719 11.226562 16.113281 11.226562 16.59375 L 11.226562 33.699219 C 11.226562 34.554688 11.921875 35.25 12.777344 35.25 L 29.121094 35.25 C 29.980469 35.25 30.671875 34.554688 30.671875 33.699219 L 30.671875 16.59375 C 30.671875 16.113281 30.558594 15.636719 30.34375 15.207031 Z M 30.34375 15.207031 "/>
<path style="fill:none;stroke-width:3;stroke-linecap:round;stroke-linejoin:round;stroke:rgb(9.411765%,9.803922%,24.705882%);stroke-opacity:1;stroke-miterlimit:4;" d="M 31.5 10 L 27.421875 16.65625 C 27.145833 17.208333 27 17.822917 27 18.442708 L 27 42.5 " transform="matrix(0.75,0,0,0.75,0,0)"/>
<path style="fill:none;stroke-width:3;stroke-linecap:round;stroke-linejoin:round;stroke:rgb(9.411765%,9.803922%,24.705882%);stroke-opacity:1;stroke-miterlimit:4;" d="M 36.5625 20.984375 L 36.5625 18.442708 C 36.5625 17.822917 36.416667 17.213542 36.140625 16.65625 L 31.5 10 " transform="matrix(0.75,0,0,0.75,0,0)"/>
<path style="fill:none;stroke-width:3;stroke-linecap:round;stroke-linejoin:round;stroke:rgb(9.411765%,9.803922%,24.705882%);stroke-opacity:1;stroke-miterlimit:4;" d="M 11.489583 28.338542 L 11.489583 40.5 C 11.489583 41.604167 12.385417 42.5 13.489583 42.5 L 34.5625 42.5 C 35.666667 42.5 36.5625 41.604167 36.5625 40.5 L 36.5625 27.822917 " transform="matrix(0.75,0,0,0.75,0,0)"/>
<path style="fill:none;stroke-width:3;stroke-linecap:round;stroke-linejoin:round;stroke:rgb(9.411765%,9.803922%,24.705882%);stroke-opacity:1;stroke-miterlimit:4;" d="M 16.348958 9.802083 L 11.911458 16.65625 C 11.630208 17.208333 11.489583 17.822917 11.489583 18.442708 L 11.489583 21.651042 " transform="matrix(0.75,0,0,0.75,0,0)"/>
<path style="fill:none;stroke-width:3;stroke-linecap:round;stroke-linejoin:round;stroke:rgb(9.411765%,9.803922%,24.705882%);stroke-opacity:1;stroke-miterlimit:10;" d="M 20.052083 5 L 18 5 C 17.171875 5 16.5 5.671875 16.5 6.5 L 16.5 10 L 31.5 10 L 31.5 6.5 C 31.5 5.671875 30.828125 5 30 5 L 24.625 5 " transform="matrix(0.75,0,0,0.75,0,0)"/>
<path style="fill:none;stroke-width:3;stroke-linecap:round;stroke-linejoin:round;stroke:rgb(9.411765%,9.803922%,24.705882%);stroke-opacity:1;stroke-miterlimit:4;" d="M 12.114583 17.5 L 20.734375 17.5 " transform="matrix(0.75,0,0,0.75,0,0)"/>
<path style="fill:none;stroke-width:3;stroke-linecap:round;stroke-linejoin:round;stroke:rgb(9.411765%,9.803922%,24.705882%);stroke-opacity:1;stroke-miterlimit:4;" d="M 11.489583 28.026042 C 13.296875 27.567708 16.614583 27.635417 18.9375 30.791667 C 22.552083 35.71875 24.328125 37.677083 29.71875 36.302083 C 33.005208 35.463542 34.348958 35.677083 35.989583 36.411458 " transform="matrix(0.75,0,0,0.75,0,0)"/>
</g>
</svg>
