<?xml version="1.0" encoding="UTF-8"?>
<svg xmlns="http://www.w3.org/2000/svg" xmlns:xlink="http://www.w3.org/1999/xlink" width="36pt" height="36pt" viewBox="0 0 36 36" version="1.1">
<g id="surface22680">
<path style=" stroke:none;fill-rule:nonzero;fill:rgb(64.705884%,83.92157%,65.490198%);fill-opacity:1;" d="M 30.5 21.210938 C 31.203125 20.722656 31.871094 20.054688 32.46875 19.152344 C 36.359375 13.292969 35.992188 10.03125 35.992188 10.03125 L 35.976562 10.042969 C 35.902344 10 32.683594 8.765625 26.1875 11.132812 C 23.804688 11.996094 22.570312 13.539062 21.957031 15.152344 C 21.597656 14.992188 21.160156 15.101562 20.957031 15.460938 C 20.953125 15.46875 20.949219 15.472656 20.945312 15.480469 C 19.578125 14.089844 17.378906 12.921875 14.097656 12.554688 C 13.695312 12.507812 13.335938 12.796875 13.253906 13.195312 C 12.578125 16.460938 13.691406 18.925781 15.375 20.453125 C 13.574219 20.597656 11.984375 21.257812 11.222656 21.761719 C 7.746094 24.046875 7.363281 28.171875 5.949219 30.492188 C 5.679688 30.941406 5.929688 31.527344 6.441406 31.640625 C 9.332031 32.285156 16.726562 32.53125 19.472656 31.007812 C 20.703125 30.320312 21.695312 29.484375 22.28125 28.507812 C 23 29.394531 24.015625 30.171875 25.457031 30.695312 C 31.957031 33.058594 35.175781 31.828125 35.246094 31.78125 L 35.261719 31.792969 C 35.261719 31.792969 35.628906 28.53125 31.742188 22.675781 C 31.355469 22.089844 30.9375 21.613281 30.5 21.210938 Z M 30.5 21.210938 "/>
<path style="fill:none;stroke-width:3;stroke-linecap:round;stroke-linejoin:round;stroke:rgb(9.411765%,9.803922%,24.705882%);stroke-opacity:1;stroke-miterlimit:10;" d="M 38.911458 24.677083 C 39.755208 24.015625 40.557292 23.15625 41.291667 22.057292 C 46.838542 13.697917 46.3125 9.046875 46.3125 9.046875 L 46.291667 9.0625 C 46.1875 9 41.598958 7.244792 32.328125 10.614583 C 31.9375 10.760417 31.567708 10.911458 31.21875 11.078125 " transform="matrix(0.75,0,0,0.75,0,0)"/>
<path style="fill:none;stroke-width:3;stroke-linecap:round;stroke-linejoin:round;stroke:rgb(9.411765%,9.803922%,24.705882%);stroke-opacity:1;stroke-miterlimit:10;" d="M 32.375 38.895833 C 32.020833 38.776042 31.661458 38.651042 31.291667 38.515625 C 29.489583 37.864583 28.151042 36.9375 27.15625 35.869792 " transform="matrix(0.75,0,0,0.75,0,0)"/>
<path style="fill:none;stroke-width:3;stroke-linecap:round;stroke-linejoin:round;stroke:rgb(9.411765%,9.803922%,24.705882%);stroke-opacity:1;stroke-miterlimit:10;" d="M 30.088542 22.609375 C 33.286458 22.140625 37.34375 22.692708 40.25 27.078125 C 45.802083 35.432292 45.276042 40.083333 45.276042 40.083333 L 45.255208 40.067708 C 45.182292 40.114583 42.776042 41.036458 37.979167 40.291667 " transform="matrix(0.75,0,0,0.75,0,0)"/>
<path style="fill:none;stroke-width:3;stroke-linecap:round;stroke-linejoin:round;stroke:rgb(9.411765%,9.803922%,24.705882%);stroke-opacity:1;stroke-miterlimit:10;" d="M 24.640625 16.604167 C 22.541667 14.583333 19.161458 12.9375 14.125 12.552083 C 12.703125 17.713542 14.333333 21.567708 16.895833 23.901042 " transform="matrix(0.75,0,0,0.75,0,0)"/>
<path style="fill:none;stroke-width:3;stroke-linecap:round;stroke-linejoin:round;stroke:rgb(9.411765%,9.803922%,24.705882%);stroke-opacity:1;stroke-miterlimit:10;" d="M 10.541667 26.083333 C 10.6875 25.979167 10.833333 25.875 10.984375 25.776042 C 12.697917 24.645833 17.328125 22.942708 21.453125 24.453125 " transform="matrix(0.75,0,0,0.75,0,0)"/>
<path style="fill:none;stroke-width:3;stroke-linecap:round;stroke-linejoin:round;stroke:rgb(9.411765%,9.803922%,24.705882%);stroke-opacity:1;stroke-miterlimit:10;" d="M 26.145833 28.307292 C 29.265625 32.932292 27.020833 36.588542 22.75 38.963542 C 18.135417 41.526042 4.28125 40.572917 2.640625 39.328125 C 4.411458 37.463542 5.052083 33.953125 6.734375 30.703125 " transform="matrix(0.75,0,0,0.75,0,0)"/>
<path style="fill:none;stroke-width:3;stroke-linecap:round;stroke-linejoin:round;stroke:rgb(9.411765%,9.803922%,24.705882%);stroke-opacity:1;stroke-miterlimit:10;" d="M 26.338542 26.192708 C 27.192708 28.270833 23.885417 33.817708 15.614583 31.09375 C 18.104167 23.786458 25.28125 23.598958 26.338542 26.192708 Z M 26.338542 26.192708 " transform="matrix(0.75,0,0,0.75,0,0)"/>
<path style="fill:none;stroke-width:3;stroke-linecap:round;stroke-linejoin:round;stroke:rgb(9.411765%,9.803922%,24.705882%);stroke-opacity:1;stroke-miterlimit:10;" d="M 27.604167 24.911458 C 29.697917 24.088542 32.145833 20.385417 25.520833 15.703125 C 19.833333 24.71875 25.59375 25.703125 27.604167 24.911458 Z M 27.604167 24.911458 " transform="matrix(0.75,0,0,0.75,0,0)"/>
</g>
</svg>
