<?xml version="1.0" encoding="UTF-8"?>
<svg xmlns="http://www.w3.org/2000/svg" xmlns:xlink="http://www.w3.org/1999/xlink" width="36pt" height="36pt" viewBox="0 0 36 36" version="1.1">
<g id="surface31773">
<path style=" stroke:none;fill-rule:nonzero;fill:rgb(56.470591%,79.215688%,97.647059%);fill-opacity:1;" d="M 6.75 12.9375 L 6.75 18.1875 C 6.75 19.742188 8.007812 21 9.5625 21 L 22.171875 21 C 23.484375 21 24.664062 21.808594 25.132812 23.035156 C 25.351562 23.617188 25.910156 24 26.53125 24 L 33.703125 24 C 34.558594 24 35.25 23.308594 35.25 22.453125 L 35.25 12.9375 C 35.25 9.519531 32.480469 6.75 29.0625 6.75 L 12.9375 6.75 C 9.519531 6.75 6.75 9.519531 6.75 12.9375 Z M 6.75 12.9375 "/>
<path style="fill:none;stroke-width:3;stroke-linecap:butt;stroke-linejoin:miter;stroke:rgb(9.411765%,9.803922%,24.705882%);stroke-opacity:1;stroke-miterlimit:10;" d="M 36.5 27 L 36.5 44 " transform="matrix(0.75,0,0,0.75,0,0)"/>
<path style="fill:none;stroke-width:3;stroke-linecap:round;stroke-linejoin:round;stroke:rgb(9.411765%,9.803922%,24.705882%);stroke-opacity:1;stroke-miterlimit:10;" d="M 32.4375 43.5 L 36.5 43.5 L 36.5 34.5 L 33.390625 34.5 C 32.286458 34.5 31.328125 35.265625 31.088542 36.34375 L 30.135417 40.635417 C 29.8125 42.104167 30.927083 43.5 32.4375 43.5 Z M 32.4375 43.5 " transform="matrix(0.75,0,0,0.75,0,0)"/>
<path style="fill:none;stroke-width:3;stroke-linecap:round;stroke-linejoin:round;stroke:rgb(9.411765%,9.803922%,24.705882%);stroke-opacity:1;stroke-miterlimit:10;" d="M 39.609375 34.5 C 40.713542 34.5 41.671875 35.265625 41.911458 36.34375 L 42.864583 40.635417 C 43.1875 42.104167 42.072917 43.5 40.5625 43.5 L 36.5 43.5 L 36.5 34.5 L 39.609375 34.5 " transform="matrix(0.75,0,0,0.75,0,0)"/>
<path style="fill:none;stroke-width:3;stroke-linecap:round;stroke-linejoin:round;stroke:rgb(9.411765%,9.803922%,24.705882%);stroke-opacity:1;stroke-miterlimit:10;" d="M 27.088542 10.5 L 28.5 10.5 C 30.15625 10.5 31.5 11.84375 31.5 13.5 C 31.5 15.15625 30.15625 16.5 28.5 16.5 L 15.5 16.5 C 13.84375 16.5 12.5 15.15625 12.5 13.5 C 12.5 11.84375 13.84375 10.5 15.5 10.5 L 21.020833 10.5 " transform="matrix(0.75,0,0,0.75,0,0)"/>
<path style="fill:none;stroke-width:3;stroke-linecap:round;stroke-linejoin:round;stroke:rgb(9.411765%,9.803922%,24.705882%);stroke-opacity:1;stroke-miterlimit:10;" d="M 15.411458 23.5 L 26.0625 23.5 C 27.8125 23.5 29.385417 24.578125 30.010417 26.213542 C 30.307292 26.989583 31.046875 27.5 31.875 27.5 L 40.5 27.5 C 41.604167 27.5 42.5 26.604167 42.5 25.5 L 42.5 13.494792 C 42.5 9.078125 38.921875 5.5 34.505208 5.5 L 13.494792 5.5 C 9.078125 5.5 5.5 9.078125 5.5 13.494792 L 5.5 19.75 C 5.5 21.817708 7.177083 23.5 9.25 23.5 " transform="matrix(0.75,0,0,0.75,0,0)"/>
<path style="fill:none;stroke-width:3;stroke-linecap:round;stroke-linejoin:round;stroke:rgb(9.411765%,9.803922%,24.705882%);stroke-opacity:1;stroke-miterlimit:10;" d="M 30.5 4.5 L 34.5 4.5 L 34.5 5.5 L 30.5 5.5 Z M 30.5 4.5 " transform="matrix(0.75,0,0,0.75,0,0)"/>
</g>
</svg>
