<?xml version="1.0" encoding="UTF-8"?>
<svg xmlns="http://www.w3.org/2000/svg" xmlns:xlink="http://www.w3.org/1999/xlink" width="36pt" height="36pt" viewBox="0 0 36 36" version="1.1">
<g id="surface13070">
<path style=" stroke:none;fill-rule:nonzero;fill:rgb(100%,87.843138%,50.980395%);fill-opacity:1;" d="M 19.125 14.625 C 19.125 12.523438 19.574219 10.5 20.476562 8.625 C 20.25 8.625 20.101562 8.625 19.875 8.625 C 12.449219 8.625 6.375 14.699219 6.375 22.125 C 6.375 29.550781 12.449219 35.625 19.875 35.625 C 24.898438 35.625 29.324219 32.851562 31.648438 28.726562 C 24.601562 27.898438 19.125 21.898438 19.125 14.625 Z M 19.125 14.625 "/>
<path style=" stroke:none;fill-rule:nonzero;fill:rgb(9.411765%,9.803922%,24.705882%);fill-opacity:1;" d="M 27.75 7.875 C 27.75 7.273438 28.273438 6.75 28.875 6.75 C 29.476562 6.75 30 6.226562 30 5.625 C 30 5.023438 29.476562 4.5 28.875 4.5 C 28.273438 4.5 27.75 3.976562 27.75 3.375 C 27.75 2.773438 27.226562 2.25 26.625 2.25 C 26.023438 2.25 25.5 2.773438 25.5 3.375 C 25.5 3.976562 24.976562 4.5 24.375 4.5 C 23.773438 4.5 23.25 5.023438 23.25 5.625 C 23.25 6.226562 23.773438 6.75 24.375 6.75 C 24.976562 6.75 25.5 7.273438 25.5 7.875 C 25.5 8.476562 26.023438 9 26.625 9 C 27.226562 9 27.75 8.476562 27.75 7.875 Z M 27.75 7.875 "/>
<path style=" stroke:none;fill-rule:nonzero;fill:rgb(9.411765%,9.803922%,24.705882%);fill-opacity:1;" d="M 32.625 14.25 C 32.023438 14.25 31.5 13.726562 31.5 13.125 C 31.5 12.523438 30.976562 12 30.375 12 C 29.773438 12 29.25 12.523438 29.25 13.125 C 29.25 13.726562 28.726562 14.25 28.125 14.25 C 27.523438 14.25 27 14.773438 27 15.375 C 27 15.976562 27.523438 16.5 28.125 16.5 C 28.726562 16.5 29.25 17.023438 29.25 17.625 C 29.25 18.226562 29.773438 18.75 30.375 18.75 C 30.976562 18.75 31.5 18.226562 31.5 17.625 C 31.5 17.023438 32.023438 16.5 32.625 16.5 C 33.226562 16.5 33.75 15.976562 33.75 15.375 C 33.75 14.773438 33.226562 14.25 32.625 14.25 Z M 32.625 14.25 "/>
<path style="fill:none;stroke-width:3;stroke-linecap:round;stroke-linejoin:round;stroke:rgb(9.411765%,9.803922%,24.705882%);stroke-opacity:1;stroke-miterlimit:4;" d="M 26.901042 43 C 31.697917 41.802083 35.802083 38.598958 38.197917 34.401042 C 33.5 33.802083 29.197917 31.5 26.197917 28.098958 " transform="matrix(0.75,0,0,0.75,0,0)"/>
<path style="fill:none;stroke-width:3;stroke-linecap:round;stroke-linejoin:round;stroke:rgb(9.411765%,9.803922%,24.705882%);stroke-opacity:1;stroke-miterlimit:4;" d="M 22.302083 20.802083 C 21.802083 19.098958 21.5 17.302083 21.5 15.5 C 21.5 12.697917 22.098958 10 23.302083 7.5 C 23 7.5 22.802083 7.5 22.5 7.5 C 12.598958 7.5 4.5 15.598958 4.5 25.5 C 4.5 33.901042 10.302083 41 18.098958 43 " transform="matrix(0.75,0,0,0.75,0,0)"/>
</g>
</svg>
