<?xml version="1.0" encoding="UTF-8"?>
<svg xmlns="http://www.w3.org/2000/svg" xmlns:xlink="http://www.w3.org/1999/xlink" width="36pt" height="36pt" viewBox="0 0 36 36" version="1.1">
<g id="surface22564">
<path style=" stroke:none;fill-rule:nonzero;fill:rgb(100%,87.843138%,50.980395%);fill-opacity:1;" d="M 31.117188 20.214844 C 30.441406 13.996094 25.039062 9.148438 18.46875 9.148438 C 11.445312 9.148438 5.75 14.6875 5.75 21.523438 C 5.75 23.3125 6.140625 25.007812 6.84375 26.542969 C 7.558594 28.109375 9.15625 29.085938 10.875 29.085938 L 18.953125 29.085938 C 19.078125 29.761719 19.277344 30.410156 19.5625 31.019531 C 20.070312 32.109375 21.164062 32.804688 22.367188 32.804688 L 32.445312 32.804688 C 33.648438 32.804688 34.742188 32.109375 35.25 31.019531 C 35.730469 29.988281 36 28.847656 36 27.648438 C 36 24.367188 34.003906 21.546875 31.117188 20.214844 Z M 31.117188 20.214844 "/>
<path style="fill:none;stroke-width:3;stroke-linecap:round;stroke-linejoin:round;stroke:rgb(9.411765%,9.803922%,24.705882%);stroke-opacity:1;stroke-miterlimit:10;" d="M 34.432292 14.135417 C 31.182292 10.229167 26.213542 7.734375 20.651042 7.734375 C 10.864583 7.734375 2.9375 15.447917 2.9375 24.96875 C 2.9375 27.421875 3.463542 29.755208 4.411458 31.864583 C 5.411458 34.083333 7.635417 35.5 10.072917 35.5 L 15.4375 35.5 " transform="matrix(0.75,0,0,0.75,0,0)"/>
<path style="fill:none;stroke-width:3;stroke-linecap:round;stroke-linejoin:round;stroke:rgb(9.411765%,9.803922%,24.705882%);stroke-opacity:1;stroke-miterlimit:10;" d="M 40.536458 40.479167 C 42.010417 40.338542 43.328125 39.458333 43.973958 38.114583 C 44.677083 36.651042 45.0625 35.03125 45.0625 33.317708 C 45.0625 26.973958 39.708333 21.828125 33.09375 21.828125 " transform="matrix(0.75,0,0,0.75,0,0)"/>
<path style="fill:none;stroke-width:3;stroke-linecap:round;stroke-linejoin:round;stroke:rgb(9.411765%,9.803922%,24.705882%);stroke-opacity:1;stroke-miterlimit:10;" d="M 23.760417 26.130208 C 22.114583 28.098958 21.130208 30.598958 21.130208 33.317708 C 21.130208 35.03125 21.515625 36.651042 22.21875 38.109375 C 22.927083 39.583333 24.442708 40.5 26.078125 40.5 L 33.697917 40.5 " transform="matrix(0.75,0,0,0.75,0,0)"/>
<path style=" stroke:none;fill-rule:nonzero;fill:rgb(9.411765%,9.803922%,24.705882%);fill-opacity:1;" d="M 26.03125 20.726562 C 26.03125 21.347656 25.527344 21.851562 24.90625 21.851562 C 24.285156 21.851562 23.78125 21.347656 23.78125 20.726562 C 23.78125 20.101562 24.285156 19.601562 24.90625 19.601562 C 25.527344 19.601562 26.03125 20.101562 26.03125 20.726562 Z M 26.03125 20.726562 "/>
<path style=" stroke:none;fill-rule:nonzero;fill:rgb(9.411765%,9.803922%,24.705882%);fill-opacity:1;" d="M 30.402344 23.269531 C 30.402344 23.890625 29.898438 24.394531 29.277344 24.394531 C 28.65625 24.394531 28.152344 23.890625 28.152344 23.269531 C 28.152344 22.648438 28.65625 22.144531 29.277344 22.144531 C 29.898438 22.144531 30.402344 22.648438 30.402344 23.269531 Z M 30.402344 23.269531 "/>
<path style=" stroke:none;fill-rule:nonzero;fill:rgb(9.411765%,9.803922%,24.705882%);fill-opacity:1;" d="M 26.03125 25.226562 C 26.03125 25.847656 25.527344 26.351562 24.90625 26.351562 C 24.285156 26.351562 23.78125 25.847656 23.78125 25.226562 C 23.78125 24.601562 24.285156 24.101562 24.90625 24.101562 C 25.527344 24.101562 26.03125 24.601562 26.03125 25.226562 Z M 26.03125 25.226562 "/>
</g>
</svg>
