<?xml version="1.0" encoding="UTF-8"?>
<svg xmlns="http://www.w3.org/2000/svg" xmlns:xlink="http://www.w3.org/1999/xlink" width="36pt" height="36pt" viewBox="0 0 36 36" version="1.1">
<g id="surface27562">
<path style=" stroke:none;fill-rule:nonzero;fill:rgb(100%,87.843138%,50.980395%);fill-opacity:1;" d="M 21.375 7.5 L 20.625 7.5 C 13.125 7.5 7.050781 13.574219 7.050781 21.074219 C 7.050781 21.898438 7.726562 22.5 8.476562 22.5 L 18.148438 22.5 L 16.351562 29.175781 C 16.125 30.148438 16.125 31.125 16.425781 32.023438 C 17.101562 33.824219 18.824219 35.175781 20.851562 35.25 C 21.75 35.25 22.648438 35.023438 23.398438 34.648438 C 25.273438 33.601562 26.101562 31.273438 25.574219 29.25 L 23.851562 22.5 L 33.523438 22.5 C 34.351562 22.5 34.949219 21.824219 34.949219 21.074219 C 34.949219 13.574219 28.875 7.5 21.375 7.5 Z M 21.375 7.5 "/>
<path style="fill:none;stroke-width:3;stroke-linecap:round;stroke-linejoin:round;stroke:rgb(9.411765%,9.803922%,24.705882%);stroke-opacity:1;stroke-miterlimit:4;" d="M 34 26.5 L 6.5 26.5 C 5.401042 26.5 4.5 25.598958 4.5 24.5 C 4.5 20.401042 5.802083 16.697917 7.901042 13.598958 " transform="matrix(0.75,0,0,0.75,0,0)"/>
<path style="fill:none;stroke-width:3;stroke-linecap:round;stroke-linejoin:round;stroke:rgb(9.411765%,9.803922%,24.705882%);stroke-opacity:1;stroke-miterlimit:4;" d="M 14.802083 7.598958 C 17.401042 6.302083 20.302083 5.5 23.5 5.5 L 24.5 5.5 C 35 5.5 43.5 14 43.5 24.5 C 43.5 25.598958 42.598958 26.5 41.5 26.5 L 41.098958 26.5 " transform="matrix(0.75,0,0,0.75,0,0)"/>
<path style="fill:none;stroke-width:3;stroke-linecap:round;stroke-linejoin:round;stroke:rgb(9.411765%,9.803922%,24.705882%);stroke-opacity:1;stroke-miterlimit:4;" d="M 29.098958 32.401042 L 30.098958 36.401042 C 30.802083 39.197917 29.697917 42.197917 27.197917 43.697917 C 26.197917 44.302083 25.098958 44.598958 23.802083 44.5 C 21.098958 44.401042 18.901042 42.598958 17.901042 40.197917 C 17.401042 39 17.401042 37.598958 17.802083 36.401042 L 20.5 26.5 L 27.5 26.5 " transform="matrix(0.75,0,0,0.75,0,0)"/>
</g>
</svg>
