<?xml version="1.0" encoding="UTF-8"?>
<svg xmlns="http://www.w3.org/2000/svg" xmlns:xlink="http://www.w3.org/1999/xlink" width="36pt" height="36pt" viewBox="0 0 36 36" version="1.1">
<g id="surface25734">
<path style=" stroke:none;fill-rule:nonzero;fill:rgb(100%,87.843138%,50.980395%);fill-opacity:1;" d="M 27.894531 14.519531 C 26.984375 14.519531 26.117188 14.71875 25.324219 15.070312 C 24.003906 11.089844 20.554688 8.242188 16.5 8.242188 C 11.304688 8.242188 7.09375 12.902344 7.09375 18.648438 C 7.09375 19.214844 7.136719 19.769531 7.21875 20.308594 C 7.378906 21.394531 8.449219 22.085938 9.519531 21.863281 C 10.664062 21.625 11.859375 21.449219 13.09375 21.332031 C 12.378906 23.578125 11.890625 25.898438 11.789062 28.199219 C 11.691406 30.386719 13.457031 32.210938 15.648438 32.210938 L 17.351562 32.210938 C 19.542969 32.210938 21.308594 30.386719 21.210938 28.199219 C 21.160156 27.113281 21.019531 26.019531 20.816406 24.933594 L 24.058594 24.339844 C 24.496094 24.277344 24.9375 24.222656 25.386719 24.179688 C 24.859375 25.839844 24.492188 27.550781 24.417969 29.25 C 24.34375 30.863281 25.648438 32.210938 27.265625 32.210938 L 28.523438 32.210938 C 30.140625 32.210938 31.441406 30.863281 31.371094 29.25 C 31.296875 27.550781 30.929688 25.839844 30.398438 24.179688 C 31.3125 24.269531 32.199219 24.398438 33.042969 24.570312 C 33.835938 24.734375 34.625 24.226562 34.746094 23.425781 C 34.804688 23.027344 34.835938 22.617188 34.835938 22.199219 C 34.839844 17.957031 31.730469 14.519531 27.894531 14.519531 Z M 27.894531 14.519531 "/>
<path style="fill:none;stroke-width:3;stroke-linecap:round;stroke-linejoin:round;stroke:rgb(9.411765%,9.803922%,24.705882%);stroke-opacity:1;stroke-miterlimit:10;" d="M 28.828125 32.036458 C 28.6875 32.895833 28.59375 33.760417 28.557292 34.625 C 28.463542 36.776042 30.197917 38.567708 32.354167 38.567708 L 34.03125 38.567708 C 36.1875 38.567708 37.927083 36.776042 37.828125 34.625 C 37.734375 32.4375 37.286458 30.234375 36.619792 28.098958 " transform="matrix(0.75,0,0,0.75,0,0)"/>
<path style="fill:none;stroke-width:3;stroke-linecap:round;stroke-linejoin:round;stroke:rgb(9.411765%,9.803922%,24.705882%);stroke-opacity:1;stroke-miterlimit:10;" d="M 31.984375 27.723958 C 32.385417 27.713542 32.786458 27.703125 33.192708 27.703125 C 35.614583 27.703125 37.932292 27.947917 40.0625 28.385417 C 41.119792 28.604167 42.171875 27.927083 42.328125 26.859375 C 42.411458 26.328125 42.453125 25.78125 42.453125 25.223958 C 42.453125 19.567708 38.307292 14.984375 33.192708 14.984375 " transform="matrix(0.75,0,0,0.75,0,0)"/>
<path style="fill:none;stroke-width:3;stroke-linecap:round;stroke-linejoin:round;stroke:rgb(9.411765%,9.803922%,24.705882%);stroke-opacity:1;stroke-miterlimit:10;" d="M 23.338542 26.885417 C 23.140625 26.072917 22.916667 25.270833 22.671875 24.46875 " transform="matrix(0.75,0,0,0.75,0,0)"/>
<path style="fill:none;stroke-width:3;stroke-linecap:round;stroke-linejoin:round;stroke:rgb(9.411765%,9.803922%,24.705882%);stroke-opacity:1;stroke-miterlimit:10;" d="M 13.333333 24.458333 C 12.447917 27.328125 11.848958 30.291667 11.71875 33.223958 C 11.588542 36.140625 13.942708 38.567708 16.864583 38.567708 L 19.135417 38.567708 C 22.057292 38.567708 24.411458 36.140625 24.28125 33.223958 C 24.260417 32.755208 24.229167 32.28125 24.182292 31.8125 " transform="matrix(0.75,0,0,0.75,0,0)"/>
<path style="fill:none;stroke-width:3;stroke-linecap:round;stroke-linejoin:round;stroke:rgb(9.411765%,9.803922%,24.705882%);stroke-opacity:1;stroke-miterlimit:10;" d="M 9.364583 10.427083 C 6.958333 12.958333 5.458333 16.53125 5.458333 20.489583 C 5.458333 21.244792 5.515625 21.984375 5.625 22.703125 C 5.838542 24.151042 7.265625 25.072917 8.692708 24.776042 C 11.583333 24.177083 14.71875 23.848958 18 23.848958 C 21.28125 23.848958 24.416667 24.177083 27.302083 24.776042 C 28.734375 25.072917 30.161458 24.151042 30.375 22.703125 C 30.484375 21.984375 30.541667 21.244792 30.541667 20.489583 C 30.541667 12.828125 24.927083 6.614583 18 6.614583 C 17.046875 6.614583 16.119792 6.734375 15.229167 6.953125 " transform="matrix(0.75,0,0,0.75,0,0)"/>
</g>
</svg>
