<?xml version="1.0" encoding="UTF-8"?>
<svg xmlns="http://www.w3.org/2000/svg" xmlns:xlink="http://www.w3.org/1999/xlink" width="36pt" height="36pt" viewBox="0 0 36 36" version="1.1">
<g id="surface22616">
<path style=" stroke:none;fill-rule:nonzero;fill:rgb(100%,87.843138%,50.980395%);fill-opacity:1;" d="M 24.921875 15.78125 C 25.328125 15.476562 25.59375 14.992188 25.59375 14.445312 C 25.59375 13.0625 24.472656 11.941406 23.089844 11.941406 L 22.339844 6.332031 C 22.15625 5.6875 21.566406 5.246094 20.898438 5.25 C 20.222656 5.257812 19.632812 5.71875 19.46875 6.375 L 18.910156 11.941406 C 17.527344 11.941406 16.40625 13.0625 16.40625 14.445312 C 16.40625 14.992188 16.671875 15.476562 17.078125 15.78125 C 15.910156 15.929688 15 16.917969 15 18.128906 L 15 33.621094 C 15 34.933594 16.066406 36 17.378906 36 L 24.621094 36 C 25.933594 36 27 34.933594 27 33.621094 L 27 18.128906 C 27 16.917969 26.089844 15.929688 24.921875 15.78125 Z M 24.921875 15.78125 "/>
<path style="fill:none;stroke-width:3;stroke-linecap:round;stroke-linejoin:round;stroke:rgb(9.411765%,9.803922%,24.705882%);stroke-opacity:1;stroke-miterlimit:10;" d="M 16.5 25.5 L 21.5 25.5 C 22.604167 25.5 23.5 26.395833 23.5 27.5 L 23.5 33.5 C 23.5 34.604167 22.604167 35.5 21.5 35.5 " transform="matrix(0.75,0,0,0.75,0,0)"/>
<path style="fill:none;stroke-width:3;stroke-linecap:round;stroke-linejoin:round;stroke:rgb(9.411765%,9.803922%,24.705882%);stroke-opacity:1;stroke-miterlimit:10;" d="M 16.5 25.5 L 16.5 20.5 C 16.5 18.84375 17.84375 17.5 19.5 17.5 L 28.5 17.5 C 30.15625 17.5 31.5 18.84375 31.5 20.5 L 31.5 22.151042 " transform="matrix(0.75,0,0,0.75,0,0)"/>
<path style="fill:none;stroke-width:3;stroke-linecap:round;stroke-linejoin:round;stroke:rgb(9.411765%,9.803922%,24.705882%);stroke-opacity:1;stroke-miterlimit:10;" d="M 31.5 27.552083 L 31.5 40.5 C 31.5 42.15625 30.15625 43.5 28.5 43.5 L 19.5 43.5 C 17.84375 43.5 16.5 42.15625 16.5 40.5 L 16.5 31.59375 " transform="matrix(0.75,0,0,0.75,0,0)"/>
<path style="fill:none;stroke-width:3;stroke-linecap:round;stroke-linejoin:round;stroke:rgb(9.411765%,9.803922%,24.705882%);stroke-opacity:1;stroke-miterlimit:10;" d="M 22.072917 6.744792 L 22.166667 5.838542 C 22.364583 5.052083 23.067708 4.494792 23.880208 4.489583 C 24.677083 4.484375 25.385417 5.015625 25.604167 5.786458 L 26.5 12.5 C 28.15625 12.5 29.5 13.84375 29.5 15.5 C 29.5 16.604167 28.604167 17.5 27.5 17.5 L 20.5 17.5 C 19.395833 17.5 18.5 16.604167 18.5 15.5 C 18.5 13.84375 19.84375 12.5 21.5 12.5 " transform="matrix(0.75,0,0,0.75,0,0)"/>
</g>
</svg>
