<?xml version="1.0" encoding="UTF-8"?>
<svg xmlns="http://www.w3.org/2000/svg" xmlns:xlink="http://www.w3.org/1999/xlink" width="36pt" height="36pt" viewBox="0 0 36 36" version="1.1">
<g id="surface15653">
<path style=" stroke:none;fill-rule:nonzero;fill:rgb(100%,87.843138%,50.980395%);fill-opacity:1;" d="M 31.503906 11.738281 C 29.742188 9.78125 28.332031 8.285156 25.699219 7.460938 C 24.222656 7 22.648438 6.75 21.011719 6.75 C 17.632812 6.75 15.269531 7.8125 12.765625 9.601562 C 10.863281 10.957031 8.566406 12.730469 7.519531 14.78125 C 6.558594 16.660156 6.769531 19.484375 6.769531 21.710938 C 6.769531 23.46875 6.90625 25.144531 7.519531 26.699219 C 8.84375 30.070312 10.914062 31.507812 14.261719 33.113281 C 16.292969 34.085938 18.585938 35.25 21.007812 35.25 C 25.707031 35.25 29.714844 31.539062 32.25 28.125 C 34.1875 25.523438 35.25 23.691406 35.25 20.289062 C 35.25 16.75 33.746094 14.226562 31.503906 11.738281 Z M 31.503906 11.738281 "/>
<path style="fill:none;stroke-width:3;stroke-linecap:round;stroke-linejoin:round;stroke:rgb(9.411765%,9.803922%,24.705882%);stroke-opacity:1;stroke-miterlimit:10;" d="M 25.848958 5.078125 C 25.244792 5.026042 24.630208 5 24.015625 5 C 19.510417 5 16.359375 6.416667 13.020833 8.802083 C 10.484375 10.609375 7.421875 12.973958 6.026042 15.708333 C 4.744792 18.213542 5.026042 21.979167 5.026042 24.947917 C 5.026042 27.291667 5.208333 29.526042 6.026042 31.598958 C 7.791667 36.09375 10.552083 38.010417 15.015625 40.151042 C 16.53125 40.875 18.15625 41.682292 19.864583 42.255208 " transform="matrix(0.75,0,0,0.75,0,0)"/>
<path style="fill:none;stroke-width:3;stroke-linecap:round;stroke-linejoin:round;stroke:rgb(9.411765%,9.803922%,24.705882%);stroke-opacity:1;stroke-miterlimit:10;" d="M 28.989583 41.973958 C 33.088542 40.286458 36.557292 36.791667 39 33.5 C 41.583333 30.03125 43 27.588542 43 23.052083 C 43 18.333333 40.994792 14.96875 38.005208 11.651042 C 36.6875 10.192708 35.520833 8.921875 34.135417 7.895833 " transform="matrix(0.75,0,0,0.75,0,0)"/>
<path style=" stroke:none;fill-rule:nonzero;fill:rgb(9.411765%,9.803922%,24.705882%);fill-opacity:1;" d="M 25.648438 23.25 C 25.25 23.25 24.585938 22.84375 24.058594 22.46875 C 23.628906 22.164062 23.628906 21.523438 24.058594 21.21875 C 24.585938 20.84375 25.25 20.4375 25.648438 20.4375 C 26.394531 20.4375 27 21.066406 27 21.84375 C 27 22.621094 26.394531 23.25 25.648438 23.25 Z M 25.648438 23.25 "/>
<path style=" stroke:none;fill-rule:nonzero;fill:rgb(9.411765%,9.803922%,24.705882%);fill-opacity:1;" d="M 17.695312 18.710938 C 17.378906 18.394531 17.179688 17.535156 17.066406 16.832031 C 16.980469 16.308594 17.429688 15.855469 17.957031 15.941406 C 18.660156 16.058594 19.519531 16.253906 19.835938 16.570312 C 20.402344 17.140625 20.382812 18.078125 19.792969 18.671875 C 19.203125 19.261719 18.261719 19.28125 17.695312 18.710938 Z M 17.695312 18.710938 "/>
<path style=" stroke:none;fill-rule:nonzero;fill:rgb(9.411765%,9.803922%,24.705882%);fill-opacity:1;" d="M 16.1875 27.613281 C 15.882812 27.308594 15.6875 26.496094 15.574219 25.8125 C 15.484375 25.265625 15.957031 24.792969 16.503906 24.886719 C 17.1875 25 18 25.191406 18.304688 25.496094 C 18.867188 26.058594 18.847656 26.988281 18.261719 27.574219 C 17.679688 28.15625 16.75 28.175781 16.1875 27.613281 Z M 16.1875 27.613281 "/>
<path style=" stroke:none;fill-rule:nonzero;fill:rgb(9.411765%,9.803922%,24.705882%);fill-opacity:1;" d="M 11.101562 9.75 C 11.539062 9.75 12.285156 10.230469 12.828125 10.632812 C 13.183594 10.890625 13.183594 11.421875 12.828125 11.683594 C 12.285156 12.082031 11.539062 12.5625 11.101562 12.5625 C 10.355469 12.5625 9.75 11.933594 9.75 11.15625 C 9.75 10.378906 10.355469 9.75 11.101562 9.75 Z M 11.101562 9.75 "/>
<path style=" stroke:none;fill-rule:nonzero;fill:rgb(9.411765%,9.803922%,24.705882%);fill-opacity:1;" d="M 8.625 21.390625 C 8.625 20.894531 9.183594 20.042969 9.628906 19.441406 C 9.898438 19.074219 10.445312 19.074219 10.714844 19.441406 C 11.160156 20.042969 11.71875 20.894531 11.71875 21.390625 C 11.71875 22.210938 11.027344 22.875 10.171875 22.875 C 9.320312 22.875 8.625 22.210938 8.625 21.390625 Z M 8.625 21.390625 "/>
<path style=" stroke:none;fill-rule:nonzero;fill:rgb(9.411765%,9.803922%,24.705882%);fill-opacity:1;" d="M 26.011719 14.246094 C 26.335938 13.921875 27.238281 13.722656 27.945312 13.613281 C 28.421875 13.539062 28.835938 13.953125 28.761719 14.429688 C 28.648438 15.136719 28.453125 16.039062 28.125 16.363281 C 27.566406 16.925781 26.636719 16.90625 26.050781 16.324219 C 25.46875 15.738281 25.449219 14.808594 26.011719 14.246094 Z M 26.011719 14.246094 "/>
<path style=" stroke:none;fill-rule:nonzero;fill:rgb(9.411765%,9.803922%,24.705882%);fill-opacity:1;" d="M 19.304688 7.648438 C 19.707031 7.246094 20.898438 7.019531 21.703125 6.90625 C 22.117188 6.847656 22.464844 7.199219 22.40625 7.609375 C 22.292969 8.417969 22.066406 9.605469 21.664062 10.007812 C 21.039062 10.632812 20.003906 10.613281 19.351562 9.960938 C 18.703125 9.308594 18.679688 8.273438 19.304688 7.648438 Z M 19.304688 7.648438 "/>
</g>
</svg>
