<?xml version="1.0" encoding="UTF-8"?>
<svg xmlns="http://www.w3.org/2000/svg" xmlns:xlink="http://www.w3.org/1999/xlink" width="36pt" height="36pt" viewBox="0 0 36 36" version="1.1">
<g id="surface19587">
<path style=" stroke:none;fill-rule:nonzero;fill:rgb(100%,87.843138%,50.980395%);fill-opacity:1;" d="M 33.59375 9.046875 L 15.660156 9.046875 C 14.503906 9.046875 13.796875 10.320312 14.40625 11.300781 L 16.902344 15.324219 L 7.152344 18.011719 C 6.105469 18.300781 5.71875 19.585938 6.429688 20.402344 L 17.867188 33.558594 C 18.636719 34.4375 20.070312 34.121094 20.398438 33 L 22.78125 24.796875 L 24.816406 28.078125 C 25.441406 29.082031 26.933594 28.980469 27.417969 27.902344 L 34.9375 11.128906 C 35.375 10.152344 34.660156 9.046875 33.59375 9.046875 Z M 33.59375 9.046875 "/>
<path style="fill:none;stroke-width:3;stroke-linecap:round;stroke-linejoin:round;stroke:rgb(9.411765%,9.803922%,24.705882%);stroke-opacity:1;stroke-miterlimit:10;" d="M 38.71875 7.5 L 41.411458 7.5 C 42.859375 7.5 43.828125 8.994792 43.234375 10.317708 L 33.041667 33.067708 C 32.385417 34.526042 30.359375 34.661458 29.515625 33.302083 L 27 29.25 " transform="matrix(0.75,0,0,0.75,0,0)"/>
<path style="fill:none;stroke-width:3;stroke-linecap:round;stroke-linejoin:round;stroke:rgb(9.411765%,9.803922%,24.705882%);stroke-opacity:1;stroke-miterlimit:10;" d="M 16.322917 12.052083 L 15.395833 10.557292 C 14.567708 9.223958 15.526042 7.5 17.09375 7.5 L 31.21875 7.5 " transform="matrix(0.75,0,0,0.75,0,0)"/>
<path style="fill:none;stroke-width:3;stroke-linecap:round;stroke-linejoin:round;stroke:rgb(9.411765%,9.803922%,24.705882%);stroke-opacity:1;stroke-miterlimit:10;" d="M 8.265625 18.911458 L 5.5625 19.65625 C 4.140625 20.046875 3.619792 21.786458 4.583333 22.895833 L 20.09375 40.734375 C 21.130208 41.927083 23.078125 41.5 23.520833 39.979167 L 30.5 15.9375 C 30.9375 14.432292 29.557292 13.036458 28.046875 13.453125 L 14.526042 17.182292 " transform="matrix(0.75,0,0,0.75,0,0)"/>
<path style=" stroke:none;fill-rule:nonzero;fill:rgb(9.411765%,9.803922%,24.705882%);fill-opacity:1;" d="M 14.25 25.875 C 14.25 26.496094 13.746094 27 13.125 27 C 12.503906 27 12 26.496094 12 25.875 C 12 25.253906 12.503906 24.75 13.125 24.75 C 13.746094 24.75 14.25 25.253906 14.25 25.875 Z M 14.25 25.875 "/>
<path style=" stroke:none;fill-rule:nonzero;fill:rgb(9.411765%,9.803922%,24.705882%);fill-opacity:1;" d="M 18 14.625 C 18 15.246094 17.496094 15.75 16.875 15.75 C 16.253906 15.75 15.75 15.246094 15.75 14.625 C 15.75 14.003906 16.253906 13.5 16.875 13.5 C 17.496094 13.5 18 14.003906 18 14.625 Z M 18 14.625 "/>
<path style=" stroke:none;fill-rule:nonzero;fill:rgb(9.411765%,9.803922%,24.705882%);fill-opacity:1;" d="M 17.25 19.875 C 17.25 20.496094 16.746094 21 16.125 21 C 15.503906 21 15 20.496094 15 19.875 C 15 19.253906 15.503906 18.75 16.125 18.75 C 16.746094 18.75 17.25 19.253906 17.25 19.875 Z M 17.25 19.875 "/>
<path style=" stroke:none;fill-rule:nonzero;fill:rgb(9.411765%,9.803922%,24.705882%);fill-opacity:1;" d="M 20.25 6.375 C 20.25 6.996094 19.746094 7.5 19.125 7.5 C 18.503906 7.5 18 6.996094 18 6.375 C 18 5.753906 18.503906 5.25 19.125 5.25 C 19.746094 5.25 20.25 5.753906 20.25 6.375 Z M 20.25 6.375 "/>
<path style=" stroke:none;fill-rule:nonzero;fill:rgb(9.411765%,9.803922%,24.705882%);fill-opacity:1;" d="M 28.5 9.375 C 28.5 9.996094 27.996094 10.5 27.375 10.5 C 26.753906 10.5 26.25 9.996094 26.25 9.375 C 26.25 8.753906 26.753906 8.25 27.375 8.25 C 27.996094 8.25 28.5 8.753906 28.5 9.375 Z M 28.5 9.375 "/>
<path style=" stroke:none;fill-rule:nonzero;fill:rgb(9.411765%,9.803922%,24.705882%);fill-opacity:1;" d="M 27.75 16.875 C 27.75 17.496094 27.246094 18 26.625 18 C 26.003906 18 25.5 17.496094 25.5 16.875 C 25.5 16.253906 26.003906 15.75 26.625 15.75 C 27.246094 15.75 27.75 16.253906 27.75 16.875 Z M 27.75 16.875 "/>
<path style=" stroke:none;fill-rule:nonzero;fill:rgb(9.411765%,9.803922%,24.705882%);fill-opacity:1;" d="M 11.25 17.625 C 11.25 18.246094 10.746094 18.75 10.125 18.75 C 9.503906 18.75 9 18.246094 9 17.625 C 9 17.003906 9.503906 16.5 10.125 16.5 C 10.746094 16.5 11.25 17.003906 11.25 17.625 Z M 11.25 17.625 "/>
</g>
</svg>
