<?xml version="1.0" encoding="UTF-8"?>
<svg xmlns="http://www.w3.org/2000/svg" xmlns:xlink="http://www.w3.org/1999/xlink" width="36pt" height="36pt" viewBox="0 0 36 36" version="1.1">
<g id="surface26539">
<path style=" stroke:none;fill-rule:nonzero;fill:rgb(100%,87.843138%,50.980395%);fill-opacity:1;" d="M 26.949219 9.75 L 15.050781 9.75 C 11.5 9.75 8.625 12.625 8.625 16.175781 C 8.625 16.769531 9.105469 17.25 9.699219 17.25 L 11.296875 17.25 L 11.296875 23.21875 C 11.296875 27.007812 13.832031 30.804688 16.921875 32.554688 C 17.75 33.023438 18.488281 33.628906 19.144531 34.3125 C 19.53125 34.714844 20.136719 35.078125 21 35.078125 C 21.863281 35.078125 22.46875 34.714844 22.855469 34.3125 C 23.511719 33.628906 24.25 33.023438 25.078125 32.554688 C 28.167969 30.804688 30.703125 27.007812 30.703125 23.21875 L 30.703125 17.25 L 32.300781 17.25 C 32.894531 17.25 33.375 16.769531 33.375 16.175781 C 33.375 12.625 30.5 9.75 26.949219 9.75 Z M 26.949219 9.75 "/>
<path style="fill:none;stroke-width:3;stroke-linecap:round;stroke-linejoin:round;stroke:rgb(9.411765%,9.803922%,24.705882%);stroke-opacity:1;stroke-miterlimit:10;" d="M 34.947917 34.947917 C 36.515625 32.578125 37.5 29.786458 37.5 27 L 37.5 18.5 " transform="matrix(0.75,0,0,0.75,0,0)"/>
<path style="fill:none;stroke-width:3;stroke-linecap:round;stroke-linejoin:round;stroke:rgb(9.411765%,9.803922%,24.705882%);stroke-opacity:1;stroke-miterlimit:10;" d="M 10.5 19.5 L 10.5 27 C 10.5 32.276042 14.026042 37.557292 18.328125 39.989583 C 19.479167 40.640625 20.505208 41.484375 21.421875 42.4375 C 21.958333 42.994792 22.796875 43.5 24 43.5 C 25.203125 43.5 26.041667 42.994792 26.583333 42.4375 C 27.494792 41.484375 28.526042 40.640625 29.671875 39.989583 C 29.765625 39.9375 29.854167 39.885417 29.947917 39.833333 " transform="matrix(0.75,0,0,0.75,0,0)"/>
<path style="fill:none;stroke-width:3;stroke-linecap:round;stroke-linejoin:round;stroke:rgb(9.411765%,9.803922%,24.705882%);stroke-opacity:1;stroke-miterlimit:10;" d="M 12.760417 18.5 L 7.5 18.5 C 7.5 13.53125 11.53125 8.5 16.5 8.5 L 31.5 8.5 C 36.46875 8.5 40.5 13.53125 40.5 18.5 L 25.213542 18.5 " transform="matrix(0.75,0,0,0.75,0,0)"/>
<path style="fill:none;stroke-width:3;stroke-linecap:round;stroke-linejoin:round;stroke:rgb(9.411765%,9.803922%,24.705882%);stroke-opacity:1;stroke-miterlimit:10;" d="M 21.5 2.5 C 23.5 2.5 27.5 4.5 23.5 8.5 " transform="matrix(0.75,0,0,0.75,0,0)"/>
<path style="fill:none;stroke-width:3;stroke-linecap:round;stroke-linejoin:round;stroke:rgb(9.411765%,9.803922%,24.705882%);stroke-opacity:1;stroke-miterlimit:10;" d="M 6 6 L 42 42 " transform="matrix(0.75,0,0,0.75,0,0)"/>
</g>
</svg>
