<?xml version="1.0" encoding="UTF-8"?>
<svg xmlns="http://www.w3.org/2000/svg" xmlns:xlink="http://www.w3.org/1999/xlink" width="36pt" height="36pt" viewBox="0 0 36 36" version="1.1">
<g id="surface17129">
<path style=" stroke:none;fill-rule:nonzero;fill:rgb(62.352943%,65.882355%,85.490197%);fill-opacity:1;" d="M 25.726562 36 L 18.226562 36 C 12.601562 36 7.949219 31.199219 7.949219 25.425781 C 7.949219 24.675781 8.550781 24 9.300781 24 L 34.648438 24 C 35.398438 24 36 24.601562 36 25.425781 C 36 31.273438 31.425781 36 25.726562 36 Z M 25.726562 36 "/>
<path style="fill:none;stroke-width:3;stroke-linecap:round;stroke-linejoin:round;stroke:rgb(9.411765%,9.803922%,24.705882%);stroke-opacity:1;stroke-miterlimit:10;" d="M 23.802083 8.401042 C 23.802083 10.802083 21.802083 10.802083 21.802083 13.197917 C 21.802083 15.598958 23.802083 15.598958 23.802083 18 C 23.802083 20.401042 21.802083 20.401042 21.802083 22.802083 C 21.802083 25.197917 23.802083 25.197917 23.802083 27.598958 " transform="matrix(0.75,0,0,0.75,0,0)"/>
<path style="fill:none;stroke-width:3;stroke-linecap:round;stroke-linejoin:round;stroke:rgb(9.411765%,9.803922%,24.705882%);stroke-opacity:1;stroke-miterlimit:10;" d="M 42.401042 14.5 L 5.5 14.5 " transform="matrix(0.75,0,0,0.75,0,0)"/>
<path style="fill:none;stroke-width:3;stroke-linecap:round;stroke-linejoin:round;stroke:rgb(9.411765%,9.803922%,24.705882%);stroke-opacity:1;stroke-miterlimit:10;" d="M 41.598958 3.5 L 5.5 9.401042 " transform="matrix(0.75,0,0,0.75,0,0)"/>
<path style="fill:none;stroke-width:3;stroke-linecap:round;stroke-linejoin:round;stroke:rgb(9.411765%,9.803922%,24.705882%);stroke-opacity:1;stroke-miterlimit:4;" d="M 5.302083 36.5 C 4.197917 34.401042 3.5 32 3.5 29.5 C 3.5 28.401042 4.401042 27.5 5.5 27.5 L 32.5 27.5 " transform="matrix(0.75,0,0,0.75,0,0)"/>
<path style="fill:none;stroke-width:3;stroke-linecap:round;stroke-linejoin:round;stroke:rgb(9.411765%,9.803922%,24.705882%);stroke-opacity:1;stroke-miterlimit:4;" d="M 40.598958 27.5 L 42.5 27.5 C 43.598958 27.5 44.5 28.401042 44.5 29.5 C 44.5 37.802083 37.802083 44.5 29.5 44.5 L 18.5 44.5 C 15.302083 44.5 12.302083 43.5 9.802083 41.697917 " transform="matrix(0.75,0,0,0.75,0,0)"/>
<path style="fill:none;stroke-width:3;stroke-linecap:round;stroke-linejoin:round;stroke:rgb(9.411765%,9.803922%,24.705882%);stroke-opacity:1;stroke-miterlimit:10;" d="M 17.802083 8.401042 C 17.802083 10.802083 15.802083 10.802083 15.802083 13.197917 C 15.802083 15.598958 17.802083 15.598958 17.802083 18 C 17.802083 20.401042 15.802083 20.401042 15.802083 22.802083 C 15.802083 25.197917 17.802083 25.197917 17.802083 27.598958 " transform="matrix(0.75,0,0,0.75,0,0)"/>
<path style="fill:none;stroke-width:3;stroke-linecap:round;stroke-linejoin:round;stroke:rgb(9.411765%,9.803922%,24.705882%);stroke-opacity:1;stroke-miterlimit:10;" d="M 11.802083 8.401042 C 11.802083 10.802083 9.802083 10.802083 9.802083 13.197917 C 9.802083 15.598958 11.802083 15.598958 11.802083 18 C 11.802083 20.401042 9.802083 20.401042 9.802083 22.802083 C 9.802083 25.197917 11.802083 25.197917 11.802083 27.598958 " transform="matrix(0.75,0,0,0.75,0,0)"/>
</g>
</svg>
