<?xml version="1.0" encoding="UTF-8"?>
<svg xmlns="http://www.w3.org/2000/svg" xmlns:xlink="http://www.w3.org/1999/xlink" width="36pt" height="36pt" viewBox="0 0 36 36" version="1.1">
<g id="surface22486">
<path style=" stroke:none;fill-rule:nonzero;fill:rgb(100%,87.843138%,50.980395%);fill-opacity:1;" d="M 9 27.601562 C 9 31.273438 11.773438 34.425781 15.898438 35.925781 C 16.050781 36 16.273438 36 16.425781 36 L 25.648438 36 C 25.800781 36 26.023438 36 26.175781 35.925781 C 30.226562 34.425781 33.074219 31.273438 33.074219 27.601562 C 33.074219 26.699219 32.925781 25.800781 32.550781 24.976562 C 32.25 24.375 31.726562 24 31.050781 24 L 10.949219 24 C 10.351562 24 9.75 24.375 9.523438 24.976562 C 9.148438 25.800781 9 26.699219 9 27.601562 Z M 9 27.601562 "/>
<path style="fill:none;stroke-width:3;stroke-linecap:round;stroke-linejoin:round;stroke:rgb(9.411765%,9.803922%,24.705882%);stroke-opacity:1;stroke-miterlimit:10;" d="M 33.098958 14.802083 C 35.098958 15.5 36.5 17.302083 36.5 19.5 C 36.5 21.5 35.302083 23.197917 33.697917 24 " transform="matrix(0.75,0,0,0.75,0,0)"/>
<path style="fill:none;stroke-width:3;stroke-linecap:round;stroke-linejoin:round;stroke:rgb(9.411765%,9.803922%,24.705882%);stroke-opacity:1;stroke-miterlimit:10;" d="M 20.697917 3.5 L 27.401042 3.5 C 28 3.5 28.5 4 28.401042 4.598958 L 27.598958 9.5 L 20.598958 9.5 L 19.802083 4.598958 C 19.598958 4 20 3.5 20.697917 3.5 Z M 20.697917 3.5 " transform="matrix(0.75,0,0,0.75,0,0)"/>
<path style="fill:none;stroke-width:3;stroke-linecap:round;stroke-linejoin:round;stroke:rgb(9.411765%,9.803922%,24.705882%);stroke-opacity:1;stroke-miterlimit:10;" d="M 20.401042 28.401042 L 37.401042 28.401042 " transform="matrix(0.75,0,0,0.75,0,0)"/>
<path style="fill:none;stroke-width:3;stroke-linecap:round;stroke-linejoin:round;stroke:rgb(9.411765%,9.803922%,24.705882%);stroke-opacity:1;stroke-miterlimit:10;" d="M 19 9.5 L 29 9.5 " transform="matrix(0.75,0,0,0.75,0,0)"/>
<path style="fill:none;stroke-width:3;stroke-linecap:round;stroke-linejoin:round;stroke:rgb(9.411765%,9.803922%,24.705882%);stroke-opacity:1;stroke-miterlimit:10;" d="M 10.697917 38.901042 C 12.302083 40.901042 14.802083 42.5 17.697917 43.5 L 30.302083 43.5 C 35.697917 41.697917 39.5 37.697917 39.5 33 C 39.5 28.901042 36.598958 25.302083 32.302083 23.302083 C 29.302083 21.901042 27.5 18.802083 27.5 15.5 L 27.5 9.5 L 20.5 9.5 L 20.5 15.5 C 20.5 18.802083 18.697917 21.901042 15.697917 23.302083 C 11.401042 25.302083 8.5 28.901042 8.5 33 " transform="matrix(0.75,0,0,0.75,0,0)"/>
</g>
</svg>
