<?xml version="1.0" encoding="UTF-8"?>
<svg xmlns="http://www.w3.org/2000/svg" xmlns:xlink="http://www.w3.org/1999/xlink" width="36pt" height="36pt" viewBox="0 0 36 36" version="1.1">
<g id="surface27510">
<path style=" stroke:none;fill-rule:nonzero;fill:rgb(64.705884%,83.92157%,65.490198%);fill-opacity:1;" d="M 16.875 30.375 C 15.523438 33.601562 12.226562 35.324219 9.898438 34.425781 C 7.574219 33.449219 6.523438 29.925781 7.875 26.625 C 9.226562 23.324219 12.300781 21.898438 14.625 22.875 C 16.949219 23.851562 18.226562 27.148438 16.875 30.375 Z M 16.875 30.375 "/>
<path style=" stroke:none;fill-rule:nonzero;fill:rgb(64.705884%,83.92157%,65.490198%);fill-opacity:1;" d="M 30.375 25.5 C 30.375 29.019531 28.359375 31.875 25.875 31.875 C 23.390625 31.875 21.375 29.019531 21.375 25.5 C 21.375 21.980469 23.390625 19.125 25.875 19.125 C 28.359375 19.125 30.375 21.980469 30.375 25.5 Z M 30.375 25.5 "/>
<path style="fill:none;stroke-width:3;stroke-linecap:round;stroke-linejoin:round;stroke:rgb(9.411765%,9.803922%,24.705882%);stroke-opacity:1;stroke-miterlimit:4;" d="M 5.802083 36.697917 C 5.598958 35.098958 5.802083 33.197917 6.5 31.5 C 8.302083 27.197917 12.401042 25.197917 15.5 26.5 C 18.598958 27.802083 20.302083 32.197917 18.5 36.5 C 16.697917 40.802083 12.302083 43.098958 9.197917 41.901042 C 8.697917 41.697917 8.302083 41.401042 7.901042 41.098958 " transform="matrix(0.75,0,0,0.75,0,0)"/>
<path style="fill:none;stroke-width:3;stroke-linecap:round;stroke-linejoin:round;stroke:rgb(9.411765%,9.803922%,24.705882%);stroke-opacity:1;stroke-miterlimit:4;" d="M 36.5 30.197917 C 36.401042 34.802083 33.802083 38.5 30.5 38.5 C 27.197917 38.5 24.5 34.697917 24.5 30 C 24.5 25.302083 27.197917 21.5 30.5 21.5 C 32 21.5 33.5 22.302083 34.5 23.697917 " transform="matrix(0.75,0,0,0.75,0,0)"/>
<path style="fill:none;stroke-width:3;stroke-linecap:round;stroke-linejoin:round;stroke:rgb(9.411765%,9.803922%,24.705882%);stroke-opacity:1;stroke-miterlimit:4;" d="M 16.5 26.5 C 16.5 26.5 22.5 9.5 42.5 15.5 " transform="matrix(0.75,0,0,0.75,0,0)"/>
<path style="fill:none;stroke-width:3;stroke-linecap:round;stroke-linejoin:round;stroke:rgb(9.411765%,9.803922%,24.705882%);stroke-opacity:1;stroke-miterlimit:4;" d="M 30.302083 21.197917 C 30.697917 18.401042 33.5 15.401042 36 14.401042 " transform="matrix(0.75,0,0,0.75,0,0)"/>
<path style="fill:none;stroke-width:3;stroke-linecap:round;stroke-linejoin:round;stroke:rgb(9.411765%,9.803922%,24.705882%);stroke-opacity:1;stroke-miterlimit:4;" d="M 14.401042 10 C 14.302083 9.302083 14.401042 8.697917 14.401042 8.302083 C 14.401042 7.802083 14.802083 7.5 15.197917 7.401042 C 17.901042 7 27.197917 6.098958 25.5 15.5 " transform="matrix(0.75,0,0,0.75,0,0)"/>
<path style="fill:none;stroke-width:3;stroke-linecap:round;stroke-linejoin:round;stroke:rgb(9.411765%,9.803922%,24.705882%);stroke-opacity:1;stroke-miterlimit:4;" d="M 25 16 C 20.401042 16.901042 17.802083 16 16.302083 14.5 " transform="matrix(0.75,0,0,0.75,0,0)"/>
<path style="fill:none;stroke-width:3;stroke-linecap:round;stroke-linejoin:round;stroke:rgb(9.411765%,9.803922%,24.705882%);stroke-opacity:1;stroke-miterlimit:4;" d="M 26.5 15.5 C 26.5 15.5 24.598958 7.098958 32.598958 5.598958 C 33.098958 5.5 33.697917 5.802083 33.802083 6.401042 C 34.197917 8.598958 34.401042 13.901042 26.5 15.5 Z M 26.5 15.5 " transform="matrix(0.75,0,0,0.75,0,0)"/>
</g>
</svg>
