<?xml version="1.0" encoding="UTF-8"?>
<svg xmlns="http://www.w3.org/2000/svg" xmlns:xlink="http://www.w3.org/1999/xlink" width="36pt" height="36pt" viewBox="0 0 36 36" version="1.1">
<g id="surface27444">
<path style=" stroke:none;fill-rule:nonzero;fill:rgb(100%,87.843138%,50.980395%);fill-opacity:1;" d="M 24.375 9.601562 L 24.375 9.148438 C 24.375 8.625 23.925781 8.25 23.398438 8.398438 L 21.898438 8.851562 C 21.75 8.925781 21.523438 8.925781 21.375 8.773438 L 18.75 7.425781 C 18.226562 7.199219 17.699219 7.574219 17.699219 8.101562 L 17.699219 9.523438 C 17.699219 14.175781 10.5 17.625 10.949219 24.824219 C 11.101562 30 15.148438 34.125 20.175781 34.5 C 26.175781 34.949219 31.199219 30.300781 31.199219 24.300781 C 31.199219 17.550781 24.375 14.175781 24.375 9.601562 Z M 24.375 9.601562 "/>
<path style="fill:none;stroke-width:3;stroke-linecap:round;stroke-linejoin:round;stroke:rgb(9.411765%,9.803922%,24.705882%);stroke-opacity:1;stroke-miterlimit:10;" d="M 24 42.5 L 24 45.302083 " transform="matrix(0.75,0,0,0.75,0,0)"/>
<path style="fill:none;stroke-width:3;stroke-linecap:round;stroke-linejoin:round;stroke:rgb(9.411765%,9.803922%,24.705882%);stroke-opacity:1;stroke-miterlimit:10;" d="M 21.598958 42 L 19.197917 44.598958 " transform="matrix(0.75,0,0,0.75,0,0)"/>
<path style="fill:none;stroke-width:3;stroke-linecap:round;stroke-linejoin:round;stroke:rgb(9.411765%,9.803922%,24.705882%);stroke-opacity:1;stroke-miterlimit:10;" d="M 26.401042 42 L 28.802083 44.598958 " transform="matrix(0.75,0,0,0.75,0,0)"/>
<path style="fill:none;stroke-width:3;stroke-linecap:round;stroke-linejoin:round;stroke:rgb(9.411765%,9.803922%,24.705882%);stroke-opacity:1;stroke-miterlimit:10;" d="M 30 25 C 30.5 26.098958 30.901042 27.197917 30.901042 28.197917 C 30.901042 32.098958 27.901042 35.098958 24 35.098958 C 20.098958 35.098958 17.098958 32.098958 17.098958 28.197917 C 17.098958 24.302083 21.5 20.098958 24 16.802083 C 24.802083 17.901042 25.901042 19.197917 27 20.598958 " transform="matrix(0.75,0,0,0.75,0,0)"/>
<path style="fill:none;stroke-width:3;stroke-linecap:round;stroke-linejoin:round;stroke:rgb(9.411765%,9.803922%,24.705882%);stroke-opacity:1;stroke-miterlimit:10;" d="M 13.802083 19 C 11.802083 21.802083 10.197917 25.098958 10.401042 29.197917 C 10.802083 36 16.197917 41.5 22.901042 42 C 30.901042 42.598958 37.598958 36.401042 37.598958 28.401042 C 37.598958 19.302083 28.5 14.802083 28.5 8.802083 L 28.5 8.197917 C 28.5 7.5 27.901042 7 27.197917 7.197917 L 25.197917 7.802083 C 25 7.901042 24.697917 7.901042 24.5 7.697917 L 21 5.901042 C 20.302083 5.598958 19.598958 6.098958 19.598958 6.802083 L 19.598958 8.697917 C 19.598958 10.5 18.802083 12.197917 17.598958 13.901042 " transform="matrix(0.75,0,0,0.75,0,0)"/>
</g>
</svg>
