<?xml version="1.0" encoding="UTF-8"?>
<svg xmlns="http://www.w3.org/2000/svg" xmlns:xlink="http://www.w3.org/1999/xlink" width="36pt" height="36pt" viewBox="0 0 36 36" version="1.1">
<g id="surface21236">
<path style=" stroke:none;fill-rule:nonzero;fill:rgb(100%,87.843138%,50.980395%);fill-opacity:1;" d="M 32.25 24.75 C 32.25 30.964844 27.214844 36 21 36 C 14.785156 36 9.75 30.964844 9.75 24.75 C 9.75 18.535156 14.785156 13.5 21 13.5 C 27.214844 13.5 32.25 18.535156 32.25 24.75 Z M 32.25 24.75 "/>
<path style="fill:none;stroke-width:3;stroke-linecap:round;stroke-linejoin:miter;stroke:rgb(9.411765%,9.803922%,24.705882%);stroke-opacity:1;stroke-miterlimit:4;" d="M 18.5 7.5 C 18.5 7.5 22.901042 8.197917 24.197917 13.5 " transform="matrix(0.75,0,0,0.75,0,0)"/>
<path style="fill:none;stroke-width:3;stroke-linecap:round;stroke-linejoin:round;stroke:rgb(9.411765%,9.803922%,24.705882%);stroke-opacity:1;stroke-miterlimit:4;" d="M 32.598958 41.901042 C 30.098958 43.5 27.197917 44.5 24 44.5 C 15.401042 44.5 8.5 37.598958 8.5 29 C 8.5 28.697917 8.5 28.5 8.5 28.197917 " transform="matrix(0.75,0,0,0.75,0,0)"/>
<path style="fill:none;stroke-width:3;stroke-linecap:round;stroke-linejoin:round;stroke:rgb(9.411765%,9.803922%,24.705882%);stroke-opacity:1;stroke-miterlimit:4;" d="M 10.598958 21.197917 C 13.302083 16.598958 18.302083 13.5 24 13.5 C 32.598958 13.5 39.5 20.401042 39.5 29 C 39.5 31.901042 38.697917 34.598958 37.302083 37 " transform="matrix(0.75,0,0,0.75,0,0)"/>
<path style="fill:none;stroke-width:3;stroke-linecap:round;stroke-linejoin:round;stroke:rgb(9.411765%,9.803922%,24.705882%);stroke-opacity:1;stroke-miterlimit:4;" d="M 32.697917 9 C 33.401042 7.5 33.598958 5.802083 33.197917 4.302083 C 31 3.697917 28.302083 4.401042 26.302083 6.401042 C 24.302083 8.401042 23.598958 11 24.197917 13.302083 " transform="matrix(0.75,0,0,0.75,0,0)"/>
</g>
</svg>
