<?xml version="1.0" encoding="UTF-8"?>
<svg xmlns="http://www.w3.org/2000/svg" xmlns:xlink="http://www.w3.org/1999/xlink" width="36pt" height="36pt" viewBox="0 0 36 36" version="1.1">
<g id="surface21280">
<path style=" stroke:none;fill-rule:nonzero;fill:rgb(100%,87.843138%,50.980395%);fill-opacity:1;" d="M 26.398438 11.773438 L 25.875 9.148438 C 25.574219 7.726562 24.300781 6.75 22.875 6.75 L 19.125 6.75 C 17.625 6.75 16.351562 7.800781 16.125 9.148438 L 15.601562 11.773438 C 15.449219 12.675781 15 13.5 14.398438 14.175781 C 12.523438 16.425781 11.398438 19.574219 11.398438 23.101562 C 11.398438 29.851562 15.675781 35.324219 21 35.324219 C 26.324219 35.324219 30.601562 29.851562 30.601562 23.101562 C 30.601562 19.574219 29.398438 16.425781 27.601562 14.175781 C 27 13.5 26.625 12.675781 26.398438 11.773438 Z M 26.398438 11.773438 "/>
<path style="fill:none;stroke-width:3;stroke-linecap:round;stroke-linejoin:round;stroke:rgb(9.411765%,9.803922%,24.705882%);stroke-opacity:1;stroke-miterlimit:4;" d="M 30.598958 40.197917 C 34.098958 37.401042 36.5 32.401042 36.5 26.697917 C 36.5 22.098958 35 18.098958 32.598958 15.197917 C 31.802083 14.302083 31.302083 13.197917 31.098958 12.098958 L 30.5 8.697917 C 30.197917 6.901042 28.5 5.5 26.598958 5.5 L 21.697917 5.5 C 19.802083 5.5 18.098958 6.802083 17.802083 8.697917 L 17 12 C 16.802083 13.197917 16.197917 14.197917 15.5 15.098958 C 15.098958 15.5 14.802083 16 14.5 16.401042 " transform="matrix(0.75,0,0,0.75,0,0)"/>
<path style="fill:none;stroke-width:3;stroke-linecap:round;stroke-linejoin:round;stroke:rgb(9.411765%,9.803922%,24.705882%);stroke-opacity:1;stroke-miterlimit:4;" d="M 12.098958 21.697917 C 11.697917 23.302083 11.5 24.901042 11.5 26.697917 C 11.5 35.5 17.098958 42.598958 24 42.598958 " transform="matrix(0.75,0,0,0.75,0,0)"/>
<path style="fill:none;stroke-width:3;stroke-linecap:round;stroke-linejoin:round;stroke:rgb(9.411765%,9.803922%,24.705882%);stroke-opacity:1;stroke-miterlimit:4;" d="M 29.197917 30.697917 C 28.302083 33.5 26.302083 35.401042 24 35.401042 C 20.802083 35.401042 18.302083 31.697917 18.302083 27 C 18.302083 22.302083 20.901042 18.598958 24 18.598958 C 26.401042 18.598958 28.5 20.802083 29.401042 24 " transform="matrix(0.75,0,0,0.75,0,0)"/>
</g>
</svg>
