<?xml version="1.0" encoding="UTF-8"?>
<svg xmlns="http://www.w3.org/2000/svg" xmlns:xlink="http://www.w3.org/1999/xlink" width="36pt" height="36pt" viewBox="0 0 36 36" version="1.1">
<g id="surface34092">
<path style=" stroke:none;fill-rule:nonzero;fill:rgb(95.686275%,56.078434%,69.411767%);fill-opacity:1;" d="M 34.265625 10.984375 C 34.160156 10.390625 33.898438 9.511719 33.230469 8.84375 C 32.515625 8.128906 31.507812 7.941406 30.875 7.902344 C 30.527344 7.875 30.195312 8.054688 30.011719 8.351562 L 29.570312 9.050781 C 28.480469 8.386719 27.066406 8.183594 26.183594 8.210938 C 25.457031 8.230469 24.84375 8.746094 24.710938 9.460938 L 23.765625 14.675781 L 19.65625 14.136719 C 17.773438 13.804688 16.054688 14.578125 15.386719 16.1875 L 7.8125 32.480469 C 7.59375 32.953125 7.695312 33.515625 8.0625 33.882812 C 8.421875 34.242188 8.964844 34.34375 9.429688 34.144531 L 26.417969 26.828125 C 28.136719 26.164062 28.636719 24.5 28.523438 22.726562 L 28.085938 18.625 L 33 16.667969 C 33.710938 16.386719 34.101562 15.628906 33.917969 14.886719 C 33.757812 14.242188 33.449219 13.300781 32.941406 12.535156 L 33.835938 11.960938 C 34.160156 11.75 34.332031 11.367188 34.265625 10.984375 Z M 34.265625 10.984375 "/>
<path style="fill:none;stroke-width:3;stroke-linecap:round;stroke-linejoin:round;stroke:rgb(9.411765%,9.803922%,24.705882%);stroke-opacity:1;stroke-miterlimit:10;" d="M 30.802083 31.609375 L 30.994792 31.526042 C 33.213542 30.666667 33.859375 28.520833 33.713542 26.229167 L 33.140625 20.859375 C 32.713542 19.286458 29.348958 16.208333 27.703125 15.848958 L 22.260417 15.135417 C 19.828125 14.708333 17.609375 15.708333 16.75 17.786458 L 10.083333 32.135417 " transform="matrix(0.75,0,0,0.75,0,0)"/>
<path style="fill:none;stroke-width:3;stroke-linecap:round;stroke-linejoin:round;stroke:rgb(9.411765%,9.803922%,24.705882%);stroke-opacity:1;stroke-miterlimit:10;" d="M 7.71875 37.213542 L 6.796875 39.208333 C 6.619792 39.588542 6.697917 40.036458 6.994792 40.338542 L 7.583333 40.921875 C 7.869792 41.213542 8.307292 41.296875 8.6875 41.135417 L 22.963542 34.984375 " transform="matrix(0.75,0,0,0.75,0,0)"/>
<path style="fill:none;stroke-width:3;stroke-linecap:round;stroke-linejoin:round;stroke:rgb(9.411765%,9.803922%,24.705882%);stroke-opacity:1;stroke-miterlimit:10;" d="M 39.651042 12.6875 C 40.359375 13.692708 40.744792 14.765625 40.963542 15.630208 C 41.197917 16.588542 40.692708 17.567708 39.78125 17.932292 L 37.104167 18.994792 " transform="matrix(0.75,0,0,0.75,0,0)"/>
<path style="fill:none;stroke-width:3;stroke-linecap:round;stroke-linejoin:round;stroke:rgb(9.411765%,9.803922%,24.705882%);stroke-opacity:1;stroke-miterlimit:10;" d="M 33.046875 11.760417 L 35.916667 7.192708 C 36.161458 6.8125 36.588542 6.583333 37.036458 6.614583 C 37.848958 6.666667 39.15625 6.911458 40.072917 7.833333 C 40.9375 8.692708 41.28125 9.828125 41.411458 10.59375 C 41.5 11.088542 41.276042 11.583333 40.854167 11.854167 L 36.182292 14.859375 " transform="matrix(0.75,0,0,0.75,0,0)"/>
<path style="fill:none;stroke-width:3;stroke-linecap:round;stroke-linejoin:round;stroke:rgb(9.411765%,9.803922%,24.705882%);stroke-opacity:1;stroke-miterlimit:10;" d="M 27.734375 16.010417 L 29.078125 8.625 C 29.244792 7.703125 30.036458 7.036458 30.973958 7.010417 " transform="matrix(0.75,0,0,0.75,0,0)"/>
<path style="fill:none;stroke-width:3;stroke-linecap:round;stroke-linejoin:round;stroke:rgb(9.411765%,9.803922%,24.705882%);stroke-opacity:1;stroke-miterlimit:10;" d="M 28.15625 25.036458 L 32.005208 19.4375 " transform="matrix(0.75,0,0,0.75,0,0)"/>
<path style="fill:none;stroke-width:3;stroke-linecap:round;stroke-linejoin:round;stroke:rgb(9.411765%,9.803922%,24.705882%);stroke-opacity:1;stroke-miterlimit:10;" d="M 23.395833 20.979167 L 28.572917 16.572917 " transform="matrix(0.75,0,0,0.75,0,0)"/>
</g>
</svg>
