<?xml version="1.0" encoding="UTF-8"?>
<svg xmlns="http://www.w3.org/2000/svg" xmlns:xlink="http://www.w3.org/1999/xlink" width="36pt" height="36pt" viewBox="0 0 36 36" version="1.1">
<g id="surface27854">
<path style=" stroke:none;fill-rule:nonzero;fill:rgb(100%,67.058825%,56.862748%);fill-opacity:1;" d="M 25.199219 7.875 C 23.625 7.648438 22.273438 7.800781 21 8.25 L 20.773438 8.101562 C 17.625 6.226562 13.800781 7.351562 11.175781 9.675781 C 8.175781 12.300781 6.675781 16.351562 6.675781 20.175781 C 6.675781 27.976562 11.550781 31.648438 14.550781 33.074219 C 16.726562 34.125 19.351562 34.800781 21.148438 35.851562 C 21.675781 36.148438 22.425781 36.074219 22.875 35.699219 C 24 34.800781 25.273438 34.125 27.449219 32.773438 C 32.476562 29.476562 35.25 26.550781 35.25 20.175781 C 35.25 13.425781 30.898438 8.625 25.199219 7.875 Z M 25.199219 7.875 "/>
<path style="fill:none;stroke-width:3;stroke-linecap:round;stroke-linejoin:miter;stroke:rgb(9.411765%,9.803922%,24.705882%);stroke-opacity:1;stroke-miterlimit:20;" d="M 17.401042 14.401042 C 15.901042 17.401042 15.302083 21 15.5 24.302083 C 15.697917 27.598958 17.401042 30.901042 19.5 33.5 " transform="matrix(0.75,0,0,0.75,0,0)"/>
<path style="fill:none;stroke-width:3;stroke-linecap:round;stroke-linejoin:miter;stroke:rgb(9.411765%,9.803922%,24.705882%);stroke-opacity:1;stroke-miterlimit:20;" d="M 42.5 23.697917 C 42.5 14.802083 36.802083 8.598958 29.5 7.5 C 27.697917 7.197917 26 7.401042 24.5 7.901042 " transform="matrix(0.75,0,0,0.75,0,0)"/>
<path style="fill:none;stroke-width:3;stroke-linecap:round;stroke-linejoin:miter;stroke:rgb(9.411765%,9.803922%,24.705882%);stroke-opacity:1;stroke-miterlimit:20;" d="M 6.5 17.401042 C 5.802083 19.401042 5.5 21.598958 5.5 23.697917 C 5.5 34 11.901042 38.802083 15.697917 40.598958 C 18.5 42 21.901042 42.901042 24.302083 44.197917 C 25 44.598958 25.901042 44.5 26.598958 44 C 28 42.802083 29.697917 41.901042 32.5 40.098958 C 35.802083 38 38.302083 36 40 33.5 " transform="matrix(0.75,0,0,0.75,0,0)"/>
<path style="fill:none;stroke-width:3;stroke-linecap:round;stroke-linejoin:round;stroke:rgb(9.411765%,9.803922%,24.705882%);stroke-opacity:1;stroke-miterlimit:20;" d="M 24.598958 6.098958 C 25.098958 4.098958 24.302083 1.697917 24.302083 1.697917 " transform="matrix(0.75,0,0,0.75,0,0)"/>
<path style="fill:none;stroke-width:3;stroke-linecap:round;stroke-linejoin:round;stroke:rgb(9.411765%,9.803922%,24.705882%);stroke-opacity:1;stroke-miterlimit:20;" d="M 9.901042 7.098958 C 8.598958 8.197917 7.598958 9.598958 6.901042 11.098958 C 6.697917 11.598958 6.901042 12.197917 7.302083 12.5 C 10.098958 14.302083 13.598958 14.901042 17 13.901042 C 20.401042 12.901042 23 10.5 24.401042 7.401042 C 24.598958 6.901042 24.401042 6.302083 24 6 C 21.697917 4.5 18.901042 3.802083 16.098958 4.197917 " transform="matrix(0.75,0,0,0.75,0,0)"/>
</g>
</svg>
