<?xml version="1.0" encoding="UTF-8"?>
<svg xmlns="http://www.w3.org/2000/svg" xmlns:xlink="http://www.w3.org/1999/xlink" width="36pt" height="36pt" viewBox="0 0 36 36" version="1.1">
<g id="surface22428">
<path style=" stroke:none;fill-rule:nonzero;fill:rgb(100%,67.058825%,56.862748%);fill-opacity:1;" d="M 30.75 12.855469 L 30.75 8.894531 C 30.75 8.125 30.125 7.5 29.355469 7.5 L 12.644531 7.5 C 11.875 7.5 11.25 8.125 11.25 8.894531 L 11.25 12.855469 C 11.25 13.625 11.875 14.25 12.644531 14.25 L 14.140625 14.25 C 12.542969 14.25 11.25 15.542969 11.25 17.140625 L 11.25 31.609375 C 11.25 33.207031 12.542969 34.5 14.140625 34.5 L 27.859375 34.5 C 29.457031 34.5 30.75 33.207031 30.75 31.609375 L 30.75 17.140625 C 30.75 15.542969 29.457031 14.25 27.859375 14.25 L 29.355469 14.25 C 30.125 14.25 30.75 13.625 30.75 12.855469 Z M 30.75 12.855469 "/>
<path style=" stroke:none;fill-rule:nonzero;fill:rgb(9.411765%,9.803922%,24.705882%);fill-opacity:1;" d="M 16.875 4.5 L 19.125 4.5 L 19.125 6.375 C 19.125 6.996094 18.621094 7.5 18 7.5 C 17.378906 7.5 16.875 6.996094 16.875 6.375 Z M 16.875 4.5 "/>
<path style="fill:none;stroke-width:3;stroke-linecap:round;stroke-linejoin:round;stroke:rgb(9.411765%,9.803922%,24.705882%);stroke-opacity:1;stroke-miterlimit:10;" d="M 37.5 38.5 C 37.5 40.708333 35.708333 42.5 33.5 42.5 L 14.5 42.5 C 12.291667 42.5 10.5 40.708333 10.5 38.5 L 10.5 26.041667 " transform="matrix(0.75,0,0,0.75,0,0)"/>
<path style="fill:none;stroke-width:3;stroke-linecap:round;stroke-linejoin:round;stroke:rgb(9.411765%,9.803922%,24.705882%);stroke-opacity:1;stroke-miterlimit:10;" d="M 10.5 20.171875 L 10.5 18.5 C 10.5 16.291667 12.291667 14.5 14.5 14.5 L 33.5 14.5 C 35.708333 14.5 37.5 16.291667 37.5 18.5 L 37.5 32.630208 " transform="matrix(0.75,0,0,0.75,0,0)"/>
<path style="fill:none;stroke-width:3;stroke-linecap:round;stroke-linejoin:round;stroke:rgb(9.411765%,9.803922%,24.705882%);stroke-opacity:1;stroke-miterlimit:10;" d="M 22.276042 5.5 L 35.567708 5.5 C 36.635417 5.5 37.5 6.364583 37.5 7.432292 L 37.5 12.567708 C 37.5 13.635417 36.635417 14.5 35.567708 14.5 L 12.432292 14.5 C 11.364583 14.5 10.5 13.635417 10.5 12.567708 L 10.5 7.432292 C 10.5 6.364583 11.364583 5.5 12.432292 5.5 L 17 5.5 " transform="matrix(0.75,0,0,0.75,0,0)"/>
<path style=" stroke:none;fill-rule:nonzero;fill:rgb(9.411765%,9.803922%,24.705882%);fill-opacity:1;" d="M 11.625 4.007812 L 13.875 4.007812 L 13.875 6.375 C 13.875 6.996094 13.371094 7.5 12.75 7.5 C 12.128906 7.5 11.625 6.996094 11.625 6.375 Z M 11.625 4.007812 "/>
<path style=" stroke:none;fill-rule:nonzero;fill:rgb(9.411765%,9.803922%,24.705882%);fill-opacity:1;" d="M 22.125 4.5 L 24.375 4.5 L 24.375 6.375 C 24.375 6.996094 23.871094 7.5 23.25 7.5 C 22.628906 7.5 22.125 6.996094 22.125 6.375 Z M 22.125 4.5 "/>
<path style="fill:none;stroke-width:3;stroke-linecap:round;stroke-linejoin:round;stroke:rgb(9.411765%,9.803922%,24.705882%);stroke-opacity:1;stroke-miterlimit:10;" d="M 29.5625 23.708333 C 28.213542 21.557292 25.348958 21.317708 23.666667 23 C 23.197917 23.46875 22.885417 24.03125 22.71875 24.625 C 22.4375 25.635417 21.6875 26.432292 20.677083 26.703125 C 19.796875 26.9375 18.984375 27.494792 18.432292 28.390625 C 17.703125 29.567708 17.708333 31.119792 18.442708 32.291667 C 19.786458 34.442708 22.65625 34.677083 24.338542 33 C 24.807292 32.53125 25.119792 31.96875 25.286458 31.375 C 25.541667 30.458333 26.182292 29.713542 27.052083 29.385417 " transform="matrix(0.75,0,0,0.75,0,0)"/>
</g>
</svg>
