<?xml version="1.0" encoding="UTF-8"?>
<svg xmlns="http://www.w3.org/2000/svg" xmlns:xlink="http://www.w3.org/1999/xlink" width="36pt" height="36pt" viewBox="0 0 36 36" version="1.1">
<g id="surface27962">
<path style=" stroke:none;fill-rule:nonzero;fill:rgb(100%,87.843138%,50.980395%);fill-opacity:1;" d="M 25.949219 20.773438 C 27.601562 22.5 29.25 23.476562 30.824219 24.300781 C 33 25.5 34.574219 26.324219 34.574219 29.023438 C 34.574219 32.773438 30.601562 34.5 27 34.5 C 23.398438 34.5 18.75 32.625 15.898438 28.648438 "/>
<path style=" stroke:none;fill-rule:nonzero;fill:rgb(100%,87.843138%,50.980395%);fill-opacity:1;" d="M 13.273438 28.648438 C 8.925781 28.648438 7.5 25.574219 7.5 24.074219 C 7.5 20.699219 9.675781 19.050781 11.773438 17.476562 C 12.375 17.023438 12.976562 16.574219 13.5 16.125 C 15.226562 14.476562 16.199219 12.824219 17.023438 11.25 C 18.226562 9.074219 19.050781 7.5 21.75 7.5 C 25.5 7.5 27.226562 11.476562 27.226562 15.074219 C 27.226562 20.550781 22.800781 28.648438 13.273438 28.648438 Z M 13.273438 28.648438 "/>
<path style="fill:none;stroke-width:3;stroke-linecap:round;stroke-linejoin:round;stroke:rgb(9.411765%,9.803922%,24.705882%);stroke-opacity:1;stroke-miterlimit:20;" d="M 34.598958 26.901042 C 35.401042 27.401042 36.197917 27.901042 37 28.302083 C 39.901042 29.901042 42 31 42 34.598958 C 42 39.598958 36.697917 41.901042 31.901042 41.901042 C 29.302083 41.901042 26.302083 41.197917 23.401042 39.598958 " transform="matrix(0.75,0,0,0.75,0,0)"/>
<path style="fill:none;stroke-width:3;stroke-linecap:round;stroke-linejoin:round;stroke:rgb(9.411765%,9.803922%,24.705882%);stroke-opacity:1;stroke-miterlimit:20;" d="M 32.098958 18.401042 C 31 25.5 25.098958 34.197917 13.697917 34.197917 C 7.901042 34.197917 6 30.098958 6 28.098958 C 6 24.598958 7.697917 22.598958 9.802083 20.802083 " transform="matrix(0.75,0,0,0.75,0,0)"/>
<path style="fill:none;stroke-width:3;stroke-linecap:round;stroke-linejoin:round;stroke:rgb(9.411765%,9.803922%,24.705882%);stroke-opacity:1;stroke-miterlimit:20;" d="M 15.302083 16 C 16.802083 14.302083 17.697917 12.598958 18.598958 11 C 20.197917 8.098958 21.302083 6 24.901042 6 C 29 6 31.197917 9.401042 32 13.302083 " transform="matrix(0.75,0,0,0.75,0,0)"/>
<path style="fill:none;stroke-width:3;stroke-linecap:round;stroke-linejoin:miter;stroke:rgb(9.411765%,9.803922%,24.705882%);stroke-opacity:1;stroke-miterlimit:10;" d="M 34.302083 35.197917 C 32.401042 34.697917 30.598958 34 28.901042 33.197917 " transform="matrix(0.75,0,0,0.75,0,0)"/>
<path style="fill:none;stroke-width:3;stroke-linecap:round;stroke-linejoin:miter;stroke:rgb(9.411765%,9.803922%,24.705882%);stroke-opacity:1;stroke-miterlimit:10;" d="M 26.697917 13.302083 C 26.098958 17.5 23.901042 22 20.197917 25.697917 C 16.598958 29.302083 12.098958 31.598958 8 32.197917 " transform="matrix(0.75,0,0,0.75,0,0)"/>
</g>
</svg>
