<?xml version="1.0" encoding="UTF-8"?>
<svg xmlns="http://www.w3.org/2000/svg" xmlns:xlink="http://www.w3.org/1999/xlink" width="36pt" height="36pt" viewBox="0 0 36 36" version="1.1">
<g id="surface27908">
<path style=" stroke:none;fill-rule:nonzero;fill:rgb(64.705884%,83.92157%,65.490198%);fill-opacity:1;" d="M 30 21.226562 C 28.875 20.023438 28.050781 18.601562 27.75 17.023438 C 26.925781 12.898438 24.375 9.824219 21.300781 9.824219 C 18.226562 9.824219 15.601562 12.898438 14.851562 17.023438 C 14.550781 18.601562 13.726562 20.023438 12.601562 21.226562 C 11.175781 22.800781 10.351562 24.75 10.351562 26.851562 C 10.351562 31.949219 15.226562 36.074219 21.300781 36.074219 C 27.375 36.074219 32.25 31.875 32.25 26.773438 C 32.25 24.675781 31.425781 22.726562 30 21.226562 Z M 30 21.226562 "/>
<path style="fill:none;stroke-width:3;stroke-linecap:round;stroke-linejoin:round;stroke:rgb(9.411765%,9.803922%,24.705882%);stroke-opacity:1;stroke-miterlimit:4;" d="M 38.401042 37.401042 C 39.098958 35.901042 39.5 34.197917 39.5 32.5 C 39.5 29.5 38.302083 26.802083 36.302083 24.598958 C 34.802083 22.901042 33.598958 20.901042 33.197917 18.697917 C 32 12.802083 28.302083 8.5 24 8.5 C 19.697917 8.5 16 12.802083 14.901042 18.697917 C 14.697917 19.802083 14.302083 20.901042 13.697917 21.901042 " transform="matrix(0.75,0,0,0.75,0,0)"/>
<path style="fill:none;stroke-width:3;stroke-linecap:round;stroke-linejoin:round;stroke:rgb(9.411765%,9.803922%,24.705882%);stroke-opacity:1;stroke-miterlimit:4;" d="M 9.598958 27.598958 C 8.901042 29.098958 8.5 30.802083 8.5 32.5 C 8.5 39.697917 15.401042 45.5 24 45.5 C 27.401042 45.5 30.598958 44.598958 33.197917 43 " transform="matrix(0.75,0,0,0.75,0,0)"/>
<path style="fill:none;stroke-width:3;stroke-linecap:round;stroke-linejoin:miter;stroke:rgb(9.411765%,9.803922%,24.705882%);stroke-opacity:1;stroke-miterlimit:4;" d="M 18.5 2.5 C 18.5 2.5 22.802083 3.197917 24.098958 8.197917 " transform="matrix(0.75,0,0,0.75,0,0)"/>
</g>
</svg>
