<?xml version="1.0" encoding="UTF-8"?>
<svg xmlns="http://www.w3.org/2000/svg" xmlns:xlink="http://www.w3.org/1999/xlink" width="36pt" height="36pt" viewBox="0 0 36 36" version="1.1">
<g id="surface21390">
<path style=" stroke:none;fill-rule:nonzero;fill:rgb(100%,87.843138%,50.980395%);fill-opacity:1;" d="M 31.40625 22.132812 C 32.21875 19.800781 32.714844 16.691406 32.714844 13.566406 C 32.714844 9.855469 31.667969 6 29.574219 6 C 28.097656 6 26.9375 7.464844 25.671875 13.1875 C 25.289062 14.902344 24.484375 16.636719 23.882812 18.015625 C 22.457031 15.957031 20.527344 14.894531 17.722656 15.226562 C 13.511719 15.722656 10.679688 19.890625 10.289062 22.59375 C 10.125 23.734375 11.367188 24.558594 12.328125 23.925781 C 14.15625 22.714844 16.824219 19.921875 19.417969 18.597656 C 20.761719 17.914062 22.320312 19.203125 21.789062 20.613281 C 21.78125 20.632812 21.773438 20.648438 21.769531 20.664062 C 21.554688 21.207031 21.199219 21.6875 20.773438 22.085938 C 18.238281 24.480469 15.414062 25.902344 12.316406 27.488281 C 10.230469 28.554688 8.621094 29.679688 7.6875 31.21875 C 7.152344 32.070312 7.835938 33.75 8.804688 34.027344 C 9.839844 34.324219 10.992188 34.335938 12.0625 34.335938 C 17.914062 34.335938 22.765625 31.714844 26.511719 27.945312 C 26.769531 27.683594 27.515625 26.894531 28.113281 26.242188 C 27.726562 30.03125 26.984375 34.628906 28.347656 35.101562 C 28.382812 35.113281 28.417969 35.128906 28.453125 35.144531 C 30.847656 35.558594 33.777344 30.050781 34.402344 25.914062 C 34.664062 24.179688 33.046875 22.820312 31.40625 22.132812 Z M 31.40625 22.132812 "/>
<path style="fill:none;stroke-width:3;stroke-linecap:round;stroke-linejoin:round;stroke:rgb(9.411765%,9.803922%,24.705882%);stroke-opacity:1;stroke-miterlimit:10;" d="M 39.609375 9.291667 C 39.015625 6.078125 37.739583 3.567708 35.776042 3.567708 C 33.791667 3.567708 32.234375 5.536458 30.53125 13.229167 C 29.963542 15.78125 29.270833 17.96875 28.453125 19.895833 " transform="matrix(0.75,0,0,0.75,0,0)"/>
<path style="fill:none;stroke-width:3;stroke-linecap:round;stroke-linejoin:round;stroke:rgb(9.411765%,9.803922%,24.705882%);stroke-opacity:1;stroke-miterlimit:10;" d="M 38.1875 24.776042 C 39.057292 22.432292 39.630208 19.932292 39.869792 17.020833 " transform="matrix(0.75,0,0,0.75,0,0)"/>
<path style="fill:none;stroke-width:3;stroke-linecap:round;stroke-linejoin:round;stroke:rgb(9.411765%,9.803922%,24.705882%);stroke-opacity:1;stroke-miterlimit:10;" d="M 22.411458 26.765625 C 22.9375 26.34375 23.453125 25.890625 23.958333 25.416667 C 24.526042 24.875 25.005208 24.229167 25.291667 23.5 C 26.213542 21.161458 24.6875 19.807292 24.6875 19.807292 " transform="matrix(0.75,0,0,0.75,0,0)"/>
<path style="fill:none;stroke-width:3;stroke-linecap:round;stroke-linejoin:round;stroke:rgb(9.411765%,9.803922%,24.705882%);stroke-opacity:1;stroke-miterlimit:10;" d="M 19.5 40.604167 C 17.223958 41.286458 14.802083 41.661458 12.239583 41.661458 C 10.796875 41.661458 9.25 41.640625 7.854167 41.244792 C 6.557292 40.869792 5.640625 38.614583 6.354167 37.46875 C 7.609375 35.401042 9.770833 33.890625 12.578125 32.453125 C 13.328125 32.067708 14.067708 31.692708 14.796875 31.3125 " transform="matrix(0.75,0,0,0.75,0,0)"/>
<path style="fill:none;stroke-width:3;stroke-linecap:round;stroke-linejoin:round;stroke:rgb(9.411765%,9.803922%,24.705882%);stroke-opacity:1;stroke-miterlimit:10;" d="M 33.78125 31.109375 C 33.286458 31.697917 32.208333 32.515625 31.661458 33.067708 C 29.994792 34.744792 28.171875 36.25 26.1875 37.515625 " transform="matrix(0.75,0,0,0.75,0,0)"/>
<path style="fill:none;stroke-width:3;stroke-linecap:round;stroke-linejoin:round;stroke:rgb(9.411765%,9.803922%,24.705882%);stroke-opacity:1;stroke-miterlimit:10;" d="M 18.223958 16.265625 C 13.421875 17.604167 10.286458 22.666667 9.84375 25.9375 C 9.640625 27.442708 11.328125 28.5 12.598958 27.661458 C 15.546875 25.713542 20.125 20.682292 24.208333 19.708333 C 24.526042 19.630208 24.848958 19.609375 25.177083 19.604167 C 27.135417 19.588542 28.979167 20.713542 29.723958 22.526042 C 30.479167 24.354167 30.307292 26.385417 29.942708 27.177083 " transform="matrix(0.75,0,0,0.75,0,0)"/>
<path style="fill:none;stroke-width:3;stroke-linecap:round;stroke-linejoin:round;stroke:rgb(9.411765%,9.803922%,24.705882%);stroke-opacity:1;stroke-miterlimit:10;" d="M 16.411458 36.380208 C 18.572917 35.520833 20.682292 34.536458 22.697917 33.395833 C 24.1875 32.552083 25.614583 31.588542 26.90625 30.463542 C 28.270833 29.270833 29.40625 27.880208 30.510417 26.453125 C 30.963542 25.869792 32.265625 24.463542 32.786458 23.942708 " transform="matrix(0.75,0,0,0.75,0,0)"/>
<path style="fill:none;stroke-width:3;stroke-linecap:round;stroke-linejoin:round;stroke:rgb(9.411765%,9.803922%,24.705882%);stroke-opacity:1;stroke-miterlimit:10;" d="M 33.328125 24 C 33.390625 24 35.765625 24.296875 37.958333 25.140625 C 40.255208 26.020833 42.635417 27.90625 42.270833 30.338542 C 41.427083 35.901042 37.489583 43.302083 34.270833 42.744792 C 34.223958 42.723958 34.177083 42.708333 34.130208 42.6875 C 30.96875 41.59375 36.234375 23.9375 32.932292 23.9375 " transform="matrix(0.75,0,0,0.75,0,0)"/>
</g>
</svg>
