<?xml version="1.0" encoding="UTF-8"?>
<svg xmlns="http://www.w3.org/2000/svg" xmlns:xlink="http://www.w3.org/1999/xlink" width="36pt" height="36pt" viewBox="0 0 36 36" version="1.1">
<g id="surface24480">
<path style=" stroke:none;fill-rule:nonzero;fill:rgb(95.686275%,56.078434%,69.411767%);fill-opacity:1;" d="M 36 21.523438 C 36 20.25 35.101562 19.273438 33.898438 19.050781 C 32.324219 13.199219 27 8.925781 20.699219 8.925781 C 14.398438 8.925781 9.074219 13.199219 7.425781 19.050781 C 6.226562 19.273438 5.324219 20.25 5.324219 21.523438 C 5.324219 22.875 6.375 23.925781 7.648438 24 L 8.625 29.175781 C 9.074219 31.125 10.800781 32.550781 12.824219 32.550781 L 28.5 32.550781 C 30.523438 32.550781 32.25 31.125 32.699219 29.175781 L 33.675781 24 C 34.949219 23.925781 36 22.875 36 21.523438 Z M 36 21.523438 "/>
<path style="fill:none;stroke-width:3;stroke-linecap:round;stroke-linejoin:round;stroke:rgb(9.411765%,9.803922%,24.705882%);stroke-opacity:1;stroke-miterlimit:10;" d="M 32.5 40.598958 L 34.901042 40.598958 C 37.697917 40.598958 40.197917 38.598958 40.802083 35.901042 L 41.302083 33.098958 " transform="matrix(0.75,0,0,0.75,0,0)"/>
<path style="fill:none;stroke-width:3;stroke-linecap:round;stroke-linejoin:round;stroke:rgb(9.411765%,9.803922%,24.705882%);stroke-opacity:1;stroke-miterlimit:10;" d="M 6.598958 32.5 L 7.197917 35.802083 C 7.802083 38.598958 10.197917 40.5 13.098958 40.5 L 26.098958 40.5 " transform="matrix(0.75,0,0,0.75,0,0)"/>
<path style="fill:none;stroke-width:3;stroke-linecap:round;stroke-linejoin:round;stroke:rgb(9.411765%,9.803922%,24.705882%);stroke-opacity:1;stroke-miterlimit:10;" d="M 8.302083 15.598958 C 7 17.401042 6 19.401042 5.401042 21.598958 C 3.697917 21.901042 2.5 23.302083 2.5 25 C 2.5 26.901042 4.098958 28.5 6 28.5 C 7.302083 28.5 8.401042 27.802083 9 26.802083 C 9.598958 27.802083 10.697917 28.5 12 28.5 C 13.302083 28.5 14.401042 27.802083 15 26.802083 C 15.598958 27.802083 16.697917 28.5 18 28.5 C 19.302083 28.5 20.401042 27.802083 21 26.802083 C 21.598958 27.802083 22.697917 28.5 24 28.5 C 25.302083 28.5 26.401042 27.802083 27 26.802083 C 27.598958 27.802083 28.697917 28.5 30 28.5 C 31.302083 28.5 32.401042 27.802083 33 26.802083 C 33.598958 27.802083 34.697917 28.5 36 28.5 C 37.302083 28.5 38.401042 27.802083 39 26.802083 C 39.598958 27.802083 40.697917 28.5 42 28.5 C 43.901042 28.5 45.5 26.901042 45.5 25 C 45.5 23.302083 44.197917 21.802083 42.598958 21.598958 C 40.302083 13.5 32.901042 7.401042 24 7.401042 C 19.697917 7.401042 15.802083 8.802083 12.598958 11.098958 " transform="matrix(0.75,0,0,0.75,0,0)"/>
<path style="fill:none;stroke-width:3;stroke-linecap:round;stroke-linejoin:round;stroke:rgb(9.411765%,9.803922%,24.705882%);stroke-opacity:1;stroke-miterlimit:4;" d="M 24 15.598958 L 24 20.598958 " transform="matrix(0.75,0,0,0.75,0,0)"/>
<path style="fill:none;stroke-width:3;stroke-linecap:round;stroke-linejoin:round;stroke:rgb(9.411765%,9.803922%,24.705882%);stroke-opacity:1;stroke-miterlimit:4;" d="M 15.5 19.598958 L 17.5 15.598958 " transform="matrix(0.75,0,0,0.75,0,0)"/>
<path style="fill:none;stroke-width:3;stroke-linecap:round;stroke-linejoin:round;stroke:rgb(9.411765%,9.803922%,24.705882%);stroke-opacity:1;stroke-miterlimit:4;" d="M 32.5 19.598958 L 30.5 15.598958 " transform="matrix(0.75,0,0,0.75,0,0)"/>
</g>
</svg>
