<?xml version="1.0" encoding="UTF-8"?>
<svg xmlns="http://www.w3.org/2000/svg" xmlns:xlink="http://www.w3.org/1999/xlink" width="36pt" height="36pt" viewBox="0 0 36 36" version="1.1">
<g id="surface21470">
<path style=" stroke:none;fill-rule:nonzero;fill:rgb(100%,87.843138%,50.980395%);fill-opacity:1;" d="M 8.851562 33.148438 C 5.101562 29.398438 5.101562 23.398438 8.851562 19.726562 L 12.375 16.199219 C 16.125 12.449219 22.125 12.449219 25.800781 16.199219 C 29.550781 19.949219 29.550781 25.949219 25.800781 29.625 L 22.273438 33.148438 C 18.601562 36.898438 12.523438 36.898438 8.851562 33.148438 Z M 8.851562 33.148438 "/>
<path style="fill:none;stroke-width:3;stroke-linecap:round;stroke-linejoin:round;stroke:rgb(9.411765%,9.803922%,24.705882%);stroke-opacity:1;stroke-miterlimit:4;" d="M 38.598958 13.098958 L 40.302083 9 C 40.697917 8.197917 39.802083 7.302083 39 7.697917 L 36.098958 8.901042 " transform="matrix(0.75,0,0,0.75,0,0)"/>
<path style="fill:none;stroke-width:3;stroke-linecap:round;stroke-linejoin:round;stroke:rgb(9.411765%,9.803922%,24.705882%);stroke-opacity:1;stroke-miterlimit:4;" d="M 37.197917 16.197917 L 38.598958 13.098958 " transform="matrix(0.75,0,0,0.75,0,0)"/>
<path style="fill:none;stroke-width:3;stroke-linecap:round;stroke-linejoin:round;stroke:rgb(9.411765%,9.803922%,24.705882%);stroke-opacity:1;stroke-miterlimit:4;" d="M 32 16 C 32.401042 11.901042 30.901042 7.901042 28.901042 4.5 C 28.302083 3.697917 27 4 27 5 C 26.901042 6.901042 26.401042 8.598958 25.802083 10.098958 " transform="matrix(0.75,0,0,0.75,0,0)"/>
<path style="fill:none;stroke-width:3;stroke-linecap:round;stroke-linejoin:round;stroke:rgb(9.411765%,9.803922%,24.705882%);stroke-opacity:1;stroke-miterlimit:4;" d="M 29.598958 16.598958 C 34.401042 15.098958 39.401042 16.802083 43.5 19.197917 C 44.302083 19.697917 44.098958 21 43.098958 21.098958 C 41.697917 21.197917 40.401042 21.5 39.098958 21.901042 " transform="matrix(0.75,0,0,0.75,0,0)"/>
<path style="fill:none;stroke-width:3;stroke-linecap:round;stroke-linejoin:round;stroke:rgb(9.411765%,9.803922%,24.705882%);stroke-opacity:1;stroke-miterlimit:4;" d="M 25.697917 40.197917 C 20.697917 45.197917 12.697917 45.197917 7.802083 40.197917 C 5.401042 37.802083 4.197917 34.697917 4.098958 31.5 " transform="matrix(0.75,0,0,0.75,0,0)"/>
<path style="fill:none;stroke-width:3;stroke-linecap:round;stroke-linejoin:round;stroke:rgb(9.411765%,9.803922%,24.705882%);stroke-opacity:1;stroke-miterlimit:4;" d="M 5.598958 25.197917 C 6.197917 24.098958 6.901042 23.098958 7.802083 22.302083 L 12.5 17.598958 C 17.5 12.598958 25.5 12.598958 30.401042 17.598958 C 35.401042 22.598958 35.401042 30.598958 30.401042 35.5 " transform="matrix(0.75,0,0,0.75,0,0)"/>
<path style="fill-rule:nonzero;fill:rgb(100%,100%,100%);fill-opacity:1;stroke-width:3;stroke-linecap:round;stroke-linejoin:round;stroke:rgb(9.411765%,9.803922%,24.705882%);stroke-opacity:1;stroke-miterlimit:4;" d="M 16.802083 25.802083 L 15.302083 25.697917 C 14.802083 25.697917 14.401042 25.302083 14.401042 24.802083 L 14.302083 23.302083 " transform="matrix(0.75,0,0,0.75,0,0)"/>
<path style="fill-rule:nonzero;fill:rgb(100%,100%,100%);fill-opacity:1;stroke-width:3;stroke-linecap:round;stroke-linejoin:round;stroke:rgb(9.411765%,9.803922%,24.705882%);stroke-opacity:1;stroke-miterlimit:4;" d="M 24.697917 33.697917 L 23.197917 33.598958 C 22.697917 33.598958 22.302083 33.197917 22.302083 32.697917 L 22.197917 31.197917 " transform="matrix(0.75,0,0,0.75,0,0)"/>
<path style="fill-rule:nonzero;fill:rgb(100%,100%,100%);fill-opacity:1;stroke-width:3;stroke-linecap:round;stroke-linejoin:round;stroke:rgb(9.411765%,9.803922%,24.705882%);stroke-opacity:1;stroke-miterlimit:4;" d="M 15.802083 34.697917 L 14.302083 34.598958 C 13.802083 34.598958 13.401042 34.197917 13.401042 33.697917 L 13.302083 32.197917 " transform="matrix(0.75,0,0,0.75,0,0)"/>
<path style="fill-rule:nonzero;fill:rgb(100%,100%,100%);fill-opacity:1;stroke-width:3;stroke-linecap:round;stroke-linejoin:round;stroke:rgb(9.411765%,9.803922%,24.705882%);stroke-opacity:1;stroke-miterlimit:4;" d="M 25.697917 24.802083 L 24.197917 24.697917 C 23.697917 24.697917 23.302083 24.302083 23.302083 23.802083 L 23.197917 22.302083 " transform="matrix(0.75,0,0,0.75,0,0)"/>
</g>
</svg>
