<?xml version="1.0" encoding="UTF-8"?>
<svg xmlns="http://www.w3.org/2000/svg" xmlns:xlink="http://www.w3.org/1999/xlink" width="36pt" height="36pt" viewBox="0 0 36 36" version="1.1">
<g id="surface35991">
<path style=" stroke:none;fill-rule:nonzero;fill:rgb(54.901963%,90.588236%,94.901961%);fill-opacity:1;" d="M 21.703125 27.375 C 21.703125 31.285156 18.535156 34.453125 14.625 34.453125 C 10.714844 34.453125 7.546875 31.285156 7.546875 27.375 C 7.546875 23.464844 10.714844 20.296875 14.625 20.296875 C 18.535156 20.296875 21.703125 23.464844 21.703125 27.375 Z M 21.703125 27.375 "/>
<path style="fill:none;stroke-width:3;stroke-linecap:round;stroke-linejoin:round;stroke:rgb(9.411765%,9.803922%,24.705882%);stroke-opacity:1;stroke-miterlimit:10;" d="M 15.5 41.5 C 10.53125 41.5 6.5 37.46875 6.5 32.5 C 6.5 29.822917 7.666667 27.421875 9.520833 25.770833 " transform="matrix(0.75,0,0,0.75,0,0)"/>
<path style="fill:none;stroke-width:3;stroke-linecap:round;stroke-linejoin:round;stroke:rgb(9.411765%,9.803922%,24.705882%);stroke-opacity:1;stroke-miterlimit:10;" d="M 15.5 23.5 C 20.46875 23.5 24.5 27.53125 24.5 32.5 C 24.5 35.020833 23.463542 37.296875 21.796875 38.927083 " transform="matrix(0.75,0,0,0.75,0,0)"/>
<path style=" stroke:none;fill-rule:nonzero;fill:rgb(9.411765%,9.803922%,24.705882%);fill-opacity:1;" d="M 12.75 24.375 C 12.75 24.996094 12.246094 25.5 11.625 25.5 C 11.003906 25.5 10.5 24.996094 10.5 24.375 C 10.5 23.753906 11.003906 23.25 11.625 23.25 C 12.246094 23.25 12.75 23.753906 12.75 24.375 Z M 12.75 24.375 "/>
<path style="fill:none;stroke-width:3;stroke-linecap:round;stroke-linejoin:round;stroke:rgb(9.411765%,9.803922%,24.705882%);stroke-opacity:1;stroke-miterlimit:10;" d="M 34.5 27.5 L 30.5 27.5 L 20.5 17.5 L 16.5 17.5 " transform="matrix(0.75,0,0,0.75,0,0)"/>
<path style="fill:none;stroke-width:3;stroke-linecap:round;stroke-linejoin:round;stroke:rgb(9.411765%,9.803922%,24.705882%);stroke-opacity:1;stroke-miterlimit:10;" d="M 22.75 25.25 L 25 23 " transform="matrix(0.75,0,0,0.75,0,0)"/>
<path style="fill:none;stroke-width:3;stroke-linecap:round;stroke-linejoin:round;stroke:rgb(9.411765%,9.803922%,24.705882%);stroke-opacity:1;stroke-miterlimit:10;" d="M 31.791667 20.453125 L 27.619792 24.619792 " transform="matrix(0.75,0,0,0.75,0,0)"/>
<path style="fill:none;stroke-width:3;stroke-linecap:round;stroke-linejoin:round;stroke:rgb(9.411765%,9.803922%,24.705882%);stroke-opacity:1;stroke-miterlimit:10;" d="M 23.380208 20.380208 L 36.380208 7.380208 C 37.552083 6.208333 39.447917 6.208333 40.619792 7.380208 C 41.791667 8.552083 41.791667 10.447917 40.619792 11.619792 L 36.09375 16.151042 " transform="matrix(0.75,0,0,0.75,0,0)"/>
</g>
</svg>
