<?xml version="1.0" encoding="UTF-8"?>
<svg xmlns="http://www.w3.org/2000/svg" xmlns:xlink="http://www.w3.org/1999/xlink" width="36pt" height="36pt" viewBox="0 0 36 36" version="1.1">
<g id="surface19503">
<path style=" stroke:none;fill-rule:nonzero;fill:rgb(100%,87.843138%,50.980395%);fill-opacity:1;" d="M 31.648438 28.351562 L 8.925781 35.101562 C 7.726562 35.550781 6.523438 34.351562 6.976562 33.148438 L 14.175781 9.898438 L 21.375 11.324219 L 33.148438 20.699219 Z M 31.648438 28.351562 "/>
<path style=" stroke:none;fill-rule:nonzero;fill:rgb(100%,87.843138%,50.980395%);fill-opacity:1;" d="M 31.273438 30.074219 C 30.824219 29.625 30.601562 29.101562 30.523438 28.425781 C 30.226562 24 28.351562 19.875 25.273438 16.800781 C 22.199219 13.726562 18.074219 11.851562 13.726562 11.550781 C 12.300781 11.476562 11.25 10.199219 11.398438 8.851562 C 11.476562 7.425781 12.75 6.375 14.175781 6.449219 C 19.800781 6.824219 25.050781 9.226562 29.023438 13.199219 C 33 17.175781 35.398438 22.5 35.773438 28.125 C 35.851562 29.550781 34.800781 30.75 33.375 30.898438 C 32.476562 30.824219 31.726562 30.523438 31.273438 30.074219 Z M 31.273438 30.074219 "/>
<path style="fill:none;stroke-width:3;stroke-linecap:round;stroke-linejoin:round;stroke:rgb(9.411765%,9.803922%,24.705882%);stroke-opacity:1;stroke-miterlimit:10;" d="M 36.401042 34.197917 L 7.901042 42.697917 C 6.302083 43.302083 4.697917 41.697917 5.302083 40.098958 L 12 17.802083 " transform="matrix(0.75,0,0,0.75,0,0)"/>
<path style="fill:none;stroke-width:3;stroke-linecap:round;stroke-linejoin:round;stroke:rgb(9.411765%,9.803922%,24.705882%);stroke-opacity:1;stroke-miterlimit:10;" d="M 30.901042 10.401042 C 32.197917 11.302083 33.302083 12.302083 34.5 13.5 C 39.802083 18.802083 43 25.901042 43.5 33.401042 C 43.598958 35.302083 42.197917 36.901042 40.302083 37.098958 C 39.302083 37.197917 38.302083 36.802083 37.697917 36.098958 C 37.098958 35.5 36.802083 34.802083 36.697917 33.901042 C 36.302083 28 33.802083 22.5 29.697917 18.401042 C 25.598958 14.302083 20.098958 11.802083 14.302083 11.401042 C 12.401042 11.302083 11 9.598958 11.197917 7.802083 C 11.302083 5.901042 13 4.5 14.901042 4.598958 C 17.697917 4.802083 20.401042 5.401042 23 6.302083 " transform="matrix(0.75,0,0,0.75,0,0)"/>
<path style="fill:none;stroke-width:3;stroke-linecap:butt;stroke-linejoin:miter;stroke:rgb(9.411765%,9.803922%,24.705882%);stroke-opacity:1;stroke-miterlimit:10;" d="M 11.098958 21 C 13.697917 22 15.5 24.598958 15.5 27.5 C 15.5 31.401042 12.401042 34.5 8.5 34.5 C 7.901042 34.5 7.401042 34.401042 6.901042 34.302083 " transform="matrix(0.75,0,0,0.75,0,0)"/>
<path style="fill:none;stroke-width:3;stroke-linecap:round;stroke-linejoin:round;stroke:rgb(9.411765%,9.803922%,24.705882%);stroke-opacity:1;stroke-miterlimit:10;" d="M 28.697917 29.598958 C 31.5 30.098958 33.697917 32.197917 34.302083 34.901042 " transform="matrix(0.75,0,0,0.75,0,0)"/>
<path style="fill:none;stroke-width:3;stroke-linecap:round;stroke-linejoin:round;stroke:rgb(9.411765%,9.803922%,24.705882%);stroke-opacity:1;stroke-miterlimit:10;" d="M 20.697917 38.098958 C 20.598958 37.598958 20.5 37 20.5 36.5 C 20.5 34 21.802083 31.802083 23.802083 30.598958 " transform="matrix(0.75,0,0,0.75,0,0)"/>
<path style="fill:none;stroke-width:3;stroke-linecap:round;stroke-linejoin:round;stroke:rgb(9.411765%,9.803922%,24.705882%);stroke-opacity:1;stroke-miterlimit:10;" d="M 18.401042 17.802083 L 18.401042 17.802083 " transform="matrix(0.75,0,0,0.75,0,0)"/>
<path style="fill:none;stroke-width:3;stroke-linecap:round;stroke-linejoin:round;stroke:rgb(9.411765%,9.803922%,24.705882%);stroke-opacity:1;stroke-miterlimit:10;" d="M 21.401042 25.802083 L 21.401042 25.802083 " transform="matrix(0.75,0,0,0.75,0,0)"/>
<path style="fill:none;stroke-width:3;stroke-linecap:round;stroke-linejoin:round;stroke:rgb(9.411765%,9.803922%,24.705882%);stroke-opacity:1;stroke-miterlimit:10;" d="M 30.401042 22.802083 L 30.401042 22.802083 " transform="matrix(0.75,0,0,0.75,0,0)"/>
<path style="fill:none;stroke-width:3;stroke-linecap:round;stroke-linejoin:round;stroke:rgb(9.411765%,9.803922%,24.705882%);stroke-opacity:1;stroke-miterlimit:10;" d="M 12.401042 39.802083 L 12.401042 39.802083 " transform="matrix(0.75,0,0,0.75,0,0)"/>
</g>
</svg>
