<?xml version="1.0" encoding="UTF-8"?>
<svg xmlns="http://www.w3.org/2000/svg" xmlns:xlink="http://www.w3.org/1999/xlink" width="36pt" height="36pt" viewBox="0 0 36 36" version="1.1">
<g id="surface21530">
<path style=" stroke:none;fill-rule:nonzero;fill:rgb(100%,67.058825%,56.862748%);fill-opacity:1;" d="M 25.351562 12.601562 L 25.875 10.574219 C 26.023438 9.976562 25.5 9.523438 24.898438 9.675781 C 23.625 10.125 22.726562 10.125 22.726562 10.125 L 21.601562 8.398438 C 21.300781 7.949219 20.625 7.949219 20.324219 8.398438 L 19.199219 10.125 C 19.199219 10.125 18.601562 10.125 17.023438 9.601562 C 16.5 9.449219 15.898438 9.898438 16.050781 10.5 L 16.574219 12.601562 C 11.101562 14.175781 7.050781 18.601562 7.050781 23.773438 C 7.050781 30.300781 13.273438 35.625 20.925781 35.625 C 28.574219 35.625 34.800781 30.300781 34.800781 23.773438 C 34.875 18.601562 30.898438 14.175781 25.351562 12.601562 Z M 25.351562 12.601562 "/>
<path style="fill:none;stroke-width:3;stroke-linecap:round;stroke-linejoin:round;stroke:rgb(9.411765%,9.803922%,24.705882%);stroke-opacity:1;stroke-miterlimit:4;" d="M 40.401042 35 C 41.697917 32.802083 42.5 30.401042 42.5 27.802083 C 42.5 20.802083 37.197917 15 29.802083 12.901042 L 30.5 10.197917 C 30.697917 9.401042 30 8.697917 29.197917 9 C 27.5 9.598958 26.302083 9.598958 26.302083 9.598958 L 24.802083 7.302083 C 24.401042 6.697917 23.5 6.697917 23.098958 7.302083 L 21.598958 9.598958 C 21.598958 9.598958 20.802083 9.598958 18.697917 8.901042 C 18 8.598958 17.302083 9.197917 17.401042 10 L 18.098958 12.802083 C 17.197917 13.098958 16.302083 13.401042 15.401042 13.802083 " transform="matrix(0.75,0,0,0.75,0,0)"/>
<path style="fill:none;stroke-width:3;stroke-linecap:round;stroke-linejoin:round;stroke:rgb(9.411765%,9.803922%,24.705882%);stroke-opacity:1;stroke-miterlimit:4;" d="M 9.901042 17.598958 C 7.197917 20.302083 5.5 23.901042 5.5 27.802083 C 5.5 36.5 13.802083 43.598958 24 43.598958 C 28.098958 43.598958 31.901042 42.5 35 40.5 " transform="matrix(0.75,0,0,0.75,0,0)"/>
<path style="fill:none;stroke-width:3;stroke-linecap:round;stroke-linejoin:round;stroke:rgb(9.411765%,9.803922%,24.705882%);stroke-opacity:1;stroke-miterlimit:4;" d="M 16.098958 36.098958 C 17 36.697917 18.098958 37.302083 19.197917 37.697917 C 19.802083 37.901042 20.5 37.401042 20.5 36.697917 L 20.5 19.302083 C 20.5 18.598958 19.802083 18.098958 19.197917 18.302083 C 14.697917 19.901042 11.5 23.598958 11.5 28 C 11.5 29.598958 11.901042 31.098958 12.697917 32.5 " transform="matrix(0.75,0,0,0.75,0,0)"/>
<path style="fill:none;stroke-width:3;stroke-linecap:round;stroke-linejoin:round;stroke:rgb(9.411765%,9.803922%,24.705882%);stroke-opacity:1;stroke-miterlimit:4;" d="M 27.5 27.401042 L 27.5 36.697917 C 27.5 37.401042 28.197917 37.901042 28.802083 37.697917 C 33.302083 36.098958 36.5 32.401042 36.5 28 C 36.5 23.598958 33.302083 19.901042 28.802083 18.302083 C 28.197917 18.098958 27.5 18.598958 27.5 19.302083 L 27.5 22.098958 " transform="matrix(0.75,0,0,0.75,0,0)"/>
</g>
</svg>
