<?xml version="1.0" encoding="UTF-8"?>
<svg xmlns="http://www.w3.org/2000/svg" xmlns:xlink="http://www.w3.org/1999/xlink" width="36pt" height="36pt" viewBox="0 0 36 36" version="1.1">
<g id="surface19404">
<path style=" stroke:none;fill-rule:nonzero;fill:rgb(95.686275%,56.078434%,69.411767%);fill-opacity:1;" d="M 23.925781 16.050781 C 22.351562 16.050781 21 17.324219 21 18.976562 C 21 17.398438 19.726562 16.050781 18.074219 16.050781 C 16.351562 16.050781 15 17.476562 15.148438 19.199219 L 16.648438 36 L 25.273438 36 L 26.773438 19.199219 C 26.925781 17.476562 25.574219 16.050781 23.925781 16.050781 Z M 23.925781 16.050781 "/>
<path style=" stroke:none;fill-rule:nonzero;fill:rgb(95.686275%,56.078434%,69.411767%);fill-opacity:1;" d="M 29.699219 16.050781 C 28.199219 16.050781 26.925781 17.175781 26.851562 18.675781 L 25.351562 36 L 27.675781 36 C 28.800781 36 29.773438 35.175781 30 34.050781 L 32.550781 19.425781 C 32.851562 17.625 31.5 16.050781 29.699219 16.050781 Z M 29.699219 16.050781 "/>
<path style=" stroke:none;fill-rule:nonzero;fill:rgb(95.686275%,56.078434%,69.411767%);fill-opacity:1;" d="M 12.300781 16.050781 C 10.5 16.050781 9.148438 17.699219 9.449219 19.425781 L 12 34.050781 C 12.226562 35.175781 13.199219 36 14.324219 36 L 16.648438 36 L 15.148438 18.675781 C 15 17.175781 13.800781 16.050781 12.300781 16.050781 Z M 12.300781 16.050781 "/>
<path style="fill:none;stroke-width:3;stroke-linecap:round;stroke-linejoin:round;stroke:rgb(9.411765%,9.803922%,24.705882%);stroke-opacity:1;stroke-miterlimit:4;" d="M 24 36.098958 L 24 21.598958 C 24 19.598958 25.697917 17.901042 27.697917 17.901042 C 29.901042 17.901042 31.598958 19.802083 31.401042 21.901042 L 30 37.901042 " transform="matrix(0.75,0,0,0.75,0,0)"/>
<path style="fill:none;stroke-width:3;stroke-linecap:round;stroke-linejoin:round;stroke:rgb(9.411765%,9.803922%,24.705882%);stroke-opacity:1;stroke-miterlimit:4;" d="M 18 37.401042 L 16.598958 22 C 16.401042 19.802083 18.098958 18 20.302083 18 C 22.302083 18 24 19.697917 24 21.697917 L 24 33 " transform="matrix(0.75,0,0,0.75,0,0)"/>
<path style="fill:none;stroke-width:3;stroke-linecap:round;stroke-linejoin:round;stroke:rgb(9.411765%,9.803922%,24.705882%);stroke-opacity:1;stroke-miterlimit:4;" d="M 37.598958 28.901042 L 35.5 40.901042 C 35.197917 42.302083 34 43.401042 32.5 43.401042 L 29.5 43.401042 " transform="matrix(0.75,0,0,0.75,0,0)"/>
<path style="fill:none;stroke-width:3;stroke-linecap:round;stroke-linejoin:round;stroke:rgb(9.411765%,9.803922%,24.705882%);stroke-opacity:1;stroke-miterlimit:4;" d="M 31.5 21.302083 C 31.697917 19.401042 33.302083 17.901042 35.197917 17.901042 C 37.5 17.901042 39.197917 20 38.802083 22.197917 L 38.5 24.197917 " transform="matrix(0.75,0,0,0.75,0,0)"/>
<path style="fill:none;stroke-width:3;stroke-linecap:round;stroke-linejoin:round;stroke:rgb(9.411765%,9.803922%,24.705882%);stroke-opacity:1;stroke-miterlimit:4;" d="M 30 37.401042 L 30.901042 28 " transform="matrix(0.75,0,0,0.75,0,0)"/>
<path style="fill:none;stroke-width:3;stroke-linecap:round;stroke-linejoin:round;stroke:rgb(9.411765%,9.803922%,24.705882%);stroke-opacity:1;stroke-miterlimit:4;" d="M 29.5 43.401042 L 15.5 43.401042 C 14 43.401042 12.802083 42.401042 12.5 40.901042 L 11.598958 35.697917 " transform="matrix(0.75,0,0,0.75,0,0)"/>
<path style="fill:none;stroke-width:3;stroke-linecap:round;stroke-linejoin:round;stroke:rgb(9.411765%,9.803922%,24.705882%);stroke-opacity:1;stroke-miterlimit:4;" d="M 10.598958 29.901042 L 9.302083 22.197917 C 8.901042 20 10.598958 17.901042 12.901042 17.901042 C 14.802083 17.901042 16.401042 19.401042 16.598958 21.302083 " transform="matrix(0.75,0,0,0.75,0,0)"/>
<path style="fill:none;stroke-width:3;stroke-linecap:round;stroke-linejoin:round;stroke:rgb(9.411765%,9.803922%,24.705882%);stroke-opacity:1;stroke-miterlimit:10;" d="M 36.401042 13.401042 C 35.598958 12.697917 34.598958 12.197917 33.5 12.197917 C 33.197917 12.197917 32.901042 12.197917 32.697917 12.302083 C 32.802083 12 32.802083 11.697917 32.802083 11.5 C 32.802083 9.197917 30.901042 7.302083 28.598958 7.302083 C 27.901042 7.302083 27.197917 7.5 26.598958 7.802083 C 25.5 5.901042 23.5 4.598958 21.098958 4.598958 C 17.598958 4.598958 14.697917 7.401042 14.697917 11 C 14.697917 11.697917 14.802083 12.302083 15 12.901042 C 14.197917 13 13.401042 13.401042 12.802083 13.901042 " transform="matrix(0.75,0,0,0.75,0,0)"/>
<path style="fill:none;stroke-width:3;stroke-linecap:round;stroke-linejoin:round;stroke:rgb(9.411765%,9.803922%,24.705882%);stroke-opacity:1;stroke-miterlimit:10;" d="M 37.197917 18.5 C 37.598958 17.901042 37.802083 17.197917 37.802083 16.401042 C 37.802083 15.197917 37.302083 14.098958 36.5 13.302083 " transform="matrix(0.75,0,0,0.75,0,0)"/>
</g>
</svg>
