<?xml version="1.0" encoding="UTF-8"?>
<svg xmlns="http://www.w3.org/2000/svg" xmlns:xlink="http://www.w3.org/1999/xlink" width="36pt" height="36pt" viewBox="0 0 36 36" version="1.1">
<g id="surface19322">
<path style=" stroke:none;fill-rule:nonzero;fill:rgb(100%,87.843138%,50.980395%);fill-opacity:1;" d="M 31.039062 32.0625 C 34.929688 25.019531 34.929688 16.378906 31.039062 9.335938 L 31.816406 7.398438 C 32.1875 6.476562 31.53125 5.441406 30.539062 5.429688 C 30.527344 5.429688 30.515625 5.429688 30.503906 5.429688 C 29.523438 5.429688 29.523438 5.804688 28.546875 5.804688 C 27.570312 5.804688 27.570312 5.429688 26.59375 5.429688 C 25.617188 5.429688 25.617188 5.804688 24.640625 5.804688 C 23.664062 5.804688 23.664062 5.429688 22.6875 5.429688 C 21.710938 5.429688 21.710938 5.804688 20.734375 5.804688 C 19.757812 5.804688 19.757812 5.429688 18.78125 5.429688 C 17.804688 5.429688 17.804688 5.804688 16.828125 5.804688 C 15.851562 5.804688 15.851562 5.429688 14.878906 5.429688 C 13.902344 5.429688 13.902344 5.804688 12.925781 5.804688 C 11.949219 5.804688 11.949219 5.429688 10.972656 5.429688 C 10.964844 5.429688 10.953125 5.429688 10.945312 5.429688 C 9.949219 5.4375 9.292969 6.476562 9.664062 7.398438 L 10.441406 9.335938 C 6.550781 16.378906 6.550781 25.019531 10.441406 32.0625 L 9.664062 34.003906 C 9.292969 34.925781 9.949219 35.960938 10.945312 35.96875 C 10.953125 35.96875 10.964844 35.96875 10.972656 35.96875 C 11.949219 35.96875 11.949219 35.597656 12.925781 35.597656 C 13.902344 35.597656 13.902344 35.96875 14.878906 35.96875 C 15.851562 35.96875 15.851562 35.597656 16.828125 35.597656 C 17.804688 35.597656 17.804688 35.96875 18.78125 35.96875 C 19.757812 35.96875 19.757812 35.597656 20.734375 35.597656 C 21.710938 35.597656 21.710938 35.96875 22.6875 35.96875 C 23.664062 35.96875 23.664062 35.597656 24.640625 35.597656 C 25.617188 35.597656 25.617188 35.96875 26.59375 35.96875 C 27.570312 35.96875 27.570312 35.597656 28.546875 35.597656 C 29.523438 35.597656 29.523438 35.96875 30.503906 35.96875 C 30.515625 35.96875 30.527344 35.96875 30.539062 35.96875 C 31.53125 35.960938 32.1875 34.925781 31.816406 34.003906 Z M 31.039062 32.0625 "/>
<path style="fill:none;stroke-width:3;stroke-linecap:round;stroke-linejoin:round;stroke:rgb(9.411765%,9.803922%,24.705882%);stroke-opacity:1;stroke-miterlimit:10;" d="M 33.5 18.5 C 29.5 18.5 27.833333 29.5 18.5 29.5 C 15.833333 29.5 12.5 28.166667 12.5 23.5 C 12.5 18.166667 15.5 18.5 15.5 18.5 C 18.166667 18.5 19.5 20.5 23.5 20.5 C 27.5 20.5 29.5 18.5 33.5 18.5 C 33.5 18.5 35.5 18.5 35.5 22.5 C 35.5 25.421875 33.895833 27.8125 30.692708 28.885417 " transform="matrix(0.75,0,0,0.75,0,0)"/>
<path style="fill:none;stroke-width:3;stroke-linecap:round;stroke-linejoin:round;stroke:rgb(9.411765%,9.803922%,24.705882%);stroke-opacity:1;stroke-miterlimit:10;" d="M 10 8.552083 C 17.203125 8.552083 24.40625 8.552083 31.609375 8.552083 " transform="matrix(0.75,0,0,0.75,0,0)"/>
<path style="fill:none;stroke-width:3;stroke-linecap:round;stroke-linejoin:round;stroke:rgb(9.411765%,9.803922%,24.705882%);stroke-opacity:1;stroke-miterlimit:10;" d="M 10 39.447917 C 6.15625 32.494792 5.104167 24.395833 6.84375 16.817708 " transform="matrix(0.75,0,0,0.75,0,0)"/>
<path style="fill:none;stroke-width:3;stroke-linecap:round;stroke-linejoin:round;stroke:rgb(9.411765%,9.803922%,24.705882%);stroke-opacity:1;stroke-miterlimit:10;" d="M 41.895833 21.84375 C 42.302083 27.885417 41 34.015625 38 39.447917 C 31.28125 39.447917 24.5625 39.447917 17.848958 39.447917 " transform="matrix(0.75,0,0,0.75,0,0)"/>
<path style="fill:none;stroke-width:3;stroke-linecap:round;stroke-linejoin:round;stroke:rgb(9.411765%,9.803922%,24.705882%);stroke-opacity:1;stroke-miterlimit:10;" d="M 38 8.552083 C 39.197917 10.723958 40.130208 13.005208 40.78125 15.348958 " transform="matrix(0.75,0,0,0.75,0,0)"/>
<path style="fill:none;stroke-width:3;stroke-linecap:round;stroke-linejoin:round;stroke:rgb(9.411765%,9.803922%,24.705882%);stroke-opacity:1;stroke-miterlimit:10;" d="M 10 39.6875 L 8.9375 42.328125 C 8.4375 43.583333 9.328125 44.989583 10.682292 45 C 10.692708 45 10.708333 45 10.71875 45 C 12.046875 45 12.046875 44.494792 13.375 44.494792 C 14.697917 44.494792 14.697917 45 16.026042 45 C 17.354167 45 17.354167 44.494792 18.682292 44.494792 C 20.010417 44.494792 20.010417 45 21.338542 45 C 22.661458 45 22.661458 44.494792 23.989583 44.494792 C 25.317708 44.494792 25.317708 45 26.640625 45 C 27.96875 45 27.96875 44.494792 29.296875 44.494792 C 30.625 44.494792 30.625 45 31.953125 45 C 33.28125 45 33.28125 44.494792 34.609375 44.494792 C 35.9375 44.494792 35.9375 45 37.270833 45 C 37.286458 45 37.302083 45 37.317708 45 C 38.666667 44.989583 39.5625 43.583333 39.057292 42.328125 L 38 39.6875 " transform="matrix(0.75,0,0,0.75,0,0)"/>
<path style="fill:none;stroke-width:3;stroke-linecap:round;stroke-linejoin:round;stroke:rgb(9.411765%,9.803922%,24.705882%);stroke-opacity:1;stroke-miterlimit:10;" d="M 10 8.3125 L 8.9375 5.671875 C 8.4375 4.416667 9.328125 3.010417 10.682292 3 C 10.692708 3 10.708333 3 10.71875 3 C 12.046875 3 12.046875 3.505208 13.375 3.505208 C 14.703125 3.505208 14.703125 3 16.026042 3 C 17.354167 3 17.354167 3.505208 18.682292 3.505208 C 20.010417 3.505208 20.010417 3 21.338542 3 C 22.666667 3 22.666667 3.505208 23.989583 3.505208 C 25.317708 3.505208 25.317708 3 26.645833 3 C 27.973958 3 27.973958 3.505208 29.296875 3.505208 C 30.625 3.505208 30.625 3 31.953125 3 C 33.28125 3 33.28125 3.505208 34.609375 3.505208 C 35.9375 3.505208 35.9375 3 37.270833 3 C 37.286458 3 37.302083 3 37.317708 3 C 38.671875 3.010417 39.5625 4.416667 39.057292 5.671875 L 38 8.3125 " transform="matrix(0.75,0,0,0.75,0,0)"/>
</g>
</svg>
