<?xml version="1.0" encoding="UTF-8"?>
<svg xmlns="http://www.w3.org/2000/svg" xmlns:xlink="http://www.w3.org/1999/xlink" width="36pt" height="36pt" viewBox="0 0 36 36" version="1.1">
<g id="surface28084">
<path style=" stroke:none;fill-rule:nonzero;fill:rgb(100%,67.058825%,56.862748%);fill-opacity:1;" d="M 26.101562 7.5 C 23.773438 7.5 22.351562 8.175781 21 9.300781 C 21 9.300781 20.925781 9.300781 20.925781 9.375 C 18.976562 10.949219 17.175781 13.425781 12.898438 15.898438 C 10.050781 17.550781 7.875 19.875 7.273438 23.25 C 6.523438 27.300781 8.476562 31.648438 12 33.824219 C 15.523438 36 20.101562 35.625 23.773438 34.199219 C 30.675781 31.574219 33.675781 24.226562 34.050781 17.324219 C 34.351562 12.375 31.574219 7.5 26.101562 7.5 Z M 26.101562 7.5 "/>
<path style=" stroke:none;fill-rule:nonzero;fill:rgb(9.411765%,9.803922%,24.705882%);fill-opacity:1;" d="M 26.25 13.425781 C 26.25 14.253906 25.578125 14.925781 24.75 14.925781 C 23.921875 14.925781 23.25 14.253906 23.25 13.425781 C 23.25 12.597656 23.921875 11.925781 24.75 11.925781 C 25.578125 11.925781 26.25 12.597656 26.25 13.425781 Z M 26.25 13.425781 "/>
<path style=" stroke:none;fill-rule:nonzero;fill:rgb(9.411765%,9.803922%,24.705882%);fill-opacity:1;" d="M 16.5 18 C 16.5 18.828125 15.828125 19.5 15 19.5 C 14.171875 19.5 13.5 18.828125 13.5 18 C 13.5 17.171875 14.171875 16.5 15 16.5 C 15.828125 16.5 16.5 17.171875 16.5 18 Z M 16.5 18 "/>
<path style=" stroke:none;fill-rule:nonzero;fill:rgb(9.411765%,9.803922%,24.705882%);fill-opacity:1;" d="M 21 26.25 C 21 27.078125 20.328125 27.75 19.5 27.75 C 18.671875 27.75 18 27.078125 18 26.25 C 18 25.421875 18.671875 24.75 19.5 24.75 C 20.328125 24.75 21 25.421875 21 26.25 Z M 21 26.25 "/>
<path style="fill:none;stroke-width:3;stroke-linecap:round;stroke-linejoin:round;stroke:rgb(9.411765%,9.803922%,24.705882%);stroke-opacity:1;stroke-miterlimit:4;" d="M 41.302083 24 C 41.598958 22.302083 41.901042 20.598958 41.901042 18.901042 C 42.302083 12.098958 38.5 5.5 31 5.5 C 27.802083 5.5 25.901042 6.5 24.098958 8 C 24 8 24 8 24 8 C 21.401042 10.197917 18.901042 13.5 13 16.901042 C 12.697917 17.098958 12.302083 17.302083 12 17.5 " transform="matrix(0.75,0,0,0.75,0,0)"/>
<path style="fill:none;stroke-width:3;stroke-linecap:round;stroke-linejoin:round;stroke:rgb(9.411765%,9.803922%,24.705882%);stroke-opacity:1;stroke-miterlimit:4;" d="M 6.197917 24 C 5.802083 24.901042 5.5 25.901042 5.302083 27 C 4.302083 32.598958 6.901042 38.5 11.697917 41.401042 C 16.5 44.302083 22.802083 43.901042 27.901042 41.901042 C 32.401042 40.197917 35.697917 37 38 33.098958 " transform="matrix(0.75,0,0,0.75,0,0)"/>
</g>
</svg>
