<?xml version="1.0" encoding="UTF-8"?>
<svg xmlns="http://www.w3.org/2000/svg" xmlns:xlink="http://www.w3.org/1999/xlink" width="36pt" height="36pt" viewBox="0 0 36 36" version="1.1">
<g id="surface34087">
<path style=" stroke:none;fill-rule:nonzero;fill:rgb(100%,67.058825%,56.862748%);fill-opacity:1;" d="M 27.949219 6 L 14.085938 6 C 13.453125 6 13.101562 6.746094 13.5 7.246094 C 14.914062 9.035156 16.664062 12.550781 13.035156 16.5 C 6.421875 23.703125 12.886719 33.039062 14.75 35.425781 C 15.035156 35.789062 15.460938 36 15.917969 36 L 26.070312 36 C 26.535156 36 26.96875 35.785156 27.253906 35.410156 C 29.109375 32.960938 35.523438 23.441406 29.042969 16.5 C 25.398438 12.585938 27.140625 9.039062 28.539062 7.238281 C 28.929688 6.738281 28.574219 6 27.949219 6 Z M 27.949219 6 "/>
<path style="fill:none;stroke-width:3;stroke-linecap:round;stroke-linejoin:round;stroke:rgb(9.411765%,9.803922%,24.705882%);stroke-opacity:1;stroke-miterlimit:10;" d="M 37.385417 33.614583 C 39.046875 28.786458 39.354167 22.984375 34.723958 18.151042 C 29.864583 13.0625 32.1875 8.447917 34.052083 6.109375 C 34.572917 5.458333 34.098958 4.5 33.265625 4.5 L 14.78125 4.5 C 13.9375 4.5 13.46875 5.46875 14 6.119792 C 15.885417 8.442708 18.21875 13.015625 13.380208 18.151042 C 13.203125 18.333333 13.036458 18.520833 12.880208 18.708333 " transform="matrix(0.75,0,0,0.75,0,0)"/>
<path style="fill:none;stroke-width:3;stroke-linecap:round;stroke-linejoin:round;stroke:rgb(9.411765%,9.803922%,24.705882%);stroke-opacity:1;stroke-miterlimit:10;" d="M 9.604167 25.953125 C 8.697917 33.307292 13.838542 40.473958 15.666667 42.755208 C 16.046875 43.229167 16.614583 43.5 17.223958 43.5 L 30.760417 43.5 C 31.380208 43.5 31.958333 43.21875 32.338542 42.729167 C 32.796875 42.140625 33.463542 41.234375 34.192708 40.088542 " transform="matrix(0.75,0,0,0.75,0,0)"/>
</g>
</svg>
