<?xml version="1.0" encoding="UTF-8"?>
<svg xmlns="http://www.w3.org/2000/svg" xmlns:xlink="http://www.w3.org/1999/xlink" width="36pt" height="36pt" viewBox="0 0 36 36" version="1.1">
<g id="surface15727">
<path style=" stroke:none;fill-rule:nonzero;fill:rgb(100%,87.843138%,50.980395%);fill-opacity:1;" d="M 36 18.371094 C 36 12.582031 31.292969 7.875 25.503906 7.875 C 23.621094 7.875 21.898438 8.292969 20.4375 9.019531 C 18.976562 8.292969 17.253906 7.875 15.371094 7.875 C 9.582031 7.875 4.875 12.582031 4.875 18.371094 C 4.875 21.488281 6.082031 26.292969 9.785156 29.585938 C 9.246094 30.179688 9.054688 31.046875 9.375 31.84375 C 9.714844 32.691406 10.527344 33.210938 11.390625 33.210938 C 11.660156 33.210938 11.933594 33.160156 12.195312 33.054688 C 12.808594 32.808594 13.390625 32.550781 13.960938 32.28125 C 15.820312 32.898438 17.953125 33.269531 20.4375 33.269531 C 22.921875 33.269531 25.058594 32.898438 26.917969 32.28125 C 27.484375 32.550781 28.066406 32.808594 28.679688 33.054688 C 28.941406 33.160156 29.214844 33.210938 29.484375 33.210938 C 30.34375 33.210938 31.160156 32.691406 31.5 31.84375 C 31.816406 31.046875 31.625 30.179688 31.089844 29.585938 C 34.792969 26.292969 36 21.488281 36 18.371094 Z M 36 18.371094 "/>
<path style="fill:none;stroke-width:3;stroke-linecap:round;stroke-linejoin:round;stroke:rgb(9.411765%,9.803922%,24.705882%);stroke-opacity:1;stroke-miterlimit:10;" d="M 15.338542 40.078125 C 17.78125 40.973958 20.640625 41.5 24 41.5 C 24.364583 41.5 24.729167 41.494792 25.083333 41.479167 " transform="matrix(0.75,0,0,0.75,0,0)"/>
<path style="fill:none;stroke-width:3;stroke-linecap:round;stroke-linejoin:round;stroke:rgb(9.411765%,9.803922%,24.705882%);stroke-opacity:1;stroke-miterlimit:10;" d="M 11.026042 29.333333 C 8.552083 25.53125 8.5 21.317708 8.5 21 C 8.5 16.3125 12.3125 12.5 17 12.5 C 17.651042 12.5 18.296875 12.578125 18.9375 12.692708 " transform="matrix(0.75,0,0,0.75,0,0)"/>
<path style="fill:none;stroke-width:3;stroke-linecap:round;stroke-linejoin:round;stroke:rgb(9.411765%,9.803922%,24.705882%);stroke-opacity:1;stroke-miterlimit:10;" d="M 13.71875 6.875 C 7.296875 8.364583 2.5 14.135417 2.5 21 C 2.5 25.307292 4.166667 31.947917 9.286458 36.494792 " transform="matrix(0.75,0,0,0.75,0,0)"/>
<path style="fill:none;stroke-width:3;stroke-linecap:round;stroke-linejoin:round;stroke:rgb(9.411765%,9.803922%,24.705882%);stroke-opacity:1;stroke-miterlimit:10;" d="M 42.630208 31.630208 C 41.640625 33.369792 40.354167 35.036458 38.713542 36.494792 " transform="matrix(0.75,0,0,0.75,0,0)"/>
<path style="fill:none;stroke-width:3;stroke-linecap:round;stroke-linejoin:round;stroke:rgb(9.411765%,9.803922%,24.705882%);stroke-opacity:1;stroke-miterlimit:10;" d="M 20.328125 29.333333 C 18.458333 26.010417 17.5 22.234375 17.5 18 C 17.5 11.442708 23.302083 6.5 31 6.5 C 38.994792 6.5 45.5 13.005208 45.5 21 C 45.5 21.255208 45.494792 21.520833 45.484375 21.786458 " transform="matrix(0.75,0,0,0.75,0,0)"/>
<path style="fill:none;stroke-width:3;stroke-linecap:round;stroke-linejoin:round;stroke:rgb(9.411765%,9.803922%,24.705882%);stroke-opacity:1;stroke-miterlimit:10;" d="M 32.786458 33.375 C 39.395833 29.453125 39.5 21.447917 39.5 21 C 39.5 16.3125 35.6875 12.5 31 12.5 C 27.270833 12.5 23.5 14.390625 23.5 18 C 23.5 19.572917 23.666667 21.052083 24 22.442708 " transform="matrix(0.75,0,0,0.75,0,0)"/>
<path style="fill:none;stroke-width:3;stroke-linecap:round;stroke-linejoin:round;stroke:rgb(9.411765%,9.803922%,24.705882%);stroke-opacity:1;stroke-miterlimit:10;" d="M 29.057292 12.677083 C 29.979167 14.255208 30.5 16.052083 30.5 18 C 30.5 28.703125 24.479167 36.536458 12.614583 41.286458 C 12.25 41.432292 11.869792 41.5 11.5 41.5 C 10.3125 41.5 9.182292 40.786458 8.713542 39.614583 C 8.098958 38.078125 8.848958 36.328125 10.385417 35.713542 C 20.015625 31.864583 24.5 26.234375 24.5 18 C 24.5 17.21875 24.3125 16.520833 24 15.90625 " transform="matrix(0.75,0,0,0.75,0,0)"/>
<path style="fill:none;stroke-width:3;stroke-linecap:round;stroke-linejoin:round;stroke:rgb(9.411765%,9.803922%,24.705882%);stroke-opacity:1;stroke-miterlimit:10;" d="M 24 34.135417 C 26.859375 36.994792 30.651042 39.390625 35.385417 41.286458 C 35.75 41.432292 36.125 41.5 36.494792 41.5 C 37.6875 41.5 38.8125 40.786458 39.28125 39.614583 C 39.895833 38.078125 39.151042 36.328125 37.614583 35.713542 C 33.265625 33.979167 29.979167 31.875 27.666667 29.333333 " transform="matrix(0.75,0,0,0.75,0,0)"/>
</g>
</svg>
