<?xml version="1.0" encoding="UTF-8"?>
<svg xmlns="http://www.w3.org/2000/svg" xmlns:xlink="http://www.w3.org/1999/xlink" width="36pt" height="36pt" viewBox="0 0 36 36" version="1.1">
<g id="surface25796">
<path style=" stroke:none;fill-rule:nonzero;fill:rgb(100%,87.843138%,50.980395%);fill-opacity:1;" d="M 24.375 33.976562 C 25.273438 34.351562 26.175781 34.574219 27.148438 34.574219 C 29.023438 34.574219 30.75 33.824219 32.175781 32.476562 C 34.425781 30.375 35.925781 26.851562 35.925781 22.875 C 35.925781 16.425781 31.949219 11.175781 27.074219 11.175781 C 26.101562 11.175781 25.199219 11.398438 24.300781 11.773438 "/>
<path style=" stroke:none;fill-rule:nonzero;fill:rgb(100%,87.843138%,50.980395%);fill-opacity:1;" d="M 16.125 11.773438 C 15.226562 11.398438 14.324219 11.175781 13.351562 11.175781 C 8.476562 11.175781 4.5 16.425781 4.5 22.875 C 4.5 29.324219 8.476562 34.574219 13.351562 34.574219 C 14.324219 34.574219 15.226562 34.351562 16.125 33.976562 "/>
<path style=" stroke:none;fill-rule:nonzero;fill:rgb(100%,87.843138%,50.980395%);fill-opacity:1;" d="M 29.398438 22.875 C 29.398438 29.75 25.304688 35.324219 20.25 35.324219 C 15.195312 35.324219 11.101562 29.75 11.101562 22.875 C 11.101562 16 15.195312 10.425781 20.25 10.425781 C 25.304688 10.425781 29.398438 16 29.398438 22.875 Z M 29.398438 22.875 "/>
<path style="fill:none;stroke-width:3;stroke-linecap:round;stroke-linejoin:miter;stroke:rgb(9.411765%,9.803922%,24.705882%);stroke-opacity:1;stroke-miterlimit:10;" d="M 24 9.5 C 24 9.5 26.5 8 26.5 5 C 26.5 3.598958 25.401042 2.5 24 2.5 C 22.802083 2.5 21.802083 3.401042 21.5 4.5 " transform="matrix(0.75,0,0,0.75,0,0)"/>
<path style="fill:none;stroke-width:3;stroke-linecap:round;stroke-linejoin:round;stroke:rgb(9.411765%,9.803922%,24.705882%);stroke-opacity:1;stroke-miterlimit:10;" d="M 29.598958 41.697917 C 30.802083 42.197917 32.098958 42.5 33.401042 42.5 C 36 42.5 38.401042 41.401042 40.302083 39.598958 C 43.401042 36.697917 45.5 31.901042 45.5 26.5 C 45.5 20 42.598958 14.401042 38.401042 11.901042 " transform="matrix(0.75,0,0,0.75,0,0)"/>
<path style="fill:none;stroke-width:3;stroke-linecap:round;stroke-linejoin:round;stroke:rgb(9.411765%,9.803922%,24.705882%);stroke-opacity:1;stroke-miterlimit:10;" d="M 11.5 11 C 6.302083 12.802083 2.5 19 2.5 26.5 C 2.5 35.302083 7.901042 42.5 14.598958 42.5 C 15.901042 42.5 17.197917 42.197917 18.401042 41.697917 " transform="matrix(0.75,0,0,0.75,0,0)"/>
<path style="fill:none;stroke-width:3;stroke-linecap:round;stroke-linejoin:round;stroke:rgb(9.411765%,9.803922%,24.705882%);stroke-opacity:1;stroke-miterlimit:10;" d="M 36 21.901042 C 36.302083 23.401042 36.5 24.901042 36.5 26.5 C 36.5 35.901042 30.901042 43.5 24 43.5 C 19 43.5 14.697917 39.5 12.697917 33.802083 " transform="matrix(0.75,0,0,0.75,0,0)"/>
<path style="fill:none;stroke-width:3;stroke-linecap:round;stroke-linejoin:round;stroke:rgb(9.411765%,9.803922%,24.705882%);stroke-opacity:1;stroke-miterlimit:10;" d="M 11.697917 23.598958 C 12.697917 15.598958 17.802083 9.5 24 9.5 C 27.901042 9.5 31.401042 11.901042 33.598958 15.697917 " transform="matrix(0.75,0,0,0.75,0,0)"/>
</g>
</svg>
