<?xml version="1.0" encoding="UTF-8"?>
<svg xmlns="http://www.w3.org/2000/svg" xmlns:xlink="http://www.w3.org/1999/xlink" width="36pt" height="36pt" viewBox="0 0 36 36" version="1.1">
<g id="surface16049">
<path style=" stroke:none;fill-rule:nonzero;fill:rgb(100%,67.058825%,56.862748%);fill-opacity:1;" d="M 33 19.125 C 33 16.648438 30.976562 14.625 28.5 14.625 C 27.375 14.625 26.324219 15.074219 25.5 15.75 C 25.125 16.125 24.75 16.574219 24.523438 17.023438 C 23.699219 15.976562 22.425781 15.375 21 15.375 C 19.875 15.375 18.824219 15.824219 18 16.5 C 17.851562 16.648438 17.625 16.875 17.476562 17.023438 C 16.726562 15.601562 15.226562 14.625 13.5 14.625 C 12.375 14.625 11.324219 15.074219 10.5 15.75 C 9.601562 16.574219 9 17.773438 9 19.125 C 9 19.726562 9.148438 20.398438 9.375 20.925781 C 9.976562 22.273438 11.175781 23.25 12.675781 23.550781 C 12.226562 24.226562 12 25.050781 12 25.875 C 12 26.476562 12.148438 27.148438 12.375 27.675781 C 12.898438 28.949219 14.101562 29.925781 15.449219 30.226562 C 15.300781 30.375 15.226562 30.523438 15.226562 30.675781 C 15.226562 31.125 15.675781 31.425781 16.199219 31.425781 C 16.351562 31.425781 16.425781 31.425781 16.574219 31.351562 C 16.574219 31.875 16.726562 32.398438 16.949219 32.851562 C 17.625 34.425781 19.199219 35.550781 21.074219 35.550781 C 23.550781 35.550781 25.574219 33.523438 25.574219 31.050781 C 25.574219 30.824219 25.574219 30.523438 25.5 30.300781 C 25.5 30.300781 25.574219 30.300781 25.574219 30.300781 C 28.050781 30.300781 30.074219 28.273438 30.074219 25.800781 C 30.074219 24.976562 29.851562 24.148438 29.398438 23.476562 C 31.425781 23.175781 33 21.300781 33 19.125 Z M 33 19.125 "/>
<path style="fill:none;stroke-width:3;stroke-linecap:round;stroke-linejoin:round;stroke:rgb(9.411765%,9.803922%,24.705882%);stroke-opacity:1;stroke-miterlimit:4;" d="M 26.598958 6.401042 C 25.901042 5.5 25 4.598958 24 4 C 21.901042 5.5 20.302083 7.598958 19.5 10.098958 " transform="matrix(0.75,0,0,0.75,0,0)"/>
<path style="fill:none;stroke-width:3;stroke-linecap:round;stroke-linejoin:round;stroke:rgb(9.411765%,9.803922%,24.705882%);stroke-opacity:1;stroke-miterlimit:4;" d="M 28.401042 9.802083 C 28 8.598958 27.401042 7.401042 26.598958 6.401042 " transform="matrix(0.75,0,0,0.75,0,0)"/>
<path style="fill:none;stroke-width:3;stroke-linecap:round;stroke-linejoin:round;stroke:rgb(9.411765%,9.803922%,24.705882%);stroke-opacity:1;stroke-miterlimit:4;" d="M 24 15.697917 C 23.5 14.302083 22.598958 13.098958 21.5 11.901042 C 18.802083 9.098958 15 8.098958 11.401042 8.697917 C 11.197917 9.598958 11.197917 10.401042 11.197917 11.302083 " transform="matrix(0.75,0,0,0.75,0,0)"/>
<path style="fill:none;stroke-width:3;stroke-linecap:round;stroke-linejoin:round;stroke:rgb(9.411765%,9.803922%,24.705882%);stroke-opacity:1;stroke-miterlimit:4;" d="M 36.802083 11.697917 C 36.697917 13 36.401042 14.302083 35.802083 15.5 " transform="matrix(0.75,0,0,0.75,0,0)"/>
<path style="fill:none;stroke-width:3;stroke-linecap:round;stroke-linejoin:round;stroke:rgb(9.411765%,9.803922%,24.705882%);stroke-opacity:1;stroke-miterlimit:4;" d="M 23.802083 16.197917 C 24.302083 14.697917 25.197917 13.197917 26.401042 12 C 29.098958 9.197917 33 8.098958 36.5 8.802083 C 36.697917 9.802083 36.697917 10.802083 36.697917 11.802083 " transform="matrix(0.75,0,0,0.75,0,0)"/>
<path style="fill:none;stroke-width:3;stroke-linecap:round;stroke-linejoin:round;stroke:rgb(9.411765%,9.803922%,24.705882%);stroke-opacity:1;stroke-miterlimit:4;" d="M 28.598958 41.302083 C 27.5 42.598958 25.802083 43.5 24 43.5 C 20.697917 43.5 18 40.802083 18 37.5 " transform="matrix(0.75,0,0,0.75,0,0)"/>
<path style="fill:none;stroke-width:3;stroke-linecap:round;stroke-linejoin:round;stroke:rgb(9.411765%,9.803922%,24.705882%);stroke-opacity:1;stroke-miterlimit:4;" d="M 23.901042 29.197917 C 24 29.598958 24 30 24 30.5 C 24 33.802083 21.302083 36.5 18 36.5 C 15.302083 36.5 13 34.697917 12.302083 32.197917 " transform="matrix(0.75,0,0,0.75,0,0)"/>
<path style="fill:none;stroke-width:3;stroke-linecap:round;stroke-linejoin:round;stroke:rgb(9.411765%,9.803922%,24.705882%);stroke-opacity:1;stroke-miterlimit:4;" d="M 35.401042 28 C 35.802083 28.802083 36 29.598958 36 30.5 C 36 33.802083 33.302083 36.5 30 36.5 C 26.697917 36.5 24 33.802083 24 30.5 C 24 29.802083 24.098958 29.098958 24.302083 28.5 " transform="matrix(0.75,0,0,0.75,0,0)"/>
<path style="fill:none;stroke-width:3;stroke-linecap:round;stroke-linejoin:round;stroke:rgb(9.411765%,9.803922%,24.705882%);stroke-opacity:1;stroke-miterlimit:4;" d="M 17.598958 26.302083 C 16.598958 27.098958 15.302083 27.5 14 27.5 C 10.697917 27.5 8 24.802083 8 21.5 C 8 18.197917 10.697917 15.5 14 15.5 C 16 15.5 17.802083 16.5 18.901042 18 " transform="matrix(0.75,0,0,0.75,0,0)"/>
<path style="fill:none;stroke-width:3;stroke-linecap:round;stroke-linejoin:round;stroke:rgb(9.411765%,9.803922%,24.705882%);stroke-opacity:1;stroke-miterlimit:4;" d="M 39.098958 24.697917 C 38 26.401042 36.197917 27.5 34 27.5 C 32.5 27.5 31.098958 26.901042 30 26 " transform="matrix(0.75,0,0,0.75,0,0)"/>
<path style="fill:none;stroke-width:3;stroke-linecap:round;stroke-linejoin:round;stroke:rgb(9.411765%,9.803922%,24.705882%);stroke-opacity:1;stroke-miterlimit:4;" d="M 29 18.098958 C 30.098958 16.5 31.901042 15.5 34 15.5 C 35.401042 15.5 36.697917 16 37.697917 16.802083 " transform="matrix(0.75,0,0,0.75,0,0)"/>
<path style="fill:none;stroke-width:3;stroke-linecap:round;stroke-linejoin:round;stroke:rgb(9.411765%,9.803922%,24.705882%);stroke-opacity:1;stroke-miterlimit:4;" d="M 30 22.5 C 30 25.802083 27.302083 28.5 24 28.5 C 21.5 28.5 19.401042 27 18.5 24.901042 C 18.197917 24.197917 18 23.401042 18 22.5 C 18 20.697917 18.802083 19.098958 20 18 C 21.098958 17 22.5 16.5 24 16.5 C 27.302083 16.5 30 19.197917 30 22.5 Z M 30 22.5 " transform="matrix(0.75,0,0,0.75,0,0)"/>
</g>
</svg>
