<?xml version="1.0" encoding="UTF-8"?>
<svg xmlns="http://www.w3.org/2000/svg" xmlns:xlink="http://www.w3.org/1999/xlink" width="36pt" height="36pt" viewBox="0 0 36 36" version="1.1">
<g id="surface34003">
<path style=" stroke:none;fill-rule:nonzero;fill:rgb(100%,87.843138%,50.980395%);fill-opacity:1;" d="M 35.257812 5.609375 C 35.191406 5.476562 35.0625 5.347656 34.933594 5.21875 C 33.960938 4.246094 32.402344 4.246094 31.496094 5.21875 C 31.363281 5.347656 31.300781 5.476562 31.171875 5.609375 L 27.921875 10.53125 L 27.082031 9.695312 C 26.433594 9.046875 25.394531 9.046875 24.746094 9.695312 L 9.628906 24.683594 C 8.980469 25.332031 8.980469 26.371094 9.628906 27.019531 L 10.472656 27.863281 L 5.542969 31.105469 C 4.441406 31.882812 4.117188 33.375 4.894531 34.480469 C 4.960938 34.609375 5.089844 34.738281 5.21875 34.867188 C 6.195312 35.839844 7.75 35.839844 8.660156 34.867188 C 8.789062 34.738281 8.855469 34.609375 8.984375 34.480469 L 12.203125 29.585938 L 13.070312 30.457031 C 13.71875 31.105469 14.757812 31.105469 15.40625 30.457031 L 30.457031 15.40625 C 31.105469 14.820312 31.105469 13.78125 30.523438 13.132812 L 29.675781 12.285156 L 34.609375 9.046875 C 35.710938 8.269531 35.972656 6.710938 35.257812 5.609375 Z M 35.257812 5.609375 "/>
<path style="fill:none;stroke-width:3;stroke-linecap:round;stroke-linejoin:round;stroke:rgb(9.411765%,9.803922%,24.705882%);stroke-opacity:1;stroke-miterlimit:10;" d="M 12.911458 37.369792 L 10.4375 34.989583 L 3.473958 39.572917 C 1.916667 40.671875 1.458333 42.776042 2.5625 44.333333 C 2.651042 44.515625 2.833333 44.703125 3.015625 44.885417 C 4.390625 46.260417 6.588542 46.260417 7.875 44.885417 C 8.057292 44.703125 8.151042 44.520833 8.333333 44.333333 L 9.848958 42.03125 " transform="matrix(0.75,0,0,0.75,0,0)"/>
<path style="fill:none;stroke-width:3;stroke-linecap:round;stroke-linejoin:round;stroke:rgb(9.411765%,9.803922%,24.705882%);stroke-opacity:1;stroke-miterlimit:10;" d="M 35.083333 10.526042 L 37.557292 13 L 44.520833 8.421875 C 46.078125 7.322917 46.442708 5.125 45.4375 3.5625 C 45.34375 3.380208 45.161458 3.197917 44.979167 3.015625 C 43.604167 1.640625 41.40625 1.640625 40.125 3.015625 C 39.979167 3.161458 39.890625 3.302083 39.770833 3.447917 " transform="matrix(0.75,0,0,0.75,0,0)"/>
<path style="fill:none;stroke-width:3;stroke-linecap:round;stroke-linejoin:round;stroke:rgb(9.411765%,9.803922%,24.705882%);stroke-opacity:1;stroke-miterlimit:10;" d="M 36.453125 19.598958 L 38.65625 17.401042 C 39.572917 16.572917 39.572917 15.109375 38.75 14.192708 L 33.890625 9.338542 C 32.979167 8.421875 31.510417 8.421875 30.59375 9.338542 L 15.4375 24.364583 " transform="matrix(0.75,0,0,0.75,0,0)"/>
<path style="fill:none;stroke-width:3;stroke-linecap:round;stroke-linejoin:round;stroke:rgb(9.411765%,9.803922%,24.705882%);stroke-opacity:1;stroke-miterlimit:10;" d="M 11.729167 28.036458 L 9.25 30.5 C 8.333333 31.416667 8.333333 32.880208 9.25 33.796875 L 14.104167 38.65625 C 15.020833 39.567708 16.484375 39.567708 17.401042 38.65625 L 31.708333 24.34375 " transform="matrix(0.75,0,0,0.75,0,0)"/>
</g>
</svg>
