<?xml version="1.0" encoding="UTF-8"?>
<svg xmlns="http://www.w3.org/2000/svg" xmlns:xlink="http://www.w3.org/1999/xlink" width="36pt" height="36pt" viewBox="0 0 36 36" version="1.1">
<g id="surface17438">
<path style=" stroke:none;fill-rule:nonzero;fill:rgb(100%,87.843138%,50.980395%);fill-opacity:1;" d="M 35.171875 9.777344 C 26.429688 4.640625 15.570312 4.640625 6.828125 9.777344 C 5.765625 10.398438 5.441406 11.785156 6.148438 12.789062 L 6.171875 12.824219 C 6.804688 13.722656 8.011719 13.960938 8.960938 13.40625 C 9.316406 13.195312 9.679688 13.003906 10.042969 12.816406 L 19.230469 34.785156 C 19.953125 36.507812 22.394531 36.507812 23.113281 34.785156 L 32.238281 12.96875 C 32.503906 13.113281 32.777344 13.25 33.042969 13.40625 C 33.988281 13.960938 35.195312 13.722656 35.828125 12.824219 L 35.851562 12.792969 C 36.558594 11.78125 36.234375 10.398438 35.171875 9.777344 Z M 35.171875 9.777344 "/>
<path style="fill:none;stroke-width:3;stroke-linecap:round;stroke-linejoin:round;stroke:rgb(9.411765%,9.803922%,24.705882%);stroke-opacity:1;stroke-miterlimit:4;" d="M 31.026042 34.046875 L 39.875 12.885417 " transform="matrix(0.75,0,0,0.75,0,0)"/>
<path style="fill:none;stroke-width:3;stroke-linecap:round;stroke-linejoin:round;stroke:rgb(9.411765%,9.803922%,24.705882%);stroke-opacity:1;stroke-miterlimit:4;" d="M 8.53125 12.6875 L 21.479167 43.651042 C 22.505208 46.104167 25.989583 46.104167 27.010417 43.651042 L 27.927083 41.463542 " transform="matrix(0.75,0,0,0.75,0,0)"/>
<path style="fill:none;stroke-width:3;stroke-linecap:round;stroke-linejoin:round;stroke:rgb(9.411765%,9.803922%,24.705882%);stroke-opacity:1;stroke-miterlimit:4;" d="M 13.208333 22.885417 C 15.989583 21.953125 19.1875 22.598958 21.411458 24.817708 C 24.53125 27.942708 24.536458 33.005208 21.416667 36.119792 C 20.75 36.791667 19.989583 37.3125 19.182292 37.697917 " transform="matrix(0.75,0,0,0.75,0,0)"/>
<path style="fill:none;stroke-width:3;stroke-linecap:round;stroke-linejoin:round;stroke:rgb(9.411765%,9.803922%,24.705882%);stroke-opacity:1;stroke-miterlimit:4;" d="M 27.78125 13.114583 C 27.541667 13.28125 27.291667 13.432292 27.026042 13.567708 C 24.171875 15 20.692708 13.848958 19.265625 11 C 18.958333 10.390625 18.770833 9.75 18.692708 9.104167 " transform="matrix(0.75,0,0,0.75,0,0)"/>
<path style="fill:none;stroke-width:3;stroke-linecap:round;stroke-linejoin:round;stroke:rgb(9.411765%,9.803922%,24.705882%);stroke-opacity:1;stroke-miterlimit:4;" d="M 33.494792 28.151042 C 33.09375 27.916667 32.71875 27.630208 32.375 27.286458 C 30.229167 25.140625 30.229167 21.65625 32.375 19.510417 C 33.692708 18.192708 35.515625 17.682292 37.21875 17.979167 " transform="matrix(0.75,0,0,0.75,0,0)"/>
<path style="fill:none;stroke-width:3;stroke-linecap:round;stroke-linejoin:round;stroke:rgb(9.411765%,9.803922%,24.705882%);stroke-opacity:1;stroke-miterlimit:4;" d="M 23.25 8.515625 C 17.5625 8.640625 11.90625 10.192708 6.833333 13.171875 C 5.484375 13.963542 3.760417 13.625 2.864583 12.34375 L 2.828125 12.296875 C 1.817708 10.859375 2.28125 8.885417 3.791667 8 C 5.427083 7.036458 7.114583 6.203125 8.838542 5.494792 " transform="matrix(0.75,0,0,0.75,0,0)"/>
<path style="fill:none;stroke-width:3;stroke-linecap:round;stroke-linejoin:round;stroke:rgb(9.411765%,9.803922%,24.705882%);stroke-opacity:1;stroke-miterlimit:4;" d="M 15.322917 3.463542 C 25.036458 1.302083 35.380208 2.8125 44.203125 8 C 45.71875 8.885417 46.182292 10.859375 45.171875 12.296875 L 45.135417 12.34375 C 44.239583 13.625 42.515625 13.963542 41.166667 13.171875 C 37.765625 11.177083 34.098958 9.817708 30.338542 9.104167 " transform="matrix(0.75,0,0,0.75,0,0)"/>
</g>
</svg>
