<?xml version="1.0" encoding="UTF-8"?>
<svg xmlns="http://www.w3.org/2000/svg" xmlns:xlink="http://www.w3.org/1999/xlink" width="36pt" height="36pt" viewBox="0 0 36 36" version="1.1">
<g id="surface17347">
<path style=" stroke:none;fill-rule:nonzero;fill:rgb(56.470591%,79.215688%,97.647059%);fill-opacity:1;" d="M 24.75 33 L 16.5 33 C 10.273438 33 5.25 27.898438 5.25 21.75 C 5.25 20.925781 5.925781 20.25 6.75 20.25 L 34.5 20.25 C 35.324219 20.25 36 20.925781 36 21.75 C 36 27.976562 30.976562 33 24.75 33 Z M 24.75 33 "/>
<path style="fill:none;stroke-width:3;stroke-linecap:round;stroke-linejoin:round;stroke:rgb(9.411765%,9.803922%,24.705882%);stroke-opacity:1;stroke-miterlimit:4;" d="M 30.401042 11.098958 C 32.098958 10 34.197917 9.697917 36.197917 10.598958 C 36.5 10.697917 36.802083 10.802083 37 11 " transform="matrix(0.75,0,0,0.75,0,0)"/>
<path style="fill:none;stroke-width:3;stroke-linecap:round;stroke-linejoin:round;stroke:rgb(9.411765%,9.803922%,24.705882%);stroke-opacity:1;stroke-miterlimit:4;" d="M 26.5 14.697917 C 26.401042 12.098958 24.197917 10.098958 21.697917 10.197917 C 21.5 10.197917 21.401042 10.197917 21.197917 10.302083 C 20.302083 9.098958 18.901042 8.401042 17.302083 8.5 C 15.697917 8.598958 14.401042 9.401042 13.598958 10.598958 " transform="matrix(0.75,0,0,0.75,0,0)"/>
<path style="fill:none;stroke-width:3;stroke-linecap:round;stroke-linejoin:round;stroke:rgb(9.411765%,9.803922%,24.705882%);stroke-opacity:1;stroke-miterlimit:4;" d="M 17 21.5 C 17 17.598958 20.098958 14.5 24 14.5 C 27.901042 14.5 31 17.598958 31 21.5 " transform="matrix(0.75,0,0,0.75,0,0)"/>
<path style="fill:none;stroke-width:3;stroke-linecap:round;stroke-linejoin:round;stroke:rgb(9.411765%,9.803922%,24.705882%);stroke-opacity:1;stroke-miterlimit:4;" d="M 17.197917 22 C 16.802083 20.401042 16 18.802083 14.802083 17.5 C 12.598958 15.098958 9.5 14.098958 6.5 14.5 C 6.098958 14.5 5.697917 14.901042 5.697917 15.302083 C 5.5 16.401042 5.5 17.401042 5.598958 18.5 " transform="matrix(0.75,0,0,0.75,0,0)"/>
<path style="fill:none;stroke-width:3;stroke-linecap:round;stroke-linejoin:round;stroke:rgb(9.411765%,9.803922%,24.705882%);stroke-opacity:1;stroke-miterlimit:4;" d="M 30.697917 22.401042 C 31 20.598958 31.802083 19 33.098958 17.5 C 35.302083 15.098958 38.401042 14.098958 41.401042 14.401042 C 41.802083 14.401042 42.197917 14.802083 42.197917 15.197917 C 42.302083 15.697917 42.401042 16.197917 42.401042 16.802083 " transform="matrix(0.75,0,0,0.75,0,0)"/>
<path style="fill:none;stroke-width:3;stroke-linecap:round;stroke-linejoin:round;stroke:rgb(9.411765%,9.803922%,24.705882%);stroke-opacity:1;stroke-miterlimit:4;" d="M 28.401042 22.5 L 42.5 22.5 C 43.598958 22.5 44.5 23.401042 44.5 24.5 C 44.5 32.802083 37.802083 39.5 29.5 39.5 L 18.5 39.5 C 15.098958 39.5 11.901042 38.302083 9.401042 36.401042 " transform="matrix(0.75,0,0,0.75,0,0)"/>
<path style="fill:none;stroke-width:3;stroke-linecap:round;stroke-linejoin:round;stroke:rgb(9.411765%,9.803922%,24.705882%);stroke-opacity:1;stroke-miterlimit:4;" d="M 5.697917 32.302083 C 4.302083 30 3.5 27.302083 3.5 24.5 C 3.5 23.401042 4.401042 22.5 5.5 22.5 L 21.598958 22.5 " transform="matrix(0.75,0,0,0.75,0,0)"/>
</g>
</svg>
