<?xml version="1.0" encoding="UTF-8"?>
<svg xmlns="http://www.w3.org/2000/svg" xmlns:xlink="http://www.w3.org/1999/xlink" width="36pt" height="36pt" viewBox="0 0 36 36" version="1.1">
<g id="surface22994">
<path style=" stroke:none;fill-rule:nonzero;fill:rgb(54.901963%,90.588236%,94.901961%);fill-opacity:1;" d="M 14.332031 19.5 C 14.066406 19.5 13.816406 19.640625 13.679688 19.867188 C 11.632812 23.324219 10.527344 27.273438 10.527344 31.324219 L 10.527344 32.148438 C 10.527344 33.859375 11.914062 35.25 13.628906 35.25 L 28.371094 35.25 C 30.085938 35.25 31.472656 33.859375 31.472656 32.148438 L 31.472656 31.546875 C 31.472656 27.414062 30.324219 23.375 28.183594 19.859375 C 28.046875 19.636719 27.796875 19.5 27.535156 19.5 Z M 14.332031 19.5 "/>
<path style=" stroke:none;fill-rule:nonzero;fill:rgb(9.411765%,9.803922%,24.705882%);fill-opacity:1;" d="M 17.25 5.625 C 17.25 6.246094 16.746094 6.75 16.125 6.75 C 15.503906 6.75 15 6.246094 15 5.625 C 15 5.003906 15.503906 4.5 16.125 4.5 C 16.746094 4.5 17.25 5.003906 17.25 5.625 Z M 17.25 5.625 "/>
<path style=" stroke:none;fill-rule:nonzero;fill:rgb(9.411765%,9.803922%,24.705882%);fill-opacity:1;" d="M 21 5.625 C 21 6.246094 20.496094 6.75 19.875 6.75 C 19.253906 6.75 18.75 6.246094 18.75 5.625 C 18.75 5.003906 19.253906 4.5 19.875 4.5 C 20.496094 4.5 21 5.003906 21 5.625 Z M 21 5.625 "/>
<path style="fill:none;stroke-width:3;stroke-linecap:round;stroke-linejoin:round;stroke:rgb(9.411765%,9.803922%,24.705882%);stroke-opacity:1;stroke-miterlimit:10;" d="M 30.5 13.5 L 17.5 13.5 L 17.5 10.5 C 17.5 7.739583 19.739583 5.5 22.5 5.5 L 25.5 5.5 C 28.260417 5.5 30.5 7.739583 30.5 10.5 Z M 30.5 13.5 " transform="matrix(0.75,0,0,0.75,0,0)"/>
<path style="fill:none;stroke-width:3;stroke-linecap:round;stroke-linejoin:round;stroke:rgb(9.411765%,9.803922%,24.705882%);stroke-opacity:1;stroke-miterlimit:10;" d="M 18.5 13.5 L 29.5 13.5 L 29.5 14.317708 C 29.5 16.192708 30.083333 18.026042 31.166667 19.557292 L 32.166667 20.973958 C 33.802083 23.276042 35.078125 25.796875 35.973958 28.442708 " transform="matrix(0.75,0,0,0.75,0,0)"/>
<path style="fill:none;stroke-width:3;stroke-linecap:round;stroke-linejoin:round;stroke:rgb(9.411765%,9.803922%,24.705882%);stroke-opacity:1;stroke-miterlimit:10;" d="M 37.21875 33.713542 C 37.40625 35.041667 37.5 36.380208 37.5 37.729167 L 37.5 38.5 C 37.5 40.708333 35.708333 42.5 33.5 42.5 L 14.5 42.5 C 12.291667 42.5 10.5 40.708333 10.5 38.5 L 10.5 37.442708 C 10.5 31 12.645833 24.744792 16.59375 19.65625 " transform="matrix(0.75,0,0,0.75,0,0)"/>
<path style="fill:none;stroke-width:3;stroke-linecap:round;stroke-linejoin:round;stroke:rgb(9.411765%,9.803922%,24.705882%);stroke-opacity:1;stroke-miterlimit:10;" d="M 16.5 21.5 L 31.5 21.5 " transform="matrix(0.75,0,0,0.75,0,0)"/>
<path style=" stroke:none;fill-rule:nonzero;fill:rgb(9.411765%,9.803922%,24.705882%);fill-opacity:1;" d="M 18.609375 28.5 L 17.277344 28.5 C 16.152344 28.5 15.167969 27.914062 14.78125 27.332031 C 14.496094 26.902344 14.613281 26.320312 15.042969 26.03125 C 15.46875 25.75 16.042969 25.859375 16.335938 26.28125 C 16.417969 26.375 16.789062 26.625 17.277344 26.625 L 18.609375 26.625 C 19.101562 26.625 19.5 26.246094 19.5 25.78125 C 19.5 25.316406 19.101562 24.9375 18.609375 24.9375 L 17.578125 24.9375 C 16.054688 24.9375 14.8125 23.71875 14.8125 22.21875 C 14.8125 20.71875 16.054688 19.5 17.578125 19.5 L 18.5625 19.5 C 20.070312 19.5 20.78125 20.570312 20.859375 20.691406 C 21.132812 21.128906 21 21.707031 20.558594 21.984375 C 20.121094 22.257812 19.542969 22.125 19.269531 21.683594 C 19.257812 21.671875 19.035156 21.375 18.5625 21.375 L 17.578125 21.375 C 17.085938 21.375 16.6875 21.753906 16.6875 22.21875 C 16.6875 22.683594 17.085938 23.0625 17.578125 23.0625 L 18.609375 23.0625 C 20.132812 23.0625 21.375 24.28125 21.375 25.78125 C 21.375 27.28125 20.132812 28.5 18.609375 28.5 Z M 18.609375 28.5 "/>
</g>
</svg>
