<?xml version="1.0" encoding="UTF-8"?>
<svg xmlns="http://www.w3.org/2000/svg" xmlns:xlink="http://www.w3.org/1999/xlink" width="36pt" height="36pt" viewBox="0 0 36 36" version="1.1">
<g id="surface33938">
<path style=" stroke:none;fill-rule:nonzero;fill:rgb(56.470591%,79.215688%,97.647059%);fill-opacity:1;" d="M 33.746094 15.488281 L 23.65625 15.488281 C 23.65625 15.488281 20.355469 11.953125 14.152344 11.953125 C 9.113281 11.953125 6 14.285156 5.011719 15.164062 C 4.808594 15.339844 4.761719 15.628906 4.898438 15.863281 C 5.261719 16.480469 5.917969 17.757812 5.917969 18.925781 L 5.917969 27.269531 C 5.917969 28.480469 6.902344 29.460938 8.109375 29.460938 L 21.542969 29.460938 C 21.542969 29.460938 21.570312 29.445312 21.613281 29.421875 C 22.621094 29.222656 23.382812 28.335938 23.382812 27.269531 L 23.382812 19.679688 L 33.863281 19.679688 C 35.058594 19.679688 36.019531 18.683594 35.957031 17.472656 C 35.898438 16.339844 34.878906 15.488281 33.746094 15.488281 Z M 33.746094 15.488281 "/>
<path style="fill:none;stroke-width:3;stroke-linecap:round;stroke-linejoin:round;stroke:rgb(9.411765%,9.803922%,24.705882%);stroke-opacity:1;stroke-miterlimit:10;" d="M 2.692708 16.53125 C 2.692708 16.53125 7.328125 11.46875 16.041667 11.46875 C 24.75 11.46875 29.385417 16.53125 29.385417 16.53125 " transform="matrix(0.75,0,0,0.75,0,0)"/>
<path style="fill:none;stroke-width:3;stroke-linecap:round;stroke-linejoin:round;stroke:rgb(9.411765%,9.803922%,24.705882%);stroke-opacity:1;stroke-miterlimit:10;" d="M 29.484375 16.53125 C 29.484375 16.53125 29.5 19.140625 29.5 21.447917 L 29.5 33.390625 C 29.5 35.125 28.09375 36.53125 26.364583 36.53125 L 14.958333 36.53125 " transform="matrix(0.75,0,0,0.75,0,0)"/>
<path style="fill:none;stroke-width:3;stroke-linecap:round;stroke-linejoin:round;stroke:rgb(9.411765%,9.803922%,24.705882%);stroke-opacity:1;stroke-miterlimit:10;" d="M 8.828125 36.53125 L 6.635417 36.53125 C 4.90625 36.53125 3.5 35.125 3.5 33.390625 L 3.5 21.447917 C 3.5 19.140625 1.708333 16.53125 1.708333 16.53125 L 19.979167 16.53125 " transform="matrix(0.75,0,0,0.75,0,0)"/>
<path style="fill:none;stroke-width:3;stroke-linecap:round;stroke-linejoin:round;stroke:rgb(9.411765%,9.803922%,24.705882%);stroke-opacity:1;stroke-miterlimit:10;" d="M 43.5 22.53125 L 29.5 22.53125 L 29.5 16.53125 L 43.5 16.53125 C 45.15625 16.53125 46.5 17.875 46.5 19.53125 C 46.5 21.1875 45.15625 22.53125 43.5 22.53125 Z M 43.5 22.53125 " transform="matrix(0.75,0,0,0.75,0,0)"/>
<path style="fill:none;stroke-width:3;stroke-linecap:round;stroke-linejoin:round;stroke:rgb(9.411765%,9.803922%,24.705882%);stroke-opacity:1;stroke-miterlimit:10;" d="M 15.604167 9.239583 L 15.604167 10.463542 " transform="matrix(0.75,0,0,0.75,0,0)"/>
</g>
</svg>
