<?xml version="1.0" encoding="UTF-8"?>
<svg xmlns="http://www.w3.org/2000/svg" xmlns:xlink="http://www.w3.org/1999/xlink" width="36pt" height="36pt" viewBox="0 0 36 36" version="1.1">
<g id="surface23066">
<path style=" stroke:none;fill-rule:nonzero;fill:rgb(95.686275%,56.078434%,69.411767%);fill-opacity:1;" d="M 27.027344 18.363281 L 24.703125 16.035156 L 23.894531 12.367188 L 23.765625 11.792969 C 23.90625 11.628906 24 11.382812 24 11.097656 L 24 8.402344 C 24 7.902344 23.730469 7.5 23.398438 7.5 L 18.601562 7.5 C 18.269531 7.5 18 7.902344 18 8.402344 L 18 11.097656 C 18 11.382812 18.09375 11.628906 18.234375 11.792969 L 18.105469 12.367188 L 17.296875 16.035156 L 14.972656 18.363281 C 14.511719 18.828125 14.25 19.457031 14.25 20.113281 L 14.25 31.273438 C 14.25 32.640625 15.359375 33.75 16.726562 33.75 L 25.273438 33.75 C 26.640625 33.75 27.75 32.640625 27.75 31.273438 L 27.75 20.113281 C 27.75 19.457031 27.488281 18.828125 27.027344 18.363281 Z M 27.027344 18.363281 "/>
<path style="fill:none;stroke-width:3;stroke-linecap:round;stroke-linejoin:round;stroke:rgb(9.411765%,9.803922%,24.705882%);stroke-opacity:1;stroke-miterlimit:10;" d="M 29.213542 17.21875 L 28.072917 11.989583 L 27.744792 10.484375 " transform="matrix(0.75,0,0,0.75,0,0)"/>
<path style="fill:none;stroke-width:3;stroke-linecap:round;stroke-linejoin:round;stroke:rgb(9.411765%,9.803922%,24.705882%);stroke-opacity:1;stroke-miterlimit:10;" d="M 14.5 36.411458 L 14.5 38.963542 C 14.5 40.916667 16.083333 42.5 18.036458 42.5 L 29.963542 42.5 C 31.916667 42.5 33.5 40.916667 33.5 38.963542 L 33.5 23.026042 C 33.5 22.09375 33.135417 21.208333 32.484375 20.546875 " transform="matrix(0.75,0,0,0.75,0,0)"/>
<path style="fill:none;stroke-width:3;stroke-linecap:round;stroke-linejoin:round;stroke:rgb(9.411765%,9.803922%,24.705882%);stroke-opacity:1;stroke-miterlimit:10;" d="M 20.255208 10.479167 L 19.927083 11.989583 L 18.786458 17.21875 L 15.515625 20.546875 C 14.864583 21.208333 14.5 22.098958 14.5 23.026042 L 14.5 27.411458 " transform="matrix(0.75,0,0,0.75,0,0)"/>
<path style="fill:none;stroke-width:3;stroke-linecap:round;stroke-linejoin:round;stroke:rgb(9.411765%,9.803922%,24.705882%);stroke-opacity:1;stroke-miterlimit:10;" d="M 27.130208 25.932292 C 26.817708 25.927083 26.557292 25.703125 26.5 25.401042 C 26.208333 24.020833 24.848958 23.135417 23.46875 23.432292 C 22.479167 23.640625 21.708333 24.411458 21.5 25.401042 C 21.442708 25.703125 21.182292 25.927083 20.869792 25.932292 L 20.802083 25.932292 C 20.098958 25.932292 19.526042 26.505208 19.526042 27.208333 L 19.526042 33.25 C 19.526042 33.958333 20.098958 34.526042 20.802083 34.526042 L 27.192708 34.526042 C 27.901042 34.526042 28.473958 33.958333 28.473958 33.25 L 28.473958 27.208333 C 28.473958 26.505208 27.901042 25.932292 27.192708 25.932292 Z M 27.130208 25.932292 " transform="matrix(0.75,0,0,0.75,0,0)"/>
<path style="fill:none;stroke-width:3;stroke-linecap:round;stroke-linejoin:round;stroke:rgb(9.411765%,9.803922%,24.705882%);stroke-opacity:1;stroke-miterlimit:10;" d="M 20.401042 4.5 L 27.598958 4.5 C 28.098958 4.5 28.5 5.036458 28.5 5.703125 L 28.5 9.296875 C 28.5 9.963542 28.098958 10.5 27.598958 10.5 L 20.401042 10.5 C 19.901042 10.5 19.5 9.963542 19.5 9.296875 L 19.5 5.703125 C 19.5 5.036458 19.901042 4.5 20.401042 4.5 Z M 20.401042 4.5 " transform="matrix(0.75,0,0,0.75,0,0)"/>
</g>
</svg>
