<?xml version="1.0" encoding="UTF-8"?>
<svg xmlns="http://www.w3.org/2000/svg" xmlns:xlink="http://www.w3.org/1999/xlink" width="36pt" height="36pt" viewBox="0 0 36 36" version="1.1">
<g id="surface23834">
<path style=" stroke:none;fill-rule:nonzero;fill:rgb(95.686275%,56.078434%,69.411767%);fill-opacity:1;" d="M 29.367188 35.015625 C 16.914062 35.316406 6.5625 24.964844 6.863281 12.511719 C 6.921875 10.203125 9.078125 8.515625 11.335938 9.019531 C 13.058594 9.40625 14.230469 10.96875 14.199219 12.734375 C 14.039062 20.988281 20.890625 27.839844 29.144531 27.683594 C 30.910156 27.648438 32.472656 28.820312 32.859375 30.542969 C 33.363281 32.800781 31.679688 34.960938 29.367188 35.015625 Z M 29.367188 35.015625 "/>
<path style="fill:none;stroke-width:3;stroke-linecap:round;stroke-linejoin:round;stroke:rgb(9.411765%,9.803922%,24.705882%);stroke-opacity:1;stroke-miterlimit:10;" d="M 32.869792 32.932292 C 33.640625 33.005208 34.416667 33.036458 35.208333 33.026042 C 37.619792 32.979167 39.75 34.572917 40.276042 36.927083 C 40.963542 40.010417 38.666667 42.953125 35.510417 43.03125 C 22.916667 43.333333 11.895833 35.651042 7.208333 24.739583 " transform="matrix(0.75,0,0,0.75,0,0)"/>
<path style="fill:none;stroke-width:3;stroke-linecap:round;stroke-linejoin:round;stroke:rgb(9.411765%,9.803922%,24.705882%);stroke-opacity:1;stroke-miterlimit:10;" d="M 5.166667 17.692708 C 4.890625 15.947917 4.765625 14.151042 4.807292 12.328125 C 4.885417 9.171875 7.833333 6.875 10.911458 7.5625 C 13.265625 8.088542 14.859375 10.21875 14.8125 12.630208 C 14.661458 20.630208 19.338542 27.666667 26.098958 30.989583 " transform="matrix(0.75,0,0,0.75,0,0)"/>
<path style="fill:none;stroke-width:3;stroke-linecap:round;stroke-linejoin:round;stroke:rgb(9.411765%,9.803922%,24.705882%);stroke-opacity:1;stroke-miterlimit:10;" d="M 7.369792 4.963542 L 9.505208 7.4375 L 11.640625 4.963542 " transform="matrix(0.75,0,0,0.75,0,0)"/>
<path style="fill:none;stroke-width:3;stroke-linecap:round;stroke-linejoin:round;stroke:rgb(9.411765%,9.803922%,24.705882%);stroke-opacity:1;stroke-miterlimit:10;" d="M 42.942708 41.041667 L 40.59375 38.760417 L 43.197917 36.776042 " transform="matrix(0.75,0,0,0.75,0,0)"/>
</g>
</svg>
