<?xml version="1.0" encoding="UTF-8"?>
<svg xmlns="http://www.w3.org/2000/svg" xmlns:xlink="http://www.w3.org/1999/xlink" width="36pt" height="36pt" viewBox="0 0 36 36" version="1.1">
<g id="surface21641">
<path style=" stroke:none;fill-rule:nonzero;fill:rgb(100%,67.058825%,56.862748%);fill-opacity:1;" d="M 26.984375 11.734375 C 26.785156 11.515625 26.476562 11.433594 26.203125 11.535156 C 25.726562 11.710938 25.210938 11.808594 24.671875 11.808594 C 23.875 11.808594 23.125 11.597656 22.476562 11.226562 C 22.1875 11.0625 21.828125 11.160156 21.667969 11.453125 C 20.917969 12.839844 19.453125 13.785156 17.765625 13.785156 C 16.679688 13.785156 15.683594 13.390625 14.910156 12.738281 C 14.601562 12.476562 14.148438 12.492188 13.875 12.789062 L 6.097656 21.28125 C 5.820312 21.585938 5.769531 22.046875 5.992188 22.394531 C 9.078125 27.15625 14.878906 30.75 20.921875 30.75 C 27.089844 30.75 32.828125 27.296875 35.867188 22.390625 C 36.082031 22.042969 36.027344 21.59375 35.753906 21.292969 Z M 26.984375 11.734375 "/>
<path style=" stroke:none;fill-rule:nonzero;fill:rgb(9.411765%,9.803922%,24.705882%);fill-opacity:1;" d="M 18 15.167969 C 18.621094 15.167969 19.125 16.445312 19.125 17.066406 C 19.125 17.6875 18.621094 18.191406 18 18.191406 C 17.378906 18.191406 16.875 17.6875 16.875 17.066406 C 16.875 16.445312 17.378906 15.167969 18 15.167969 Z M 18 15.167969 "/>
<path style=" stroke:none;fill-rule:nonzero;fill:rgb(9.411765%,9.803922%,24.705882%);fill-opacity:1;" d="M 12.992188 13.714844 C 13.566406 13.953125 13.550781 15.324219 13.3125 15.898438 C 13.078125 16.472656 12.421875 16.75 11.847656 16.515625 C 11.273438 16.28125 10.996094 15.625 11.230469 15.046875 C 11.464844 14.472656 12.417969 13.480469 12.992188 13.714844 Z M 12.992188 13.714844 "/>
<path style=" stroke:none;fill-rule:nonzero;fill:rgb(9.411765%,9.803922%,24.705882%);fill-opacity:1;" d="M 24.777344 15.046875 C 25.011719 15.625 24.738281 16.28125 24.160156 16.515625 C 23.585938 16.75 22.929688 16.472656 22.695312 15.898438 C 22.460938 15.324219 22.441406 13.949219 23.015625 13.714844 C 23.59375 13.480469 24.542969 14.472656 24.777344 15.046875 Z M 24.777344 15.046875 "/>
<path style="fill:none;stroke-width:3;stroke-linecap:round;stroke-linejoin:round;stroke:rgb(9.411765%,9.803922%,24.705882%);stroke-opacity:1;stroke-miterlimit:10;" d="M 36.71875 25.661458 C 33.005208 28.854167 28.588542 31.135417 24 31.135417 C 17.635417 31.135417 11.46875 26.453125 7.114583 21.239583 " transform="matrix(0.75,0,0,0.75,0,0)"/>
<path style="fill:none;stroke-width:3;stroke-linecap:round;stroke-linejoin:round;stroke:rgb(9.411765%,9.803922%,24.705882%);stroke-opacity:1;stroke-miterlimit:10;" d="M 19.489583 14.390625 C 18.140625 14.328125 16.911458 13.8125 15.942708 12.994792 C 15.53125 12.645833 14.921875 12.666667 14.557292 13.0625 L 4.135417 24.447917 C 3.760417 24.854167 3.692708 25.46875 3.989583 25.932292 C 4.875 27.302083 5.927083 28.59375 7.114583 29.786458 " transform="matrix(0.75,0,0,0.75,0,0)"/>
<path style="fill:none;stroke-width:3;stroke-linecap:round;stroke-linejoin:round;stroke:rgb(9.411765%,9.803922%,24.705882%);stroke-opacity:1;stroke-miterlimit:10;" d="M 11.557292 33.354167 C 15.25 35.697917 19.578125 37.135417 24 37.135417 C 32.265625 37.135417 39.963542 32.510417 44.03125 25.927083 C 44.317708 25.463542 44.244792 24.859375 43.880208 24.458333 L 32.125 11.645833 C 31.859375 11.359375 31.447917 11.244792 31.078125 11.380208 C 30.4375 11.619792 29.744792 11.75 29.026042 11.75 C 27.953125 11.75 26.953125 11.463542 26.083333 10.96875 C 25.697917 10.75 25.213542 10.880208 25 11.270833 " transform="matrix(0.75,0,0,0.75,0,0)"/>
</g>
</svg>
