<?xml version="1.0" encoding="UTF-8"?>
<svg xmlns="http://www.w3.org/2000/svg" xmlns:xlink="http://www.w3.org/1999/xlink" width="36pt" height="36pt" viewBox="0 0 36 36" version="1.1">
<g id="surface23120">
<path style=" stroke:none;fill-rule:nonzero;fill:rgb(100%,87.843138%,50.980395%);fill-opacity:1;" d="M 24 13.125 L 24.800781 10.1875 C 24.964844 9.589844 24.511719 9 23.894531 9 L 17.355469 9 C 16.738281 9 16.285156 9.589844 16.449219 10.1875 L 17.320312 13.382812 C 17.992188 15.84375 17.589844 18.472656 16.210938 20.617188 L 14.253906 23.664062 C 12.613281 26.214844 12.367188 29.417969 13.597656 32.1875 L 13.714844 32.449219 C 14.269531 33.695312 15.503906 34.5 16.867188 34.5 L 25.132812 34.5 C 26.496094 34.5 27.730469 33.695312 28.285156 32.449219 C 29.582031 29.539062 29.238281 26.15625 27.386719 23.5625 L 25.359375 20.726562 C 23.785156 18.527344 23.289062 15.734375 24 13.125 Z M 24 13.125 "/>
<path style="fill:none;stroke-width:3;stroke-linecap:round;stroke-linejoin:round;stroke:rgb(9.411765%,9.803922%,24.705882%);stroke-opacity:1;stroke-miterlimit:10;" d="M 33.770833 29.145833 C 33.4375 28.369792 33.015625 27.625 32.515625 26.921875 L 29.8125 23.135417 C 27.713542 20.203125 27.052083 16.484375 28 13.005208 L 29.5 7.5 L 17.5 7.5 L 19.09375 13.348958 C 19.432292 14.578125 19.5625 15.838542 19.505208 17.088542 " transform="matrix(0.75,0,0,0.75,0,0)"/>
<path style="fill:none;stroke-width:3;stroke-linecap:round;stroke-linejoin:round;stroke:rgb(9.411765%,9.803922%,24.705882%);stroke-opacity:1;stroke-miterlimit:10;" d="M 17.052083 23.864583 L 15 27.057292 C 12.817708 30.453125 12.489583 34.723958 14.130208 38.416667 L 14.286458 38.770833 C 15.026042 40.432292 16.671875 41.5 18.489583 41.5 L 29.510417 41.5 C 31.328125 41.5 32.973958 40.432292 33.713542 38.770833 C 34.223958 37.619792 34.541667 36.421875 34.677083 35.208333 " transform="matrix(0.75,0,0,0.75,0,0)"/>
<path style="fill:none;stroke-width:3;stroke-linecap:round;stroke-linejoin:round;stroke:rgb(9.411765%,9.803922%,24.705882%);stroke-opacity:1;stroke-miterlimit:10;" d="M 16.5 7.5 L 30.5 7.5 " transform="matrix(0.75,0,0,0.75,0,0)"/>
<path style="fill:none;stroke-width:3;stroke-linecap:round;stroke-linejoin:round;stroke:rgb(9.411765%,9.803922%,24.705882%);stroke-opacity:1;stroke-miterlimit:10;" d="M 23.5 16.5 L 27.5 16.5 " transform="matrix(0.75,0,0,0.75,0,0)"/>
<path style="fill:none;stroke-width:3;stroke-linecap:round;stroke-linejoin:round;stroke:rgb(9.411765%,9.803922%,24.705882%);stroke-opacity:1;stroke-miterlimit:10;" d="M 29.5 32 C 29.5 33.932292 27.036458 35.5 24 35.5 C 20.963542 35.5 18.5 33.932292 18.5 32 C 18.5 30.067708 20.963542 28.5 24 28.5 C 27.036458 28.5 29.5 30.067708 29.5 32 Z M 29.5 32 " transform="matrix(0.75,0,0,0.75,0,0)"/>
</g>
</svg>
