<?xml version="1.0" encoding="UTF-8"?>
<svg xmlns="http://www.w3.org/2000/svg" xmlns:xlink="http://www.w3.org/1999/xlink" width="36pt" height="36pt" viewBox="0 0 36 36" version="1.1">
<g id="surface17536">
<path style=" stroke:none;fill-rule:nonzero;fill:rgb(100%,87.843138%,50.980395%);fill-opacity:1;" d="M 29.175781 34.125 L 12.824219 34.125 C 11.175781 34.125 9.601562 33.226562 8.851562 31.726562 L 7.800781 29.625 L 33 29.625 C 33.601562 29.625 33.898438 30.226562 33.675781 30.75 L 33.148438 31.726562 C 32.324219 33.226562 30.824219 34.125 29.175781 34.125 Z M 29.175781 34.125 "/>
<path style=" stroke:none;fill-rule:nonzero;fill:rgb(100%,87.843138%,50.980395%);fill-opacity:1;" d="M 33.300781 29.925781 C 32.550781 29.324219 31.199219 27.523438 30.449219 26.925781 C 29.398438 26.023438 28.574219 24.601562 27.300781 24.148438 C 26.023438 23.699219 24.601562 24.226562 23.175781 24.148438 C 22.351562 24.148438 21.523438 23.925781 20.773438 23.773438 C 20.550781 23.699219 20.324219 23.699219 20.101562 23.699219 C 19.875 23.699219 19.648438 23.699219 19.425781 23.773438 C 18.601562 23.851562 17.851562 24.074219 17.023438 24.148438 C 15.601562 24.226562 14.175781 23.699219 12.898438 24.148438 C 11.625 24.675781 10.800781 26.101562 9.75 26.925781 C 9 27.523438 7.574219 28.199219 6.824219 28.800781 L 8.398438 30.523438 L 20.175781 31.574219 Z M 33.300781 29.925781 "/>
<path style="fill:none;stroke-width:3;stroke-linecap:round;stroke-linejoin:round;stroke:rgb(9.411765%,9.803922%,24.705882%);stroke-opacity:1;stroke-miterlimit:10;" d="M 34.901042 41.5 L 13.098958 41.5 C 10.901042 41.5 8.802083 40.302083 7.802083 38.302083 L 6.401042 35.5 L 41.697917 35.5 L 40.302083 38.302083 C 39.098958 40.302083 37.098958 41.5 34.901042 41.5 Z M 34.901042 41.5 " transform="matrix(0.75,0,0,0.75,0,0)"/>
<path style="fill:none;stroke-width:3;stroke-linecap:round;stroke-linejoin:round;stroke:rgb(9.411765%,9.803922%,24.705882%);stroke-opacity:1;stroke-miterlimit:10;" d="M 7 13 L 9.598958 13 " transform="matrix(0.75,0,0,0.75,0,0)"/>
<path style="fill:none;stroke-width:3;stroke-linecap:round;stroke-linejoin:round;stroke:rgb(9.411765%,9.803922%,24.705882%);stroke-opacity:1;stroke-miterlimit:10;" d="M 35 16 L 38.5 16 C 40.197917 16 41.5 14.697917 41.5 13 C 41.5 11.302083 40.197917 10 38.5 10 L 23.598958 10 C 23.302083 10 23.098958 9.901042 22.901042 9.697917 L 21.697917 8.5 C 20.697917 7.5 19.401042 7 18 7 L 7 7 " transform="matrix(0.75,0,0,0.75,0,0)"/>
<path style="fill:none;stroke-width:3;stroke-linecap:round;stroke-linejoin:round;stroke:rgb(9.411765%,9.803922%,24.705882%);stroke-opacity:1;stroke-miterlimit:10;" d="M 17.5 19 L 18.098958 19 C 19.5 19 20.802083 18.401042 21.802083 17.5 L 23 16.302083 C 23.197917 16.098958 23.401042 16 23.697917 16 L 29.598958 16 " transform="matrix(0.75,0,0,0.75,0,0)"/>
<path style="fill:none;stroke-width:3;stroke-linecap:round;stroke-linejoin:round;stroke:rgb(9.411765%,9.803922%,24.705882%);stroke-opacity:1;stroke-miterlimit:10;" d="M 7 19 L 10.802083 19 " transform="matrix(0.75,0,0,0.75,0,0)"/>
<path style="fill:none;stroke-width:3;stroke-linecap:round;stroke-linejoin:round;stroke:rgb(9.411765%,9.803922%,24.705882%);stroke-opacity:1;stroke-miterlimit:10;" d="M 16.302083 11.302083 C 15.901042 12 15.5 12.802083 15.5 14.197917 C 15.5 17.5 17.5 17.5 17.5 20.802083 C 17.5 24.098958 15.5 24.098958 15.5 27.401042 C 15.5 30.697917 17.5 30.697917 17.5 34 " transform="matrix(0.75,0,0,0.75,0,0)"/>
<path style="fill:none;stroke-width:3;stroke-linecap:round;stroke-linejoin:round;stroke:rgb(9.411765%,9.803922%,24.705882%);stroke-opacity:1;stroke-miterlimit:10;" d="M 9.5 27.401042 C 9.5 30.697917 11.5 30.697917 11.5 34 " transform="matrix(0.75,0,0,0.75,0,0)"/>
<path style="fill:none;stroke-width:3;stroke-linecap:round;stroke-linejoin:round;stroke:rgb(9.411765%,9.803922%,24.705882%);stroke-opacity:1;stroke-miterlimit:10;" d="M 11.5 7.697917 C 11.5 11 9.5 11 9.5 14.302083 C 9.5 17.598958 11.5 17.598958 11.5 20.901042 C 11.5 21.901042 11.302083 22.697917 11 23.302083 " transform="matrix(0.75,0,0,0.75,0,0)"/>
<path style="fill:none;stroke-width:3;stroke-linecap:round;stroke-linejoin:round;stroke:rgb(9.411765%,9.803922%,24.705882%);stroke-opacity:1;stroke-miterlimit:10;" d="M 21.401042 28.598958 C 23.098958 28.098958 25 28.901042 26.901042 29 C 28.802083 29.098958 30.697917 28.401042 32.401042 29 C 34.098958 29.697917 35.197917 31.598958 36.598958 32.697917 C 37.598958 33.5 38.802083 34.098958 39.802083 34.901042 " transform="matrix(0.75,0,0,0.75,0,0)"/>
<path style="fill:none;stroke-width:3;stroke-linecap:round;stroke-linejoin:round;stroke:rgb(9.411765%,9.803922%,24.705882%);stroke-opacity:1;stroke-miterlimit:10;" d="M 5.302083 35.5 L 42.697917 35.5 " transform="matrix(0.75,0,0,0.75,0,0)"/>
</g>
</svg>
