<?xml version="1.0" encoding="UTF-8"?>
<svg xmlns="http://www.w3.org/2000/svg" xmlns:xlink="http://www.w3.org/1999/xlink" width="36pt" height="36pt" viewBox="0 0 36 36" version="1.1">
<g id="surface33838">
<path style=" stroke:none;fill-rule:nonzero;fill:rgb(56.470591%,79.215688%,97.647059%);fill-opacity:1;" d="M 34.09375 14.449219 L 27.199219 7.882812 C 26.917969 7.617188 26.484375 7.605469 26.195312 7.855469 L 19.882812 13.265625 C 19.214844 13.835938 18.832031 14.667969 18.832031 15.546875 L 18.832031 19.984375 L 8.332031 30.484375 C 7.453125 31.363281 7.453125 32.785156 8.332031 33.664062 C 9.210938 34.542969 10.636719 34.542969 11.515625 33.664062 L 22.015625 23.164062 L 26.734375 23.164062 C 27.664062 23.164062 28.539062 22.734375 29.109375 22 L 34.171875 15.449219 C 34.40625 15.144531 34.371094 14.714844 34.09375 14.449219 Z M 34.09375 14.449219 "/>
<path style="fill:none;stroke-width:3;stroke-linecap:round;stroke-linejoin:round;stroke:rgb(9.411765%,9.803922%,24.705882%);stroke-opacity:1;stroke-miterlimit:10;" d="M 40.609375 17.828125 L 41.557292 16.598958 C 41.869792 16.192708 41.828125 15.619792 41.458333 15.265625 L 32.265625 6.510417 C 31.890625 6.15625 31.3125 6.140625 30.927083 6.473958 L 22.510417 13.6875 C 21.619792 14.447917 21.109375 15.557292 21.109375 16.729167 L 21.109375 22.645833 L 11.828125 31.932292 " transform="matrix(0.75,0,0,0.75,0,0)"/>
<path style="fill:none;stroke-width:3;stroke-linecap:round;stroke-linejoin:round;stroke:rgb(9.411765%,9.803922%,24.705882%);stroke-opacity:1;stroke-miterlimit:10;" d="M 8.744792 35.010417 L 7.109375 36.645833 C 5.9375 37.817708 5.9375 39.713542 7.109375 40.885417 C 8.28125 42.057292 10.182292 42.057292 11.354167 40.885417 L 25.354167 26.885417 L 31.645833 26.885417 C 32.885417 26.885417 34.052083 26.3125 34.8125 25.333333 L 37.572917 21.760417 " transform="matrix(0.75,0,0,0.75,0,0)"/>
<path style="fill:none;stroke-width:3;stroke-linecap:round;stroke-linejoin:round;stroke:rgb(9.411765%,9.803922%,24.705882%);stroke-opacity:1;stroke-miterlimit:10;" d="M 30.109375 21.885417 L 35.109375 16.885417 " transform="matrix(0.75,0,0,0.75,0,0)"/>
<path style="fill:none;stroke-width:3;stroke-linecap:round;stroke-linejoin:round;stroke:rgb(9.411765%,9.803922%,24.705882%);stroke-opacity:1;stroke-miterlimit:10;" d="M 26.109375 17.885417 L 31.109375 12.885417 " transform="matrix(0.75,0,0,0.75,0,0)"/>
</g>
</svg>
