<?xml version="1.0" encoding="UTF-8"?>
<svg xmlns="http://www.w3.org/2000/svg" xmlns:xlink="http://www.w3.org/1999/xlink" width="36pt" height="36pt" viewBox="0 0 36 36" version="1.1">
<g id="surface23186">
<path style=" stroke:none;fill-rule:nonzero;fill:rgb(62.352943%,65.882355%,85.490197%);fill-opacity:1;" d="M 15.683594 18.796875 C 14.722656 18.796875 13.832031 19.316406 13.359375 20.152344 C 11.464844 23.527344 10.453125 27.34375 10.453125 31.25 L 10.453125 32.078125 C 10.453125 33.804688 11.851562 35.203125 13.578125 35.203125 L 28.421875 35.203125 C 30.148438 35.203125 31.546875 33.804688 31.546875 32.078125 L 31.546875 31.472656 C 31.546875 27.476562 30.480469 23.566406 28.488281 20.128906 C 28.007812 19.304688 27.128906 18.796875 26.175781 18.796875 Z M 15.683594 18.796875 "/>
<path style=" stroke:none;fill-rule:nonzero;fill:rgb(9.411765%,9.803922%,24.705882%);fill-opacity:1;" d="M 17.25 5.625 C 17.25 6.246094 16.746094 6.75 16.125 6.75 C 15.503906 6.75 15 6.246094 15 5.625 C 15 5.003906 15.503906 4.5 16.125 4.5 C 16.746094 4.5 17.25 5.003906 17.25 5.625 Z M 17.25 5.625 "/>
<path style=" stroke:none;fill-rule:nonzero;fill:rgb(9.411765%,9.803922%,24.705882%);fill-opacity:1;" d="M 21 5.625 C 21 6.246094 20.496094 6.75 19.875 6.75 C 19.253906 6.75 18.75 6.246094 18.75 5.625 C 18.75 5.003906 19.253906 4.5 19.875 4.5 C 20.496094 4.5 21 5.003906 21 5.625 Z M 21 5.625 "/>
<path style="fill:none;stroke-width:3;stroke-linecap:round;stroke-linejoin:round;stroke:rgb(9.411765%,9.803922%,24.705882%);stroke-opacity:1;stroke-miterlimit:10;" d="M 30.5 13.5 L 17.5 13.5 L 17.5 10.5 C 17.5 7.739583 19.739583 5.5 22.5 5.5 L 25.5 5.5 C 28.260417 5.5 30.5 7.739583 30.5 10.5 Z M 30.5 13.5 " transform="matrix(0.75,0,0,0.75,0,0)"/>
<path style="fill:none;stroke-width:3;stroke-linecap:round;stroke-linejoin:round;stroke:rgb(9.411765%,9.803922%,24.705882%);stroke-opacity:1;stroke-miterlimit:10;" d="M 11.229167 30.984375 C 12.161458 26.885417 13.989583 23.010417 16.598958 19.651042 L 18.5 17.203125 L 18.5 13.5 L 29.5 13.5 L 29.5 17.203125 L 32.166667 20.96875 C 32.276042 21.119792 32.380208 21.270833 32.484375 21.427083 " transform="matrix(0.75,0,0,0.75,0,0)"/>
<path style="fill:none;stroke-width:3;stroke-linecap:round;stroke-linejoin:round;stroke:rgb(9.411765%,9.803922%,24.705882%);stroke-opacity:1;stroke-miterlimit:10;" d="M 35.614583 27.447917 C 36.854167 30.713542 37.5 34.197917 37.5 37.729167 L 37.5 38.5 C 37.5 40.708333 35.708333 42.5 33.5 42.5 L 14.5 42.5 C 12.291667 42.5 10.5 40.708333 10.5 38.5 " transform="matrix(0.75,0,0,0.75,0,0)"/>
<path style="fill:none;stroke-width:3;stroke-linecap:round;stroke-linejoin:round;stroke:rgb(0%,0%,0%);stroke-opacity:1;stroke-miterlimit:10;" d="M 32.4375 21.5 L 32.536458 21.5 " transform="matrix(0.75,0,0,0.75,0,0)"/>
<path style="fill:none;stroke-width:3;stroke-linecap:round;stroke-linejoin:round;stroke:rgb(9.411765%,9.803922%,24.705882%);stroke-opacity:1;stroke-miterlimit:10;" d="M 20.338542 21.5 L 32.4375 21.5 " transform="matrix(0.75,0,0,0.75,0,0)"/>
<path style=" stroke:none;fill-rule:nonzero;fill:rgb(9.411765%,9.803922%,24.705882%);fill-opacity:1;" d="M 18.75 18.75 L 16.125 18.75 C 15.503906 18.75 15 19.253906 15 19.875 L 15 28.125 C 15 28.746094 15.503906 29.25 16.125 29.25 C 16.746094 29.25 17.25 28.746094 17.25 28.125 L 17.25 26.25 L 18.75 26.25 C 20.816406 26.25 22.5 24.566406 22.5 22.5 C 22.5 20.433594 20.816406 18.75 18.75 18.75 Z M 18.75 24 L 17.25 24 L 17.25 21 L 18.75 21 C 19.578125 21 20.25 21.671875 20.25 22.5 C 20.25 23.328125 19.578125 24 18.75 24 Z M 18.75 24 "/>
</g>
</svg>
