<?xml version="1.0" encoding="UTF-8"?>
<svg xmlns="http://www.w3.org/2000/svg" xmlns:xlink="http://www.w3.org/1999/xlink" width="36pt" height="36pt" viewBox="0 0 36 36" version="1.1">
<g id="surface25865">
<path style=" stroke:none;fill-rule:nonzero;fill:rgb(64.705884%,83.92157%,65.490198%);fill-opacity:1;" d="M 36 18.898438 C 35.699219 13.351562 31.273438 7.949219 25.574219 7.351562 C 20.023438 6.75 14.101562 10.050781 11.324219 14.773438 C 11.101562 15.226562 10.800781 15.675781 10.648438 16.125 C 9.601562 18.675781 9.300781 21.523438 9.449219 24.226562 C 9.523438 25.800781 8.925781 27.300781 8.101562 28.574219 C 7.351562 29.851562 6.449219 30.824219 6.074219 31.648438 C 5.625 32.550781 5.851562 33.601562 6.523438 34.125 C 7.199219 34.648438 8.25 34.574219 9.074219 33.824219 C 11.023438 32.550781 12.375 32.175781 13.5 32.175781 C 14.625 32.175781 15.523438 32.476562 16.5 32.773438 C 22.5 34.726562 29.398438 31.273438 33.148438 26.625 C 34.949219 24.601562 36.148438 21.824219 36 18.898438 Z M 36 18.898438 "/>
<path style="fill:none;stroke-width:3;stroke-linecap:round;stroke-linejoin:round;stroke:rgb(9.411765%,9.803922%,24.705882%);stroke-opacity:1;stroke-miterlimit:10;" d="M 41 30.697917 C 42.901042 27.901042 44.197917 24.598958 44 21.197917 C 43.598958 13.802083 37.697917 6.598958 30.098958 5.802083 C 24 5.197917 17.598958 8.098958 13.5 12.598958 M 10.197917 17.598958 C 8.802083 21 8.401042 24.802083 8.598958 28.5 C 8.697917 30.598958 7.901042 32.598958 6.802083 34.302083 C 5.802083 36 4.598958 37.302083 4.098958 38.401042 C 3.5 39.598958 3.802083 41 4.697917 41.697917 C 5.598958 42.401042 7 42.302083 8.098958 41.302083 C 10.697917 39.598958 12.5 39.098958 14 39.098958 C 15.5 39.098958 16.697917 39.5 18 39.901042 C 24.598958 42 32 39.302083 37.197917 34.802083 " transform="matrix(0.75,0,0,0.75,0,0)"/>
<path style="fill:none;stroke-width:3;stroke-linecap:round;stroke-linejoin:miter;stroke:rgb(9.411765%,9.803922%,24.705882%);stroke-opacity:1;stroke-miterlimit:10;" d="M 32 16 C 27.401042 22 21.901042 27.401042 15.802083 32 " transform="matrix(0.75,0,0,0.75,0,0)"/>
<path style="fill:none;stroke-width:3;stroke-linecap:round;stroke-linejoin:miter;stroke:rgb(9.411765%,9.803922%,24.705882%);stroke-opacity:1;stroke-miterlimit:10;" d="M 34.802083 24.697917 C 32.197917 21.802083 28.098958 21.197917 25.598958 23.302083 " transform="matrix(0.75,0,0,0.75,0,0)"/>
<path style="fill:none;stroke-width:3;stroke-linecap:round;stroke-linejoin:miter;stroke:rgb(9.411765%,9.803922%,24.705882%);stroke-opacity:1;stroke-miterlimit:10;" d="M 25.5 14.098958 C 28.098958 17 28.197917 21.197917 25.697917 23.401042 " transform="matrix(0.75,0,0,0.75,0,0)"/>
<path style="fill:none;stroke-width:3;stroke-linecap:round;stroke-linejoin:miter;stroke:rgb(9.411765%,9.803922%,24.705882%);stroke-opacity:1;stroke-miterlimit:10;" d="M 28.302083 30.302083 C 25.598958 27.5 21.5 27.098958 19.098958 29.401042 " transform="matrix(0.75,0,0,0.75,0,0)"/>
<path style="fill:none;stroke-width:3;stroke-linecap:round;stroke-linejoin:miter;stroke:rgb(9.411765%,9.803922%,24.705882%);stroke-opacity:1;stroke-miterlimit:10;" d="M 18.302083 20.197917 C 21.098958 23 21.401042 27.098958 19 29.401042 " transform="matrix(0.75,0,0,0.75,0,0)"/>
</g>
</svg>
