<?xml version="1.0" encoding="UTF-8"?>
<svg xmlns="http://www.w3.org/2000/svg" xmlns:xlink="http://www.w3.org/1999/xlink" width="36pt" height="36pt" viewBox="0 0 36 36" version="1.1">
<g id="surface23251">
<path style=" stroke:none;fill-rule:nonzero;fill:rgb(54.901963%,90.588236%,94.901961%);fill-opacity:1;" d="M 25.242188 21.648438 C 25.855469 21.335938 26.195312 20.648438 26.101562 19.964844 C 25.324219 14.308594 21.492188 10.007812 16.875 10.007812 C 12.242188 10.007812 8.402344 14.335938 7.640625 20.019531 C 7.550781 20.707031 7.902344 21.367188 8.503906 21.707031 C 13.84375 24.71875 19.429688 24.617188 25.242188 21.648438 Z M 25.242188 21.648438 "/>
<path style="fill:none;stroke-width:3;stroke-linecap:round;stroke-linejoin:round;stroke:rgb(9.411765%,9.803922%,24.705882%);stroke-opacity:1;stroke-miterlimit:10;" d="M 21.901042 9.947917 C 20.817708 9.552083 19.677083 9.34375 18.5 9.34375 C 11.927083 9.34375 6.552083 15.875 6.046875 24.166667 " transform="matrix(0.75,0,0,0.75,0,0)"/>
<path style="fill:none;stroke-width:3;stroke-linecap:round;stroke-linejoin:round;stroke:rgb(9.411765%,9.803922%,24.705882%);stroke-opacity:1;stroke-miterlimit:10;" d="M 30.953125 24.166667 C 30.703125 20.083333 29.270833 16.421875 27.098958 13.760417 " transform="matrix(0.75,0,0,0.75,0,0)"/>
<path style="fill:none;stroke-width:3;stroke-linecap:round;stroke-linejoin:round;stroke:rgb(9.411765%,9.803922%,24.705882%);stroke-opacity:1;stroke-miterlimit:10;" d="M 14.395833 38.041667 C 15.34375 38.333333 16.322917 38.526042 17.333333 38.609375 C 22.322917 39.015625 26.817708 36.796875 29.588542 33.1875 C 31.604167 30.567708 34.8125 29.15625 38.109375 29.15625 L 45.5 29.15625 C 46.052083 29.15625 46.5 28.708333 46.5 28.15625 L 46.5 24.15625 C 46.5 23.604167 46.052083 23.15625 45.5 23.15625 L 32.4375 23.15625 C 32.4375 23.182292 32.442708 23.203125 32.442708 23.223958 C 30.026042 25.630208 26.630208 27.395833 22.723958 28.151042 C 22.708333 28.151042 22.692708 28.15625 22.677083 28.161458 C 16.927083 29.260417 10.296875 28.03125 5.697917 24.255208 C 5.21875 23.864583 4.494792 24.192708 4.5 24.8125 C 4.515625 25.953125 4.666667 27.125 4.994792 28.328125 C 5.651042 30.723958 6.9375 32.864583 8.645833 34.5625 " transform="matrix(0.75,0,0,0.75,0,0)"/>
</g>
</svg>
