<?xml version="1.0" encoding="UTF-8"?>
<svg xmlns="http://www.w3.org/2000/svg" xmlns:xlink="http://www.w3.org/1999/xlink" width="36pt" height="36pt" viewBox="0 0 36 36" version="1.1">
<g id="surface25917">
<path style=" stroke:none;fill-rule:nonzero;fill:rgb(100%,87.843138%,50.980395%);fill-opacity:1;" d="M 27.691406 13.148438 C 27.386719 10.824219 25.40625 9.085938 23.0625 9.085938 L 18.941406 9.085938 C 16.59375 9.085938 14.613281 10.824219 14.308594 13.148438 C 13.898438 16.285156 12.53125 19.179688 10.617188 21.703125 C 9.617188 23.015625 9.046875 24.535156 9.046875 26.160156 C 9.046875 31.132812 14.398438 35.164062 21 35.164062 C 27.601562 35.164062 32.953125 31.132812 32.953125 26.160156 C 32.953125 24.535156 32.382812 23.015625 31.382812 21.703125 C 29.46875 19.179688 28.101562 16.285156 27.691406 13.148438 Z M 27.691406 13.148438 "/>
<path style="fill:none;stroke-width:3;stroke-linecap:round;stroke-linejoin:round;stroke:rgb(9.411765%,9.803922%,24.705882%);stroke-opacity:1;stroke-miterlimit:10;" d="M 24 6 L 24 4.5 " transform="matrix(0.75,0,0,0.75,0,0)"/>
<path style="fill:none;stroke-width:3;stroke-linecap:round;stroke-linejoin:round;stroke:rgb(9.411765%,9.803922%,24.705882%);stroke-opacity:1;stroke-miterlimit:10;" d="M 34.994792 40.338542 C 38.375 38.0625 40.5 34.75 40.5 31.067708 C 40.5 28.828125 39.713542 26.729167 38.333333 24.911458 C 35.6875 21.432292 33.802083 17.4375 33.234375 13.109375 C 32.8125 9.901042 30.078125 7.5 26.84375 7.5 L 21.15625 7.5 C 17.921875 7.5 15.1875 9.901042 14.765625 13.109375 C 14.755208 13.197917 14.739583 13.286458 14.729167 13.375 " transform="matrix(0.75,0,0,0.75,0,0)"/>
<path style="fill:none;stroke-width:3;stroke-linecap:round;stroke-linejoin:round;stroke:rgb(9.411765%,9.803922%,24.705882%);stroke-opacity:1;stroke-miterlimit:10;" d="M 12.604167 20.166667 C 11.796875 21.833333 10.802083 23.421875 9.666667 24.916667 C 8.286458 26.729167 7.5 28.828125 7.5 31.067708 C 7.5 37.932292 14.885417 43.5 24 43.5 " transform="matrix(0.75,0,0,0.75,0,0)"/>
<path style="fill:none;stroke-width:3;stroke-linecap:round;stroke-linejoin:round;stroke:rgb(9.411765%,9.803922%,24.705882%);stroke-opacity:1;stroke-miterlimit:10;" d="M 30.166667 22.25 C 29.364583 19.536458 28.807292 16.567708 28.598958 13.421875 L 28.578125 13.109375 C 28.380208 10.114583 26.765625 7.869792 24 7.869792 C 21.703125 7.869792 19.619792 10.114583 19.421875 13.109375 L 19.401042 13.421875 C 19.119792 17.708333 18.182292 21.661458 16.864583 25.109375 C 16.182292 26.901042 15.786458 28.979167 15.786458 31.197917 C 15.786458 37.989583 19.463542 43.5 24 43.5 C 28.536458 43.5 32.213542 37.989583 32.213542 31.197917 C 32.213542 30.53125 32.177083 29.880208 32.109375 29.244792 " transform="matrix(0.75,0,0,0.75,0,0)"/>
</g>
</svg>
