<?xml version="1.0" encoding="UTF-8"?>
<svg xmlns="http://www.w3.org/2000/svg" xmlns:xlink="http://www.w3.org/1999/xlink" width="36pt" height="36pt" viewBox="0 0 36 36" version="1.1">
<g id="surface13147">
<path style=" stroke:none;fill-rule:nonzero;fill:rgb(100%,87.843138%,50.980395%);fill-opacity:1;" d="M 20.25 31.273438 L 14.773438 34.125 C 13.050781 35.023438 10.949219 33.601562 11.25 31.648438 L 12.226562 25.351562 C 12.300781 24.824219 12.148438 24.300781 11.773438 24 L 7.574219 19.800781 C 6.148438 18.375 6.976562 15.976562 8.925781 15.675781 L 15.148438 14.699219 C 15.675781 14.625 16.125 14.324219 16.351562 13.800781 L 18.824219 8.925781 C 19.726562 7.125 22.273438 7.125 23.175781 8.925781 L 25.648438 13.800781 C 25.875 14.25 26.324219 14.625 26.851562 14.699219 L 33.074219 15.675781 C 35.023438 15.976562 35.773438 18.375 34.425781 19.800781 L 30.148438 24 C 29.773438 24.375 29.625 24.898438 29.699219 25.351562 L 30.675781 31.648438 C 30.976562 33.601562 28.949219 35.101562 27.148438 34.125 L 21.75 31.273438 C 21.300781 31.050781 20.699219 31.050781 20.25 31.273438 Z M 20.25 31.273438 "/>
<path style="fill:none;stroke-width:3;stroke-linecap:round;stroke-linejoin:round;stroke:rgb(9.411765%,9.803922%,24.705882%);stroke-opacity:1;stroke-miterlimit:4;" d="M 37.5 38.697917 C 37.901042 41.401042 35.098958 43.401042 32.598958 42.197917 L 25 38.302083 C 24.401042 38 23.598958 38 22.901042 38.302083 L 15.302083 42.197917 C 12.901042 43.5 10 41.401042 10.401042 38.697917 L 11.697917 30 C 11.802083 29.302083 11.598958 28.598958 11.098958 28.098958 L 5.302083 22.302083 C 3.401042 20.401042 4.401042 17 7.197917 16.598958 L 11.598958 15.901042 " transform="matrix(0.75,0,0,0.75,0,0)"/>
<path style="fill:none;stroke-width:3;stroke-linecap:round;stroke-linejoin:round;stroke:rgb(9.411765%,9.803922%,24.705882%);stroke-opacity:1;stroke-miterlimit:4;" d="M 17.598958 14.098958 L 21 7.197917 C 22.197917 4.697917 25.802083 4.697917 27 7.197917 L 30.401042 14 C 30.697917 14.598958 31.302083 15.098958 32.098958 15.197917 L 40.802083 16.5 C 43.5 16.901042 44.598958 20.197917 42.697917 22.197917 L 36.901042 28 C 36.401042 28.5 36.197917 29.197917 36.302083 29.901042 L 36.697917 32.5 " transform="matrix(0.75,0,0,0.75,0,0)"/>
</g>
</svg>
