<?xml version="1.0" encoding="UTF-8"?>
<svg xmlns="http://www.w3.org/2000/svg" xmlns:xlink="http://www.w3.org/1999/xlink" width="36pt" height="36pt" viewBox="0 0 36 36" version="1.1">
<g id="surface16205">
<path style=" stroke:none;fill-rule:nonzero;fill:rgb(95.686275%,56.078434%,69.411767%);fill-opacity:1;" d="M 30.976562 16.050781 C 27.375 12 14.625 12 11.023438 16.050781 C 5.324219 22.425781 14.625 35.699219 21 35.699219 C 27.375 35.699219 36.601562 22.425781 30.976562 16.050781 Z M 30.976562 16.050781 "/>
<path style="fill:none;stroke-width:3;stroke-linecap:round;stroke-linejoin:round;stroke:rgb(9.411765%,9.803922%,24.705882%);stroke-opacity:1;stroke-miterlimit:10;" d="M 34.697917 15 C 35.302083 13.697917 35.598958 12.302083 35.598958 10.901042 C 35.598958 9.401042 34.302083 8.098958 32.802083 8.098958 C 30.802083 8.098958 28.802083 8.697917 27.098958 10 " transform="matrix(0.75,0,0,0.75,0,0)"/>
<path style="fill:none;stroke-width:3;stroke-linecap:round;stroke-linejoin:round;stroke:rgb(9.411765%,9.803922%,24.705882%);stroke-opacity:1;stroke-miterlimit:10;" d="M 13.401042 15.197917 C 12.802083 13.901042 12.401042 12.5 12.401042 11.098958 " transform="matrix(0.75,0,0,0.75,0,0)"/>
<path style="fill:none;stroke-width:3;stroke-linecap:round;stroke-linejoin:round;stroke:rgb(9.411765%,9.803922%,24.705882%);stroke-opacity:1;stroke-miterlimit:10;" d="M 12.401042 11.098958 C 12.401042 9.5 13.802083 8.302083 15.401042 8.302083 C 17.098958 8.302083 18.697917 8.802083 20.197917 9.697917 " transform="matrix(0.75,0,0,0.75,0,0)"/>
<path style="fill:none;stroke-width:3;stroke-linecap:round;stroke-linejoin:round;stroke:rgb(9.411765%,9.803922%,24.705882%);stroke-opacity:1;stroke-miterlimit:10;" d="M 37 33.098958 C 39.901042 27.697917 40.901042 21.5 37.302083 17.5 C 32.5 12.098958 15.5 12.098958 10.697917 17.5 C 9.598958 18.802083 8.901042 20.197917 8.598958 21.802083 " transform="matrix(0.75,0,0,0.75,0,0)"/>
<path style="fill:none;stroke-width:3;stroke-linecap:round;stroke-linejoin:round;stroke:rgb(9.411765%,9.803922%,24.705882%);stroke-opacity:1;stroke-miterlimit:10;" d="M 9.098958 28.697917 C 11.401042 36.197917 18.5 43.598958 24 43.598958 C 27.401042 43.598958 31.401042 40.802083 34.5 36.802083 " transform="matrix(0.75,0,0,0.75,0,0)"/>
<path style=" stroke:none;fill-rule:nonzero;fill:rgb(9.411765%,9.803922%,24.705882%);fill-opacity:1;" d="M 19.050781 17.25 C 19.050781 18.121094 18.578125 18.824219 18 18.824219 C 17.421875 18.824219 16.949219 18.121094 16.949219 17.25 C 16.949219 16.378906 17.421875 15.675781 18 15.675781 C 18.578125 15.675781 19.050781 16.378906 19.050781 17.25 Z M 19.050781 17.25 "/>
<path style=" stroke:none;fill-rule:nonzero;fill:rgb(9.411765%,9.803922%,24.705882%);fill-opacity:1;" d="M 11.851562 17.25 C 11.851562 18.121094 11.378906 18.824219 10.800781 18.824219 C 10.21875 18.824219 9.75 18.121094 9.75 17.25 C 9.75 16.378906 10.21875 15.675781 10.800781 15.675781 C 11.378906 15.675781 11.851562 16.378906 11.851562 17.25 Z M 11.851562 17.25 "/>
<path style=" stroke:none;fill-rule:nonzero;fill:rgb(9.411765%,9.803922%,24.705882%);fill-opacity:1;" d="M 22.648438 22.949219 C 22.648438 23.859375 22.179688 24.601562 21.601562 24.601562 C 21.019531 24.601562 20.550781 23.859375 20.550781 22.949219 C 20.550781 22.039062 21.019531 21.300781 21.601562 21.300781 C 22.179688 21.300781 22.648438 22.039062 22.648438 22.949219 Z M 22.648438 22.949219 "/>
<path style=" stroke:none;fill-rule:nonzero;fill:rgb(9.411765%,9.803922%,24.705882%);fill-opacity:1;" d="M 15.449219 22.949219 C 15.449219 23.859375 14.980469 24.601562 14.398438 24.601562 C 13.820312 24.601562 13.351562 23.859375 13.351562 22.949219 C 13.351562 22.039062 13.820312 21.300781 14.398438 21.300781 C 14.980469 21.300781 15.449219 22.039062 15.449219 22.949219 Z M 15.449219 22.949219 "/>
<path style=" stroke:none;fill-rule:nonzero;fill:rgb(9.411765%,9.803922%,24.705882%);fill-opacity:1;" d="M 26.175781 17.25 C 26.175781 18.121094 25.703125 18.824219 25.125 18.824219 C 24.546875 18.824219 24.074219 18.121094 24.074219 17.25 C 24.074219 16.378906 24.546875 15.675781 25.125 15.675781 C 25.703125 15.675781 26.175781 16.378906 26.175781 17.25 Z M 26.175781 17.25 "/>
<path style=" stroke:none;fill-rule:nonzero;fill:rgb(9.411765%,9.803922%,24.705882%);fill-opacity:1;" d="M 19.050781 28.050781 C 19.050781 28.960938 18.578125 29.699219 18 29.699219 C 17.421875 29.699219 16.949219 28.960938 16.949219 28.050781 C 16.949219 27.140625 17.421875 26.398438 18 26.398438 C 18.578125 26.398438 19.050781 27.140625 19.050781 28.050781 Z M 19.050781 28.050781 "/>
<path style="fill:none;stroke-width:3;stroke-linecap:round;stroke-linejoin:round;stroke:rgb(9.411765%,9.803922%,24.705882%);stroke-opacity:1;stroke-miterlimit:10;" d="M 28.697917 9.098958 C 28.302083 7.302083 27.302083 5.697917 26.098958 4.5 C 25 3.401042 23.098958 3.302083 22 4.401042 C 21.802083 4.598958 21.598958 4.802083 21.401042 5 " transform="matrix(0.75,0,0,0.75,0,0)"/>
</g>
</svg>
