<?xml version="1.0" encoding="UTF-8"?>
<svg xmlns="http://www.w3.org/2000/svg" xmlns:xlink="http://www.w3.org/1999/xlink" width="36pt" height="36pt" viewBox="0 0 36 36" version="1.1">
<g id="surface13187">
<path style=" stroke:none;fill-rule:nonzero;fill:rgb(100%,87.843138%,50.980395%);fill-opacity:1;" d="M 31.949219 24.75 L 36.074219 21.601562 C 36.449219 21.300781 36.449219 20.699219 36.074219 20.398438 L 31.949219 17.25 C 31.5 16.949219 31.273438 16.351562 31.351562 15.824219 L 32.023438 10.726562 C 32.101562 10.199219 31.648438 9.824219 31.199219 9.898438 L 26.101562 10.574219 C 25.574219 10.648438 25.050781 10.425781 24.675781 9.976562 L 21.523438 5.851562 C 21.226562 5.476562 20.625 5.476562 20.324219 5.851562 L 17.25 10.050781 C 16.949219 10.5 16.351562 10.726562 15.824219 10.648438 L 10.726562 9.976562 C 10.199219 9.898438 9.824219 10.351562 9.898438 10.800781 L 10.574219 15.898438 C 10.648438 16.425781 10.425781 16.949219 9.976562 17.324219 L 5.851562 20.476562 C 5.476562 20.773438 5.476562 21.375 5.851562 21.675781 L 9.976562 24.824219 C 10.425781 25.125 10.648438 25.726562 10.574219 26.25 L 9.898438 31.351562 C 9.824219 31.875 10.273438 32.25 10.726562 32.175781 L 15.824219 31.5 C 16.351562 31.425781 16.875 31.648438 17.25 32.101562 L 20.398438 36.226562 C 20.699219 36.601562 21.300781 36.601562 21.601562 36.226562 L 24.75 32.101562 C 25.050781 31.648438 25.648438 31.425781 26.175781 31.5 L 31.273438 32.175781 C 31.800781 32.25 32.175781 31.800781 32.101562 31.351562 L 31.425781 26.25 C 31.273438 25.574219 31.5 25.050781 31.949219 24.75 Z M 31.949219 24.75 "/>
<path style="fill:none;stroke-width:3;stroke-linecap:round;stroke-linejoin:round;stroke:rgb(9.411765%,9.803922%,24.705882%);stroke-opacity:1;stroke-miterlimit:10;" d="M 32.302083 28.697917 C 33.098958 27.302083 33.5 25.697917 33.5 24 C 33.5 18.802083 29.197917 14.5 24 14.5 C 18.802083 14.5 14.5 18.802083 14.5 24 C 14.5 29.197917 18.802083 33.5 24 33.5 " transform="matrix(0.75,0,0,0.75,0,0)"/>
<path style="fill:none;stroke-width:3;stroke-linecap:round;stroke-linejoin:round;stroke:rgb(9.411765%,9.803922%,24.705882%);stroke-opacity:1;stroke-miterlimit:10;" d="M 19 38.598958 L 23.197917 44.098958 C 23.598958 44.598958 24.401042 44.598958 24.802083 44.098958 L 29 38.598958 C 29.401042 38 30.197917 37.697917 30.901042 37.802083 L 37.697917 38.697917 C 38.401042 38.802083 38.901042 38.197917 38.802083 37.598958 L 37.901042 30.802083 C 37.802083 30.098958 38.098958 29.401042 38.697917 28.901042 L 44.197917 24.697917 C 44.697917 24.302083 44.697917 23.5 44.197917 23.098958 L 38.598958 19 C 38 18.598958 37.697917 17.802083 37.802083 17.098958 L 38.697917 10.302083 C 38.802083 9.598958 38.197917 9.098958 37.598958 9.197917 L 30.802083 10.098958 C 30.098958 10.197917 29.401042 9.901042 28.901042 9.302083 L 24.697917 3.802083 C 24.302083 3.302083 23.5 3.302083 23.098958 3.802083 L 21.401042 6.098958 " transform="matrix(0.75,0,0,0.75,0,0)"/>
<path style="fill:none;stroke-width:3;stroke-linecap:round;stroke-linejoin:round;stroke:rgb(9.411765%,9.803922%,24.705882%);stroke-opacity:1;stroke-miterlimit:10;" d="M 17.197917 10.197917 L 10.401042 9.302083 C 9.697917 9.197917 9.197917 9.802083 9.302083 10.401042 L 10.197917 17.197917 C 10.302083 17.901042 10 18.598958 9.401042 19.098958 L 3.901042 23.302083 C 3.401042 23.697917 3.401042 24.5 3.901042 24.901042 L 9.401042 29 C 10 29.401042 10.302083 30.197917 10.197917 30.901042 L 9.302083 37.697917 C 9.197917 38.401042 9.802083 38.901042 10.401042 38.802083 L 12.802083 38.5 " transform="matrix(0.75,0,0,0.75,0,0)"/>
</g>
</svg>
