<?xml version="1.0" encoding="UTF-8"?>
<svg xmlns="http://www.w3.org/2000/svg" xmlns:xlink="http://www.w3.org/1999/xlink" width="36pt" height="36pt" viewBox="0 0 36 36" version="1.1">
<g id="surface17594">
<path style=" stroke:none;fill-rule:nonzero;fill:rgb(100%,87.843138%,50.980395%);fill-opacity:1;" d="M 29.25 23.550781 C 29.25 27.195312 26.296875 30.148438 22.648438 30.148438 C 19.003906 30.148438 16.050781 27.195312 16.050781 23.550781 C 16.050781 19.90625 19.003906 16.949219 22.648438 16.949219 C 26.296875 16.949219 29.25 19.90625 29.25 23.550781 Z M 29.25 23.550781 "/>
<path style="fill:none;stroke-width:3;stroke-linecap:round;stroke-linejoin:round;stroke:rgb(9.411765%,9.803922%,24.705882%);stroke-opacity:1;stroke-miterlimit:4;" d="M 28.401042 35.197917 C 27.598958 35.5 26.697917 35.598958 25.901042 35.598958 C 21.197917 35.598958 17.401042 31.802083 17.401042 27.098958 C 17.401042 22.401042 21.197917 18.598958 25.901042 18.598958 C 30.598958 18.598958 34.401042 22.401042 34.401042 27.098958 C 34.401042 28.302083 34.197917 29.401042 33.697917 30.401042 " transform="matrix(0.75,0,0,0.75,0,0)"/>
<path style="fill:none;stroke-width:3;stroke-linecap:round;stroke-linejoin:round;stroke:rgb(9.411765%,9.803922%,24.705882%);stroke-opacity:1;stroke-miterlimit:4;" d="M 36.197917 13.697917 C 34.197917 9.5 30 6.697917 25 6.5 C 19.302083 6.401042 14.302083 9.901042 12.401042 15 C 11.901042 16.302083 11.098958 17.401042 10 18.302083 C 9.302083 18.901042 8.697917 19.5 8.098958 20.197917 " transform="matrix(0.75,0,0,0.75,0,0)"/>
<path style="fill:none;stroke-width:3;stroke-linecap:round;stroke-linejoin:round;stroke:rgb(9.411765%,9.803922%,24.705882%);stroke-opacity:1;stroke-miterlimit:4;" d="M 5.598958 25.697917 C 5.302083 27.098958 5.197917 28.598958 5.5 30.197917 C 6.197917 35.5 10.197917 39.802083 15.401042 41 C 17.5 41.5 19.5 41.401042 21.302083 41 C 22.697917 40.697917 24.197917 40.697917 25.5 41.098958 C 27.302083 41.697917 29.302083 41.802083 31.401042 41.5 C 36.802083 40.598958 41.197917 36.197917 42.098958 30.802083 C 42.802083 26.697917 41.5 22.901042 39 20.098958 " transform="matrix(0.75,0,0,0.75,0,0)"/>
</g>
</svg>
