<?xml version="1.0" encoding="UTF-8"?>
<svg xmlns="http://www.w3.org/2000/svg" xmlns:xlink="http://www.w3.org/1999/xlink" width="36pt" height="36pt" viewBox="0 0 36 36" version="1.1">
<g id="surface25973">
<path style=" stroke:none;fill-rule:nonzero;fill:rgb(100%,67.058825%,56.862748%);fill-opacity:1;" d="M 35.25 7.5 C 35.175781 6.675781 34.5 6.75 34.5 6.75 C 34.5 6.75 25.273438 6.148438 20.175781 11.25 C 17.398438 14.101562 16.425781 17.101562 15.523438 19.800781 C 15 21.375 14.324219 22.726562 13.726562 24.074219 C 12.074219 27.75 10.875 28.800781 9.75 29.25 C 9.226562 29.476562 7.199219 29.398438 6.75 30.300781 C 6.523438 30.75 6.824219 31.273438 7.273438 31.800781 C 9 33.523438 12.675781 35.25 17.023438 35.25 C 17.175781 35.25 17.324219 35.25 17.476562 35.25 C 20.773438 35.175781 24.898438 34.574219 29.25 30 C 32.773438 26.324219 33.675781 20.773438 33.675781 16.5 C 33.675781 14.175781 33.375 12.300781 33 11.25 C 32.324219 9.074219 35.25 8.175781 35.25 7.5 Z M 35.25 7.5 "/>
<path style="fill:none;stroke-width:3;stroke-linecap:round;stroke-linejoin:round;stroke:rgb(9.411765%,9.803922%,24.705882%);stroke-opacity:1;stroke-miterlimit:10;" d="M 24.671875 42.348958 C 27.864583 41.557292 31.375 39.8125 35 36 C 39.697917 31.098958 40.901042 23.697917 40.901042 18 C 40.901042 14.901042 40.5 12.401042 40 11 C 39.098958 8.098958 43 6.901042 43 6 C 42.901042 4.901042 42 5 42 5 C 42 5 40.171875 4.880208 37.53125 5.125 " transform="matrix(0.75,0,0,0.75,0,0)"/>
<path style="fill:none;stroke-width:3;stroke-linecap:round;stroke-linejoin:round;stroke:rgb(9.411765%,9.803922%,24.705882%);stroke-opacity:1;stroke-miterlimit:10;" d="M 27.223958 7.901042 C 25.666667 8.703125 24.1875 9.713542 22.901042 11 C 19.197917 14.802083 17.901042 18.802083 16.697917 22.401042 C 16 24.5 15.098958 26.302083 14.302083 28.098958 C 12.098958 33 10.5 34.401042 9 35 C 8.302083 35.302083 5.598958 35.197917 5 36.401042 C 4.697917 37 5.098958 37.697917 5.697917 38.401042 C 7.703125 40.401042 11.671875 42.401042 16.489583 42.890625 " transform="matrix(0.75,0,0,0.75,0,0)"/>
<path style="fill:none;stroke-width:3;stroke-linecap:round;stroke-linejoin:round;stroke:rgb(9.411765%,9.803922%,24.705882%);stroke-opacity:1;stroke-miterlimit:10;" d="M 28.072917 13.71875 C 30.40625 13.963542 32.072917 14.963542 33.072917 16.71875 " transform="matrix(0.75,0,0,0.75,0,0)"/>
<path style="fill:none;stroke-width:3;stroke-linecap:round;stroke-linejoin:round;stroke:rgb(9.411765%,9.803922%,24.705882%);stroke-opacity:1;stroke-miterlimit:10;" d="M 30.572917 24.401042 C 31.6875 24.421875 32.661458 25.359375 32.916667 25.984375 " transform="matrix(0.75,0,0,0.75,0,0)"/>
<path style="fill:none;stroke-width:3;stroke-linecap:round;stroke-linejoin:round;stroke:rgb(9.411765%,9.803922%,24.705882%);stroke-opacity:1;stroke-miterlimit:10;" d="M 19.239583 34.817708 C 20.75 34.640625 22.380208 35.864583 22.760417 37.1875 " transform="matrix(0.75,0,0,0.75,0,0)"/>
<path style="fill:none;stroke-width:3;stroke-linecap:round;stroke-linejoin:round;stroke:rgb(9.411765%,9.803922%,24.705882%);stroke-opacity:1;stroke-miterlimit:10;" d="M 21.192708 25.015625 C 22.010417 25.015625 23.052083 25.536458 23.463542 26.260417 " transform="matrix(0.75,0,0,0.75,0,0)"/>
</g>
</svg>
