<?xml version="1.0" encoding="UTF-8"?>
<svg xmlns="http://www.w3.org/2000/svg" xmlns:xlink="http://www.w3.org/1999/xlink" width="36pt" height="36pt" viewBox="0 0 36 36" version="1.1">
<g id="surface33886">
<path style=" stroke:none;fill-rule:nonzero;fill:rgb(54.901963%,90.588236%,94.901961%);fill-opacity:1;" d="M 34.5625 21 C 34.5625 28.488281 28.488281 34.5625 21 34.5625 C 13.511719 34.5625 7.4375 28.488281 7.4375 21 C 7.4375 13.511719 13.511719 7.4375 21 7.4375 C 28.488281 7.4375 34.5625 13.511719 34.5625 21 Z M 34.5625 21 "/>
<path style="fill:none;stroke-width:3;stroke-linecap:round;stroke-linejoin:round;stroke:rgb(9.411765%,9.803922%,24.705882%);stroke-opacity:1;stroke-miterlimit:10;" d="M 27.958333 42.072917 C 26.682292 42.354167 25.359375 42.5 24 42.5 C 13.78125 42.5 5.5 34.21875 5.5 24 C 5.5 13.78125 13.78125 5.5 24 5.5 C 24.578125 5.5 25.15625 5.526042 25.71875 5.578125 " transform="matrix(0.75,0,0,0.75,0,0)"/>
<path style="fill:none;stroke-width:3;stroke-linecap:round;stroke-linejoin:round;stroke:rgb(9.411765%,9.803922%,24.705882%);stroke-opacity:1;stroke-miterlimit:10;" d="M 22.260417 34.239583 C 17.354167 33.411458 13.619792 29.140625 13.619792 24 C 13.619792 18.546875 17.817708 14.078125 23.161458 13.651042 " transform="matrix(0.75,0,0,0.75,0,0)"/>
<path style="fill:none;stroke-width:3;stroke-linecap:round;stroke-linejoin:round;stroke:rgb(9.411765%,9.803922%,24.705882%);stroke-opacity:1;stroke-miterlimit:10;" d="M 31.567708 35.364583 C 31.526042 37.223958 31.5 38.479167 31.5 38.75 C 31.5 40.822917 32.84375 42.5 34.5 42.5 C 36.15625 42.5 37.5 40.822917 37.5 38.75 C 37.5 38.03125 37.338542 30.473958 37.057292 23.036458 C 39.65625 22.057292 41.5 19.510417 41.5 15.697917 C 41.5 14.453125 41.302083 13.1875 40.942708 11.989583 " transform="matrix(0.75,0,0,0.75,0,0)"/>
<path style="fill:none;stroke-width:3;stroke-linecap:round;stroke-linejoin:round;stroke:rgb(9.411765%,9.803922%,24.705882%);stroke-opacity:1;stroke-miterlimit:10;" d="M 38.223958 7.223958 C 37.145833 6.15625 35.869792 5.5 34.5 5.5 C 30.635417 5.5 27.5 10.729167 27.5 15.697917 C 27.5 19.510417 29.34375 22.057292 31.942708 23.036458 C 31.864583 25.171875 31.791667 27.3125 31.734375 29.302083 " transform="matrix(0.75,0,0,0.75,0,0)"/>
</g>
</svg>
