<?xml version="1.0" encoding="UTF-8"?>
<svg xmlns="http://www.w3.org/2000/svg" xmlns:xlink="http://www.w3.org/1999/xlink" width="36pt" height="36pt" viewBox="0 0 36 36" version="1.1">
<g id="surface19693">
<path style=" stroke:none;fill-rule:nonzero;fill:rgb(100%,87.843138%,50.980395%);fill-opacity:1;" d="M 33.675781 32.25 L 8.324219 32.25 C 7.425781 32.25 6.75 31.574219 6.75 30.675781 L 6.75 29.25 C 6.75 21.375 13.125 15 21 15 C 28.875 15 35.25 21.375 35.25 29.25 L 35.25 30.675781 C 35.25 31.574219 34.574219 32.25 33.675781 32.25 Z M 33.675781 32.25 "/>
<path style="fill:none;stroke-width:3;stroke-linecap:round;stroke-linejoin:round;stroke:rgb(9.411765%,9.803922%,24.705882%);stroke-opacity:1;stroke-miterlimit:10;" d="M 10 15.302083 C 10.802083 13.598958 12.5 12.5 14.5 12.5 C 15.697917 12.5 16.901042 12.901042 17.697917 13.697917 " transform="matrix(0.75,0,0,0.75,0,0)"/>
<path style="fill:none;stroke-width:3;stroke-linecap:round;stroke-linejoin:round;stroke:rgb(9.411765%,9.803922%,24.705882%);stroke-opacity:1;stroke-miterlimit:10;" d="M 34 12.5 C 36.5 12.697917 38.5 14.901042 38.5 17.5 C 38.5 18.098958 38.401042 18.697917 38.197917 19.197917 " transform="matrix(0.75,0,0,0.75,0,0)"/>
<path style="fill:none;stroke-width:3;stroke-linecap:round;stroke-linejoin:round;stroke:rgb(9.411765%,9.803922%,24.705882%);stroke-opacity:1;stroke-miterlimit:10;" d="M 5.598958 31.598958 C 3.697917 30.5 2.5 28.401042 2.5 26 C 2.5 22.401042 5.401042 19.5 9 19.5 C 10.197917 19.5 11.401042 19.802083 12.302083 20.401042 " transform="matrix(0.75,0,0,0.75,0,0)"/>
<path style="fill:none;stroke-width:3;stroke-linecap:round;stroke-linejoin:round;stroke:rgb(9.411765%,9.803922%,24.705882%);stroke-opacity:1;stroke-miterlimit:10;" d="M 35.697917 20.401042 C 36.697917 19.802083 37.802083 19.5 39 19.5 C 42.598958 19.5 45.5 22.401042 45.5 26 C 45.5 28.401042 44.197917 30.401042 42.401042 31.598958 " transform="matrix(0.75,0,0,0.75,0,0)"/>
<path style="fill:none;stroke-width:3;stroke-linecap:round;stroke-linejoin:round;stroke:rgb(9.411765%,9.803922%,24.705882%);stroke-opacity:1;stroke-miterlimit:10;" d="M 17.697917 17.5 C 17.598958 17 17.5 16.5 17.5 16 C 17.5 12.401042 20.401042 9.5 24 9.5 C 27.598958 9.5 30.5 12.401042 30.5 16 C 30.5 16.5 30.401042 17 30.302083 17.5 " transform="matrix(0.75,0,0,0.75,0,0)"/>
<path style="fill:none;stroke-width:3;stroke-linecap:round;stroke-linejoin:round;stroke:rgb(9.411765%,9.803922%,24.705882%);stroke-opacity:1;stroke-miterlimit:10;" d="M 29.697917 38.5 L 7.5 38.5 C 6.401042 38.5 5.5 37.598958 5.5 36.5 L 5.5 35 C 5.5 24.802083 13.802083 16.5 24 16.5 C 34.197917 16.5 42.5 24.802083 42.5 35 L 42.5 36.5 C 42.5 37.598958 41.598958 38.5 40.5 38.5 L 36.197917 38.5 " transform="matrix(0.75,0,0,0.75,0,0)"/>
</g>
</svg>
