<?xml version="1.0" encoding="UTF-8"?>
<svg xmlns="http://www.w3.org/2000/svg" xmlns:xlink="http://www.w3.org/1999/xlink" width="36pt" height="36pt" viewBox="0 0 36 36" version="1.1">
<g id="surface31617">
<path style=" stroke:none;fill-rule:nonzero;fill:rgb(62.352943%,65.882355%,85.490197%);fill-opacity:1;" d="M 7.5 27.125 L 7.5 13.375 C 7.5 11.371094 9.121094 9.75 11.125 9.75 L 30.875 9.75 C 32.878906 9.75 34.5 11.371094 34.5 13.375 L 34.5 27.125 C 34.5 29.128906 32.878906 30.75 30.875 30.75 L 11.125 30.75 C 9.121094 30.75 7.5 29.128906 7.5 27.125 Z M 7.5 27.125 "/>
<path style=" stroke:none;fill-rule:nonzero;fill:rgb(9.411765%,9.803922%,24.705882%);fill-opacity:1;" d="M 28.5 10.875 C 28.5 11.496094 27.996094 12 27.375 12 C 26.753906 12 26.25 11.496094 26.25 10.875 C 26.25 10.253906 26.753906 9.75 27.375 9.75 C 27.996094 9.75 28.5 10.253906 28.5 10.875 Z M 28.5 10.875 "/>
<path style=" stroke:none;fill-rule:nonzero;fill:rgb(9.411765%,9.803922%,24.705882%);fill-opacity:1;" d="M 28.5 14.625 C 28.5 15.246094 27.996094 15.75 27.375 15.75 C 26.753906 15.75 26.25 15.246094 26.25 14.625 C 26.25 14.003906 26.753906 13.5 27.375 13.5 C 27.996094 13.5 28.5 14.003906 28.5 14.625 Z M 28.5 14.625 "/>
<path style="fill:none;stroke-width:3;stroke-linecap:round;stroke-linejoin:round;stroke:rgb(9.411765%,9.803922%,24.705882%);stroke-opacity:1;stroke-miterlimit:10;" d="M 32.479167 37.5 L 10.5 37.5 C 7.739583 37.5 5.5 35.260417 5.5 32.5 L 5.5 13.5 C 5.5 10.739583 7.739583 8.5 10.5 8.5 L 11.21875 8.5 " transform="matrix(0.75,0,0,0.75,0,0)"/>
<path style="fill:none;stroke-width:3;stroke-linecap:round;stroke-linejoin:round;stroke:rgb(9.411765%,9.803922%,24.705882%);stroke-opacity:1;stroke-miterlimit:10;" d="M 18.979167 8.5 L 37.5 8.5 C 40.260417 8.5 42.5 10.739583 42.5 13.5 L 42.5 32.5 C 42.5 34.703125 41.072917 36.572917 39.09375 37.239583 " transform="matrix(0.75,0,0,0.75,0,0)"/>
<path style="fill:none;stroke-width:3;stroke-linecap:round;stroke-linejoin:round;stroke:rgb(9.411765%,9.803922%,24.705882%);stroke-opacity:1;stroke-miterlimit:10;" d="M 36.5 28.5 L 36.5 31.5 " transform="matrix(0.75,0,0,0.75,0,0)"/>
<path style="fill:none;stroke-width:3;stroke-linecap:round;stroke-linejoin:round;stroke:rgb(9.411765%,9.803922%,24.705882%);stroke-opacity:1;stroke-miterlimit:10;" d="M 11.5 19.640625 L 11.5 14.5 L 31.5 14.5 L 31.5 31.5 L 11.5 31.5 L 11.5 24.5 " transform="matrix(0.75,0,0,0.75,0,0)"/>
<path style="fill:none;stroke-width:3;stroke-linecap:round;stroke-linejoin:round;stroke:rgb(9.411765%,9.803922%,24.705882%);stroke-opacity:1;stroke-miterlimit:10;" d="M 11.5 24.5 L 31.5 24.5 " transform="matrix(0.75,0,0,0.75,0,0)"/>
<path style="fill:none;stroke-width:3;stroke-linecap:round;stroke-linejoin:round;stroke:rgb(9.411765%,9.803922%,24.705882%);stroke-opacity:1;stroke-miterlimit:10;" d="M 9 37.5 L 9 39.5 " transform="matrix(0.75,0,0,0.75,0,0)"/>
<path style="fill:none;stroke-width:3;stroke-linecap:round;stroke-linejoin:round;stroke:rgb(9.411765%,9.803922%,24.705882%);stroke-opacity:1;stroke-miterlimit:10;" d="M 39 37.5 L 39 39.5 " transform="matrix(0.75,0,0,0.75,0,0)"/>
<path style="fill:none;stroke-width:3;stroke-linecap:round;stroke-linejoin:round;stroke:rgb(9.411765%,9.803922%,24.705882%);stroke-opacity:1;stroke-miterlimit:10;" d="M 16.5 21.5 L 16.5 24 " transform="matrix(0.75,0,0,0.75,0,0)"/>
<path style="fill:none;stroke-width:3;stroke-linecap:round;stroke-linejoin:round;stroke:rgb(9.411765%,9.803922%,24.705882%);stroke-opacity:1;stroke-miterlimit:10;" d="M 21.5 21.5 L 21.5 24 " transform="matrix(0.75,0,0,0.75,0,0)"/>
<path style="fill:none;stroke-width:3;stroke-linecap:round;stroke-linejoin:round;stroke:rgb(9.411765%,9.803922%,24.705882%);stroke-opacity:1;stroke-miterlimit:10;" d="M 26.5 21.5 L 26.5 24 " transform="matrix(0.75,0,0,0.75,0,0)"/>
</g>
</svg>
