<?xml version="1.0" encoding="UTF-8"?>
<svg xmlns="http://www.w3.org/2000/svg" xmlns:xlink="http://www.w3.org/1999/xlink" width="36pt" height="36pt" viewBox="0 0 36 36" version="1.1">
<g id="surface31705">
<path style=" stroke:none;fill-rule:nonzero;fill:rgb(62.352943%,65.882355%,85.490197%);fill-opacity:1;" d="M 27.929688 18 L 14.070312 18 C 11.28125 18 9 20.28125 9 23.070312 L 9 31.539062 C 9 32.34375 9.65625 33 10.460938 33 L 31.539062 33 C 32.34375 33 33 32.34375 33 31.539062 L 33 23.070312 C 33 20.28125 30.71875 18 27.929688 18 Z M 27.929688 18 "/>
<path style="fill:none;stroke-width:3;stroke-linecap:round;stroke-linejoin:round;stroke:rgb(9.411765%,9.803922%,24.705882%);stroke-opacity:1;stroke-miterlimit:10;" d="M 37.5 40.489583 L 38.416667 40.489583 C 39.526042 40.489583 40.416667 39.59375 40.416667 38.489583 L 40.416667 27.348958 C 40.416667 23.536458 37.296875 20.411458 33.484375 20.411458 L 21.307292 20.411458 " transform="matrix(0.75,0,0,0.75,0,0)"/>
<path style="fill:none;stroke-width:3;stroke-linecap:round;stroke-linejoin:round;stroke:rgb(9.411765%,9.803922%,24.705882%);stroke-opacity:1;stroke-miterlimit:10;" d="M 15.328125 20.411458 L 14.515625 20.411458 C 10.703125 20.411458 7.583333 23.536458 7.583333 27.348958 L 7.583333 38.489583 C 7.583333 39.59375 8.473958 40.489583 9.583333 40.489583 L 32.765625 40.489583 " transform="matrix(0.75,0,0,0.75,0,0)"/>
<path style=" stroke:none;fill-rule:nonzero;fill:rgb(9.411765%,9.803922%,24.705882%);fill-opacity:1;" d="M 27.03125 26.621094 C 27.03125 27.253906 26.519531 27.765625 25.886719 27.765625 C 25.253906 27.765625 24.742188 27.253906 24.742188 26.621094 C 24.742188 25.988281 25.253906 25.476562 25.886719 25.476562 C 26.519531 25.476562 27.03125 25.988281 27.03125 26.621094 Z M 27.03125 26.621094 "/>
<path style="fill:none;stroke-width:3;stroke-linecap:round;stroke-linejoin:round;stroke:rgb(9.411765%,9.803922%,24.705882%);stroke-opacity:1;stroke-miterlimit:10;" d="M 26.296875 10.786458 C 25.598958 10.755208 24.833333 10.739583 24 10.739583 C 16.109375 10.739583 14.463542 12.041667 14.463542 13.34375 C 14.463542 14.385417 15.328125 15.078125 15.328125 15.078125 L 15.328125 20.411458 " transform="matrix(0.75,0,0,0.75,0,0)"/>
<path style="fill:none;stroke-width:3;stroke-linecap:round;stroke-linejoin:round;stroke:rgb(9.411765%,9.803922%,24.705882%);stroke-opacity:1;stroke-miterlimit:10;" d="M 32.671875 19.411458 L 32.671875 15.078125 C 32.671875 15.078125 33.536458 14.46875 33.536458 13.34375 C 33.536458 12.671875 33.036458 11.953125 31.265625 11.4375 " transform="matrix(0.75,0,0,0.75,0,0)"/>
<path style="fill:none;stroke-width:3;stroke-linecap:round;stroke-linejoin:round;stroke:rgb(9.411765%,9.803922%,24.705882%);stroke-opacity:1;stroke-miterlimit:10;" d="M 20.833333 7.140625 C 22.479167 5.489583 19.182292 4.453125 20.833333 2.802083 " transform="matrix(0.75,0,0,0.75,0,0)"/>
<path style="fill:none;stroke-width:3;stroke-linecap:round;stroke-linejoin:round;stroke:rgb(9.411765%,9.803922%,24.705882%);stroke-opacity:1;stroke-miterlimit:10;" d="M 27.166667 7.140625 C 28.817708 5.489583 25.520833 4.453125 27.166667 2.802083 " transform="matrix(0.75,0,0,0.75,0,0)"/>
<path style="fill:none;stroke-width:3;stroke-linecap:round;stroke-linejoin:round;stroke:rgb(9.411765%,9.803922%,24.705882%);stroke-opacity:1;stroke-miterlimit:10;" d="M 40.588542 27.71875 L 43.307292 27.71875 " transform="matrix(0.75,0,0,0.75,0,0)"/>
<path style="fill:none;stroke-width:3;stroke-linecap:round;stroke-linejoin:round;stroke:rgb(9.411765%,9.803922%,24.705882%);stroke-opacity:1;stroke-miterlimit:10;" d="M 10.5 40.5 L 10.5 41.5 " transform="matrix(0.75,0,0,0.75,0,0)"/>
<path style="fill:none;stroke-width:3;stroke-linecap:round;stroke-linejoin:round;stroke:rgb(9.411765%,9.803922%,24.705882%);stroke-opacity:1;stroke-miterlimit:10;" d="M 37.5 40.5 L 37.5 41.5 " transform="matrix(0.75,0,0,0.75,0,0)"/>
</g>
</svg>
