<?xml version="1.0" encoding="UTF-8"?>
<svg xmlns="http://www.w3.org/2000/svg" xmlns:xlink="http://www.w3.org/1999/xlink" width="36pt" height="36pt" viewBox="0 0 36 36" version="1.1">
<g id="surface26021">
<path style=" stroke:none;fill-rule:nonzero;fill:rgb(100%,67.058825%,56.862748%);fill-opacity:1;" d="M 35.625 24.601562 C 35.625 19.050781 30.898438 14.476562 25.125 14.476562 C 23.625 14.476562 22.273438 14.773438 21 15.300781 C 19.726562 14.773438 18.375 14.476562 16.875 14.476562 C 11.101562 14.476562 6.375 18.976562 6.375 24.601562 C 6.375 28.800781 9 32.175781 12.75 33.898438 C 15.300781 35.101562 18.148438 35.699219 21 35.699219 C 24.148438 35.699219 27.074219 35.023438 29.398438 33.824219 C 33.074219 32.175781 35.625 28.648438 35.625 24.601562 Z M 35.625 24.601562 "/>
<path style="fill:none;stroke-width:3;stroke-linecap:round;stroke-linejoin:round;stroke:rgb(9.411765%,9.803922%,24.705882%);stroke-opacity:1;stroke-miterlimit:10;" d="M 35 12.197917 C 35.098958 11.5 35.098958 10.802083 35 10.197917 C 34.901042 9.302083 34.098958 8.5 33.197917 8.401042 C 31.598958 8.197917 29.802083 8.697917 28.197917 9.598958 C 27.697917 7.802083 26.802083 6.302083 25.5 5.302083 C 24.802083 4.697917 23.697917 4.697917 23 5.197917 C 21.598958 6.197917 20.598958 7.802083 20 9.598958 C 18.302083 8.598958 16.5 8.197917 14.901042 8.302083 C 14 8.401042 13.197917 9.098958 13.098958 10 C 13 10.598958 13 11.197917 13.098958 11.802083 " transform="matrix(0.75,0,0,0.75,0,0)"/>
<path style="fill:none;stroke-width:3;stroke-linecap:round;stroke-linejoin:round;stroke:rgb(9.411765%,9.803922%,24.705882%);stroke-opacity:1;stroke-miterlimit:10;" d="M 8.598958 38.197917 C 9.802083 39.401042 11.302083 40.401042 12.901042 41.197917 C 16.302083 42.802083 20.098958 43.598958 23.901042 43.598958 C 28.098958 43.598958 32 42.697917 35.098958 41.098958 C 40 39 43.401042 34.302083 43.401042 28.802083 C 43.401042 26.5 42.802083 24.302083 41.697917 22.302083 " transform="matrix(0.75,0,0,0.75,0,0)"/>
<path style="fill:none;stroke-width:3;stroke-linecap:round;stroke-linejoin:round;stroke:rgb(9.411765%,9.803922%,24.705882%);stroke-opacity:1;stroke-miterlimit:10;" d="M 37.098958 17.401042 C 34.901042 16 32.302083 15.302083 29.5 15.302083 C 27.5 15.302083 25.697917 15.697917 24 16.401042 C 22.302083 15.697917 20.5 15.302083 18.5 15.302083 C 10.802083 15.302083 4.5 21.302083 4.5 28.802083 C 4.5 30.197917 4.697917 31.5 5.098958 32.802083 " transform="matrix(0.75,0,0,0.75,0,0)"/>
</g>
</svg>
