<?xml version="1.0" encoding="UTF-8"?>
<svg xmlns="http://www.w3.org/2000/svg" xmlns:xlink="http://www.w3.org/1999/xlink" width="36pt" height="36pt" viewBox="0 0 36 36" version="1.1">
<g id="surface34316">
<path style=" stroke:none;fill-rule:nonzero;fill:rgb(64.705884%,83.92157%,65.490198%);fill-opacity:1;" d="M 30.710938 25.035156 L 29.277344 25.035156 C 29.722656 24.582031 30 23.957031 30 23.273438 L 30 17.574219 C 30 16.722656 29.3125 16.035156 28.460938 16.035156 L 26.972656 16.035156 C 27.453125 15.59375 27.75 14.996094 27.75 14.332031 L 27.75 11.574219 C 27.75 10.722656 27.0625 10.035156 26.210938 10.035156 L 15.789062 10.035156 C 14.9375 10.035156 14.25 10.722656 14.25 11.574219 L 14.25 14.332031 C 14.25 14.996094 14.546875 15.59375 15.027344 16.035156 L 13.539062 16.035156 C 12.6875 16.035156 12 16.722656 12 17.574219 L 12 23.273438 C 12 23.960938 12.277344 24.582031 12.722656 25.035156 L 11.289062 25.035156 C 10.4375 25.035156 9.75 25.722656 9.75 26.574219 L 9.75 32.332031 C 9.75 33.6875 10.867188 34.785156 12.25 34.785156 L 29.75 34.785156 C 31.132812 34.785156 32.25 33.6875 32.25 32.332031 L 32.25 26.574219 C 32.25 25.722656 31.5625 25.035156 30.710938 25.035156 Z M 30.710938 25.035156 "/>
<path style="fill:none;stroke-width:3;stroke-linecap:round;stroke-linejoin:round;stroke:rgb(9.411765%,9.803922%,24.705882%);stroke-opacity:1;stroke-miterlimit:10;" d="M 13.020833 41.5 L 12.723958 41.5 C 10.942708 41.5 9.5 40.036458 9.5 38.229167 L 9.5 28.5 " transform="matrix(0.75,0,0,0.75,0,0)"/>
<path style="fill:none;stroke-width:3;stroke-linecap:round;stroke-linejoin:round;stroke:rgb(9.411765%,9.803922%,24.705882%);stroke-opacity:1;stroke-miterlimit:10;" d="M 38.5 28.5 L 38.5 38.229167 C 38.5 40.036458 37.057292 41.5 35.276042 41.5 L 18.645833 41.5 " transform="matrix(0.75,0,0,0.75,0,0)"/>
<path style="fill:none;stroke-width:3;stroke-linecap:round;stroke-linejoin:round;stroke:rgb(9.411765%,9.803922%,24.705882%);stroke-opacity:1;stroke-miterlimit:10;" d="M 7.5 28.5 L 40.5 28.5 " transform="matrix(0.75,0,0,0.75,0,0)"/>
<path style="fill:none;stroke-width:3;stroke-linecap:round;stroke-linejoin:round;stroke:rgb(9.411765%,9.803922%,24.705882%);stroke-opacity:1;stroke-miterlimit:10;" d="M 35.5 21.697917 L 35.5 25.234375 C 35.5 27.036458 34.036458 28.5 32.229167 28.5 L 15.770833 28.5 C 13.963542 28.5 12.5 27.036458 12.5 25.234375 L 12.5 15.5 " transform="matrix(0.75,0,0,0.75,0,0)"/>
<path style="fill:none;stroke-width:3;stroke-linecap:round;stroke-linejoin:round;stroke:rgb(9.411765%,9.803922%,24.705882%);stroke-opacity:1;stroke-miterlimit:10;" d="M 10.5 15.5 L 37.5 15.5 " transform="matrix(0.75,0,0,0.75,0,0)"/>
<path style="fill:none;stroke-width:3;stroke-linecap:round;stroke-linejoin:round;stroke:rgb(9.411765%,9.803922%,24.705882%);stroke-opacity:1;stroke-miterlimit:10;" d="M 32.583333 6.5 L 32.583333 12.229167 C 32.583333 14.036458 31.010417 15.5 29.078125 15.5 L 18.921875 15.5 C 16.989583 15.5 15.416667 14.036458 15.416667 12.229167 " transform="matrix(0.75,0,0,0.75,0,0)"/>
<path style="fill:none;stroke-width:3;stroke-linecap:round;stroke-linejoin:round;stroke:rgb(9.411765%,9.803922%,24.705882%);stroke-opacity:1;stroke-miterlimit:10;" d="M 13.5 6.5 L 34.5 6.5 " transform="matrix(0.75,0,0,0.75,0,0)"/>
</g>
</svg>
