<?xml version="1.0" encoding="UTF-8"?>
<svg xmlns="http://www.w3.org/2000/svg" xmlns:xlink="http://www.w3.org/1999/xlink" width="36pt" height="36pt" viewBox="0 0 36 36" version="1.1">
<g id="surface26108">
<path style=" stroke:none;fill-rule:nonzero;fill:rgb(100%,67.058825%,56.862748%);fill-opacity:1;" d="M 33 18 L 9 18 C 8.171875 18 7.5 18.671875 7.5 19.5 L 7.5 30 C 7.5 30.828125 8.171875 31.5 9 31.5 L 33 31.5 C 33.828125 31.5 34.5 30.828125 34.5 30 L 34.5 19.5 C 34.5 18.671875 33.828125 18 33 18 Z M 33 18 "/>
<path style="fill:none;stroke-width:3;stroke-linecap:round;stroke-linejoin:round;stroke:rgb(9.411765%,9.803922%,24.705882%);stroke-opacity:1;stroke-miterlimit:10;" d="M 28 9.5 C 25.515625 9.5 23.5 11.515625 23.5 14 C 23.5 14.1875 23.53125 14.369792 23.557292 14.557292 C 23.369792 14.53125 23.1875 14.5 23 14.5 C 20.515625 14.5 18.5 16.515625 18.5 19 C 18.5 19.53125 18.59375 20.036458 18.760417 20.510417 " transform="matrix(0.75,0,0,0.75,0,0)"/>
<path style="fill:none;stroke-width:3;stroke-linecap:round;stroke-linejoin:round;stroke:rgb(9.411765%,9.803922%,24.705882%);stroke-opacity:1;stroke-miterlimit:10;" d="M 37.109375 19.838542 C 37.359375 19.276042 37.5 18.65625 37.5 18 C 37.5 15.515625 35.484375 13.5 33 13.5 C 32.8125 13.5 32.635417 13.53125 32.453125 13.557292 " transform="matrix(0.75,0,0,0.75,0,0)"/>
<path style="fill:none;stroke-width:3;stroke-linecap:round;stroke-linejoin:round;stroke:rgb(9.411765%,9.803922%,24.705882%);stroke-opacity:1;stroke-miterlimit:10;" d="M 10.192708 20.104167 C 9.354167 16.677083 9.911458 13.682292 11.671875 13.015625 C 13.739583 12.234375 16.682292 14.953125 18.239583 19.088542 C 18.369792 19.427083 18.489583 19.770833 18.588542 20.109375 " transform="matrix(0.75,0,0,0.75,0,0)"/>
<path style="fill:none;stroke-width:3;stroke-linecap:round;stroke-linejoin:round;stroke:rgb(9.411765%,9.803922%,24.705882%);stroke-opacity:1;stroke-miterlimit:10;" d="M 7.427083 11.494792 C 7.885417 11.208333 8.421875 11.041667 9 11.041667 C 10.114583 11.041667 11.083333 11.661458 11.588542 12.567708 " transform="matrix(0.75,0,0,0.75,0,0)"/>
<path style="fill:none;stroke-width:3;stroke-linecap:round;stroke-linejoin:round;stroke:rgb(9.411765%,9.803922%,24.705882%);stroke-opacity:1;stroke-miterlimit:10;" d="M 35.588542 29.5 L 6.541667 29.5 L 6.541667 22.5 C 6.541667 21.395833 7.4375 20.5 8.541667 20.5 L 22.317708 20.5 " transform="matrix(0.75,0,0,0.75,0,0)"/>
<path style="fill:none;stroke-width:3;stroke-linecap:round;stroke-linejoin:round;stroke:rgb(9.411765%,9.803922%,24.705882%);stroke-opacity:1;stroke-miterlimit:10;" d="M 29.229167 20.5 L 39.458333 20.5 C 40.5625 20.5 41.458333 21.395833 41.458333 22.5 L 41.458333 29.5 " transform="matrix(0.75,0,0,0.75,0,0)"/>
<path style="fill:none;stroke-width:3;stroke-linecap:round;stroke-linejoin:round;stroke:rgb(9.411765%,9.803922%,24.705882%);stroke-opacity:1;stroke-miterlimit:10;" d="M 41.458333 29.5 L 41.458333 36.5 C 41.458333 37.604167 40.5625 38.5 39.458333 38.5 L 18.588542 38.5 " transform="matrix(0.75,0,0,0.75,0,0)"/>
<path style="fill:none;stroke-width:3;stroke-linecap:round;stroke-linejoin:round;stroke:rgb(9.411765%,9.803922%,24.705882%);stroke-opacity:1;stroke-miterlimit:10;" d="M 13.151042 38.5 L 8.541667 38.5 C 7.4375 38.5 6.541667 37.604167 6.541667 36.5 L 6.541667 29.5 " transform="matrix(0.75,0,0,0.75,0,0)"/>
<path style=" stroke:none;fill-rule:nonzero;fill:rgb(9.411765%,9.803922%,24.705882%);fill-opacity:1;" d="M 28.5 18.75 C 28.5 19.164062 28.164062 19.5 27.75 19.5 C 27.335938 19.5 27 19.164062 27 18.75 C 27 18.335938 27.335938 18 27.75 18 C 28.164062 18 28.5 18.335938 28.5 18.75 Z M 28.5 18.75 "/>
<path style=" stroke:none;fill-rule:nonzero;fill:rgb(9.411765%,9.803922%,24.705882%);fill-opacity:1;" d="M 9 18.75 C 9 19.164062 8.664062 19.5 8.25 19.5 C 7.835938 19.5 7.5 19.164062 7.5 18.75 C 7.5 18.335938 7.835938 18 8.25 18 C 8.664062 18 9 18.335938 9 18.75 Z M 9 18.75 "/>
<path style=" stroke:none;fill-rule:nonzero;fill:rgb(9.411765%,9.803922%,24.705882%);fill-opacity:1;" d="M 28.5 25.5 C 28.5 25.914062 28.164062 26.25 27.75 26.25 C 27.335938 26.25 27 25.914062 27 25.5 C 27 25.085938 27.335938 24.75 27.75 24.75 C 28.164062 24.75 28.5 25.085938 28.5 25.5 Z M 28.5 25.5 "/>
<path style=" stroke:none;fill-rule:nonzero;fill:rgb(9.411765%,9.803922%,24.705882%);fill-opacity:1;" d="M 9 25.5 C 9 25.914062 8.664062 26.25 8.25 26.25 C 7.835938 26.25 7.5 25.914062 7.5 25.5 C 7.5 25.085938 7.835938 24.75 8.25 24.75 C 8.664062 24.75 9 25.085938 9 25.5 Z M 9 25.5 "/>
</g>
</svg>
