<?xml version="1.0" encoding="UTF-8"?>
<svg xmlns="http://www.w3.org/2000/svg" xmlns:xlink="http://www.w3.org/1999/xlink" width="36pt" height="36pt" viewBox="0 0 36 36" version="1.1">
<g id="surface23362">
<path style=" stroke:none;fill-rule:nonzero;fill:rgb(100%,67.058825%,56.862748%);fill-opacity:1;" d="M 30.75 12.871094 L 30.75 8.878906 C 30.75 8.117188 30.132812 7.5 29.371094 7.5 L 12.628906 7.5 C 11.867188 7.5 11.25 8.117188 11.25 8.878906 L 11.25 12.871094 C 11.25 13.632812 11.867188 14.25 12.628906 14.25 L 14.109375 14.25 C 12.53125 14.25 11.25 15.53125 11.25 17.109375 L 11.25 31.640625 C 11.25 33.21875 12.53125 34.5 14.109375 34.5 L 27.890625 34.5 C 29.46875 34.5 30.75 33.21875 30.75 31.640625 L 30.75 17.109375 C 30.75 15.53125 29.46875 14.25 27.890625 14.25 L 29.371094 14.25 C 30.132812 14.25 30.75 13.632812 30.75 12.871094 Z M 30.75 12.871094 "/>
<path style=" stroke:none;fill-rule:nonzero;fill:rgb(9.411765%,9.803922%,24.705882%);fill-opacity:1;" d="M 16.875 4.5 L 19.125 4.5 L 19.125 6.375 C 19.125 6.996094 18.621094 7.5 18 7.5 C 17.378906 7.5 16.875 6.996094 16.875 6.375 Z M 16.875 4.5 "/>
<path style="fill:none;stroke-width:3;stroke-linecap:round;stroke-linejoin:round;stroke:rgb(9.411765%,9.803922%,24.705882%);stroke-opacity:1;stroke-miterlimit:10;" d="M 37.453125 39.104167 C 37.166667 41.026042 35.505208 42.5 33.5 42.5 L 14.5 42.5 C 12.291667 42.5 10.5 40.708333 10.5 38.5 L 10.5 25.739583 " transform="matrix(0.75,0,0,0.75,0,0)"/>
<path style="fill:none;stroke-width:3;stroke-linecap:round;stroke-linejoin:round;stroke:rgb(9.411765%,9.803922%,24.705882%);stroke-opacity:1;stroke-miterlimit:10;" d="M 10.5 20.0625 L 10.5 18.5 C 10.5 16.291667 12.291667 14.5 14.5 14.5 L 33.5 14.5 C 35.708333 14.5 37.5 16.291667 37.5 18.5 L 37.5 31.609375 " transform="matrix(0.75,0,0,0.75,0,0)"/>
<path style="fill:none;stroke-width:3;stroke-linecap:round;stroke-linejoin:round;stroke:rgb(9.411765%,9.803922%,24.705882%);stroke-opacity:1;stroke-miterlimit:10;" d="M 23.979167 5.5 L 35.567708 5.5 C 36.635417 5.5 37.5 6.364583 37.5 7.432292 L 37.5 12.567708 C 37.5 13.635417 36.635417 14.5 35.567708 14.5 L 12.432292 14.5 C 11.364583 14.5 10.5 13.635417 10.5 12.567708 L 10.5 7.432292 C 10.5 6.364583 11.364583 5.5 12.432292 5.5 L 19.119792 5.5 " transform="matrix(0.75,0,0,0.75,0,0)"/>
<path style=" stroke:none;fill-rule:nonzero;fill:rgb(9.411765%,9.803922%,24.705882%);fill-opacity:1;" d="M 11.625 4.5 L 13.875 4.5 L 13.875 6.375 C 13.875 6.996094 13.371094 7.5 12.75 7.5 C 12.128906 7.5 11.625 6.996094 11.625 6.375 Z M 11.625 4.5 "/>
<path style=" stroke:none;fill-rule:nonzero;fill:rgb(9.411765%,9.803922%,24.705882%);fill-opacity:1;" d="M 22.125 4.5 L 24.375 4.5 L 24.375 6.375 C 24.375 6.996094 23.871094 7.5 23.25 7.5 C 22.628906 7.5 22.125 6.996094 22.125 6.375 Z M 22.125 4.5 "/>
<path style="fill:none;stroke-width:3;stroke-linecap:round;stroke-linejoin:round;stroke:rgb(9.411765%,9.803922%,24.705882%);stroke-opacity:1;stroke-miterlimit:4;" d="M 26.614583 25.338542 L 30.041667 21.911458 " transform="matrix(0.75,0,0,0.75,0,0)"/>
<path style="fill:none;stroke-width:3;stroke-linecap:round;stroke-linejoin:round;stroke:rgb(9.411765%,9.803922%,24.705882%);stroke-opacity:1;stroke-miterlimit:4;" d="M 26.901042 21.911458 C 26.901042 21.911458 28.901042 23.052083 26.619792 25.338542 " transform="matrix(0.75,0,0,0.75,0,0)"/>
<path style="fill:none;stroke-width:3;stroke-linecap:round;stroke-linejoin:round;stroke:rgb(9.411765%,9.803922%,24.705882%);stroke-opacity:1;stroke-miterlimit:4;" d="M 29.984375 24.96875 C 29.984375 24.96875 29.151042 22.796875 26.723958 25.223958 " transform="matrix(0.75,0,0,0.75,0,0)"/>
<path style="fill:none;stroke-width:3;stroke-linecap:round;stroke-linejoin:round;stroke:rgb(9.411765%,9.803922%,24.705882%);stroke-opacity:1;stroke-miterlimit:4;" d="M 17.958333 33.994792 C 17.59375 33.635417 19.369792 27.635417 21.140625 25.864583 C 22.3125 24.692708 24.369792 24.854167 25.734375 26.21875 C 27.104167 27.588542 27.260417 29.640625 26.088542 30.8125 C 25.520833 31.385417 24.333333 32.015625 23.036458 32.572917 " transform="matrix(0.75,0,0,0.75,0,0)"/>
</g>
</svg>
