<?xml version="1.0" encoding="UTF-8"?>
<svg xmlns="http://www.w3.org/2000/svg" xmlns:xlink="http://www.w3.org/1999/xlink" width="36pt" height="36pt" viewBox="0 0 36 36" version="1.1">
<g id="surface21736">
<path style=" stroke:none;fill-rule:nonzero;fill:rgb(100%,67.058825%,56.862748%);fill-opacity:1;" d="M 35.765625 14.46875 C 35.765625 23.207031 28.523438 30.253906 19.714844 29.941406 C 11.328125 29.644531 4.800781 22.492188 4.800781 14.097656 C 4.800781 13.355469 5.402344 12.75 6.148438 12.75 L 34.414062 12.75 C 35.160156 12.75 35.765625 13.355469 35.765625 14.097656 Z M 35.765625 14.46875 "/>
<path style="fill:none;stroke-width:3;stroke-linecap:round;stroke-linejoin:round;stroke:rgb(9.411765%,9.803922%,24.705882%);stroke-opacity:1;stroke-miterlimit:10;" d="M 15.119792 35.635417 C 7.161458 32.166667 1.598958 24.234375 1.598958 15 L 1.598958 14.494792 C 1.598958 13.390625 2.494792 12.5 3.59375 12.5 L 26.401042 12.5 " transform="matrix(0.75,0,0,0.75,0,0)"/>
<path style="fill:none;stroke-width:3;stroke-linecap:round;stroke-linejoin:round;stroke:rgb(9.411765%,9.803922%,24.705882%);stroke-opacity:1;stroke-miterlimit:10;" d="M 35.552083 12.5 L 44.505208 12.5 C 45.609375 12.5 46.5 13.390625 46.5 14.494792 C 46.5 26.677083 37.026042 37.03125 24.854167 37.484375 C 24.0625 37.510417 23.276042 37.5 22.505208 37.453125 " transform="matrix(0.75,0,0,0.75,0,0)"/>
<path style="fill:none;stroke-width:3;stroke-linecap:round;stroke-linejoin:round;stroke:rgb(9.411765%,9.803922%,24.705882%);stroke-opacity:1;stroke-miterlimit:10;" d="M 40.5 12.5 L 40.5 15 C 40.5 24.114583 33.114583 31.5 24 31.5 C 17.010417 31.5 11.03125 27.151042 8.630208 21.010417 " transform="matrix(0.75,0,0,0.75,0,0)"/>
<path style=" stroke:none;fill-rule:nonzero;fill:rgb(9.411765%,9.803922%,24.705882%);fill-opacity:1;" d="M 11.152344 14.082031 C 11.390625 13.765625 11.859375 13.765625 12.097656 14.082031 C 12.40625 14.496094 12.75 15.03125 12.75 15.375 C 12.75 15.996094 12.246094 16.5 11.625 16.5 C 11.003906 16.5 10.5 15.996094 10.5 15.375 C 10.5 15.03125 10.84375 14.496094 11.152344 14.082031 Z M 11.152344 14.082031 "/>
<path style=" stroke:none;fill-rule:nonzero;fill:rgb(9.411765%,9.803922%,24.705882%);fill-opacity:1;" d="M 17.527344 15.582031 C 17.765625 15.265625 18.234375 15.265625 18.472656 15.582031 C 18.78125 15.996094 19.125 16.53125 19.125 16.875 C 19.125 17.496094 18.621094 18 18 18 C 17.378906 18 16.875 17.496094 16.875 16.875 C 16.875 16.53125 17.21875 15.996094 17.527344 15.582031 Z M 17.527344 15.582031 "/>
<path style=" stroke:none;fill-rule:nonzero;fill:rgb(9.411765%,9.803922%,24.705882%);fill-opacity:1;" d="M 23.902344 14.082031 C 24.140625 13.765625 24.613281 13.765625 24.851562 14.082031 C 25.15625 14.496094 25.5 15.03125 25.5 15.375 C 25.5 15.996094 24.996094 16.5 24.375 16.5 C 23.753906 16.5 23.25 15.996094 23.25 15.375 C 23.25 15.03125 23.597656 14.496094 23.902344 14.082031 Z M 23.902344 14.082031 "/>
</g>
</svg>
