<?xml version="1.0" encoding="UTF-8"?>
<svg xmlns="http://www.w3.org/2000/svg" xmlns:xlink="http://www.w3.org/1999/xlink" width="36pt" height="36pt" viewBox="0 0 36 36" version="1.1">
<g id="surface17698">
<path style=" stroke:none;fill-rule:nonzero;fill:rgb(64.705884%,83.92157%,65.490198%);fill-opacity:1;" d="M 30.75 15.121094 L 30.75 7.78125 C 30.75 7.210938 30.289062 6.75 29.71875 6.75 L 26.53125 6.75 C 25.960938 6.75 25.5 7.210938 25.5 7.78125 L 25.5 15.121094 C 23.300781 16.058594 21.75 18.328125 21.75 20.980469 L 21.75 34.40625 C 21.75 35.285156 22.464844 36 23.34375 36 L 32.90625 36 C 33.785156 36 34.5 35.285156 34.5 34.40625 L 34.5 20.980469 C 34.5 18.328125 32.949219 16.058594 30.75 15.121094 Z M 30.75 15.121094 "/>
<path style="fill:none;stroke-width:3;stroke-linecap:round;stroke-linejoin:round;stroke:rgb(9.411765%,9.803922%,24.705882%);stroke-opacity:1;stroke-miterlimit:10;" d="M 34.848958 42.5 L 39.598958 42.5 C 40.708333 42.5 41.598958 41.604167 41.598958 40.5 L 41.598958 23.5 C 41.598958 20.140625 39.53125 17.276042 36.598958 16.088542 L 36.598958 5.5 L 30.598958 5.5 L 30.598958 16.088542 C 28.625 16.885417 27.041667 18.453125 26.21875 20.416667 " transform="matrix(0.75,0,0,0.75,0,0)"/>
<path style="fill:none;stroke-width:3;stroke-linecap:round;stroke-linejoin:round;stroke:rgb(9.411765%,9.803922%,24.705882%);stroke-opacity:1;stroke-miterlimit:10;" d="M 29.598958 5.5 L 37.598958 5.5 " transform="matrix(0.75,0,0,0.75,0,0)"/>
<path style="fill:none;stroke-width:3;stroke-linecap:round;stroke-linejoin:round;stroke:rgb(9.411765%,9.803922%,24.705882%);stroke-opacity:1;stroke-miterlimit:10;" d="M 27.651042 35.104167 C 27.833333 35.192708 28.010417 35.302083 28.1875 35.421875 C 29.994792 36.6875 30.4375 39.177083 29.171875 40.989583 C 27.90625 42.802083 25.411458 43.244792 23.604167 41.979167 C 23.40625 41.838542 23.229167 41.6875 23.0625 41.526042 " transform="matrix(0.75,0,0,0.75,0,0)"/>
<path style="fill:none;stroke-width:3;stroke-linecap:round;stroke-linejoin:round;stroke:rgb(9.411765%,9.803922%,24.705882%);stroke-opacity:1;stroke-miterlimit:10;" d="M 23.369792 40.489583 C 23.286458 40.661458 23.182292 40.833333 23.067708 40.994792 C 21.807292 42.807292 19.3125 43.25 17.5 41.984375 C 17.03125 41.651042 16.651042 41.239583 16.369792 40.78125 " transform="matrix(0.75,0,0,0.75,0,0)"/>
<path style="fill:none;stroke-width:3;stroke-linecap:round;stroke-linejoin:round;stroke:rgb(9.411765%,9.803922%,24.705882%);stroke-opacity:1;stroke-miterlimit:10;" d="M 25.161458 36.729167 C 23.979167 37.15625 22.614583 37.020833 21.510417 36.244792 C 21.083333 35.947917 20.729167 35.578125 20.458333 35.166667 " transform="matrix(0.75,0,0,0.75,0,0)"/>
<path style="fill:none;stroke-width:3;stroke-linecap:round;stroke-linejoin:round;stroke:rgb(9.411765%,9.803922%,24.705882%);stroke-opacity:1;stroke-miterlimit:10;" d="M 27.671875 31.958333 C 27.958333 33.052083 27.776042 34.260417 27.078125 35.260417 C 26.588542 35.963542 25.911458 36.458333 25.161458 36.729167 " transform="matrix(0.75,0,0,0.75,0,0)"/>
<path style="fill:none;stroke-width:3;stroke-linecap:round;stroke-linejoin:round;stroke:rgb(9.411765%,9.803922%,24.705882%);stroke-opacity:1;stroke-miterlimit:10;" d="M 17.411458 36.838542 C 17.526042 37.78125 17.307292 38.765625 16.71875 39.609375 C 15.453125 41.416667 12.958333 41.859375 11.151042 40.59375 C 9.973958 39.770833 9.375 38.432292 9.447917 37.09375 " transform="matrix(0.75,0,0,0.75,0,0)"/>
<path style="fill:none;stroke-width:3;stroke-linecap:round;stroke-linejoin:round;stroke:rgb(9.411765%,9.803922%,24.705882%);stroke-opacity:1;stroke-miterlimit:10;" d="M 16.421875 28.395833 C 16.166667 27.328125 16.359375 26.161458 17.036458 25.1875 C 18.302083 23.375 20.796875 22.9375 22.604167 24.203125 C 24.416667 25.46875 24.859375 27.958333 23.59375 29.770833 C 23.015625 30.598958 22.182292 31.135417 21.276042 31.364583 " transform="matrix(0.75,0,0,0.75,0,0)"/>
<path style="fill:none;stroke-width:3;stroke-linecap:round;stroke-linejoin:round;stroke:rgb(9.411765%,9.803922%,24.705882%);stroke-opacity:1;stroke-miterlimit:10;" d="M 20.880208 32.395833 C 20.880208 34.609375 19.088542 36.395833 16.880208 36.395833 C 14.666667 36.395833 12.880208 34.609375 12.880208 32.395833 C 12.880208 30.1875 14.666667 28.395833 16.880208 28.395833 C 19.088542 28.395833 20.880208 30.1875 20.880208 32.395833 Z M 20.880208 32.395833 " transform="matrix(0.75,0,0,0.75,0,0)"/>
<path style="fill-rule:nonzero;fill:rgb(100%,100%,100%);fill-opacity:1;stroke-width:3;stroke-linecap:round;stroke-linejoin:round;stroke:rgb(9.411765%,9.803922%,24.705882%);stroke-opacity:1;stroke-miterlimit:10;" d="M 13.630208 30.067708 C 11.40625 28.171875 10.234375 25.5 10.317708 22.9375 " transform="matrix(0.75,0,0,0.75,0,0)"/>
<path style="fill-rule:nonzero;fill:rgb(100%,100%,100%);fill-opacity:1;stroke-width:3;stroke-linecap:round;stroke-linejoin:round;stroke:rgb(9.411765%,9.803922%,24.705882%);stroke-opacity:1;stroke-miterlimit:10;" d="M 10.932292 27.15625 C 9.083333 27.151042 7.416667 27.947917 6.401042 29.213542 " transform="matrix(0.75,0,0,0.75,0,0)"/>
</g>
</svg>
