<?xml version="1.0" encoding="UTF-8"?>
<svg xmlns="http://www.w3.org/2000/svg" xmlns:xlink="http://www.w3.org/1999/xlink" width="36pt" height="36pt" viewBox="0 0 36 36" version="1.1">
<g id="surface20072">
<path style=" stroke:none;fill-rule:nonzero;fill:rgb(100%,87.843138%,50.980395%);fill-opacity:1;" d="M 31.125 16.960938 C 31.066406 16.199219 30.984375 15.738281 30.773438 15.019531 L 30.660156 14.769531 C 30.351562 14.183594 29.921875 13.671875 29.398438 13.273438 C 29.398438 13.257812 29.402344 13.238281 29.402344 13.21875 C 29.402344 10.757812 27.40625 8.761719 24.945312 8.761719 C 24.800781 8.761719 24.660156 8.769531 24.519531 8.785156 C 23.707031 7.738281 22.4375 7.0625 21.007812 7.0625 C 19.582031 7.0625 18.3125 7.738281 17.496094 8.785156 C 17.355469 8.769531 17.214844 8.761719 17.074219 8.761719 C 14.613281 8.761719 12.617188 10.757812 12.617188 13.21875 C 12.617188 13.238281 12.617188 13.257812 12.621094 13.273438 C 11.746094 13.9375 10.992188 16.0625 10.992188 16.0625 C 10.910156 16.429688 10.828125 17.207031 10.90625 18.296875 C 10.988281 19.410156 11.210938 20.507812 11.566406 21.566406 L 15.441406 33.140625 C 15.851562 34.363281 17 35.1875 18.289062 35.1875 L 24.367188 35.1875 C 24.371094 35.1875 24.371094 35.1875 24.371094 35.1875 C 24.375 35.1875 24.378906 35.1875 24.378906 35.1875 C 25.714844 35.183594 26.882812 34.296875 27.253906 33.015625 L 30.621094 21.257812 C 31.019531 19.863281 31.234375 18.410156 31.125 16.960938 Z M 31.125 16.960938 "/>
<path style="fill:none;stroke-width:2.8204;stroke-linecap:round;stroke-linejoin:round;stroke:rgb(9.411765%,9.803922%,24.705882%);stroke-opacity:1;stroke-miterlimit:10;" d="M 36.265625 25.885417 L 36.822917 23.927083 C 37.359375 22.067708 37.645833 20.130208 37.5 18.197917 C 37.421875 17.182292 37.244792 16.182292 36.96875 15.223958 L 36.505208 15.5 C 36.505208 15.5 32.59375 18.854167 27.276042 20.546875 C 23.744792 21.671875 21.354167 24.96875 21.192708 28.671875 L 20.911458 33.109375 C 20.692708 38.229167 23.380208 42.5 28.505208 42.5 " transform="matrix(0.75,0,0,0.75,0,0)"/>
<path style="fill:none;stroke-width:2.8204;stroke-linecap:round;stroke-linejoin:round;stroke:rgb(9.411765%,9.803922%,24.705882%);stroke-opacity:1;stroke-miterlimit:10;" d="M 13.953125 31.901042 L 16.588542 39.770833 C 17.135417 41.401042 18.661458 42.5 20.380208 42.5 L 28.489583 42.5 C 30.276042 42.5 31.84375 41.317708 32.333333 39.604167 L 34.057292 33.583333 " transform="matrix(0.75,0,0,0.75,0,0)"/>
<path style="fill:none;stroke-width:2.8204;stroke-linecap:round;stroke-linejoin:round;stroke:rgb(9.411765%,9.803922%,24.705882%);stroke-opacity:1;stroke-miterlimit:10;" d="M 22.505208 23.5 C 21.005208 19 11.005208 17 11.005208 17 C 11.005208 17 10.651042 17 10.651042 17 C 10.401042 17 10.4375 18.526042 10.541667 19.979167 C 10.645833 21.463542 10.947917 22.927083 11.416667 24.338542 L 12.010417 26.114583 " transform="matrix(0.75,0,0,0.75,0,0)"/>
<path style="fill:none;stroke-width:2.8204;stroke-linecap:round;stroke-linejoin:round;stroke:rgb(9.411765%,9.803922%,24.705882%);stroke-opacity:1;stroke-miterlimit:10;" d="M 14.989583 9.005208 C 13.90625 10.041667 13.234375 11.505208 13.234375 13.125 C 13.234375 13.151042 13.239583 13.171875 13.239583 13.197917 C 12.114583 14.046875 11.3125 15.296875 11.057292 16.739583 " transform="matrix(0.75,0,0,0.75,0,0)"/>
<path style="fill:none;stroke-width:2.8204;stroke-linecap:round;stroke-linejoin:round;stroke:rgb(9.411765%,9.803922%,24.705882%);stroke-opacity:1;stroke-miterlimit:10;" d="M 36.442708 15.223958 C 36.046875 14.421875 35.46875 13.729167 34.760417 13.197917 C 34.760417 13.171875 34.765625 13.151042 34.765625 13.125 C 34.765625 9.96875 32.208333 7.40625 29.046875 7.40625 C 28.864583 7.40625 28.6875 7.416667 28.510417 7.432292 C 27.458333 6.09375 25.833333 5.229167 24 5.229167 C 22.166667 5.229167 20.541667 6.09375 19.494792 7.432292 " transform="matrix(0.75,0,0,0.75,0,0)"/>
<path style="fill:none;stroke-width:2.8204;stroke-linecap:round;stroke-linejoin:round;stroke:rgb(9.411765%,9.803922%,24.705882%);stroke-opacity:1;stroke-miterlimit:10;" d="M 15.432292 17.515625 C 16.401042 15.96875 18.119792 14.942708 20.078125 14.942708 C 23.104167 14.942708 25.557292 17.395833 25.557292 20.421875 C 25.557292 20.546875 25.552083 20.671875 25.541667 20.796875 " transform="matrix(0.75,0,0,0.75,0,0)"/>
<path style="fill:none;stroke-width:2.8204;stroke-linecap:round;stroke-linejoin:round;stroke:rgb(9.411765%,9.803922%,24.705882%);stroke-opacity:1;stroke-miterlimit:10;" d="M 23.75 15.734375 C 24.6875 14.984375 25.875 14.536458 27.166667 14.536458 C 29.4375 14.536458 31.380208 15.916667 32.213542 17.880208 " transform="matrix(0.75,0,0,0.75,0,0)"/>
</g>
</svg>
