<?xml version="1.0" encoding="UTF-8"?>
<svg xmlns="http://www.w3.org/2000/svg" xmlns:xlink="http://www.w3.org/1999/xlink" width="36pt" height="36pt" viewBox="0 0 36 36" version="1.1">
<g id="surface26172">
<path style=" stroke:none;fill-rule:nonzero;fill:rgb(64.705884%,83.92157%,65.490198%);fill-opacity:1;" d="M 34.089844 8.292969 L 32.339844 7.621094 C 31.949219 7.46875 31.507812 7.609375 31.273438 7.957031 C 30.039062 9.78125 28.605469 11.683594 26.390625 12.648438 L 26.367188 12.632812 C 26.332031 12.65625 26.292969 12.6875 26.253906 12.714844 C 26.242188 12.71875 26.234375 12.722656 26.222656 12.730469 C 26.222656 12.730469 26.222656 12.730469 26.222656 12.734375 C 24.835938 13.652344 23.441406 15.359375 22.050781 16.75 C 20.746094 18.054688 19.417969 19.285156 17.835938 20.246094 C 16.34375 21.148438 14.738281 21.839844 13.128906 22.503906 C 11.183594 23.304688 9.140625 24.257812 7.761719 25.90625 C 6.378906 27.554688 6.433594 30.097656 7.355469 31.945312 C 8.480469 34.195312 10.699219 35.363281 13.15625 35.449219 C 16.601562 35.566406 20.566406 33.886719 22.992188 32.042969 C 25.371094 30.238281 27.308594 27.890625 28.792969 25.308594 C 30.371094 22.5625 31.855469 19.375 32.058594 16.152344 C 32.058594 16.152344 32.0625 15.976562 32.082031 15.839844 C 32.511719 13.839844 33.210938 11.609375 34.519531 9.609375 C 34.832031 9.136719 34.621094 8.496094 34.089844 8.292969 Z M 34.089844 8.292969 "/>
<path style="fill:none;stroke-width:3;stroke-linecap:round;stroke-linejoin:round;stroke:rgb(9.411765%,9.803922%,24.705882%);stroke-opacity:1;stroke-miterlimit:10;" d="M 20.427083 22.546875 C 22.375 21.317708 24.03125 19.770833 25.661458 18.145833 C 27.552083 16.255208 29.4375 13.916667 31.328125 12.739583 " transform="matrix(0.75,0,0,0.75,0,0)"/>
<path style="fill:none;stroke-width:3;stroke-linecap:round;stroke-linejoin:round;stroke:rgb(9.411765%,9.803922%,24.705882%);stroke-opacity:1;stroke-miterlimit:10;" d="M 34.984375 28.541667 C 34.828125 28.828125 34.666667 29.104167 34.510417 29.380208 C 32.5625 32.765625 30.020833 35.854167 26.895833 38.223958 C 23.713542 40.640625 18.505208 42.848958 13.984375 42.692708 C 10.760417 42.578125 7.84375 41.046875 6.369792 38.088542 C 5.15625 35.666667 5.083333 32.328125 6.901042 30.166667 C 8.338542 28.447917 10.328125 27.307292 12.359375 26.380208 " transform="matrix(0.75,0,0,0.75,0,0)"/>
<path style="fill:none;stroke-width:3;stroke-linecap:round;stroke-linejoin:round;stroke:rgb(9.411765%,9.803922%,24.705882%);stroke-opacity:1;stroke-miterlimit:10;" d="M 38.796875 17.359375 C 38.708333 18.807292 38.416667 20.25 37.994792 21.666667 " transform="matrix(0.75,0,0,0.75,0,0)"/>
<path style="fill:none;stroke-width:3;stroke-linecap:round;stroke-linejoin:round;stroke:rgb(9.411765%,9.803922%,24.705882%);stroke-opacity:1;stroke-miterlimit:10;" d="M 31.135417 12.864583 C 34.177083 11.630208 36.104167 9.0625 37.770833 6.598958 C 38.078125 6.145833 38.65625 5.963542 39.166667 6.161458 L 41.46875 7.041667 C 42.161458 7.307292 42.4375 8.151042 42.03125 8.770833 C 40.3125 11.395833 39.395833 14.322917 38.828125 16.953125 C 35.119792 16.973958 32.625 15.53125 31.135417 12.864583 Z M 31.135417 12.864583 " transform="matrix(0.75,0,0,0.75,0,0)"/>
</g>
</svg>
